<?xml version="1.0" encoding="utf-8"?>
<!-- Generator: Adobe Illustrator 28.1.0, SVG Export Plug-In . SVG Version: 6.00 Build 0)  -->
<svg version="1.1" id="Layer_2_00000168812582402984552350000005909834527639658628_"
	 xmlns="http://www.w3.org/2000/svg" xmlns:xlink="http://www.w3.org/1999/xlink" x="0px" y="0px" viewBox="0 0 756 274.6"
	 style="enable-background:new 0 0 756 274.6;" xml:space="preserve">
<style type="text/css">
	.st0{fill:#2A2B28;}
	.st1{fill:#e64d3d;}
	.st2{fill:#be3628;}
</style>
<g id="Layer_2-2">
	<g>
		<path class="st0" d="M135.5,120.8c0,33.2,0,66.4,0,99.7c0,1.6-0.5,2.8-2,3.6c-0.5,0.2-1,0.3-1.6,0.3c-7.2,0-14.4,0.1-21.6,0
			c-3.6,0-7.2-0.8-10.2-2.9c-3.3-2.2-5.7-5-7-8.8c-0.8-2.3-1.1-4.6-1.1-7c0-20.8,0-41.6,0-62.4c0-0.2,0-0.5,0-0.7
			c0-1.1-0.1-1.1-1.2-1.1c-0.2,0-0.5,0-0.7,0c-14.8,0-29.6,0-44.5,0c-2,0-1.9-0.1-1.9,1.9c0,25.7,0,51.3,0,77c0,0.6,0.1,1.3-0.1,1.9
			c-0.5,1.3-1.5,2-2.9,2.2c-0.4,0.1-0.8,0-1.2,0c-6.5,0-13,0-19.4,0c-2.4,0-4.7-0.2-6.9-0.7c-2.1-0.5-4.1-1.5-5.8-2.9
			c-2.4-1.9-4.3-4.1-5.5-6.9c-1-2.3-1.5-4.8-1.7-7.3c0-0.4,0-0.8,0-1.2C0,148.9,0,92.4,0,36c0-3.9,0.8-7.5,3-10.8
			c2.1-3.2,5-5.6,8.7-6.9c2.6-0.9,5.3-1.2,8-1.2c6.7,0,13.4,0,20,0c0.8,0,1.7,0.1,2.4,0.6c0.9,0.6,1.5,1.5,1.5,2.7c0,0.3,0,0.7,0,1
			c0,24.8,0,49.7,0,74.5c0,0.2,0,0.3,0,0.4c0,1.4,0,1.4,1.5,1.4c9,0,18,0,27,0c5.9,0,11.9,0,17.8,0c2,0,1.9,0.1,1.9-1.9
			c0-20.1,0-40.2,0-60.3c0-3.6,0.8-7,2.7-10.1c2.2-3.4,5.1-5.8,8.9-7.1c2.5-0.9,5-1.2,7.6-1.2c6.8,0,13.7,0,20.5,0
			c0.9,0,1.7,0.1,2.4,0.6c0.9,0.6,1.4,1.4,1.4,2.6c0,0.3,0,0.7,0,1C135.5,54.4,135.5,87.6,135.5,120.8L135.5,120.8z"/>
		<path class="st0" d="M737.3,224.2c-5.6,0-11.2-0.1-16.8,0c-1.6,0-2.7-0.5-3.5-1.9c-0.8-1.4-2.1-2.3-3.2-3.4
			c-0.6-0.6-1.3-0.1-1.9,0.1c-1.7,0.7-3.4,1.3-5.2,1.9c-4.1,1.3-8.3,2.2-12.6,2.7c-3.8,0.5-7.7,0.7-11.5,0.5
			c-2.8-0.2-5.6-0.5-8.4-0.9c-3-0.5-5.9-1.2-8.8-2c-2.2-0.6-4.4-1.5-6.6-2.4c-4.4-1.8-8.5-4.1-12.4-6.7c-2.8-1.9-5.5-4-8-6.3
			c-5-4.5-9.2-9.6-12.7-15.4c-2.2-3.7-4.1-7.6-5.7-11.6c-1.1-2.8-1.9-5.6-2.6-8.5c-0.8-3.5-1.5-7.1-1.7-10.8
			c-0.2-2.2-0.4-4.5-0.3-6.7c0.2-4,0.5-8.1,1.3-12c1.1-5.4,2.7-10.6,5-15.6c2.2-4.8,4.8-9.2,7.9-13.4c3.6-4.8,7.8-9.1,12.5-12.8
			c4.2-3.3,8.7-6.2,13.6-8.5c3.4-1.6,6.9-3,10.6-4c1.9-0.5,3.8-1.1,5.8-1.4c1.8-0.3,3.5-0.8,5.3-0.8c1.7-0.1,3.3-0.4,4.9-0.5
			c3.7-0.2,7.4,0,11.1,0.4c3.5,0.4,6.9,1,10.3,1.9c3.5,0.9,6.9,2.2,10.3,3.6c4.8,2.1,9.2,4.7,13.3,7.8c3.9,2.9,7.5,6.2,10.8,9.8
			c3.1,3.5,5.9,7.3,8.2,11.3c2.8,4.7,5,9.8,6.6,15c1.4,4.7,2.3,9.5,2.7,14.4c0.3,3.2,0.5,6.4,0.3,9.6c-0.1,0.9,0.2,1.8,0.2,2.8
			c0,20.7,0,41.4,0,62.1c0,0.3,0,0.6,0,0.9c0,0.6-0.3,0.8-0.9,0.8C749.2,224.3,743.2,224.3,737.3,224.2L737.3,224.2L737.3,224.2z
			 M658.9,153.5c-0.8,13.6,10.9,28.3,28.8,27.2c12.3-0.8,25.6-11.3,24.7-28.6c-0.6-12.1-10.9-25.9-29-24.9
			C670.4,128,658.7,139.5,658.9,153.5L658.9,153.5z"/>
		<path class="st0" d="M214.7,224.2c-40-0.4-70.6-32.6-70.1-71c0.5-39.3,32.4-69.9,71.1-69.3c39.3,0.6,69.6,32.3,69.3,70.6
			C284.7,194.4,252.5,224.1,214.7,224.2L214.7,224.2z M188.1,154c-0.6,13.3,11,27.8,28.9,26.8c12.1-0.7,25.5-11.2,24.6-28.5
			c-0.5-11.3-10.1-25.9-28.9-25C200.2,127.9,187.7,139.1,188.1,154L188.1,154z"/>
		<path class="st1" d="M294.8,274.5c0-1.8,0-3.6,0-5.4c0-4.4,0.1-8.9,0.1-13.3c0-14.6,0-29.2,0-43.8c0-7.2,0-14.4,0-21.6
			c0-7.4,0-14.7,0-22c0-5.7-0.1-11.5,0-17.2c0-2.1,0.2-4.2,0.5-6.4c0.3-2.3,0.6-4.6,1.1-6.9c0.8-3.6,2-7.1,3.3-10.5
			c2-5.2,4.5-10,7.7-14.5c2.4-3.2,4.9-6.4,7.8-9.2c2.2-2.2,4.5-4.1,6.9-6c3.1-2.5,6.5-4.6,10-6.4c1.2-0.7,2.5-1.4,3.7-1.9
			c1.9-0.8,3.8-1.6,5.8-2.3c2.2-0.7,4.3-1.4,6.5-2c2.7-0.7,5.4-1.1,8.1-1.4c4.1-0.5,8.1-0.8,12.2-0.5c3.1,0.2,6.3,0.4,9.4,1.2
			c1.4,0.3,2.9,0.6,4.4,0.9c1.9,0.3,3.7,1.1,5.6,1.7c4.3,1.4,8.3,3.3,12.2,5.5c2.1,1.2,4.1,2.6,6.1,4c2.6,1.8,5,3.9,7.3,6
			c4,3.8,7.6,8.1,10.6,12.8c2.3,3.5,4.3,7.3,5.9,11.2c1.3,3.1,2.4,6.2,3.1,9.5c0.5,2.2,1.1,4.4,1.4,6.7c0.6,3.7,1.1,7.5,0.8,11.3
			c-0.2,1.7,0.2,3.5,0,5.2c-0.6,5-1.3,9.9-2.9,14.7c-1.7,5.2-3.8,10.3-6.7,15c-1.2,2.1-2.5,4.2-3.9,6.1c-1.4,1.9-3,3.5-4.5,5.4
			c-1.5,1.8-3.4,3.2-4.9,5c-0.4,0.4-0.9,0.7-1.4,1.1c-2.7,2.1-5.4,4.3-8.3,6.1c-2.7,1.7-5.5,3-8.2,4.7c-3.2,2-6.5,3.7-9.7,5.6
			c-2.2,1.4-4.6,2.4-6.8,3.9c-1.7,1.1-3.6,1.9-5.3,3.1c-1.7,1.2-3.6,2.1-5.4,3.1c-2.6,1.5-5.1,3-7.7,4.4c-2.7,1.5-5.4,3.1-8.1,4.7
			c-2.3,1.3-4.5,2.6-6.8,3.9c-2.1,1.2-4.3,2.5-6.5,3.7c-2.4,1.3-4.8,2.7-7.2,4.1c-1.9,1.1-3.9,2.2-5.8,3.3c-2.9,1.7-5.7,3.5-8.7,5.1
			c-2.7,1.5-5.2,3.2-7.9,4.6c-1.4,0.7-2.6,1.6-4,2.4c-3,1.7-5.9,3.5-8.9,5.2C295.8,274.5,295.5,274.7,294.8,274.5L294.8,274.5z
			 M361.4,109.3c-8.5,0.2-19,4.4-27.7,13.1c-8.7,8.8-12.8,19.5-12.7,31.8c0,5.7,1.3,11.3,3.6,16.6c2.4,5.5,5.7,10.4,10.1,14.4
			c5.8,5.4,12.6,9.1,20.3,11c3.4,0.9,7,1.3,10.5,1.2c11.6-0.3,21.9-4.2,30.4-12.4c9.5-9.1,14-20.4,13.5-33.5
			C408.3,128.7,389.8,109.3,361.4,109.3L361.4,109.3z"/>
		<path class="st1" d="M442.3,133.2c-0.8-0.9-0.8-2.1-1.1-3.2c-0.7-2.4-1.5-4.8-2.5-7.2c-1.3-3.1-2.7-6.2-4.4-9.1
			c-1.3-2.2-2.5-4.4-4.1-6.4c-0.6-0.7-0.6-1.1,0.1-1.8c2-2.1,4-4.3,6.4-6c1.2-0.9,2.2-1.9,3.4-2.8c2.4-1.8,5-3.3,7.6-4.9
			c1.1-0.7,2.4-1.1,3.5-1.8c1.5-0.9,3.1-1.5,4.7-2.1c2.5-1,5-1.8,7.6-2.5c2.5-0.7,5.1-1.3,7.6-1.6c2.4-0.3,4.7-0.7,7.1-0.8
			c2.1-0.1,4.3-0.3,6.4-0.1c3.5,0.2,7.1,0.4,10.5,1.3c1.4,0.3,2.9,0.7,4.4,0.9c1.9,0.3,3.7,1.2,5.6,1.7c4.1,1.3,8,3.3,11.8,5.2
			c2.2,1.2,4.3,2.7,6.3,4.2c2.6,1.8,5,3.9,7.3,6c2.9,2.8,5.6,5.8,8,9c3.2,4.3,5.9,9,8,13.9c1.3,3.1,2.5,6.2,3.4,9.4
			c0.8,3.1,1.6,6.2,1.8,9.4c0.1,1.1,0.4,2.1,0.5,3.2c0.3,2.7,0,5.4,0.2,8.1c0.2,4.2-0.7,8.2-1.4,12.3c-0.4,2.4-1,4.8-2,7
			c-0.3,0.7-0.5,1.4-0.7,2.1c-1.8,5.8-4.8,10.9-8,16c-1.7,2.7-3.8,5-5.8,7.4c-1.5,1.8-3.5,3.3-5,5.1c-0.3,0.4-0.8,0.6-1.2,1
			c-2.7,2.1-5.4,4.3-8.4,6.2c-1.6,1.1-3.4,1.9-5,2.9c-3.3,1.9-6.5,3.8-9.8,5.7c-3.3,1.8-6.5,3.8-9.8,5.7c-1.7,1-3.5,1.9-5.1,3
			c-2.9,1.8-5.9,3.4-8.8,5.1c-1.1,0.6-2.1,1.2-3.1,1.9c-2.7,1.6-5.4,3.2-8.1,4.8c-2.7,1.6-5.3,3.1-8,4.6c-2.3,1.3-4.6,2.6-7,3.9
			c-2.3,1.3-4.5,2.6-6.8,3.9c-1.5,0.9-3,1.7-4.5,2.6c-3.2,1.9-6.4,3.8-9.7,5.6c-2.7,1.5-5.2,3.2-8,4.6c-1.4,0.7-2.6,1.6-4,2.4
			c-2.9,1.7-5.8,3.4-8.8,5.1c-1.1,0.6-1.3,0.5-1.3-0.8c0-8.7,0-17.4,0-26.1c0-9.3,0-18.6,0-27.9c0-1.1,0.3-1.9,1.3-2.5
			c1-0.7,2-1.4,2.8-2.3c0.5-0.6,1.3-1,2-1.5c0.8-0.5,1.5-1.1,2.1-1.7c1.9-2.1,3.8-4.1,5.7-6.2c1.3-1.5,2.4-3.1,3.6-4.6
			c2.1-2.5,3.5-5.5,5.3-8.2c0.8-1.3,1.7-2.7,2.3-4.2c1-2.4,2.4-4.8,2.9-7.4c0.3-1.4,1.1-2.6,1.5-3.9c0.2-0.8,0.2-1.6,0.6-2.4
			c0.2-0.5,0.2-1,0.5-1.5c0.8,0.8,1.2,1.9,1.7,2.8c1.3,2.5,3,4.7,4.9,6.8c1.6,1.8,3.2,3.6,5.2,5c2.2,1.5,4.2,3.2,6.6,4.4
			c1.6,0.8,3.3,1.6,5,2.3c1.6,0.7,3.2,1.5,4.9,1.5c0.2,0,0.5,0.1,0.7,0.2c0.6,0.4,1.3,0.4,1.9,0.6c2.8,0.6,5.7,0.6,8.6,0.9
			c0.2,0,0.5,0,0.7,0c0.9-0.4,1.8-0.2,2.8-0.2c1.4,0,2.8-0.3,4.2-0.5c2.8-0.4,5.4-1.3,8-2.2c1.7-0.6,3.3-1.4,4.9-2.2
			c1.5-0.8,3-1.8,4.5-2.7c2-1.1,3.6-2.8,5.3-4.3c1.8-1.6,3.4-3.5,4.9-5.4c2-2.5,3.7-5.2,5-8.2c1-2.4,1.8-4.8,2.5-7.3
			c0.9-2.9,1.3-6,1.4-9c0.1-2.9-0.1-5.8-0.5-8.7c-0.6-4.1-1.7-8-3.5-11.7c-1.6-3.6-3.5-7-6.1-10c-1.9-2.2-3.8-4.3-6-6.1
			c-3-2.4-6.2-4.4-9.7-6c-2-0.9-4-1.5-6.1-2.1c-1-0.3-2-0.4-3-0.7c-2.3-0.7-4.6-1-7-1c-3-0.1-6,0-9,0.5c-2.8,0.4-5.6,1.2-8.2,2.1
			c-3.7,1.3-7.1,3.1-10.3,5.4c-0.6,0.4-1.2,0.5-1.7,1.1c-2,2-4.1,3.8-6,5.9c-2.2,2.6-4.3,5.3-5.9,8.3
			C442.9,132.9,442.8,133.3,442.3,133.2L442.3,133.2z"/>
		<path class="st0" d="M605.1,116.5c0,34.6,0,69.1,0,103.7c0,0.7,0.1,1.5-0.2,2.1c-0.8,1.4-1.9,2-3.5,2c-6.7,0-13.5,0-20.2,0
			c-1.2,0-2.4,0-3.6-0.2c-6.8-0.8-11.8-4.4-14.6-10.6c-0.9-2.1-1.4-4.3-1.4-6.6c0-16.4,0-32.7,0-49.1c0-1.8,0.1-3.5,0.2-5.2
			c0.1-1.1-0.2-2.3-0.2-3.5c0-43.7,0-87.5,0-131.2c0-6,2.5-10.9,7.5-14.4c1.8-1.3,3.9-2.1,6.1-2.7c2.2-0.6,4.3-0.6,6.5-0.6
			c3.9,0,7.8-0.1,11.7,0c5.3,0.2,9.8,3.4,11.2,8.6c0.4,1.4,0.6,2.8,0.6,4.3C605.1,47.5,605.1,82,605.1,116.5L605.1,116.5z"/>
		<path class="st2" d="M442.3,133.2c0.5,0,0.6-0.4,0.8-0.7c1.6-3,3.7-5.7,5.9-8.3c1.9-2.2,4-3.9,6-5.9c0.5-0.5,1.2-0.7,1.7-1.1
			c3.2-2.2,6.6-4.1,10.3-5.4c2.7-0.9,5.4-1.7,8.2-2.1c3-0.4,6-0.5,9-0.5c2.4,0,4.7,0.3,7,1c1,0.3,2,0.4,3,0.7
			c2.1,0.6,4.1,1.2,6.1,2.1c3.5,1.6,6.8,3.6,9.7,6c2.2,1.8,4.2,3.9,6,6.1c2.6,3,4.5,6.4,6.1,10c1.7,3.7,2.9,7.6,3.5,11.7
			c0.4,2.9,0.6,5.8,0.5,8.7c-0.1,3-0.5,6.1-1.4,9c-0.8,2.5-1.5,4.9-2.5,7.3c-1.3,2.9-3,5.6-5,8.2c-1.5,1.9-3,3.8-4.9,5.4
			c-1.7,1.5-3.3,3.1-5.3,4.3c-1.5,0.8-2.9,1.9-4.5,2.7c-1.6,0.8-3.2,1.6-4.9,2.2c-2.6,0.9-5.2,1.9-8,2.2c-1.4,0.2-2.8,0.5-4.2,0.5
			c-0.9,0-1.9-0.1-2.8,0.2c-0.2,0.1-0.5,0.1-0.7,0c-2.9-0.3-5.8-0.3-8.6-0.9c-0.6-0.1-1.4-0.2-1.9-0.6c-0.2-0.1-0.4-0.2-0.7-0.2
			c-1.8-0.1-3.3-0.9-4.9-1.5c-1.7-0.7-3.4-1.5-5-2.3c-2.4-1.2-4.5-2.9-6.6-4.4c-2-1.4-3.6-3.2-5.2-5c-1.9-2.1-3.6-4.3-4.9-6.8
			c-0.5-0.9-0.9-2-1.7-2.8c-0.2-0.8,0.3-1.4,0.4-2.1c0.8-3.3,1-6.6,1.6-9.9c0.4-1.9,0.1-3.9,0.2-5.8c0.1-2.9,0-5.8-0.3-8.7
			c-0.3-2.8-0.7-5.6-1.3-8.3C442.8,136.5,442.2,134.9,442.3,133.2L442.3,133.2z M482.7,180c4.8,0,8.8-1.4,12.6-3.4
			c1.6-0.8,2.9-1.9,4.2-3.1c2.1-1.7,3.9-3.7,5.2-6c1.8-3,3-6.2,3.7-9.8c0.6-3.4,0.5-6.8-0.2-10.1c-0.4-2.3-1.2-4.6-2.4-6.6
			c-2.5-4.5-5.8-8.3-10.5-10.9c-2.2-1.2-4.5-2.3-7-2.8c-1.7-0.3-3.4-0.7-5.2-0.7c-1.1,0-2.2,0.1-3.3,0.1c-2.3,0-4.6,0.6-6.7,1.3
			c-3.4,1.2-6.5,3-9.2,5.5c-3.3,3-5.6,6.5-7.1,10.7c-0.9,2.6-1.4,5.2-1.5,8c-0.2,3.2,0.5,6.4,1.3,9.4c0.4,1.6,1.3,3,2,4.5
			c1.1,2.4,2.8,4.3,4.6,6.1c1.3,1.3,2.8,2.5,4.4,3.6c2.2,1.5,4.5,2.4,7,3.1C477.3,179.8,480.2,180.2,482.7,180L482.7,180z"/>
		<path class="st2" d="M361.4,109.3c28.4,0,47,19.4,47.8,42.4c0.5,13.1-4,24.4-13.5,33.5c-8.5,8.1-18.8,12-30.4,12.4
			c-3.5,0.1-7-0.4-10.5-1.2c-7.7-1.9-14.5-5.6-20.3-11c-4.4-4-7.7-9-10.1-14.4c-2.3-5.3-3.6-10.9-3.6-16.6c0-12.2,4-23,12.7-31.8
			C342.3,113.7,352.9,109.5,361.4,109.3L361.4,109.3z M366,179.9c15-0.6,26.2-12.4,25.9-27.3c-0.4-14-11.8-27.5-29.7-25.8
			c-12.8,1.2-23.9,11.8-23.7,26.7C338.6,168.6,350.9,180.4,366,179.9L366,179.9z"/>
	</g>
</g>
</svg>
