<?xml version="1.0" encoding="utf-8"?>
<svg viewBox="0 0 5320 2352" xmlns="http://www.w3.org/2000/svg">
  <g transform="matrix(0.10000000149011613, 0, 0, -0.10000000149011613, 0, 2352)" fill="#000000" stroke="none">
    <path d="M40294 21290 c-72 -8 -110 -17 -199 -51 -28 -10 -57 -19 -66 -19 -28 0 -174 -77 -187 -99 -7 -12 -22 -21 -35 -21 -34 0 -327 -292 -327 -326 0 -14 -10 -30 -25 -40 -26 -17 -95 -151 -95 -185 0 -11 -9 -37 -20 -59 -11 -22 -20 -47 -20 -57 0 -10 -8 -38 -18 -63 -16 -43 -17 -408 -17 -6715 0 -6331 1 -6672 18 -6709 9 -21 17 -47 17 -58 0 -10 9 -36 20 -58 11 -22 20 -48 20 -59 0 -34 69 -168 95 -185 15 -10 25 -26 25 -40 0 -34 293 -326 327 -326 13 0 28 -9 35 -21 13 -22 159 -99 187 -99 9 0 38 -9 66 -19 94 -35 127 -43 224 -52 53 -4 467 -8 921 -8 783 -1 827 0 866 18 23 10 52 34 65 52 l24 34 0 7270 c0 7031 -1 7272 -18 7337 -11 37 -27 74 -38 84 -10 9 -19 27 -19 39 0 12 -9 30 -20 40 -11 10 -20 28 -20 41 0 31 -213 244 -245 244 -12 0 -30 9 -40 20 -10 11 -23 20 -30 20 -6 0 -38 13 -71 29 -40 20 -86 33 -144 40 -96 12 -1143 13 -1256 1z" style="fill: rgb(234, 77, 64);"/>
    <path d="M1894 20130 c-72 -8 -110 -17 -199 -51 -28 -10 -57 -19 -66 -19 -28 0 -174 -77 -187 -99 -7 -12 -22 -21 -35 -21 -34 0 -327 -292 -327 -326 0 -14 -10 -30 -25 -40 -26 -17 -95 -151 -95 -185 0 -11 -9 -37 -20 -59 -11 -22 -20 -47 -20 -57 0 -10 -8 -38 -18 -63 -16 -43 -17 -378 -17 -6135 0 -5779 1 -6092 18 -6129 9 -21 17 -47 17 -58 0 -10 9 -36 20 -58 11 -22 20 -48 20 -59 0 -34 69 -168 95 -185 15 -10 25 -26 25 -40 0 -34 293 -326 327 -326 13 0 28 -9 35 -21 13 -22 159 -99 187 -99 9 0 38 -9 66 -19 94 -35 127 -43 224 -52 53 -4 467 -8 921 -8 783 -1 827 0 866 18 23 10 52 34 65 52 l24 34 3 2788 2 2787 1680 0 1679 0 3 -2357 c3 -2221 4 -2360 20 -2397 10 -21 18 -47 18 -58 0 -10 9 -36 20 -58 11 -22 20 -48 20 -59 0 -34 69 -168 95 -185 15 -10 25 -26 25 -40 0 -34 293 -326 327 -326 13 0 28 -9 35 -21 13 -22 159 -99 187 -99 9 0 38 -9 66 -19 94 -35 127 -43 224 -52 53 -4 467 -8 921 -8 783 -1 827 0 866 18 23 10 52 34 65 52 l24 34 0 6955 0 6955 -24 34 c-13 18 -42 42 -65 52 -39 18 -83 19 -876 19 -459 0 -874 -5 -923 -10 -88 -9 -122 -17 -212 -51 -28 -10 -57 -19 -66 -19 -28 0 -174 -77 -187 -99 -7 -12 -22 -21 -35 -21 -34 0 -327 -292 -327 -326 0 -14 -10 -30 -25 -40 -26 -17 -95 -151 -95 -185 0 -11 -9 -37 -20 -59 -11 -22 -20 -47 -20 -57 0 -10 -8 -38 -18 -63 -16 -42 -17 -188 -20 -2317 l-2 -2273 -1680 0 -1680 0 -2 2708 -3 2707 -24 34 c-13 18 -42 42 -65 52 -39 18 -82 19 -891 17 -467 0 -882 -4 -921 -8z" style="fill: rgb(234, 77, 64);"/>
    <path d="M25635 15630 c-3 -5 -45 -10 -93 -11 -83 0 -266 -17 -417 -38 -38 -5 -97 -13 -130 -16 -33 -4 -74 -13 -92 -21 -17 -8 -50 -14 -73 -14 -22 0 -53 -6 -68 -14 -15 -7 -50 -16 -79 -19 -29 -3 -65 -13 -81 -21 -16 -8 -57 -20 -91 -25 -33 -5 -71 -17 -83 -25 -12 -9 -35 -16 -50 -16 -16 0 -45 -9 -65 -20 -21 -11 -47 -20 -59 -20 -26 0 -129 -45 -139 -59 -3 -6 -23 -11 -43 -11 -21 0 -48 -7 -61 -17 -47 -32 -117 -63 -144 -63 -16 0 -41 -8 -55 -19 -15 -10 -61 -35 -102 -55 -41 -20 -100 -50 -130 -66 -30 -17 -60 -30 -67 -30 -7 0 -30 -16 -52 -35 -21 -19 -44 -35 -50 -35 -19 0 -124 -61 -156 -91 -16 -15 -47 -35 -68 -44 -21 -8 -47 -27 -59 -40 -12 -14 -28 -25 -36 -25 -15 0 -84 -48 -90 -62 -2 -5 -21 -17 -42 -28 -25 -13 -40 -28 -42 -42 -2 -16 -12 -25 -30 -28 -15 -3 -63 -40 -113 -87 -48 -46 -95 -83 -104 -83 -10 0 -108 -91 -219 -202 -235 -237 -252 -256 -252 -275 0 -8 -36 -51 -80 -96 -46 -48 -80 -91 -80 -102 0 -13 -31 -51 -75 -95 -42 -40 -78 -85 -82 -99 -3 -14 -21 -42 -40 -60 -18 -19 -36 -46 -40 -60 -3 -15 -21 -42 -38 -62 -18 -20 -36 -47 -40 -60 -5 -13 -22 -42 -40 -64 -18 -22 -36 -51 -40 -65 -4 -14 -13 -32 -19 -40 -32 -40 -146 -282 -146 -309 0 -16 -5 -33 -10 -36 -16 -10 -70 -135 -70 -163 0 -14 -6 -33 -14 -41 -20 -22 -66 -136 -66 -162 0 -11 -9 -32 -20 -46 -11 -14 -20 -31 -20 -37 0 -7 -9 -29 -20 -51 -11 -22 -20 -49 -20 -61 0 -12 -6 -37 -14 -55 -7 -19 -17 -63 -20 -98 -4 -36 -16 -82 -27 -102 -10 -21 -19 -46 -19 -56 0 -10 -6 -36 -14 -58 -7 -22 -17 -87 -21 -145 -4 -58 -13 -116 -20 -130 -7 -14 -16 -68 -20 -120 -4 -52 -12 -104 -18 -115 -13 -24 -35 -594 -25 -650 8 -48 -1 -7087 -10 -7612 -1 -41 -1 -162 0 -205 0 -18 1 -102 2 -185 1 -84 5 -155 8 -159 9 -8 67 24 106 57 18 16 39 29 47 29 8 0 31 11 51 25 20 14 42 25 48 25 7 0 27 16 46 35 24 24 48 38 86 46 42 10 63 22 101 60 27 27 57 49 69 49 11 0 29 9 39 20 10 11 25 20 34 20 9 0 27 8 41 17 13 9 58 33 99 53 42 21 85 47 96 60 17 19 132 80 151 80 3 0 18 9 33 19 15 11 39 23 54 26 15 4 32 16 38 26 5 10 34 30 65 45 30 14 62 36 70 49 9 13 28 27 44 30 16 3 34 12 40 20 6 8 25 17 41 20 16 4 31 11 34 16 4 5 48 29 98 53 51 24 98 54 105 65 7 12 20 21 30 21 10 0 29 8 42 17 13 10 54 32 90 49 37 17 83 46 102 63 20 17 43 31 52 31 9 0 36 18 60 40 24 22 50 40 58 40 9 0 27 9 41 20 14 11 28 20 31 20 23 0 141 66 163 90 14 17 35 30 46 30 11 0 28 7 37 15 9 8 70 42 135 75 66 33 128 69 140 80 11 10 52 33 90 51 39 17 86 45 105 63 19 18 64 45 100 61 36 16 81 44 100 62 20 18 43 33 52 33 8 0 27 9 41 20 14 11 32 20 40 20 8 0 25 8 38 19 26 20 152 81 168 81 6 0 15 9 21 21 6 11 30 29 53 40 89 42 123 63 159 94 25 23 51 36 81 40 36 6 55 17 94 56 26 27 55 49 64 49 9 0 28 9 42 20 14 11 32 20 40 20 8 0 25 8 38 18 13 10 58 35 100 55 42 21 85 47 95 58 10 11 73 48 141 81 67 33 127 66 134 74 6 8 38 28 70 45 32 17 60 36 62 43 3 7 36 27 73 45 38 18 78 38 89 44 11 6 34 17 50 25 17 9 45 28 63 44 18 15 41 28 50 28 10 0 35 18 56 39 29 29 49 41 83 46 28 4 56 17 79 37 35 31 139 88 160 88 5 0 25 16 44 35 19 19 38 35 43 35 23 0 233 115 250 136 10 13 26 24 34 24 9 0 49 20 91 45 41 25 80 45 87 45 7 0 23 9 37 19 13 11 36 23 50 26 14 4 48 29 76 56 28 27 59 49 70 49 11 0 25 6 31 14 7 8 67 41 134 74 67 33 133 71 146 86 14 14 32 26 41 26 10 0 29 9 43 20 14 11 29 20 35 20 5 0 25 11 45 24 19 13 46 27 58 31 13 4 39 21 57 36 18 16 41 29 51 29 10 0 24 7 31 16 8 8 30 22 49 30 20 8 50 28 66 43 17 16 41 32 55 36 14 4 32 13 40 20 8 7 26 16 40 20 14 4 36 15 50 25 14 9 39 22 57 29 18 7 39 23 47 36 11 16 28 24 64 29 36 5 56 14 78 37 16 17 49 40 73 50 24 11 52 30 62 43 11 14 32 27 47 31 16 3 53 30 82 60 30 30 61 55 68 55 22 0 72 40 131 102 29 32 60 58 69 58 15 0 84 47 90 62 2 5 21 18 43 28 23 12 39 28 39 38 0 22 160 181 203 202 18 8 33 24 35 35 2 11 43 59 90 106 109 109 152 159 152 179 0 8 36 51 80 94 44 44 80 88 80 99 0 10 22 41 49 69 27 28 55 65 62 82 7 17 27 50 46 73 18 23 33 45 33 50 0 5 11 25 25 45 14 20 25 42 25 48 0 7 9 23 20 37 11 14 20 33 20 43 0 9 11 27 25 40 14 13 52 76 84 140 31 63 79 158 106 210 68 133 94 197 101 255 4 28 15 61 25 74 11 13 19 29 19 35 0 7 9 29 20 51 11 22 20 49 20 62 0 12 9 37 20 55 11 18 20 43 20 56 0 13 5 33 11 45 15 26 36 101 55 192 8 39 20 81 26 95 10 24 26 113 48 277 5 40 15 92 21 115 25 98 33 270 33 718 0 402 -2 472 -16 515 -9 28 -21 100 -27 160 -12 112 -32 218 -56 290 -7 22 -16 62 -19 89 -3 27 -13 60 -21 72 -8 13 -15 40 -15 61 -1 21 -8 56 -16 78 -9 22 -19 57 -23 77 -5 20 -16 48 -25 62 -9 14 -16 39 -16 55 0 16 -7 42 -14 58 -17 32 -45 115 -53 155 -3 14 -16 37 -29 49 -15 14 -24 34 -24 54 0 17 -9 48 -20 70 -11 22 -20 44 -20 51 0 6 -7 17 -15 24 -8 7 -15 22 -15 34 0 13 -11 33 -25 46 -15 14 -23 30 -20 40 3 10 -5 26 -20 40 -14 13 -25 33 -25 46 0 12 -7 27 -15 34 -8 7 -15 22 -15 35 0 12 -9 30 -19 39 -11 10 -23 31 -26 47 -4 15 -24 46 -46 67 -21 22 -39 48 -39 59 0 11 -9 28 -20 38 -11 10 -18 26 -15 35 3 11 -11 33 -40 62 -25 25 -45 54 -45 65 0 19 -94 123 -111 123 -5 0 -9 13 -9 28 0 20 -12 40 -40 68 -22 21 -40 49 -40 61 0 21 -60 86 -189 206 -36 33 -51 55 -51 73 0 34 -290 324 -324 324 -14 0 -61 40 -140 120 -73 74 -126 120 -138 120 -11 0 -45 25 -76 56 -31 30 -68 58 -83 61 -15 3 -36 14 -45 24 -9 11 -27 19 -38 19 -12 0 -46 26 -81 60 -33 33 -68 60 -79 60 -10 0 -36 18 -58 40 -23 23 -50 40 -63 40 -12 0 -30 9 -40 20 -10 11 -28 20 -40 20 -12 0 -30 9 -40 20 -10 11 -28 20 -39 20 -12 0 -34 13 -49 30 -16 16 -47 35 -70 41 -44 11 -71 22 -97 38 -50 30 -356 171 -373 171 -6 0 -97 30 -202 66 -105 36 -235 73 -290 83 -56 10 -111 24 -124 31 -13 7 -54 14 -91 15 -37 2 -81 10 -98 19 -17 9 -45 16 -61 16 -17 0 -50 6 -73 14 -24 8 -123 19 -221 25 -98 6 -187 16 -197 21 -25 13 -487 13 -495 0z m425 -2961 c47 -5 104 -14 128 -20 23 -5 50 -9 60 -9 10 0 35 -9 57 -20 22 -11 56 -20 78 -20 24 0 67 -15 119 -40 45 -22 90 -40 100 -40 10 0 21 -7 24 -15 4 -8 10 -15 15 -15 7 0 97 -49 157 -85 63 -38 102 -66 102 -74 0 -5 12 -11 28 -14 31 -7 255 -227 326 -322 25 -33 63 -83 86 -111 22 -28 40 -58 40 -66 0 -8 9 -23 20 -33 11 -10 20 -26 20 -35 0 -9 9 -25 20 -35 11 -10 20 -30 20 -45 0 -15 6 -33 14 -39 16 -14 66 -112 66 -131 0 -7 9 -38 19 -69 56 -162 87 -315 96 -471 6 -111 -8 -346 -25 -410 -6 -25 -15 -72 -20 -105 -16 -116 -56 -234 -133 -395 -58 -120 -133 -247 -178 -302 -22 -26 -39 -51 -39 -57 0 -27 -369 -359 -430 -387 -19 -9 -46 -26 -60 -39 -31 -27 -120 -65 -153 -65 -14 0 -30 -7 -38 -16 -18 -22 -66 -45 -124 -60 -27 -8 -90 -27 -140 -44 -49 -16 -99 -30 -111 -30 -12 0 -41 -7 -65 -17 -35 -13 -90 -17 -282 -19 -150 -2 -248 1 -265 7 -15 6 -67 17 -117 25 -131 20 -186 32 -209 48 -12 7 -39 19 -61 26 -22 7 -47 18 -55 25 -8 7 -34 15 -58 18 -24 3 -51 12 -61 21 -10 9 -27 16 -38 16 -11 0 -28 9 -38 20 -10 11 -28 20 -40 20 -12 0 -30 9 -40 20 -10 11 -24 20 -31 20 -7 0 -18 9 -24 20 -6 11 -18 20 -28 20 -9 0 -47 30 -84 65 -37 36 -73 65 -79 65 -17 0 -169 140 -169 156 0 7 -22 37 -49 66 -92 101 -111 126 -111 145 0 10 -18 37 -40 58 -22 22 -40 49 -40 61 0 12 -8 32 -19 45 -10 13 -21 34 -25 46 -4 11 -13 27 -21 33 -8 7 -15 23 -15 36 0 13 -9 32 -20 41 -14 12 -20 30 -20 59 0 28 -6 46 -20 59 -13 12 -20 31 -20 54 0 20 -9 56 -20 80 -11 24 -20 57 -20 75 0 17 -6 60 -14 96 -21 93 -35 293 -25 338 5 20 9 74 9 119 0 48 8 114 19 155 10 40 24 105 31 143 15 82 62 225 84 257 9 12 16 32 16 44 0 12 6 27 14 33 7 6 25 38 40 71 15 33 31 62 37 65 5 4 16 21 25 38 29 61 51 97 89 144 70 87 338 342 400 380 33 20 65 42 70 49 6 6 62 37 125 69 63 31 132 66 152 76 20 10 45 19 56 19 10 0 27 9 37 20 10 11 31 20 48 20 16 0 50 6 76 14 109 34 194 49 319 56 72 3 135 9 138 13 8 8 189 0 294 -14z" style="fill: rgb(234, 77, 64);"/>
    <path d="M33635 15630 c-3 -5 -45 -10 -93 -11 -83 0 -266 -17 -417 -38 -38 -5 -97 -13 -130 -16 -33 -4 -74 -13 -92 -21 -17 -8 -50 -14 -73 -14 -22 0 -53 -6 -68 -14 -15 -7 -50 -16 -79 -19 -29 -3 -65 -13 -81 -21 -16 -8 -57 -20 -91 -25 -33 -5 -71 -17 -83 -25 -12 -9 -35 -16 -50 -16 -16 0 -45 -9 -65 -20 -21 -11 -47 -20 -59 -20 -26 0 -129 -45 -139 -59 -3 -6 -23 -11 -43 -11 -21 0 -48 -7 -61 -17 -47 -32 -117 -63 -144 -63 -16 0 -41 -8 -55 -19 -15 -10 -61 -35 -102 -55 -41 -20 -100 -50 -130 -66 -30 -17 -60 -30 -67 -30 -7 0 -30 -16 -52 -35 -21 -19 -44 -35 -50 -35 -19 0 -124 -61 -156 -91 -16 -15 -47 -35 -68 -44 -21 -8 -47 -27 -59 -40 -12 -14 -28 -25 -36 -25 -15 0 -84 -48 -90 -62 -2 -5 -21 -17 -42 -28 -25 -13 -40 -28 -42 -42 -2 -16 -12 -25 -30 -28 -15 -3 -63 -40 -113 -87 -48 -46 -94 -83 -104 -83 -19 0 -397 -372 -395 -389 1 -6 2 -22 3 -35 0 -13 18 -41 39 -62 22 -22 42 -51 45 -65 4 -14 22 -41 42 -60 19 -19 35 -44 35 -56 0 -12 5 -25 10 -28 6 -4 23 -32 39 -63 16 -31 39 -63 50 -70 12 -7 21 -21 21 -31 0 -10 9 -30 20 -44 11 -14 20 -28 20 -31 0 -8 218 -447 229 -460 5 -6 12 -29 16 -50 3 -22 20 -67 37 -100 16 -33 36 -80 43 -105 15 -51 67 -209 95 -286 9 -27 24 -79 33 -115 8 -36 23 -90 32 -120 9 -30 20 -82 25 -115 4 -33 17 -103 29 -155 12 -52 26 -118 31 -147 5 -28 15 -80 24 -115 18 -79 25 -121 37 -228 51 -456 56 -570 39 -995 -8 -204 -14 -260 -56 -482 -9 -46 -19 -122 -24 -170 -5 -49 -23 -140 -40 -203 -17 -63 -35 -140 -40 -170 -5 -30 -13 -79 -19 -109 -6 -29 -11 -68 -11 -85 0 -17 -9 -42 -20 -56 -11 -14 -20 -36 -20 -50 0 -14 -18 -63 -40 -108 -22 -44 -40 -91 -40 -102 0 -11 -9 -38 -20 -60 -11 -22 -20 -46 -20 -54 0 -25 -48 -165 -65 -189 -8 -12 -15 -28 -15 -35 0 -8 -10 -26 -23 -41 -13 -15 -31 -61 -41 -102 -14 -58 -25 -81 -52 -107 -19 -19 -37 -47 -41 -62 -3 -16 -16 -39 -29 -51 -13 -12 -24 -32 -24 -43 0 -12 -7 -30 -15 -40 -8 -11 -15 -28 -15 -38 0 -10 -11 -24 -24 -33 -23 -15 -96 -144 -96 -170 0 -7 -11 -22 -24 -32 -23 -17 -96 -143 -96 -165 0 -6 -18 -28 -40 -50 -28 -29 -40 -49 -40 -69 0 -16 -4 -29 -9 -29 -18 0 -141 -132 -148 -158 -3 -14 -32 -53 -65 -85 -44 -45 -58 -66 -58 -88 0 -25 -4 -29 -29 -29 -35 0 -79 -40 -87 -79 -4 -20 -48 -70 -145 -165 -117 -115 -139 -142 -139 -166 0 -26 -4 -30 -29 -30 -20 0 -40 -12 -68 -39 -22 -22 -52 -43 -67 -47 -16 -4 -65 -45 -119 -100 -60 -62 -98 -94 -113 -94 -14 0 -48 -26 -93 -71 l-71 -71 0 -1201 c-1 -967 -4 -1830 -8 -2074 -1 -40 -1 -161 0 -205 0 -18 1 -102 2 -185 1 -84 5 -155 8 -159 9 -8 67 24 106 57 18 16 39 29 47 29 8 0 31 11 51 25 20 14 42 25 48 25 7 0 27 16 46 35 24 24 48 38 86 46 42 10 63 22 101 60 27 27 57 49 69 49 11 0 29 9 39 20 10 11 25 20 34 20 9 0 27 8 41 17 13 9 58 33 99 53 42 21 85 47 96 60 17 19 132 80 151 80 3 0 18 9 33 19 15 11 39 23 54 26 15 4 32 16 38 26 5 10 34 30 65 45 30 14 62 36 70 49 9 13 28 27 44 30 16 3 34 12 40 20 6 8 25 17 41 20 16 4 31 11 34 16 4 5 48 29 98 53 51 24 98 54 105 65 7 12 20 21 30 21 10 0 29 8 42 17 13 10 54 32 90 49 37 17 83 46 102 63 20 17 43 31 52 31 9 0 36 18 60 40 24 22 50 40 58 40 9 0 27 9 41 20 14 11 28 20 31 20 23 0 141 66 163 90 14 17 35 30 46 30 11 0 28 7 37 15 9 8 70 42 135 75 66 33 128 69 140 80 11 10 52 33 90 51 39 17 86 45 105 63 19 18 64 45 100 61 36 16 81 44 100 62 20 18 43 33 52 33 8 0 27 9 41 20 14 11 32 20 40 20 8 0 25 8 38 19 26 20 152 81 168 81 6 0 15 9 21 21 6 11 30 29 53 40 89 42 123 63 159 94 25 23 51 36 81 40 36 6 55 17 94 56 26 27 55 49 64 49 9 0 28 9 42 20 14 11 32 20 40 20 8 0 25 8 38 18 13 10 58 35 100 55 42 21 85 47 95 58 10 11 73 48 141 81 67 33 127 66 134 74 6 8 38 28 70 45 32 17 60 36 62 43 3 7 36 27 73 45 38 18 78 38 89 44 11 6 34 17 50 25 17 9 45 28 63 44 18 15 41 28 50 28 10 0 35 18 56 39 29 29 49 41 83 46 28 4 56 17 79 37 35 31 139 88 160 88 5 0 25 16 44 35 19 19 38 35 43 35 23 0 233 115 250 136 10 13 26 24 34 24 9 0 49 20 91 45 41 25 80 45 87 45 7 0 23 9 37 19 13 11 36 23 50 26 14 4 48 29 76 56 28 27 59 49 70 49 11 0 25 6 31 14 7 8 67 41 134 74 67 33 133 71 146 86 14 14 32 26 41 26 10 0 29 9 43 20 14 11 29 20 35 20 5 0 25 11 45 24 19 13 46 27 58 31 13 4 39 21 57 36 18 16 41 29 51 29 10 0 24 7 31 16 8 8 30 22 49 30 20 8 50 28 66 43 17 16 41 32 55 36 14 4 32 13 40 20 8 7 26 16 40 20 14 4 36 15 50 25 14 9 39 22 57 29 18 7 39 23 47 36 11 16 28 24 64 29 36 5 56 14 78 37 16 17 49 40 73 50 24 11 52 30 62 43 11 14 32 27 47 31 16 3 53 30 82 60 30 30 61 55 68 55 22 0 72 40 131 102 29 32 60 58 69 58 15 0 84 47 90 62 2 5 21 18 43 28 23 12 39 28 39 38 0 22 160 181 203 202 18 8 33 24 35 35 2 11 43 59 90 106 109 109 152 159 152 179 0 8 36 51 80 94 44 44 80 88 80 99 0 10 22 41 49 69 27 28 55 65 62 82 7 17 27 50 46 73 18 23 33 45 33 50 0 5 11 25 25 45 14 20 25 42 25 48 0 7 9 23 20 37 11 14 20 33 20 43 0 9 11 27 25 40 14 13 52 76 84 140 31 63 79 158 106 210 68 133 94 197 101 255 4 28 15 61 25 74 11 13 19 29 19 35 0 7 9 29 20 51 11 22 20 49 20 62 0 12 9 37 20 55 11 18 20 43 20 56 0 13 5 33 11 45 15 26 36 101 55 192 8 39 20 81 26 95 10 24 26 113 48 277 5 40 15 92 21 115 25 98 33 270 33 718 0 402 -2 472 -16 515 -9 28 -21 100 -27 160 -12 112 -32 218 -56 290 -7 22 -16 62 -19 89 -3 27 -13 60 -21 72 -8 13 -15 40 -15 61 -1 21 -8 56 -16 78 -9 22 -19 57 -23 77 -5 20 -16 48 -25 62 -9 14 -16 39 -16 55 0 16 -7 42 -14 58 -17 32 -45 115 -53 155 -3 14 -16 37 -29 49 -15 14 -24 34 -24 54 0 17 -9 48 -20 70 -11 22 -20 44 -20 51 0 6 -7 17 -15 24 -8 7 -15 22 -15 34 0 13 -11 33 -25 46 -15 14 -23 30 -20 40 3 10 -5 26 -20 40 -14 13 -25 33 -25 46 0 12 -7 27 -15 34 -8 7 -15 22 -15 35 0 12 -9 30 -19 39 -11 10 -23 31 -26 47 -4 15 -24 46 -46 67 -21 22 -39 48 -39 59 0 11 -9 28 -20 38 -11 10 -18 26 -15 35 3 11 -11 33 -40 62 -25 25 -45 54 -45 65 0 19 -94 123 -111 123 -5 0 -9 13 -9 28 0 20 -12 40 -40 68 -22 21 -40 49 -40 61 0 21 -60 86 -189 206 -36 33 -51 55 -51 73 0 34 -290 324 -324 324 -14 0 -61 40 -140 120 -73 74 -126 120 -138 120 -11 0 -45 25 -76 56 -31 30 -68 58 -83 61 -15 3 -36 14 -45 24 -9 11 -27 19 -38 19 -12 0 -46 26 -81 60 -33 33 -68 60 -79 60 -10 0 -36 18 -58 40 -23 23 -50 40 -63 40 -12 0 -30 9 -40 20 -10 11 -28 20 -40 20 -12 0 -30 9 -40 20 -10 11 -28 20 -39 20 -12 0 -34 13 -49 30 -16 16 -47 35 -70 41 -44 11 -71 22 -97 38 -50 30 -356 171 -373 171 -6 0 -97 30 -202 66 -105 36 -235 73 -290 83 -56 10 -111 24 -124 31 -13 7 -54 14 -91 15 -37 2 -81 10 -98 19 -17 9 -45 16 -61 16 -17 0 -50 6 -73 14 -24 8 -123 19 -221 25 -98 6 -187 16 -197 21 -25 13 -487 13 -495 0z m425 -2961 c47 -5 104 -14 128 -20 23 -5 50 -9 60 -9 10 0 35 -9 57 -20 22 -11 56 -20 78 -20 24 0 67 -15 119 -40 45 -22 90 -40 100 -40 10 0 21 -7 24 -15 4 -8 10 -15 15 -15 7 0 97 -49 157 -85 63 -38 102 -66 102 -74 0 -5 12 -11 28 -14 31 -7 255 -227 326 -322 25 -33 63 -83 86 -111 22 -28 40 -58 40 -66 0 -8 9 -23 20 -33 11 -10 20 -26 20 -35 0 -9 9 -25 20 -35 11 -10 20 -30 20 -45 0 -15 6 -33 14 -39 16 -14 66 -112 66 -131 0 -7 9 -38 19 -69 56 -162 87 -315 96 -471 6 -111 -8 -346 -25 -410 -6 -25 -15 -72 -20 -105 -16 -116 -56 -234 -133 -395 -58 -120 -133 -247 -178 -302 -22 -26 -39 -51 -39 -57 0 -27 -369 -359 -430 -387 -19 -9 -46 -26 -60 -39 -31 -27 -120 -65 -153 -65 -14 0 -30 -7 -38 -16 -18 -22 -66 -45 -124 -60 -27 -8 -90 -27 -140 -44 -49 -16 -99 -30 -111 -30 -12 0 -41 -7 -65 -17 -35 -13 -90 -17 -282 -19 -150 -2 -248 1 -265 7 -15 6 -67 17 -117 25 -131 20 -186 32 -209 48 -12 7 -39 19 -61 26 -22 7 -47 18 -55 25 -8 7 -34 15 -58 18 -24 3 -51 12 -61 21 -10 9 -27 16 -38 16 -11 0 -28 9 -38 20 -10 11 -28 20 -40 20 -12 0 -30 9 -40 20 -10 11 -24 20 -31 20 -7 0 -18 9 -24 20 -6 11 -18 20 -28 20 -9 0 -47 30 -84 65 -37 36 -73 65 -79 65 -17 0 -169 140 -169 156 0 7 -22 37 -49 66 -92 101 -111 126 -111 145 0 10 -18 37 -40 58 -22 22 -40 49 -40 61 0 12 -8 32 -19 45 -10 13 -21 34 -25 46 -4 11 -13 27 -21 33 -8 7 -15 23 -15 36 0 13 -9 32 -20 41 -14 12 -20 30 -20 59 0 28 -6 46 -20 59 -13 12 -20 31 -20 54 0 20 -9 56 -20 80 -11 24 -20 57 -20 75 0 17 -6 60 -14 96 -21 93 -35 293 -25 338 5 20 9 74 9 119 0 48 8 114 19 155 10 40 24 105 31 143 15 82 62 225 84 257 9 12 16 32 16 44 0 12 6 27 14 33 7 6 25 38 40 71 15 33 31 62 37 65 5 4 16 21 25 38 29 61 51 97 89 144 70 87 338 342 400 380 33 20 65 42 70 49 6 6 62 37 125 69 63 31 132 66 152 76 20 10 45 19 56 19 10 0 27 9 37 20 10 11 31 20 48 20 16 0 50 6 76 14 109 34 194 49 319 56 72 3 135 9 138 13 8 8 189 0 294 -14z" style="fill: rgb(234, 77, 64);"/>
    <path d="M15225 15570 c-88 -5 -176 -14 -195 -19 -19 -5 -86 -15 -148 -20 -62 -6 -120 -14 -130 -19 -9 -5 -48 -12 -85 -16 -38 -4 -85 -13 -105 -20 -20 -8 -70 -19 -111 -25 -74 -12 -143 -30 -211 -56 -19 -8 -53 -16 -75 -20 -52 -8 -242 -72 -272 -92 -12 -8 -41 -19 -65 -24 -23 -6 -73 -25 -112 -44 -38 -19 -75 -35 -81 -35 -7 0 -20 -9 -30 -20 -10 -11 -30 -20 -45 -20 -37 0 -262 -113 -278 -139 -7 -12 -22 -21 -36 -21 -12 0 -31 -9 -41 -20 -10 -11 -24 -20 -31 -20 -21 0 -147 -71 -169 -96 -11 -12 -32 -25 -47 -28 -15 -3 -42 -21 -60 -40 -18 -18 -45 -36 -60 -40 -15 -3 -42 -22 -60 -40 -19 -19 -45 -37 -60 -41 -14 -4 -59 -39 -100 -79 -40 -40 -85 -76 -99 -79 -34 -9 -660 -636 -674 -675 -6 -16 -36 -55 -68 -87 -32 -32 -57 -66 -57 -78 0 -11 -26 -45 -60 -79 -34 -34 -60 -69 -60 -80 0 -11 -18 -38 -40 -60 -24 -24 -40 -50 -40 -64 0 -14 -10 -30 -25 -40 -13 -9 -36 -40 -50 -69 -14 -30 -30 -57 -35 -60 -6 -3 -10 -16 -10 -29 0 -13 -9 -31 -20 -41 -11 -10 -20 -28 -20 -41 0 -12 -11 -31 -24 -41 -31 -23 -136 -232 -136 -271 0 -16 -9 -37 -20 -47 -11 -10 -20 -28 -20 -40 0 -12 -9 -30 -20 -40 -11 -10 -20 -24 -20 -32 0 -8 -9 -31 -20 -53 -11 -22 -20 -49 -20 -61 0 -12 -9 -36 -20 -53 -24 -41 -100 -267 -100 -301 0 -14 -7 -40 -16 -56 -20 -40 -51 -158 -59 -229 -4 -30 -13 -73 -20 -95 -24 -72 -45 -187 -61 -330 -8 -77 -19 -180 -25 -230 -14 -115 -14 -694 -1 -845 21 -230 56 -452 87 -545 7 -22 16 -65 20 -95 8 -71 39 -189 59 -229 9 -16 16 -42 16 -56 0 -34 76 -260 100 -301 11 -17 20 -41 20 -53 0 -12 9 -39 20 -61 11 -22 20 -45 20 -53 0 -8 9 -22 20 -32 11 -10 20 -28 20 -40 0 -12 9 -30 20 -40 11 -10 20 -31 20 -47 0 -39 104 -248 135 -271 14 -10 25 -29 25 -41 0 -13 9 -31 20 -41 11 -10 20 -28 20 -41 0 -13 4 -26 10 -29 5 -3 21 -30 35 -60 14 -29 37 -60 50 -69 15 -10 25 -26 25 -40 0 -14 16 -40 40 -64 22 -22 40 -49 40 -60 0 -11 26 -46 60 -80 34 -34 60 -68 60 -79 0 -12 25 -46 57 -78 32 -32 62 -71 68 -87 14 -39 640 -666 674 -675 14 -3 59 -39 99 -79 41 -40 86 -75 100 -79 15 -4 41 -22 60 -41 18 -18 45 -37 60 -40 15 -4 42 -22 60 -40 18 -19 45 -37 60 -40 15 -3 36 -17 47 -30 21 -24 147 -94 169 -94 7 0 21 -9 31 -20 10 -11 29 -20 41 -20 14 0 29 -9 36 -21 14 -22 317 -179 347 -179 10 0 49 -16 87 -35 39 -19 89 -38 112 -44 24 -5 53 -16 65 -24 30 -20 220 -84 272 -92 22 -4 56 -12 75 -20 65 -25 135 -44 205 -55 39 -6 90 -18 115 -25 25 -8 77 -19 115 -24 39 -5 93 -14 120 -20 194 -39 377 -52 745 -53 362 0 548 13 745 53 28 6 82 15 120 20 39 5 90 16 115 24 25 7 77 19 115 25 70 11 140 30 205 55 19 8 53 16 75 20 52 8 242 72 272 92 12 8 41 19 65 24 23 6 73 25 112 44 38 19 77 35 87 35 30 0 333 157 347 179 7 12 22 21 36 21 12 0 31 9 41 20 10 11 24 20 31 20 22 0 148 70 169 94 11 13 32 27 47 30 15 3 42 21 60 40 18 18 45 36 60 40 15 3 42 22 60 40 19 19 45 37 60 41 14 4 59 39 100 79 40 40 84 76 98 79 35 9 669 642 677 677 3 14 32 51 64 83 34 34 59 68 59 79 0 12 25 46 60 80 34 34 60 69 60 80 0 11 18 38 40 60 24 24 40 50 40 64 0 14 10 30 25 40 13 9 36 40 50 69 14 30 30 57 35 60 6 3 10 16 10 29 0 13 9 31 20 41 11 10 20 28 20 41 0 12 11 31 25 41 31 23 135 232 135 271 0 16 9 37 20 47 11 10 20 28 20 40 0 12 9 30 20 40 11 10 20 24 20 32 0 8 9 31 20 53 11 22 20 49 20 61 0 12 9 36 20 53 24 41 100 267 100 301 0 14 7 40 16 56 20 40 51 158 59 229 4 30 13 73 20 95 62 184 96 535 96 975 0 440 -34 791 -96 975 -7 22 -16 65 -20 95 -8 71 -39 189 -59 229 -9 16 -16 42 -16 56 0 34 -76 260 -100 301 -11 17 -20 41 -20 53 0 12 -9 39 -20 61 -11 22 -20 45 -20 53 0 8 -9 22 -20 32 -11 10 -20 28 -20 40 0 12 -9 30 -20 40 -11 10 -20 31 -20 47 0 39 -105 248 -136 271 -13 10 -24 29 -24 41 0 13 -9 31 -20 41 -11 10 -20 28 -20 41 0 13 -4 26 -10 29 -5 3 -21 30 -35 60 -14 29 -37 60 -50 69 -15 10 -25 26 -25 40 0 14 -16 40 -40 64 -22 22 -40 49 -40 60 0 11 -26 46 -60 80 -34 34 -60 68 -60 79 0 12 -25 46 -57 78 -32 32 -62 71 -68 87 -14 39 -640 666 -674 675 -14 3 -59 39 -99 79 -41 40 -86 75 -100 79 -15 4 -41 22 -60 41 -18 18 -45 37 -60 40 -15 4 -42 22 -60 40 -18 19 -45 37 -60 40 -15 3 -36 16 -47 28 -22 25 -148 96 -169 96 -7 0 -21 9 -31 20 -10 11 -29 20 -41 20 -14 0 -29 9 -36 21 -16 26 -241 139 -278 139 -15 0 -35 9 -45 20 -10 11 -23 20 -30 20 -6 0 -43 16 -81 35 -39 19 -89 38 -112 44 -24 5 -53 16 -65 24 -30 20 -220 84 -272 92 -22 4 -56 12 -75 20 -68 26 -137 44 -211 56 -41 6 -91 17 -111 25 -20 7 -67 16 -105 20 -37 4 -76 11 -86 16 -9 5 -77 16 -150 24 -72 8 -166 19 -207 24 -118 13 -569 19 -745 10z m550 -2930 c117 -12 164 -23 320 -72 156 -49 417 -174 488 -234 17 -14 43 -31 57 -37 36 -15 379 -356 394 -393 8 -17 27 -46 43 -65 32 -37 181 -324 194 -373 4 -17 22 -69 39 -116 18 -47 35 -105 40 -130 4 -25 14 -72 21 -105 19 -83 19 -547 0 -630 -7 -33 -17 -80 -21 -105 -10 -59 -82 -263 -126 -354 -19 -40 -34 -82 -34 -93 0 -11 -11 -30 -24 -42 -13 -12 -32 -39 -42 -59 -11 -20 -32 -52 -48 -71 -16 -19 -34 -48 -42 -65 -18 -43 -359 -379 -410 -404 -22 -11 -47 -28 -54 -37 -8 -9 -34 -27 -59 -40 -25 -12 -55 -32 -65 -44 -11 -12 -29 -21 -41 -21 -12 0 -30 -9 -39 -19 -9 -10 -29 -21 -44 -24 -15 -3 -72 -22 -127 -41 -165 -60 -185 -66 -289 -87 -184 -37 -575 -36 -742 1 -215 49 -562 197 -667 286 -17 14 -43 31 -57 37 -36 15 -379 356 -394 393 -8 17 -27 46 -43 65 -32 37 -181 324 -194 373 -4 17 -22 69 -39 116 -18 47 -35 105 -40 130 -4 25 -14 72 -21 105 -18 79 -18 567 0 640 7 28 16 70 20 95 10 54 98 311 112 325 5 5 9 21 9 35 0 15 9 35 20 45 11 10 20 28 20 40 0 12 11 32 24 44 13 12 32 39 42 59 10 20 28 48 40 62 12 14 30 41 40 60 29 55 362 388 415 415 25 13 51 31 59 40 8 9 34 27 59 40 25 12 55 32 65 44 11 12 27 21 36 21 9 0 27 9 40 20 13 11 32 20 42 20 10 0 31 6 46 14 35 18 288 99 361 116 120 28 443 38 616 20z" style="fill: rgb(234, 77, 64);"/>
    <path d="M47425 15570 c-88 -5 -176 -14 -195 -19 -19 -5 -86 -15 -148 -20 -62 -6 -120 -14 -130 -19 -9 -5 -48 -12 -85 -16 -38 -4 -85 -13 -105 -20 -20 -8 -70 -19 -111 -25 -74 -12 -143 -30 -211 -56 -19 -8 -53 -16 -75 -20 -52 -8 -242 -72 -272 -92 -12 -8 -41 -19 -65 -24 -23 -6 -73 -25 -112 -44 -38 -19 -75 -35 -81 -35 -7 0 -20 -9 -30 -20 -10 -11 -30 -20 -45 -20 -37 0 -262 -113 -278 -139 -7 -12 -22 -21 -36 -21 -12 0 -31 -9 -41 -20 -10 -11 -24 -20 -31 -20 -21 0 -147 -71 -169 -96 -11 -12 -32 -25 -47 -28 -15 -3 -42 -21 -60 -40 -18 -18 -45 -36 -60 -40 -15 -3 -42 -22 -60 -40 -19 -19 -45 -37 -60 -41 -14 -4 -59 -39 -100 -79 -40 -40 -85 -76 -99 -79 -34 -9 -660 -636 -674 -675 -6 -16 -36 -55 -68 -87 -32 -32 -57 -66 -57 -78 0 -11 -26 -45 -60 -79 -34 -34 -60 -69 -60 -80 0 -11 -18 -38 -40 -60 -24 -24 -40 -50 -40 -64 0 -14 -10 -30 -25 -40 -13 -9 -36 -40 -50 -69 -14 -30 -30 -57 -35 -60 -6 -3 -10 -16 -10 -29 0 -13 -9 -31 -20 -41 -11 -10 -20 -28 -20 -41 0 -12 -11 -31 -24 -41 -31 -23 -136 -232 -136 -271 0 -16 -9 -37 -20 -47 -11 -10 -20 -28 -20 -40 0 -12 -9 -30 -20 -40 -11 -10 -20 -24 -20 -32 0 -8 -9 -31 -20 -53 -11 -22 -20 -49 -20 -61 0 -12 -9 -36 -20 -53 -24 -41 -100 -267 -100 -301 0 -14 -7 -40 -16 -56 -20 -40 -51 -158 -59 -229 -4 -30 -13 -73 -20 -95 -24 -72 -45 -187 -61 -330 -8 -77 -19 -180 -25 -230 -14 -115 -14 -694 -1 -845 21 -230 56 -452 87 -545 7 -22 16 -65 20 -95 8 -71 39 -189 59 -229 9 -16 16 -42 16 -56 0 -34 76 -260 100 -301 11 -17 20 -41 20 -53 0 -12 9 -39 20 -61 11 -22 20 -45 20 -53 0 -8 9 -22 20 -32 11 -10 20 -28 20 -40 0 -12 9 -30 20 -40 11 -10 20 -31 20 -47 0 -39 104 -248 135 -271 14 -10 25 -29 25 -41 0 -13 9 -31 20 -41 11 -10 20 -28 20 -41 0 -13 4 -26 10 -29 5 -3 21 -30 35 -60 14 -29 37 -60 50 -69 15 -10 25 -26 25 -40 0 -14 16 -40 40 -64 22 -22 40 -49 40 -60 0 -11 26 -46 60 -80 34 -34 60 -68 60 -79 0 -12 25 -46 57 -78 32 -32 62 -71 68 -87 14 -39 640 -666 674 -675 14 -3 59 -39 99 -79 41 -40 86 -75 100 -79 15 -4 41 -22 60 -41 18 -18 45 -37 60 -40 15 -4 42 -22 60 -40 18 -19 45 -37 60 -40 15 -3 36 -17 47 -30 21 -24 147 -94 169 -94 7 0 21 -9 31 -20 10 -11 29 -20 41 -20 14 0 29 -9 36 -21 14 -22 317 -179 347 -179 10 0 49 -16 87 -35 39 -19 89 -38 112 -44 24 -5 53 -16 65 -24 30 -20 220 -84 272 -92 22 -4 56 -12 75 -20 65 -25 135 -44 205 -55 39 -6 90 -18 115 -25 25 -8 77 -19 115 -24 39 -5 93 -14 120 -20 194 -39 377 -52 745 -53 363 0 549 13 745 53 28 6 86 16 130 23 44 7 96 17 115 24 19 6 67 16 105 22 70 11 140 30 205 55 19 8 53 16 75 20 55 9 239 72 278 96 18 10 40 19 50 19 10 0 44 11 77 25 33 14 78 25 102 25 41 0 46 -4 170 -131 70 -72 128 -137 128 -146 0 -9 17 -32 37 -52 l37 -36 1264 -3 1263 -2 -5 2567 c-3 1480 -9 2608 -15 2663 -22 225 -57 438 -86 525 -7 22 -16 65 -20 95 -8 71 -39 189 -59 229 -9 16 -16 42 -16 56 0 34 -76 260 -100 301 -11 17 -20 41 -20 53 0 12 -9 39 -20 61 -11 22 -20 45 -20 53 0 8 -9 22 -20 32 -11 10 -20 28 -20 40 0 12 -9 30 -20 40 -11 10 -20 31 -20 47 0 39 -105 248 -136 271 -13 10 -24 29 -24 41 0 13 -9 31 -20 41 -11 10 -20 28 -20 41 0 13 -4 26 -10 29 -5 3 -21 30 -35 60 -14 29 -37 60 -50 69 -15 10 -25 26 -25 40 0 14 -16 40 -40 64 -22 22 -40 49 -40 60 0 11 -26 46 -60 80 -34 34 -60 68 -60 79 0 12 -25 46 -57 78 -32 32 -62 71 -68 87 -14 39 -640 666 -674 675 -14 3 -59 39 -99 79 -41 40 -86 75 -100 79 -15 4 -41 22 -60 41 -18 18 -45 37 -60 40 -15 4 -42 22 -60 40 -18 19 -45 37 -60 40 -15 3 -36 16 -47 28 -22 25 -148 96 -169 96 -7 0 -21 9 -31 20 -10 11 -29 20 -41 20 -14 0 -29 9 -36 21 -16 26 -241 139 -278 139 -15 0 -35 9 -45 20 -10 11 -23 20 -30 20 -6 0 -43 16 -81 35 -39 19 -89 38 -112 44 -24 5 -53 16 -65 24 -30 20 -220 84 -272 92 -22 4 -56 12 -75 20 -68 26 -137 44 -211 56 -41 6 -91 17 -111 25 -20 7 -67 16 -105 20 -37 4 -76 11 -86 16 -9 5 -77 16 -150 24 -72 8 -166 19 -207 24 -118 13 -569 19 -745 10z m550 -2930 c117 -12 164 -23 320 -72 156 -49 417 -174 488 -234 17 -14 43 -31 57 -37 36 -15 379 -356 394 -393 8 -17 27 -46 43 -65 32 -37 181 -324 194 -373 4 -17 22 -69 39 -116 18 -47 35 -105 40 -130 4 -25 14 -72 21 -105 19 -83 19 -547 0 -630 -7 -33 -17 -80 -21 -105 -10 -59 -82 -263 -126 -354 -19 -40 -34 -82 -34 -93 0 -11 -11 -30 -24 -42 -13 -12 -32 -39 -42 -59 -11 -20 -32 -52 -48 -71 -16 -19 -34 -48 -42 -65 -18 -43 -359 -379 -410 -404 -22 -11 -47 -28 -54 -37 -8 -9 -34 -27 -59 -40 -25 -12 -55 -32 -65 -44 -11 -12 -29 -21 -41 -21 -12 0 -30 -9 -39 -19 -9 -10 -29 -21 -44 -24 -15 -3 -72 -22 -127 -41 -165 -60 -185 -66 -289 -87 -184 -37 -575 -36 -742 1 -215 49 -562 197 -667 286 -17 14 -43 31 -57 37 -36 15 -379 356 -394 393 -8 17 -27 46 -43 65 -32 37 -181 324 -194 373 -4 17 -22 69 -39 116 -18 47 -35 105 -40 130 -4 25 -14 72 -21 105 -18 79 -18 567 0 640 7 28 16 70 20 95 10 54 98 311 112 325 5 5 9 21 9 35 0 15 9 35 20 45 11 10 20 28 20 40 0 12 11 32 24 44 13 12 32 39 42 59 10 20 28 48 40 62 12 14 30 41 40 60 29 55 362 388 415 415 25 13 51 31 59 40 8 9 34 27 59 40 25 12 55 32 65 44 11 12 27 21 36 21 9 0 27 9 40 20 13 11 32 20 42 20 10 0 31 6 46 14 35 18 288 99 361 116 120 28 443 38 616 20z" style="fill: rgb(234, 77, 64);"/>
  </g>
</svg>