<?xml version="1.0" encoding="UTF-8"?>
<svg id="Layer_2" data-name="Layer 2" xmlns="http://www.w3.org/2000/svg" viewBox="0 0 257.57 191.63">
  <defs>
    <style>
      .cls-1 {
        fill: #225dd3;
      }

      .cls-1, .cls-2 {
        stroke-width: 0px;
      }

      .cls-2 {
        fill: #388af0;
      }
    </style>
  </defs>
  <g id="Layer_2-2" data-name="Layer 2">
    <g>
      <path class="cls-2" d="M0,191.51v-5.38c.02-4.43.08-8.85.08-13.28.01-14.61,0-29.22,0-43.83v-21.61c0-7.35.04-14.69.04-22.04,0-5.74-.09-11.48-.04-17.23.02-2.12.23-4.24.53-6.36.33-2.3.62-4.6,1.12-6.86.79-3.6,1.96-7.08,3.28-10.53,1.97-5.16,4.47-10.04,7.73-14.48,2.38-3.24,4.9-6.39,7.79-9.24,2.18-2.16,4.5-4.14,6.9-6.03,3.12-2.47,6.49-4.57,10.03-6.42,1.24-.65,2.48-1.4,3.74-1.92,1.9-.79,3.81-1.63,5.78-2.26,2.17-.69,4.32-1.45,6.53-2,2.67-.66,5.39-1.09,8.13-1.42,4.06-.49,8.13-.79,12.22-.52,3.14.21,6.28.44,9.38,1.19,1.43.35,2.91.64,4.38.89,1.92.32,3.71,1.13,5.56,1.72,4.26,1.37,8.27,3.33,12.18,5.47,2.12,1.16,4.09,2.6,6.08,3.98,2.59,1.81,4.99,3.87,7.29,6.04,4.05,3.82,7.57,8.07,10.6,12.75,2.3,3.54,4.26,7.27,5.89,11.15,1.29,3.06,2.35,6.23,3.15,9.48.55,2.22,1.07,4.44,1.41,6.69.56,3.74,1.12,7.49.77,11.3-.16,1.74.17,3.5-.04,5.24-.59,4.97-1.31,9.93-2.85,14.71-1.69,5.24-3.84,10.28-6.67,15.02-1.25,2.09-2.51,4.17-3.93,6.13-1.36,1.88-3.03,3.54-4.48,5.36-1.46,1.84-3.36,3.23-4.85,5.03-.36.44-.89.73-1.35,1.09-2.72,2.1-5.37,4.27-8.29,6.11-2.67,1.69-5.54,3-8.22,4.67-3.17,1.97-6.49,3.7-9.68,5.65-2.23,1.36-4.63,2.45-6.81,3.88-1.71,1.12-3.57,1.95-5.27,3.1-1.71,1.16-3.59,2.1-5.4,3.14-2.57,1.48-5.1,3.01-7.69,4.45-2.72,1.51-5.38,3.11-8.07,4.66-2.26,1.3-4.51,2.64-6.76,3.95-2.13,1.25-4.29,2.47-6.45,3.68-2.41,1.34-4.79,2.74-7.17,4.13-1.93,1.13-3.9,2.18-5.8,3.34-2.86,1.74-5.73,3.45-8.67,5.06-2.68,1.47-5.18,3.24-7.94,4.58-1.39.67-2.65,1.62-3.99,2.4-2.96,1.74-5.92,3.45-8.89,5.17-.29.17-.58.37-1.27.22v-.02ZM66.54,26.31c-8.45.2-19.03,4.42-27.69,13.14-8.72,8.78-12.75,19.52-12.7,31.77.02,5.74,1.32,11.33,3.59,16.62,2.36,5.48,5.69,10.4,10.06,14.44,5.79,5.36,12.59,9.06,20.3,11.01,3.44.87,6.96,1.33,10.45,1.23,11.63-.32,21.92-4.22,30.38-12.35,9.48-9.13,13.96-20.41,13.45-33.5-.88-22.9-19.44-42.32-47.83-42.35h-.01Z"/>
      <path class="cls-2" d="M147.46,50.28c-.81-.92-.8-2.15-1.13-3.24-.73-2.42-1.5-4.81-2.45-7.15-1.26-3.12-2.69-6.15-4.4-9.05-1.28-2.17-2.51-4.38-4.09-6.36-.57-.72-.58-1.07.13-1.78,2.05-2.07,4-4.26,6.36-5.99,1.18-.86,2.19-1.9,3.37-2.76,2.44-1.77,5-3.34,7.56-4.91,1.11-.68,2.38-1.11,3.49-1.79,1.5-.91,3.15-1.5,4.74-2.14,2.46-.98,4.99-1.81,7.56-2.52,2.52-.7,5.06-1.31,7.63-1.64,2.35-.3,4.7-.68,7.09-.75,2.13-.06,4.27-.28,6.41-.14,3.53.22,7.06.4,10.54,1.26,1.43.35,2.91.65,4.38.89,1.93.32,3.7,1.16,5.56,1.73,4.15,1.28,7.99,3.26,11.81,5.24,2.23,1.15,4.26,2.7,6.32,4.15,2.59,1.81,4.99,3.86,7.29,6.03,2.94,2.78,5.6,5.79,8.03,9.04,3.23,4.33,5.87,8.98,8.05,13.92,1.35,3.06,2.51,6.19,3.38,9.4.84,3.08,1.6,6.2,1.82,9.41.07,1.06.36,2.1.48,3.17.3,2.72.05,5.43.16,8.14.16,4.17-.71,8.22-1.39,12.28-.4,2.37-1,4.76-1.95,7.01-.28.67-.5,1.37-.71,2.06-1.82,5.77-4.85,10.92-8.05,15.98-1.69,2.68-3.84,5-5.85,7.43-1.52,1.84-3.45,3.27-4.96,5.12-.33.4-.83.65-1.25.98-2.74,2.14-5.44,4.33-8.39,6.21-1.64,1.05-3.39,1.87-5.05,2.85-3.26,1.93-6.53,3.83-9.84,5.67-3.3,1.84-6.52,3.82-9.82,5.67-1.72.97-3.46,1.94-5.15,3-2.86,1.82-5.89,3.37-8.84,5.05-1.06.6-2.09,1.24-3.14,1.86-2.72,1.61-5.42,3.24-8.15,4.82-2.68,1.55-5.34,3.14-8.04,4.63-2.33,1.29-4.65,2.63-6.96,3.95-2.26,1.3-4.52,2.61-6.78,3.93-1.51.88-3.03,1.74-4.53,2.62-3.23,1.88-6.41,3.84-9.68,5.62-2.68,1.46-5.18,3.24-7.95,4.57-1.39.67-2.65,1.62-3.99,2.4-2.91,1.71-5.84,3.4-8.76,5.1-1.09.64-1.27.53-1.27-.78-.01-8.71-.02-17.42-.02-26.13,0-9.3.03-18.6,0-27.9,0-1.13.29-1.88,1.27-2.54.99-.67,1.99-1.36,2.8-2.31.52-.61,1.3-1.01,1.99-1.46.77-.51,1.51-1.05,2.14-1.74,1.89-2.09,3.84-4.13,5.69-6.25,1.28-1.47,2.39-3.07,3.64-4.56,2.11-2.51,3.53-5.46,5.26-8.21.84-1.34,1.73-2.73,2.34-4.16,1.04-2.44,2.41-4.77,2.92-7.41.27-1.4,1.1-2.55,1.47-3.92.21-.78.23-1.62.56-2.38.21-.48.24-1.04.52-1.51.84.77,1.22,1.85,1.72,2.8,1.32,2.52,3.04,4.73,4.93,6.8,1.63,1.78,3.24,3.6,5.25,5,2.19,1.53,4.24,3.25,6.65,4.44,1.64.81,3.3,1.59,5,2.28,1.61.66,3.16,1.46,4.94,1.54.23,0,.48.11.67.24.59.4,1.28.45,1.93.59,2.83.59,5.73.62,8.6.89.24.02.51.04.72-.04.9-.35,1.83-.22,2.75-.24,1.41-.02,2.78-.31,4.17-.49,2.76-.35,5.36-1.31,7.96-2.2,1.67-.58,3.27-1.37,4.85-2.18,1.55-.79,2.97-1.83,4.48-2.67,2.03-1.13,3.59-2.78,5.31-4.26,1.84-1.58,3.36-3.5,4.87-5.4,2-2.51,3.68-5.22,4.98-8.16,1.05-2.36,1.78-4.82,2.54-7.28.91-2.94,1.27-5.96,1.41-9,.13-2.9-.09-5.79-.48-8.7-.56-4.11-1.74-7.99-3.46-11.73-1.64-3.57-3.55-6.96-6.14-9.96-1.88-2.18-3.83-4.32-6.05-6.1-2.98-2.39-6.23-4.42-9.74-6-1.97-.89-4.01-1.54-6.08-2.14-.98-.28-2-.38-2.95-.67-2.29-.71-4.64-.97-7-1.01-3-.05-5.99.03-9,.48-2.84.43-5.57,1.17-8.23,2.1-3.68,1.28-7.12,3.14-10.32,5.39-.56.39-1.22.54-1.72,1.05-1.95,2.02-4.15,3.78-6,5.93-2.23,2.59-4.29,5.26-5.91,8.26-.18.33-.3.75-.8.74h-.02Z"/>
      <path class="cls-1" d="M147.46,50.28c.5,0,.62-.41.8-.74,1.62-3,3.68-5.67,5.91-8.26,1.85-2.15,4.05-3.91,6-5.93.5-.52,1.16-.66,1.72-1.05,3.2-2.25,6.64-4.11,10.32-5.39,2.66-.93,5.39-1.67,8.23-2.1,3.01-.45,5.99-.53,9-.48,2.37.04,4.71.3,7,1.01.95.29,1.97.39,2.95.67,2.07.6,4.11,1.25,6.08,2.14,3.51,1.58,6.77,3.62,9.74,6,2.22,1.78,4.17,3.92,6.05,6.1,2.58,3,4.5,6.4,6.14,9.96,1.72,3.74,2.9,7.62,3.46,11.73.4,2.91.62,5.79.48,8.7-.14,3.04-.5,6.06-1.41,9-.76,2.46-1.49,4.92-2.54,7.28-1.3,2.94-2.98,5.64-4.98,8.16-1.51,1.9-3.03,3.82-4.87,5.4-1.72,1.47-3.27,3.12-5.31,4.26-1.51.84-2.93,1.88-4.48,2.67-1.58.81-3.18,1.6-4.85,2.18-2.6.9-5.2,1.85-7.96,2.2-1.39.18-2.76.47-4.17.49-.92,0-1.85-.11-2.75.24-.22.08-.48.06-.72.04-2.87-.27-5.77-.3-8.6-.89-.65-.14-1.35-.18-1.93-.59-.19-.13-.44-.23-.67-.24-1.79-.09-3.33-.89-4.94-1.54-1.7-.7-3.36-1.47-5-2.28-2.41-1.19-4.46-2.91-6.65-4.44-2.01-1.4-3.62-3.22-5.25-5-1.9-2.07-3.61-4.28-4.93-6.8-.5-.95-.88-2.04-1.72-2.8-.18-.77.27-1.42.43-2.12.75-3.26,1.03-6.6,1.65-9.88.36-1.88.09-3.88.18-5.82.13-2.91.03-5.82-.28-8.71-.3-2.79-.67-5.57-1.29-8.32-.36-1.59-.95-3.16-.83-4.85h-.01ZM187.83,97.01c4.78-.04,8.78-1.45,12.62-3.4,1.56-.79,2.9-1.93,4.24-3.06,2.07-1.73,3.86-3.68,5.24-6,1.81-3.04,3.01-6.25,3.66-9.77.64-3.43.45-6.79-.18-10.12-.44-2.3-1.25-4.58-2.42-6.65-2.54-4.51-5.84-8.31-10.45-10.85-2.22-1.22-4.5-2.29-6.99-2.76-1.7-.32-3.4-.73-5.17-.7-1.11.02-2.22.09-3.34.08-2.32-.02-4.56.56-6.68,1.31-3.39,1.2-6.45,3.03-9.16,5.49-3.29,2.98-5.64,6.54-7.11,10.67-.92,2.56-1.35,5.24-1.53,7.98-.21,3.25.47,6.35,1.33,9.41.44,1.55,1.26,3,1.98,4.47,1.15,2.35,2.84,4.28,4.61,6.09,1.3,1.33,2.77,2.53,4.35,3.6,2.16,1.47,4.55,2.41,6.96,3.15,2.7.83,5.55,1.27,8.03,1.05h.01Z"/>
      <path class="cls-1" d="M66.54,26.31c28.39.02,46.95,19.45,47.83,42.35.5,13.09-3.97,24.38-13.45,33.5-8.45,8.14-18.75,12.03-30.38,12.35-3.49.1-7.01-.37-10.45-1.23-7.71-1.95-14.5-5.65-20.3-11.01-4.37-4.04-7.7-8.96-10.06-14.44-2.27-5.29-3.57-10.87-3.59-16.62-.04-12.25,3.98-22.99,12.7-31.77,8.66-8.72,19.24-12.95,27.69-13.14h0ZM71.18,96.97c15-.58,26.23-12.43,25.86-27.3-.35-14.02-11.79-27.47-29.73-25.83-12.75,1.16-23.94,11.79-23.73,26.73.21,15.1,12.49,26.89,27.6,26.4h0Z"/>
    </g>
  </g>
</svg>