<?xml version="1.0" encoding="UTF-8"?>
<svg id="Layer_2" data-name="Layer 2" xmlns="http://www.w3.org/2000/svg" viewBox="0 0 705.01 417.01">
  <defs>
    <style>
      .cls-1, .cls-2, .cls-3, .cls-4, .cls-5, .cls-6, .cls-7, .cls-8, .cls-9, .cls-10, .cls-11, .cls-12 {
        stroke-width: 0px;
      }

      .cls-13 {
        stroke: #263238;
        stroke-miterlimit: 10;
        stroke-width: .5px;
      }

      .cls-2 {
        fill: #e0e0e0;
      }

      .cls-3 {
        fill: #f5f5f5;
      }

      .cls-14 {
        opacity: .3;
      }

      .cls-4 {
        fill: #fff;
      }

      .cls-5 {
        fill: #fafafa;
      }

      .cls-6 {
        fill: #263238;
      }

      .cls-7 {
      fill: #e64d3d;
      }

      .cls-8 {
        fill: #ebebeb;
      }

      .cls-9 {
        fill: #ff9a6c;
      }

      .cls-10 {
        fill: #455a64;
      }

      .cls-11 {
        fill: #ffbf9d;
      }

      .cls-12 {
        fill: #eaeaea;
      }
    </style>
  </defs>
  <g id="Layer_1-2" data-name="Layer 1">
    <g id="Background_Complete" data-name="Background Complete">
      <g>
        <g>
          <rect class="cls-8" x="330.64" y="27.21" width="87.46" height="228.92"/>
          <rect class="cls-2" x="374.37" y="27.21" width="43.73" height="228.92"/>
          <rect class="cls-8" x="340.62" width="30.88" height="27.21"/>
          <rect class="cls-2" x="364.15" width="7.36" height="27.21"/>
          <rect class="cls-2" x="323.35" y="25.62" width="97.3" height="1.59"/>
          <rect class="cls-4" x="347.9" y="39.08" width="7.4" height="15.61"/>
          <path class="cls-2" d="M374.37,60.81c0,.17-9.79.3-21.86.3s-21.86-.13-21.86-.3,9.79-.3,21.86-.3,21.86.13,21.86.3Z"/>
          <g>
            <rect class="cls-3" x="392.01" y="39.08" width="7.4" height="15.61"/>
            <path class="cls-8" d="M418.48,60.81c0,.17-9.79.3-21.86.3s-21.87-.13-21.87-.3,9.79-.3,21.87-.3,21.86.13,21.86.3Z"/>
          </g>
          <g>
            <rect class="cls-3" x="392.01" y="70.07" width="7.4" height="15.61"/>
            <path class="cls-8" d="M418.48,91.81c0,.16-9.79.3-21.86.3s-21.87-.13-21.87-.3,9.79-.3,21.87-.3,21.86.13,21.86.3Z"/>
          </g>
          <g>
            <rect class="cls-3" x="392.01" y="102" width="7.4" height="15.61"/>
            <path class="cls-8" d="M418.48,123.73c0,.16-9.79.3-21.86.3s-21.87-.13-21.87-.3,9.79-.3,21.87-.3,21.86.13,21.86.3Z"/>
          </g>
          <g>
            <rect class="cls-3" x="392.01" y="133.92" width="7.4" height="15.61"/>
            <path class="cls-8" d="M418.48,155.66c0,.16-9.79.3-21.86.3s-21.87-.13-21.87-.3,9.79-.3,21.87-.3,21.86.13,21.86.3Z"/>
          </g>
          <g>
            <rect class="cls-3" x="392.01" y="164.94" width="7.4" height="15.61"/>
            <path class="cls-8" d="M418.48,186.67c0,.16-9.79.3-21.86.3s-21.87-.13-21.87-.3,9.79-.3,21.87-.3,21.86.13,21.86.3Z"/>
          </g>
          <g>
            <rect class="cls-3" x="392.01" y="196.08" width="7.4" height="15.61"/>
            <rect class="cls-3" x="392.01" y="227.62" width="7.4" height="15.61"/>
            <path class="cls-8" d="M418.48,217.81c0,.16-9.79.3-21.86.3s-21.87-.13-21.87-.3,9.79-.3,21.87-.3,21.86.13,21.86.3Z"/>
          </g>
          <rect class="cls-4" x="347.9" y="70.54" width="7.4" height="15.61"/>
          <path class="cls-2" d="M374.37,92.28c0,.16-9.79.3-21.86.3s-21.86-.13-21.86-.3,9.79-.3,21.86-.3,21.86.13,21.86.3Z"/>
          <rect class="cls-4" x="347.9" y="102.01" width="7.4" height="15.61"/>
          <path class="cls-2" d="M374.37,123.74c0,.16-9.79.3-21.86.3s-21.86-.13-21.86-.3,9.79-.3,21.86-.3,21.86.13,21.86.3Z"/>
          <rect class="cls-4" x="347.9" y="133.47" width="7.4" height="15.61"/>
          <path class="cls-2" d="M374.37,155.21c0,.16-9.79.3-21.86.3s-21.86-.13-21.86-.3,9.79-.3,21.86-.3,21.86.13,21.86.3Z"/>
          <rect class="cls-4" x="347.9" y="164.94" width="7.4" height="15.61"/>
          <path class="cls-2" d="M374.37,186.67c0,.16-9.79.3-21.86.3s-21.86-.13-21.86-.3,9.79-.3,21.86-.3,21.86.13,21.86.3Z"/>
          <rect class="cls-4" x="347.9" y="196.4" width="7.4" height="15.61"/>
          <path class="cls-2" d="M374.37,218.14c0,.16-9.79.3-21.86.3s-21.86-.13-21.86-.3,9.79-.3,21.86-.3c12.07,0,21.86.13,21.86.3Z"/>
          <rect class="cls-4" x="347.9" y="227.87" width="7.4" height="15.61"/>
        </g>
        <g>
          <g>
            <rect class="cls-2" x="249.79" y="85.58" width="89.86" height="170.55"/>
            <rect class="cls-8" x="297.52" y="85.58" width="42.13" height="170.55"/>
          </g>
          <g>
            <rect class="cls-3" x="268.63" y="101.63" width="8.08" height="19.63"/>
            <rect class="cls-3" x="268.63" y="178.46" width="8.08" height="19.63"/>
            <path class="cls-3" d="M297.52,128.96c0,.17-10.68.31-23.86.31s-23.86-.14-23.86-.31,10.68-.31,23.86-.31,23.86.14,23.86.31Z"/>
          </g>
          <g>
            <rect class="cls-3" x="268.63" y="140.33" width="8.08" height="19.63"/>
            <path class="cls-3" d="M297.52,167.67c0,.17-10.68.31-23.86.31s-23.86-.14-23.86-.31,10.68-.31,23.86-.31,23.86.14,23.86.31Z"/>
          </g>
          <rect class="cls-2" x="306.47" y="101.63" width="8.08" height="19.63"/>
          <rect class="cls-2" x="323.99" y="101.63" width="8.08" height="19.63"/>
          <rect class="cls-2" x="306.47" y="138.88" width="8.08" height="19.63"/>
          <rect class="cls-2" x="323.99" y="138.88" width="8.08" height="19.63"/>
          <rect class="cls-2" x="306.47" y="176.13" width="8.08" height="19.63"/>
          <rect class="cls-2" x="323.99" y="176.13" width="8.08" height="19.63"/>
          <rect class="cls-2" x="243.04" y="81.46" width="103.37" height="4.27"/>
          <path class="cls-8" d="M340.28,86.13c0,.17-20.08.31-44.86.31s-44.86-.14-44.86-.31,20.08-.31,44.86-.31,44.86.14,44.86.31Z"/>
        </g>
        <g>
          <rect class="cls-3" x="581.24" y="24.79" width="73" height="231.34"/>
          <rect class="cls-8" x="617.74" y="24.79" width="36.5" height="230.7"/>
          <rect class="cls-3" x="589.57" y="2.08" width="25.78" height="22.71"/>
          <rect class="cls-8" x="609.21" y="2.08" width="6.14" height="22.71"/>
          <polyline class="cls-2" points="575.15 24.79 575.15 23.46 656.37 23.46 656.37 24.79"/>
          <rect class="cls-5" x="595.65" y="34.69" width="6.18" height="13.03"/>
          <path class="cls-2" d="M617.74,52.83c0,.14-8.17.25-18.25.25s-18.25-.11-18.25-.25,8.17-.25,18.25-.25c10.08,0,18.25.11,18.25.25Z"/>
          <g>
            <rect class="cls-2" x="632.46" y="34.69" width="6.18" height="13.03"/>
            <path class="cls-2" d="M654.55,52.83c0,.14-8.17.25-18.25.25s-18.25-.11-18.25-.25,8.17-.25,18.25-.25c10.08,0,18.25.11,18.25.25Z"/>
          </g>
          <g>
            <rect class="cls-2" x="632.46" y="60.56" width="6.18" height="13.03"/>
            <path class="cls-2" d="M654.55,78.7c0,.14-8.17.25-18.25.25s-18.25-.11-18.25-.25,8.17-.25,18.25-.25c10.08,0,18.25.11,18.25.25Z"/>
          </g>
          <g>
            <rect class="cls-2" x="632.46" y="87.21" width="6.18" height="13.03"/>
            <path class="cls-2" d="M654.55,105.35c0,.14-8.17.25-18.25.25s-18.25-.11-18.25-.25,8.17-.25,18.25-.25c10.08,0,18.25.11,18.25.25Z"/>
          </g>
          <g>
            <rect class="cls-2" x="632.46" y="113.85" width="6.18" height="13.03"/>
            <path class="cls-2" d="M654.55,132c0,.14-8.17.25-18.25.25s-18.25-.11-18.25-.25,8.17-.25,18.25-.25c10.08,0,18.25.11,18.25.25Z"/>
          </g>
          <g>
            <rect class="cls-2" x="632.46" y="139.74" width="6.18" height="13.03"/>
            <path class="cls-2" d="M654.55,157.88c0,.14-8.17.25-18.25.25s-18.25-.11-18.25-.25,8.17-.25,18.25-.25c10.08,0,18.25.11,18.25.25Z"/>
          </g>
          <g>
            <rect class="cls-2" x="632.46" y="165.73" width="6.18" height="13.03"/>
            <rect class="cls-2" x="632.46" y="192.06" width="6.18" height="13.03"/>
            <path class="cls-2" d="M654.55,183.87c0,.14-8.17.25-18.25.25s-18.25-.11-18.25-.25,8.17-.25,18.25-.25c10.08,0,18.25.11,18.25.25Z"/>
          </g>
          <rect class="cls-5" x="595.65" y="60.95" width="6.18" height="13.03"/>
          <path class="cls-2" d="M617.74,79.1c0,.14-8.17.25-18.25.25s-18.25-.11-18.25-.25,8.17-.25,18.25-.25c10.08,0,18.25.11,18.25.25Z"/>
          <rect class="cls-5" x="595.65" y="87.22" width="6.18" height="13.03"/>
          <path class="cls-2" d="M617.74,105.36c0,.14-8.17.25-18.25.25s-18.25-.11-18.25-.25,8.17-.25,18.25-.25c10.08,0,18.25.11,18.25.25Z"/>
          <rect class="cls-5" x="595.65" y="113.48" width="6.18" height="13.03"/>
          <path class="cls-2" d="M617.74,131.62c0,.14-8.17.25-18.25.25s-18.25-.11-18.25-.25,8.17-.25,18.25-.25c10.08,0,18.25.11,18.25.25Z"/>
          <rect class="cls-5" x="595.65" y="139.74" width="6.18" height="13.03"/>
          <path class="cls-2" d="M617.74,157.88c0,.14-8.17.25-18.25.25s-18.25-.11-18.25-.25,8.17-.25,18.25-.25c10.08,0,18.25.11,18.25.25Z"/>
          <rect class="cls-5" x="595.65" y="166" width="6.18" height="13.03"/>
          <path class="cls-2" d="M617.74,184.14c0,.14-8.17.25-18.25.25s-18.25-.11-18.25-.25,8.17-.25,18.25-.25c10.08,0,18.25.11,18.25.25Z"/>
          <rect class="cls-5" x="595.65" y="192.26" width="6.18" height="13.03"/>
        </g>
        <g>
          <rect class="cls-3" x="90.16" y="47.67" width="65.77" height="208.45"/>
          <rect class="cls-8" x="123.05" y="47.67" width="32.89" height="207.88"/>
          <rect class="cls-3" x="97.67" y="27.21" width="23.23" height="20.46"/>
          <rect class="cls-8" x="115.37" y="27.21" width="5.54" height="20.46"/>
          <polyline class="cls-2" points="84.68 47.67 84.68 46.48 157.86 46.48 157.86 47.67"/>
          <rect class="cls-5" x="103.15" y="56.6" width="5.57" height="11.74"/>
          <path class="cls-2" d="M123.05,72.95c0,.12-7.36.22-16.44.22s-16.44-.1-16.44-.22,7.36-.22,16.44-.22c9.08,0,16.44.1,16.44.22Z"/>
          <g>
            <rect class="cls-2" x="136.32" y="56.6" width="5.57" height="11.74"/>
            <path class="cls-2" d="M156.22,72.95c0,.12-7.36.22-16.44.22s-16.44-.1-16.44-.22,7.36-.22,16.44-.22c9.08,0,16.44.1,16.44.22Z"/>
          </g>
          <g>
            <rect class="cls-2" x="136.32" y="79.91" width="5.57" height="11.74"/>
            <path class="cls-2" d="M156.22,96.25c0,.12-7.36.22-16.44.22s-16.44-.1-16.44-.22,7.36-.22,16.44-.22,16.44.1,16.44.22Z"/>
          </g>
          <g>
            <rect class="cls-2" x="136.32" y="103.92" width="5.57" height="11.74"/>
            <path class="cls-2" d="M156.22,120.27c0,.12-7.36.22-16.44.22s-16.44-.1-16.44-.22,7.36-.22,16.44-.22,16.44.1,16.44.22Z"/>
          </g>
          <g>
            <rect class="cls-2" x="136.32" y="127.93" width="5.57" height="11.74"/>
            <path class="cls-2" d="M156.22,144.28c0,.12-7.36.22-16.44.22s-16.44-.1-16.44-.22,7.36-.22,16.44-.22,16.44.1,16.44.22Z"/>
          </g>
          <g>
            <rect class="cls-2" x="136.32" y="151.25" width="5.57" height="11.74"/>
            <path class="cls-2" d="M156.22,167.6c0,.12-7.36.22-16.44.22s-16.44-.1-16.44-.22,7.36-.22,16.44-.22,16.44.1,16.44.22Z"/>
          </g>
          <g>
            <rect class="cls-2" x="136.32" y="174.67" width="5.57" height="11.74"/>
            <rect class="cls-2" x="136.32" y="198.4" width="5.57" height="11.74"/>
            <path class="cls-2" d="M156.22,191.02c0,.12-7.36.22-16.44.22s-16.44-.1-16.44-.22,7.36-.22,16.44-.22,16.44.1,16.44.22Z"/>
          </g>
          <rect class="cls-5" x="103.15" y="80.26" width="5.57" height="11.74"/>
          <path class="cls-2" d="M123.05,96.61c0,.12-7.36.22-16.44.22s-16.44-.1-16.44-.22,7.36-.22,16.44-.22,16.44.1,16.44.22Z"/>
          <rect class="cls-5" x="103.15" y="103.93" width="5.57" height="11.74"/>
          <path class="cls-2" d="M123.05,120.27c0,.12-7.36.22-16.44.22s-16.44-.1-16.44-.22,7.36-.22,16.44-.22c9.08,0,16.44.1,16.44.22Z"/>
          <rect class="cls-5" x="103.15" y="127.59" width="5.57" height="11.74"/>
          <path class="cls-2" d="M123.05,143.94c0,.12-7.36.22-16.44.22s-16.44-.1-16.44-.22,7.36-.22,16.44-.22,16.44.1,16.44.22Z"/>
          <rect class="cls-5" x="103.15" y="151.25" width="5.57" height="11.74"/>
          <path class="cls-2" d="M123.05,167.6c0,.12-7.36.22-16.44.22s-16.44-.1-16.44-.22,7.36-.22,16.44-.22,16.44.1,16.44.22Z"/>
          <rect class="cls-5" x="103.15" y="174.92" width="5.57" height="11.74"/>
          <path class="cls-2" d="M123.05,191.26c0,.12-7.36.22-16.44.22s-16.44-.1-16.44-.22,7.36-.22,16.44-.22,16.44.1,16.44.22Z"/>
          <rect class="cls-5" x="103.15" y="198.58" width="5.57" height="11.74"/>
        </g>
        <g>
          <polygon class="cls-8" points="586.77 256.41 480.73 256.41 480.27 88.81 586.31 88.81 586.77 256.41"/>
          <rect class="cls-2" x="533.29" y="88.81" width="53.02" height="167.6"/>
          <rect class="cls-8" x="492.38" y="55.82" width="37.45" height="32.99"/>
          <rect class="cls-2" x="520.9" y="55.82" width="8.92" height="32.99"/>
          <rect class="cls-2" x="471.43" y="86.89" width="117.99" height="1.93"/>
          <rect class="cls-4" x="501.2" y="103.2" width="8.98" height="18.93"/>
          <path class="cls-2" d="M533.29,129.56c0,.2-11.87.36-26.51.36s-26.51-.16-26.51-.36,11.87-.36,26.51-.36,26.51.16,26.51.36Z"/>
          <g>
            <rect class="cls-3" x="554.68" y="103.2" width="8.98" height="18.93"/>
            <path class="cls-8" d="M586.77,129.56c0,.2-11.87.36-26.51.36s-26.51-.16-26.51-.36,11.87-.36,26.51-.36,26.51.16,26.51.36Z"/>
          </g>
          <g>
            <rect class="cls-3" x="554.68" y="140.78" width="8.98" height="18.93"/>
            <path class="cls-8" d="M586.77,167.13c0,.2-11.87.36-26.51.36s-26.51-.16-26.51-.36,11.87-.36,26.51-.36c14.64,0,26.51.16,26.51.36Z"/>
          </g>
          <g>
            <rect class="cls-3" x="554.68" y="179.49" width="8.98" height="18.93"/>
            <path class="cls-8" d="M586.77,205.85c0,.2-11.87.36-26.51.36s-26.51-.16-26.51-.36,11.87-.36,26.51-.36c14.64,0,26.51.16,26.51.36Z"/>
          </g>
          <g>
            <rect class="cls-3" x="554.68" y="218.2" width="8.98" height="18.93"/>
            <path class="cls-8" d="M586.77,244.56c0,.2-11.87.36-26.51.36s-26.51-.16-26.51-.36,11.87-.36,26.51-.36,26.51.16,26.51.36Z"/>
          </g>
          <rect class="cls-4" x="501.2" y="141.35" width="8.98" height="18.93"/>
          <path class="cls-2" d="M533.29,167.71c0,.2-11.87.36-26.51.36s-26.51-.16-26.51-.36,11.87-.36,26.51-.36c14.64,0,26.51.16,26.51.36Z"/>
          <rect class="cls-4" x="501.2" y="179.5" width="8.98" height="18.93"/>
          <path class="cls-2" d="M533.29,205.86c0,.2-11.87.36-26.51.36s-26.51-.16-26.51-.36,11.87-.36,26.51-.36c14.64,0,26.51.16,26.51.36Z"/>
          <rect class="cls-4" x="501.2" y="217.65" width="8.98" height="18.93"/>
          <path class="cls-2" d="M533.29,244.01c0,.2-11.87.36-26.51.36s-26.51-.16-26.51-.36,11.87-.36,26.51-.36,26.51.16,26.51.36Z"/>
        </g>
        <path class="cls-2" d="M624.33,256.13c0,.14-128.9.26-287.88.26s-287.91-.12-287.91-.26,128.88-.26,287.91-.26c158.98,0,287.88.12,287.88.26Z"/>
      </g>
      <path class="cls-3" d="M101.93,90.5c.47-3.4-4.34-6.21-7.95-6.5-1.72-.14-3.51.12-5.14-.44-3.54-1.23-4.95-5.8-8.39-7.25-2.58-1.09-5.55-.12-8.05,1.14s-4.97,2.84-7.76,3.02c-2.43.16-5.07-.75-7.19.44-1.58.88-2.41,2.71-3.87,3.79-1.43,1.05-3.29,1.28-5.06,1.37-1.77.1-3.61.11-5.22.85-1.61.74-2.95,2.45-2.61,4.19l61.26-.6Z"/>
      <path class="cls-3" d="M240.28,34.24c.47-3.4-4.34-6.21-7.95-6.5-1.72-.14-3.51.12-5.14-.44-3.54-1.23-4.95-5.8-8.4-7.25-2.58-1.09-5.55-.12-8.05,1.14s-4.97,2.84-7.76,3.02c-2.43.15-5.07-.75-7.19.44-1.58.88-2.41,2.71-3.87,3.79-1.43,1.05-3.29,1.28-5.06,1.37s-3.61.11-5.22.85c-1.61.74-2.95,2.44-2.61,4.19l61.26-.6Z"/>
      <path class="cls-3" d="M502.07,32.65c.47-3.4-4.34-6.21-7.95-6.5-1.72-.14-3.51.12-5.14-.44-3.54-1.23-4.95-5.8-8.39-7.25-2.58-1.09-5.55-.12-8.05,1.14s-4.97,2.84-7.76,3.02c-2.43.15-5.07-.75-7.19.44-1.58.88-2.41,2.71-3.87,3.79-1.43,1.05-3.29,1.28-5.06,1.37s-3.61.11-5.22.85c-1.61.74-2.95,2.44-2.61,4.19l61.26-.6Z"/>
    </g>
    <g id="Floor">
      <path class="cls-6" d="M695.96,416.5c0,.14-155.81.26-347.97.26s-348-.12-348-.26,155.78-.26,348-.26,347.97.12,347.97.26Z"/>
    </g>
    <g id="Bus">
      <g>
        <g>
          <g>
            <g>
              <rect class="cls-7" x="40.21" y="315.7" width="117.05" height="76.09"/>
              <path class="cls-6" d="M40.18,315.67v76.14h117.1v-76.14H40.18ZM157.23,391.76H40.23v-76.04h117v76.04Z"/>
            </g>
            <g class="cls-14">
              <rect class="cls-1" x="40.21" y="315.7" width="117.05" height="76.09"/>
            </g>
          </g>
          <path class="cls-7" d="M677.89,143.96v228.24c0,10.93-11.27,19.8-25.17,19.8H148.39c.03-.06.05-.13.07-.19.01-.01.01-.02.02-.03v-.02c1.74-4.38,2.81-9.08,3.12-14,.06-.96.09-1.94.09-2.92,0-3.47-.38-6.86-1.11-10.11-2.89-12.97-11.22-23.89-22.48-30.23-3.76-2.12-7.84-3.73-12.16-4.73-1.6-.38-3.23-.67-4.89-.87-1.84-.22-3.72-.34-5.63-.34-.52,0-1.04.01-1.55.03-6.63.21-12.9,1.82-18.53,4.54-3.72,1.8-7.15,4.07-10.23,6.75-7.96,6.89-13.53,16.46-15.34,27.3-.41,2.49-.63,5.05-.63,7.66,0,1.61.08,3.2.25,4.77.43,4.25,1.45,8.32,2.96,12.15v.02s.01.02.02.03c.02.06.04.13.07.19h-26.83c-4.77,0-9.23-1.05-13.03-2.86-7.28-3.47-12.14-9.76-12.14-16.94v-228.24c0-10.94,11.27-19.81,25.17-19.81h617.11c10.95,0,20.27,5.5,23.72,13.19.44.97.79,1.97,1.02,3,.17.67.28,1.36.35,2.06.01.08.02.16.02.24t0,.02s.01,0,0,.02c.01.08.02.16.03.24.02.34.03.69.03,1.04Z"/>
          <rect class="cls-10" x="296.75" y="142.41" width="247.06" height="148.44"/>
          <path class="cls-6" d="M10.87,142.66c0-.14,149.43-.26,333.71-.26s333.74.12,333.74.26-149.39.26-333.74.26-333.71-.12-333.71-.26Z"/>
          <path class="cls-7" d="M516.88,129.23h-162.87c-4.06,0-7.36-3.29-7.36-7.36h0c0-4.06,3.29-7.36,7.36-7.36h162.87c4.06,0,7.36,3.29,7.36,7.36h0c0,4.06-3.29,7.36-7.36,7.36Z"/>
          <path class="cls-7" d="M119.35,129.23H47.61c-4.06,0-7.36-3.29-7.36-7.36h0c0-4.06,3.29-7.36,7.36-7.36h71.74c4.06,0,7.36,3.29,7.36,7.36h0c0,4.06-3.29,7.36-7.36,7.36Z"/>
          <g class="cls-14">
            <rect class="cls-1" x="424.99" y="313.27" width="101.78" height="78.74"/>
          </g>
          <path class="cls-10" d="M679.87,366.41h-18.21c-3.2,0-5.79-2.59-5.79-5.79h0c0-3.2,2.59-5.79,5.79-5.79h18.21c3.2,0,5.79,2.59,5.79,5.79h0c0,3.2-2.59,5.79-5.79,5.79Z"/>
          <g>
            <path class="cls-8" d="M677.9,351.06h-9.18c-8.23,0-14.9-6.67-14.9-14.9h0c0-8.23,6.67-14.9,14.9-14.9h9.18v29.8Z"/>
            <path class="cls-6" d="M677.9,351.06s-.02-.21-.03-.59c0-.42-.02-.97-.03-1.66-.02-1.48-.04-3.56-.07-6.17-.03-5.29-.07-12.7-.12-21.37l.24.24c-2.72,0-5.57,0-8.53.01-2.92-.09-5.96.65-8.55,2.33-2.71,1.75-4.77,4.33-5.8,7.19-.29.7-.45,1.44-.64,2.16-.11.74-.26,1.46-.27,2.2-.1,1.46.06,2.9.39,4.25.63,2.73,2.08,5.07,3.81,6.86,1.76,1.76,3.82,2.95,5.83,3.63,2.01.71,3.97.79,5.65.78,1.68.02,3.14.04,4.34.05,1.17.02,2.1.04,2.78.05.3,0,.54.02.73.02.17,0,.26.01.26.02,0,0-.07.01-.23.02-.19,0-.42.01-.7.02-.67.01-1.59.03-2.75.05-1.23.02-2.7.03-4.41.05-1.72.04-3.72-.02-5.79-.72-2.07-.67-4.19-1.88-6.02-3.68-1.79-1.82-3.3-4.23-3.97-7.05-.35-1.4-.52-2.89-.42-4.39,0-.76.16-1.51.27-2.27.19-.75.36-1.51.66-2.24,1.07-2.96,3.2-5.64,6-7.45,2.67-1.74,5.85-2.51,8.83-2.4,2.96,0,5.81,0,8.53.01h.24s0,.24,0,.24c-.05,8.74-.09,16.2-.12,21.53-.03,2.59-.05,4.65-.07,6.12-.01.67-.02,1.21-.03,1.61-.01.36-.02.54-.03.53Z"/>
          </g>
          <path class="cls-7" d="M701.82,165.19h-3c0-13.7-8.06-24.85-17.96-24.85h-32.96v-3h32.96c11.56,0,20.96,12.49,20.96,27.85Z"/>
          <g>
            <path class="cls-7" d="M701.33,232.19h-7.5c-1.88,0-3.41-1.53-3.41-3.41v-68.18c0-1.88,1.53-3.41,3.41-3.41h7.5c1.88,0,3.41,1.53,3.41,3.41v68.18c0,1.88-1.53,3.41-3.41,3.41Z"/>
            <path class="cls-6" d="M701.33,232.19c-.02-.05.65.07,1.65-.49.48-.29,1.04-.77,1.37-1.53.39-.75.28-1.73.28-2.83-.02-4.4-.05-10.72-.08-18.51-.02-7.82-.03-17.13-.06-27.46,0-5.17-.01-10.59-.02-16.21,0-1.41,0-2.82,0-4.25.11-1.37-.69-2.7-1.95-3.21-.62-.28-1.3-.24-2.05-.24-.73,0-1.47,0-2.2,0h-4.45c-1.39-.02-2.7.98-3.04,2.32-.19.64-.09,1.39-.12,2.12,0,.73,0,1.46,0,2.19,0,2.9,0,5.77,0,8.58,0,5.62-.01,11.05-.02,16.22-.02,10.33-.04,19.64-.06,27.46-.01,3.9-.03,7.44-.04,10.55,0,.77-.02,1.54,0,2.23.07.69.35,1.33.77,1.81.42.49.96.82,1.51,1.01.56.18,1.13.15,1.68.16,2.17.02,3.86.04,5.03.05.56.01.99.02,1.31.03.3,0,.45.02.45.02s-.15.02-.45.03c-.32,0-.75.02-1.31.03-1.18.01-2.87.03-5.03.05-.54,0-1.14.04-1.75-.14-.6-.18-1.18-.54-1.64-1.06-.46-.52-.77-1.2-.85-1.95-.04-.75-.02-1.48-.03-2.26-.01-3.11-.02-6.64-.04-10.55-.02-7.82-.03-17.13-.06-27.46,0-5.17-.01-10.59-.02-16.22,0-2.81,0-5.67,0-8.58v-3.29c0-.37.02-.79.13-1.16.39-1.55,1.92-2.72,3.54-2.7h6.65c.7,0,1.52-.04,2.25.28,1.47.57,2.4,2.2,2.27,3.69,0,1.43,0,2.85,0,4.25,0,5.62-.01,11.05-.02,16.21-.02,10.33-.04,19.63-.06,27.46-.03,7.8-.06,14.12-.08,18.51,0,.55-.01,1.06-.02,1.55-.02.5-.15.95-.33,1.34-.37.79-.96,1.27-1.46,1.55-.51.28-.96.37-1.26.39-.3.02-.45,0-.45,0Z"/>
          </g>
          <g>
            <polygon class="cls-10" points="160.86 295.19 106.29 293.79 60.39 240.2 22.58 240.2 22.58 142.66 160.86 142.66 160.86 295.19"/>
            <path class="cls-6" d="M160.86,295.19s0-.25-.01-.73c0-.49,0-1.2-.01-2.13,0-1.88-.01-4.66-.03-8.27-.01-7.23-.04-17.8-.06-31.2-.03-26.78-.07-64.89-.12-110.2l.23.23c-36.6,0-78.63.02-123.11.03h-15.17l.26-.26c0,34.65-.01,67.58-.02,97.53l-.24-.24c13.24,0,25.86.01,37.81.02h.1l.07.08c17.84,20.87,33.36,39.03,45.85,53.64l-.11-.05c17.25.48,30.87.86,40.19,1.12,4.66.14,8.25.24,10.68.31,1.21.04,2.13.07,2.75.09.62.02.94.04.94.04,0,0-.3,0-.91,0-.62-.01-1.53-.03-2.73-.05-2.42-.05-6-.13-10.65-.23-9.34-.22-23-.54-40.29-.95h-.07s-.04-.05-.04-.05c-12.51-14.59-28.07-32.72-45.95-53.56l.17.08c-11.95,0-24.57.01-37.81.02h-.24v-.24c0-29.95-.01-62.88-.02-97.53v-.26h15.43c44.49,0,86.51.02,123.11.03h.23v.23c-.05,45.38-.09,83.53-.12,110.35-.03,13.38-.05,23.93-.06,31.15-.01,3.59-.02,6.35-.03,8.22,0,.92,0,1.62-.01,2.1,0,.47-.01.7-.01.7Z"/>
          </g>
          <g>
            <circle class="cls-6" cx="475.73" cy="375.74" r="40.27" transform="translate(92.33 845.33) rotate(-89.07)"/>
            <path class="cls-6" d="M435.46,375.08s0,.07,0,.1c-.32,22.24,17.45,40.53,39.69,40.85s40.53-17.45,40.85-39.69c0-.04,0-.07,0-.1l-80.53-1.16Z"/>
            <path class="cls-5" d="M447.45,375.35c-.23,15.61,12.25,28.45,27.86,28.68,15.61.23,28.45-12.25,28.68-27.86.22-15.61-12.25-28.45-27.86-28.68-15.62-.23-28.46,12.25-28.68,27.86Z"/>
            <path class="cls-2" d="M476.13,347.49c-15.61-.23-28.45,12.25-28.68,27.86l56.54.82c.22-15.62-12.25-28.46-27.87-28.68Z"/>
            <path class="cls-6" d="M458.5,375.51c-.14,9.51,7.46,17.33,16.97,17.47s17.33-7.46,17.47-16.97c.14-9.51-7.46-17.33-16.97-17.47-9.51-.14-17.33,7.46-17.47,16.97Z"/>
          </g>
          <g>
            <path class="cls-6" d="M145.55,376.75c-.01.86-.05,1.71-.12,2.55-.05.64-.11,1.28-.2,1.92-.02.21-.05.42-.08.64-.06.47-.14.95-.23,1.42-.03.19-.06.37-.1.55-.08.42-.17.84-.26,1.26-.1.42-.2.84-.31,1.26-.48,1.86-1.1,3.67-1.83,5.41,0,.01-.01.01-.01.02s-.01.02-.01.03h-.01c-1.19,2.84-2.71,5.52-4.5,7.98-.37.51-.75,1.01-1.14,1.51-1.8,2.25-3.84,4.31-6.08,6.12-.46.37-.93.74-1.4,1.08-.29.23-.59.45-.89.65-.52.36-1.05.71-1.58,1.06-1.09.69-2.22,1.33-3.38,1.91-.55.28-1.1.55-1.66.79-.06.04-.12.07-.19.09-.49.22-.99.43-1.5.63-.13.06-.26.11-.39.15-.53.2-1.07.4-1.62.58-.4.14-.8.27-1.2.38-.45.14-.9.26-1.36.38-3.44.91-7.07,1.37-10.81,1.31-1.15-.02-2.28-.08-3.4-.19-.57-.06-1.14-.13-1.71-.21-.99-.14-1.98-.31-2.95-.53-.64-.14-1.27-.29-1.9-.46-.32-.09-.65-.18-.97-.28-.62-.19-1.23-.39-1.84-.6-.22-.07-.44-.15-.66-.24-.39-.14-.78-.29-1.17-.45-.91-.37-1.81-.77-2.68-1.21-.57-.29-1.13-.58-1.68-.88-.01-.01-.02-.01-.03-.02-.28-.16-.56-.32-.83-.48-1.11-.65-2.19-1.35-3.22-2.11-.77-.56-1.52-1.15-2.25-1.75-.25-.21-.5-.42-.74-.65-.48-.41-.94-.84-1.39-1.28-.97-.93-1.88-1.9-2.74-2.93-.58-.68-1.14-1.39-1.67-2.11-.5-.66-.97-1.35-1.41-2.05-.78-1.19-1.49-2.43-2.13-3.71-.28-.54-.55-1.1-.79-1.66-.13-.27-.25-.54-.36-.82-.01-.01-.01-.02-.01-.03,0,0-.01-.01-.01-.02-.12-.27-.23-.54-.34-.82-.05-.12-.1-.25-.15-.39-.2-.53-.4-1.07-.58-1.62-.16-.45-.3-.89-.42-1.35-.13-.4-.24-.8-.34-1.21-.64-2.43-1.06-4.95-1.22-7.54-.08-1.07-.11-2.16-.09-3.25v-.1c.06-3.5.56-6.88,1.46-10.1,1.92-6.93,5.64-13.09,10.61-17.97,3.22-3.15,6.96-5.77,11.08-7.7,5.38-2.54,11.4-3.92,17.75-3.82.15,0,.31.01.46.01,2.32.06,4.59.32,6.8.76,3.76.74,7.34,2.01,10.64,3.73,10.31,5.35,18,15.02,20.69,26.57.74,3.14,1.1,6.42,1.05,9.79Z"/>
            <path class="cls-6" d="M145.55,376.75c-.01.86-.05,1.71-.12,2.55-.05.64-.11,1.28-.2,1.92-.02.21-.05.42-.08.64-.06.47-.14.95-.23,1.42-.03.19-.06.37-.1.55-.08.42-.17.84-.26,1.26-.1.42-.2.84-.31,1.26-.48,1.86-1.1,3.67-1.83,5.41,0,.01-.01.01-.01.02s-.01.02-.01.03h-.01c-1.19,2.84-2.71,5.52-4.5,7.98-.37.51-.75,1.01-1.14,1.51-1.8,2.25-3.84,4.31-6.08,6.12-.46.38-.92.74-1.4,1.08-.29.23-.59.45-.89.65-.52.36-1.05.71-1.58,1.06-1.09.69-2.22,1.33-3.38,1.91-.55.28-1.1.55-1.66.79-.06.04-.12.07-.19.09-.49.22-.99.43-1.5.63-.13.06-.26.11-.39.15-.53.2-1.07.4-1.62.58-.4.14-.8.27-1.2.38-.45.14-.9.26-1.36.38-3.44.91-7.07,1.37-10.81,1.31-1.15-.02-2.28-.08-3.4-.19-.57-.06-1.14-.13-1.71-.21-.99-.14-1.98-.31-2.95-.53-.64-.14-1.27-.29-1.9-.46-.32-.09-.65-.18-.97-.28-.62-.19-1.23-.39-1.84-.6-.22-.07-.44-.15-.66-.24-.39-.14-.78-.29-1.17-.45-.91-.37-1.81-.77-2.68-1.21-.57-.29-1.13-.58-1.68-.88-.01-.01-.02-.01-.03-.02-.28-.16-.56-.32-.83-.48-1.11-.65-2.19-1.35-3.22-2.11-.77-.55-1.52-1.14-2.25-1.75-.25-.21-.5-.42-.74-.65-.48-.41-.94-.84-1.39-1.28-.97-.93-1.88-1.9-2.74-2.93-.58-.68-1.14-1.39-1.67-2.11-.5-.66-.97-1.35-1.41-2.05-.78-1.19-1.49-2.43-2.13-3.71-.28-.54-.55-1.1-.79-1.66-.13-.27-.25-.54-.36-.82-.01-.01-.01-.02-.01-.03h-.01v-.02c-.12-.27-.23-.54-.34-.82-.05-.12-.1-.25-.15-.39-.2-.53-.4-1.07-.58-1.62-.16-.45-.3-.89-.42-1.35-.13-.4-.24-.8-.34-1.21-.64-2.43-1.06-4.95-1.22-7.54-.08-1.07-.11-2.16-.09-3.25v-.1l8.58.12,3.41.05h.01l11.04.16,11.51.17,7.78.11,15.16.22,4.83.07h.01l6.21.09,11.99.17s.01.07.01.11Z"/>
            <path class="cls-5" d="M77.01,375.76c-.22,15.61,12.25,28.45,27.86,28.68,15.61.23,28.45-12.25,28.68-27.86s-12.25-28.45-27.86-28.68c-15.62-.23-28.46,12.25-28.68,27.86Z"/>
            <path class="cls-2" d="M105.69,347.9c-15.61-.23-28.45,12.25-28.68,27.86l56.54.82c.23-15.62-12.25-28.46-27.87-28.68Z"/>
            <path class="cls-6" d="M88.06,375.92c-.14,9.51,7.46,17.33,16.97,17.47,9.51.14,17.33-7.46,17.47-16.97.14-9.51-7.46-17.33-16.97-17.47-9.51-.14-17.33,7.46-17.47,16.97Z"/>
          </g>
          <path class="cls-6" d="M22.58,389.15c-.14,0-.26-55.18-.26-123.23s.12-123.25.26-123.25.26,55.17.26,123.25c0,68.05-.12,123.23-.26,123.23Z"/>
          <path class="cls-6" d="M31.88,125.07c0-.14,111.68-.26,249.41-.26s249.43.12,249.43.26-111.65.26-249.43.26-249.41-.12-249.41-.26Z"/>
          <path class="cls-6" d="M296.75,308.35c-.14,0-.26-36.59-.26-81.72s.12-81.73.26-81.73.26,36.58.26,81.73c0,45.13-.12,81.72-.26,81.72Z"/>
          <path class="cls-6" d="M422.57,287.35c-.14,0-.26-31.89-.26-71.22s.12-71.23.26-71.23.26,31.88.26,71.23c0,39.33-.12,71.22-.26,71.22Z"/>
          <path class="cls-6" d="M338.64,271.02c-.12-.08,12.59-18.67,28.39-41.52,15.8-22.85,28.7-41.31,28.82-41.23.12.08-12.59,18.67-28.39,41.52-15.8,22.85-28.7,41.31-28.82,41.23Z"/>
          <path class="cls-6" d="M320.86,279.47c-.12-.08,13.51-19.34,30.44-43.01,16.93-23.68,30.75-42.79,30.87-42.71s-13.51,19.34-30.44,43.01c-16.93,23.67-30.75,42.79-30.86,42.71Z"/>
          <path class="cls-6" d="M437.13,247.64c-.11-.1,14.36-16.83,32.3-37.37,17.95-20.55,32.59-37.12,32.7-37.03.11.1-14.35,16.82-32.31,37.37-17.95,20.54-32.59,37.12-32.69,37.03Z"/>
          <path class="cls-6" d="M450.5,249.89c-.11-.1,14.1-15.57,31.72-34.54,17.63-18.99,31.99-34.29,32.1-34.19.1.1-14.09,15.56-31.72,34.55-17.62,18.98-31.99,34.29-32.1,34.19Z"/>
          <path class="cls-7" d="M296.75,308.23v83.56h135.26c-2.12-5.31-3.3-11.1-3.3-17.16,0-25.56,20.72-46.28,46.28-46.28s46.28,20.72,46.28,46.28c0,6.07-1.97,11.99-4.09,17.3l19.11.08v-83.77h-239.55Z"/>
          <g>
            <path class="cls-4" d="M413.82,363.97h-16.88c-3.56,0-6.45-2.89-6.45-6.45h0c0-3.56,2.89-6.45,6.45-6.45h16.88c3.56,0,6.45,2.89,6.45,6.45h0c0,3.57-2.89,6.45-6.45,6.45Z"/>
            <path class="cls-6" d="M413.82,363.97c-.02-.08,1.09.07,2.77-.75.83-.41,1.75-1.12,2.48-2.21.71-1.09,1.17-2.59.97-4.22-.18-1.62-1.11-3.33-2.69-4.41-.79-.54-1.73-.9-2.74-1.03-.99-.11-2.12-.03-3.22-.05-4.45,0-9.33.01-14.46.02-2.49-.03-4.78,1.57-5.68,3.72-.94,2.14-.54,4.67.82,6.33.66.84,1.53,1.48,2.46,1.88.95.4,1.92.51,2.91.5,1.97.01,3.81.02,5.5.03,3.32.03,6.02.06,7.96.08.9.02,1.62.04,2.17.05.5.02.76.03.76.05,0,.02-.26.04-.76.05-.55.01-1.27.03-2.17.05-1.94.02-4.64.05-7.96.08-1.69.01-3.53.02-5.5.03-.98.03-2.08-.08-3.09-.51-1-.43-1.94-1.1-2.66-2.01-1.47-1.78-1.92-4.51-.91-6.83.97-2.33,3.45-4.07,6.15-4.04,5.13,0,10.01.01,14.46.02,1.12.03,2.17-.05,3.27.07,1.08.15,2.09.54,2.93,1.13,1.68,1.18,2.64,3.01,2.81,4.73.18,1.73-.33,3.3-1.1,4.42-.78,1.13-1.76,1.84-2.63,2.23-.87.4-1.61.52-2.11.57-.25.02-.44.01-.57.01-.12,0-.19,0-.19-.02Z"/>
          </g>
          <g>
            <g>
              <rect class="cls-7" x="161.02" y="143.08" width="67.78" height="248.7"/>
              <path class="cls-6" d="M228.8,391.79s-.01-.43-.02-1.25c0-.83,0-2.04-.02-3.64,0-3.2-.02-7.92-.03-14.03-.02-12.21-.04-29.97-.07-52.17-.03-44.38-.07-106.52-.12-177.62l.25.25c-21.73,0-44.45,0-67.77,0h-.01l.26-.26c-.04,101.49-.08,191.8-.1,248.7l-.16-.16c21.4.04,38.33.07,49.91.09,5.8.02,10.26.03,13.27.04,1.5,0,2.65.01,3.42.02.77,0,1.17.01,1.17.01,0,0-.38.01-1.14.02-.77,0-1.9,0-3.4.02-3.01,0-7.46.02-13.24.04-11.61.02-28.57.05-50.01.09h-.16v-.16c-.02-56.9-.06-147.22-.1-248.7v-.26h.28c23.31,0,46.04,0,67.77,0h.26v.26c-.05,71.17-.09,133.38-.12,177.8-.03,22.18-.05,39.91-.07,52.11-.01,6.08-.03,10.78-.03,13.97,0,1.58-.01,2.79-.02,3.61,0,.81-.02,1.21-.02,1.21Z"/>
            </g>
            <g>
              <path class="cls-10" d="M206.55,308.23h-22.49c-6.89,0-12.48-5.58-12.48-12.48v-131.18c0-6.89,5.59-12.47,12.48-12.47h22.49c6.89,0,12.47,5.59,12.47,12.47v131.18c0,6.89-5.58,12.48-12.47,12.48Z"/>
              <path class="cls-6" d="M206.55,308.23s.34-.04.99-.08c.65-.05,1.63-.2,2.85-.59,1.21-.39,2.67-1.09,4.1-2.29,1.4-1.22,2.84-2.92,3.65-5.21.43-1.13.7-2.4.74-3.74.05-1.34,0-2.77.02-4.25,0-2.97-.01-6.2-.02-9.66-.01-6.93-.02-14.83-.04-23.55-.02-17.45-.04-38.23-.06-61.3,0-5.77,0-11.68,0-17.72,0-3.02,0-6.07,0-9.15,0-1.54,0-3.09,0-4.64.02-1.57,0-3.09-.42-4.58-.77-2.98-2.74-5.65-5.4-7.29-1.33-.82-2.82-1.38-4.38-1.64-1.54-.27-3.17-.16-4.79-.18-6.48,0-13.06,0-19.71,0-3.27-.02-6.49,1.35-8.73,3.66-2.27,2.3-3.53,5.49-3.5,8.67,0,6.48,0,12.87,0,19.15,0,12.56,0,24.67-.01,36.2-.02,23.07-.04,43.85-.06,61.3,0,4.36-.01,8.52-.02,12.45,0,.98-.02,1.96.04,2.89.06.94.26,1.85.5,2.73.55,1.74,1.47,3.3,2.61,4.58,2.29,2.57,5.45,3.9,8.37,4.07,2.95.09,5.68.04,8.11.06,4.87.02,8.65.04,11.24.05,1.28.01,2.25.02,2.92.03.66,0,1,.03,1,.03,0,0-.34.02-1,.03-.67,0-1.65.02-2.92.03-2.58.01-6.37.03-11.24.05-2.44-.01-5.15.05-8.13-.02-2.98-.16-6.22-1.5-8.57-4.12-1.18-1.3-2.12-2.89-2.7-4.68-.26-.9-.46-1.83-.53-2.8-.07-.97-.05-1.93-.05-2.92,0-3.93-.01-8.08-.02-12.45-.02-17.45-.04-38.23-.06-61.3,0-11.54,0-23.65-.01-36.2,0-6.28,0-12.67,0-19.15-.03-3.31,1.28-6.64,3.65-9.04,2.34-2.42,5.69-3.84,9.1-3.82,6.66,0,13.23,0,19.71,0,1.61.02,3.24-.09,4.88.19,1.62.27,3.18.86,4.56,1.71,2.78,1.7,4.83,4.49,5.63,7.59.43,1.54.45,3.18.43,4.71,0,1.55,0,3.1,0,4.64,0,3.08,0,6.13,0,9.15,0,6.04,0,11.95,0,17.72-.02,23.07-.04,43.84-.06,61.3-.01,8.72-.03,16.61-.04,23.55,0,3.46-.01,6.69-.02,9.66-.02,1.49.02,2.9-.04,4.26-.05,1.36-.33,2.65-.78,3.8-.84,2.33-2.32,4.04-3.74,5.26-1.46,1.2-2.94,1.89-4.17,2.27-1.24.37-2.22.5-2.87.54-.66.02-1,.02-1,.02Z"/>
            </g>
            <path class="cls-6" d="M296.91,391.79s-.01-.43-.02-1.25c0-.83,0-2.04-.02-3.64,0-3.2-.02-7.92-.03-14.03-.02-12.21-.04-29.97-.07-52.17-.03-44.38-.07-106.52-.12-177.62l.25.25c-21.73,0-44.45,0-67.77,0h-.01l.26-.26c-.04,101.49-.08,191.8-.1,248.7l-.16-.16c21.4.04,38.33.07,49.91.09,5.8.02,10.26.03,13.27.04,1.5,0,2.65.01,3.42.02.77,0,1.17.01,1.17.01,0,0-.38.01-1.14.02-.77,0-1.9,0-3.39.02-3.01,0-7.46.02-13.24.04-11.61.02-28.57.05-50.01.09h-.16v-.16c-.02-56.9-.06-147.22-.1-248.7v-.26h.27c23.31,0,46.04,0,67.77,0h.26v.26c-.05,71.17-.09,133.38-.12,177.8-.03,22.18-.05,39.91-.07,52.11-.01,6.08-.03,10.78-.03,13.97,0,1.58-.01,2.79-.02,3.61,0,.81-.02,1.21-.02,1.21Z"/>
            <g>
              <path class="cls-10" d="M274.94,308.23h-23.04c-6.74,0-12.2-5.46-12.2-12.2v-131.73c0-6.74,5.46-12.2,12.2-12.2h23.04c6.74,0,12.2,5.46,12.2,12.2v131.73c0,6.74-5.46,12.2-12.2,12.2Z"/>
              <path class="cls-6" d="M274.94,308.23c-.02-.08,1.39.11,3.84-.68,1.21-.4,2.67-1.11,4.07-2.35,1.4-1.23,2.77-2.98,3.54-5.29.37-1.15.63-2.42.63-3.76,0-1.36,0-2.78,0-4.26,0-2.97-.01-6.2-.02-9.67-.01-6.94-.02-14.84-.04-23.58-.02-17.47-.04-38.27-.06-61.37,0-5.77,0-11.69,0-17.74,0-3.02,0-6.08,0-9.16,0-1.54,0-3.09,0-4.65.02-1.57-.01-3.09-.44-4.58-.8-2.97-2.83-5.62-5.55-7.17-1.35-.78-2.87-1.3-4.43-1.49-1.55-.18-3.2-.08-4.81-.11-6.49,0-13.08,0-19.74,0-3.27-.02-6.48,1.39-8.68,3.75-2.24,2.34-3.38,5.57-3.27,8.77,0,6.49,0,12.89,0,19.17,0,12.57-.01,24.7-.02,36.25-.02,23.1-.04,43.9-.06,61.38,0,4.37-.01,8.53-.02,12.46-.02,1.97-.04,3.88.59,5.62.57,1.74,1.52,3.29,2.69,4.54,2.35,2.52,5.57,3.77,8.5,3.8,2.97.01,5.68.02,8.13.04,4.88.02,8.67.04,11.25.05,1.28.01,2.25.02,2.93.03.66,0,1,.03,1,.03,0,0-.34.02-1,.03-.67,0-1.65.02-2.93.03-2.58.01-6.37.03-11.25.05-2.44,0-5.16,0-8.13,0-2.99-.02-6.29-1.27-8.7-3.85-1.2-1.27-2.18-2.86-2.77-4.64-.15-.45-.25-.91-.37-1.37-.06-.47-.17-.94-.2-1.43-.07-.97-.05-1.94-.06-2.92,0-3.93-.01-8.09-.02-12.46-.02-17.47-.04-38.28-.06-61.38,0-11.55-.01-23.68-.02-36.25,0-6.29,0-12.68,0-19.17-.12-3.29,1.07-6.69,3.41-9.12,2.29-2.46,5.65-3.94,9.06-3.91,6.66,0,13.25,0,19.74,0,1.62.03,3.23-.07,4.88.11,1.63.21,3.21.74,4.62,1.56,2.83,1.62,4.95,4.38,5.79,7.48.45,1.54.48,3.18.46,4.72,0,1.56,0,3.11,0,4.65,0,3.08,0,6.14,0,9.16,0,6.04,0,11.96,0,17.74-.02,23.1-.04,43.9-.06,61.37-.01,8.73-.03,16.64-.04,23.58,0,3.47-.02,6.7-.02,9.67,0,1.49-.01,2.91-.02,4.27-.01,1.37-.28,2.66-.66,3.83-.8,2.34-2.2,4.12-3.63,5.34-1.43,1.24-2.91,1.94-4.14,2.33-1.23.39-2.22.52-2.87.56-.66.02-1,.02-1,.02Z"/>
            </g>
          </g>
          <path class="cls-6" d="M97.42,235.78c-.12-.08,8.29-12.79,18.77-28.39,10.49-15.6,19.09-28.18,19.21-28.1.12.08-8.29,12.79-18.77,28.39-10.48,15.6-19.08,28.18-19.2,28.1Z"/>
          <path class="cls-6" d="M81.09,235.78s.03-.08.12-.23c.11-.17.23-.38.39-.64.38-.59.9-1.39,1.56-2.42,1.36-2.09,3.37-5.1,5.88-8.78,5.02-7.38,12.1-17.47,19.97-28.58,7.87-11.12,15-21.17,20.09-28.5,2.52-3.64,4.57-6.6,6.02-8.68.69-1,1.24-1.79,1.64-2.36.18-.25.32-.45.44-.61.1-.13.16-.2.16-.2,0,0-.03.08-.12.23-.1.17-.23.38-.39.63-.38.59-.9,1.39-1.56,2.41-1.37,2.09-3.37,5.1-5.88,8.78-5.02,7.38-12.1,17.48-19.97,28.59-7.87,11.11-15,21.17-20.09,28.49-2.52,3.64-4.57,6.6-6.02,8.68-.69,1-1.24,1.79-1.64,2.36-.18.25-.32.45-.44.61-.1.13-.16.2-.16.2Z"/>
          <path class="cls-6" d="M378.01,350.12s.2-.03.57.03c.37.06.94.22,1.51.7.57.47,1.12,1.32,1.13,2.43,0,1.07.02,2.31.02,3.7.02,5.58.05,13.63.08,23.57,0,2.49.01,5.09.02,7.81.14,1.41-.76,2.97-2.21,3.45-.35.13-.73.19-1.11.2h-1.07c-.72,0-1.44,0-2.17,0-5.85,0-12.1.02-18.68.02-13.16,0-27.62.01-42.8.02-1.03,0-2.05-.49-2.67-1.3-.32-.4-.54-.87-.65-1.37-.12-.51-.07-1-.08-1.46,0-1.88,0-3.74,0-5.59,0-3.7,0-7.34,0-10.92,0-3.58,0-7.1,0-10.54,0-1.72,0-3.43,0-5.11,0-.84,0-1.68,0-2.51,0-.9.37-1.78,1.01-2.4.63-.62,1.51-.98,2.38-.97.81,0,1.62,0,2.42,0,1.6,0,3.18,0,4.74,0,3.12,0,6.14,0,9.07.01,5.85.01,11.3.02,16.27.03,9.93.04,17.98.06,23.57.08,2.77.02,4.92.04,6.41.05.72.01,1.27.02,1.67.03.38,0,.57.02.57.02,0,0-.19.02-.57.03-.4,0-.95.02-1.67.03-1.49.01-3.64.03-6.41.05-5.58.02-13.63.05-23.57.08-4.98.01-10.43.02-16.27.03-2.92,0-5.95,0-9.07.01-1.56,0-3.14,0-4.74,0-.8,0-1.61,0-2.42,0-.75,0-1.5.3-2.04.84-.55.53-.86,1.29-.86,2.06,0,.83,0,1.67,0,2.51,0,1.68,0,3.39,0,5.11,0,3.44,0,6.96,0,10.54,0,3.58,0,7.22,0,10.92,0,1.85,0,3.71,0,5.59.01.48-.03.94.07,1.35.09.42.28.82.55,1.16.53.69,1.39,1.1,2.26,1.1,15.18,0,29.64.01,42.8.02,6.58,0,12.83.02,18.68.02.73,0,1.46,0,2.17,0,.73-.01,1.44.07,2.05-.17,1.27-.43,2.07-1.75,1.95-3.06,0-2.71.01-5.32.02-7.81.04-9.93.06-17.98.08-23.57,0-1.39.02-2.62.02-3.7,0-1.06-.51-1.89-1.04-2.35-.55-.48-1.09-.65-1.45-.73-.37-.08-.56-.06-.56-.08Z"/>
          <path class="cls-6" d="M317.56,391.79c-.14,0-.26-9.31-.26-20.8s.12-20.8.26-20.8.26,9.31.26,20.8c0,11.48-.12,20.8-.26,20.8Z"/>
          <path class="cls-6" d="M325.41,391.79c-.14,0-.26-9.31-.26-20.8s.12-20.8.26-20.8.26,9.31.26,20.8-.12,20.8-.26,20.8Z"/>
          <path class="cls-6" d="M333.26,391.79c-.14,0-.26-9.31-.26-20.8s.12-20.8.26-20.8.26,9.31.26,20.8-.12,20.8-.26,20.8Z"/>
          <path class="cls-6" d="M341.11,391.79c-.14,0-.26-9.31-.26-20.8s.12-20.8.26-20.8.26,9.31.26,20.8-.12,20.8-.26,20.8Z"/>
          <path class="cls-6" d="M348.96,391.79c-.14,0-.26-9.31-.26-20.8s.12-20.8.26-20.8.26,9.31.26,20.8c0,11.48-.12,20.8-.26,20.8Z"/>
          <path class="cls-6" d="M356.81,391.79c-.14,0-.26-9.31-.26-20.8s.12-20.8.26-20.8.26,9.31.26,20.8c0,11.48-.12,20.8-.26,20.8Z"/>
          <path class="cls-6" d="M364.66,391.79c-.14,0-.26-9.31-.26-20.8s.12-20.8.26-20.8.26,9.31.26,20.8c0,11.48-.12,20.8-.26,20.8Z"/>
          <path class="cls-6" d="M372.5,391.79c-.14,0-.26-9.31-.26-20.8s.12-20.8.26-20.8.26,9.31.26,20.8c0,11.48-.12,20.8-.26,20.8Z"/>
          <rect class="cls-6" x="296.91" y="142.41" width="238.65" height="30.07"/>
          <rect class="cls-6" x="22.24" y="142.41" width="138.62" height="30.07"/>
          <path class="cls-6" d="M693.39,223.97c-.14,0-.26-13.1-.26-29.25s.12-29.25.26-29.25.26,13.09.26,29.25-.12,29.25-.26,29.25Z"/>
          <path class="cls-4" d="M29.58,327.64c-.14,0-.26-16.82-.26-37.57s.12-37.57.26-37.57.26,16.82.26,37.57-.12,37.57-.26,37.57Z"/>
          <path class="cls-4" d="M187.15,238.64c.12.08-.6,1.44-1.6,3.06s-1.92,2.86-2.04,2.78.6-1.44,1.6-3.06c1.01-1.61,1.92-2.86,2.04-2.78Z"/>
          <path class="cls-4" d="M206.11,224.78s-.05.16-.2.45c-.18.34-.4.74-.67,1.24-.59,1.07-1.47,2.6-2.59,4.48-2.23,3.76-5.44,8.87-9.22,14.36-3.78,5.49-7.41,10.32-10.12,13.75-1.35,1.71-2.47,3.09-3.26,4.02-.37.42-.67.78-.92,1.07-.21.24-.33.36-.35.35s.08-.15.26-.42c.23-.31.51-.68.84-1.13.79-1.04,1.84-2.43,3.12-4.12,2.63-3.48,6.21-8.34,9.98-13.82,3.77-5.48,7.03-10.56,9.34-14.26,1.12-1.8,2.04-3.29,2.73-4.39.3-.47.55-.86.75-1.19.18-.27.28-.41.29-.4Z"/>
          <path class="cls-4" d="M271.22,205.19c.12.08-4.5,7.66-10.32,16.94-5.82,9.28-10.64,16.74-10.76,16.66-.12-.08,4.5-7.66,10.32-16.94,5.82-9.28,10.64-16.74,10.76-16.66Z"/>
          <path class="cls-4" d="M279.33,211.08c.12.08-6.55,11.19-14.9,24.83-8.36,13.64-15.23,24.64-15.35,24.56-.12-.08,6.55-11.19,14.91-24.83,8.35-13.64,15.23-24.63,15.35-24.56Z"/>
          <path class="cls-4" d="M165.26,298.46c-.14,0-.26-27.6-.26-61.64s.12-61.65.26-61.65.26,27.59.26,61.65c0,34.04-.12,61.64-.26,61.64Z"/>
          <path class="cls-4" d="M176.2,132.13c0,.14-32.34.26-72.22.26s-72.22-.12-72.22-.26,32.33-.26,72.22-.26c39.88,0,72.22.12,72.22.26Z"/>
          <path class="cls-4" d="M330.13,132.13c0,.14-12.08.26-26.99.26s-26.99-.12-26.99-.26,12.08-.26,26.99-.26c14.9,0,26.99.12,26.99.26Z"/>
          <path class="cls-4" d="M304.59,368.49c-.14,0-.26-15.02-.26-33.55s.12-33.56.26-33.56.26,15.02.26,33.56-.12,33.56-.26,33.56Z"/>
          <path class="cls-4" d="M231.65,379.43c-.14,0-.26-20.09-.26-44.86s.12-44.87.26-44.87.26,20.08.26,44.87c0,24.77-.12,44.86-.26,44.86Z"/>
          <path class="cls-4" d="M494.99,121.19c0,.14-31.85.26-71.12.26s-71.13-.12-71.13-.26,31.84-.26,71.13-.26,71.12.12,71.12.26Z"/>
          <path class="cls-4" d="M650.37,135.78c0,.14-25.48.26-56.9.26s-56.9-.12-56.9-.26,25.47-.26,56.9-.26c31.42,0,56.9.12,56.9.26Z"/>
        </g>
        <g>
          <g>
            <rect class="cls-5" x="543.81" y="142.45" width="96.2" height="249.34"/>
            <path class="cls-6" d="M640.01,391.79s-.01-.42-.02-1.23c0-.82,0-2.02-.02-3.59,0-3.17-.02-7.84-.03-13.89-.02-12.11-.04-29.76-.07-51.91-.03-44.28-.07-106.58-.12-178.71l.25.25c-30.07,0-62.57,0-96.19,0h-.02l.26-.26c-.03,98.26-.06,186.92-.08,249.34l-.18-.18c29.87.04,53.9.08,70.47.1,8.29.02,14.72.03,19.08.04,2.18,0,3.84.02,4.96.02,1.12,0,1.7.02,1.7.02,0,0-.56.01-1.66.02-1.12,0-2.76.01-4.93.02-4.35.01-10.76.02-19.04.04-16.6.02-40.66.06-70.58.1h-.18v-.18c-.02-62.42-.05-151.09-.08-249.34v-.26h.28c33.62,0,66.11,0,96.19,0h.25v.25c-.05,72.2-.09,134.56-.12,178.88-.03,22.13-.05,39.75-.07,51.85-.01,6.03-.02,10.69-.03,13.84,0,1.57-.01,2.76-.02,3.56,0,.8-.01,1.2-.01,1.2Z"/>
          </g>
          <g>
            <polygon class="cls-5" points="677.9 302.79 647.53 302.79 647.53 142.66 678.32 142.66 677.9 302.79"/>
            <path class="cls-6" d="M677.9,302.79s-.01-.28-.02-.82c0-.55,0-1.34-.01-2.37,0-2.09,0-5.16-.01-9.12,0-7.93,0-19.43.02-33.77.05-28.66.11-68.66.19-114.05l.26.26c-9.82,0-20.1,0-30.57,0h-.22l.26-.26c-.05,67.38-.09,126.56-.12,160.12l-.14-.14c9.65.04,17.22.06,22.4.08,2.59.02,4.57.03,5.92.04.66,0,1.17.01,1.53.02.34,0,.52.01.52.01,0,0-.16,0-.5.01-.35,0-.85,0-1.5.01-1.34,0-3.32.02-5.89.03-5.2.02-12.8.04-22.48.07h-.14v-.14c-.03-33.56-.07-92.74-.12-160.12v-.26h.49c10.47,0,20.74,0,30.57,0h.26v.26c-.17,45.47-.31,85.53-.42,114.23-.07,14.32-.12,25.8-.16,33.71-.03,3.93-.04,6.98-.06,9.06-.01,1.02-.02,1.8-.02,2.34,0,.52-.02.78-.02.78Z"/>
          </g>
          <g>
            <path class="cls-11" d="M626.69,230.47c.04-.07.96.24,3.73.34,2.77.1,7.87-.49,8.51-.45.64.05,8.03.44,8.03.44,0,0-1.71,1.58-3.1,1.4s-4.1.06-4.1.06l-1.03-.05,2.24,1.63-.64,7.29s-.6.48-1.07-.19c-.47-.67-.21-2.11-.21-2.11l-.96,3.21s-1.04.4-1.57-.28-.12-1.58-.12-1.58l-.27-2.84-2.19-2.3-2.62.87,1.39,3.17s1.38,2.84,1.07,3.11c-.31.27-.61,1.26-1.4.21-.79-1.05-1.01-1.99-1.85-2.4-.84-.41-5.35-3.17-6.12-5.4l2.25-4.11Z"/>
            <path class="cls-7" d="M578.78,206.19s2.51,1.31,3.71,2.64c1.19,1.32,17.85,12.68,17.85,12.68l19.88,5.7,8.13,3.34-2.51,7.41-8.07-1.85s-9.39-1.06-15.08-1.59c-5.69-.53-8.86-2.51-8.86-2.51l-11.31-6.48-4.7-13.5.99-5.83Z"/>
            <polygon class="cls-2" points="610.91 293.84 599.1 322.5 538.49 322.5 538.49 293.84 610.38 292.93 610.91 293.84"/>
            <path class="cls-6" d="M558.07,261.77s2.72,10.08,13.67,13.33c10.94,3.25,46.21,1.44,46.21,1.44l5.19,35.83,16.9-2.32s-7.98-42.51-7.94-45.56c.07-4.76-1.96-8.12-7.03-8.11-3.05,0-37.26-1.96-37.26-1.96l-5.33-3.97-22.71,8.42-1.7,2.91Z"/>
            <path class="cls-10" d="M609.39,287.35s3.88-.3,3.98-4.15c.05-1.86.05-4.38.04-6.48-.01-2.23-1.82-4.03-4.06-4.03h-51.28l-4.1,2.18-1.12,6.06,2.08,5.24,54.47,1.19Z"/>
            <g>
              <path class="cls-6" d="M585.9,174.32c-1.02-1.18-2.27-2.3-2.59-3.83-.29-1.4.26-2.98-.43-4.24-.85-1.55-3.11-1.76-4.15-3.18-.5-.69-.65-1.59-1.15-2.28-.85-1.18-2.49-1.51-3.94-1.36s-2.84.66-4.3.76c-1.99.13-4.05-.53-5.96.04-2.11.62-3.41,2.49-4.79,4.29l-1.8,2.09c-.37.36-.77.69-1.2.96-.76.48-1.62.82-2.27,1.43-1.39,1.32-1.28,3.88.21,5.08-1.54.48-2.64,2.08-2.56,3.69.05.88.41,1.72.67,2.56.26.85.42,1.79.06,2.6-.36.81-1.4,1.36-2.17.93.27,1.15,1.09,2.15,2.15,2.65-.42.43-1,.68-1.6.7,1.6,3.8,5.99,5.81,10.12,5.85s8.08-1.52,11.91-3.04l11.12-2.85c.98-.22,1.39-1.4,1.38-2.4-.01-1-.26-2.04.1-2.98.49-1.28,1.99-1.96,2.5-3.23.59-1.44-.3-3.06-1.32-4.24Z"/>
              <g>
                <g>
                  <path class="cls-6" d="M559.59,184.37c-.8-2.51-1.58-5.04-1.94-7.66-.35-2.61-.26-5.33.68-7.79.14-.37,1.35-2.88,1.74-2.84.28.03-.46,2.37-.32,2.62,1.35,2.37,1.71,5.2,1.47,7.91-.24,2.71-.82,5.15-1.64,7.76h0Z"/>
                  <path class="cls-11" d="M559.4,174.31c-.17-6.61,3.54-12.21,10.15-12.2l.61.04c6.15.37,10.98,5.4,11.1,11.56.11,5.73.17,12.06-.06,15.12-.46,6.33-6.85,6.93-6.85,6.93-.01,0,.16,10.41.16,10.41l-15.46-9.73.36-22.12Z"/>
                  <path class="cls-9" d="M574.35,195.75s-4.01,0-8.1-2.94c0,0,1.71,5.26,8.07,5.07l.03-2.14Z"/>
                  <path class="cls-6" d="M577.68,179.09c-.01.48-.43.86-.93.86-.5,0-.9-.39-.88-.87.01-.48.43-.86.93-.86.5,0,.9.39.88.87Z"/>
                  <path class="cls-6" d="M579.75,176.26c-.12.11-.77-.44-1.75-.49-.97-.07-1.72.39-1.81.26-.05-.06.08-.26.4-.47.32-.21.85-.39,1.46-.35.61.04,1.1.29,1.38.54.29.25.37.47.32.52Z"/>
                  <path class="cls-6" d="M569.32,178.75c-.01.48-.43.86-.93.86-.5,0-.9-.39-.88-.87.01-.48.43-.86.93-.86.5,0,.9.4.88.87Z"/>
                  <path class="cls-6" d="M570.19,176.07c-.12.11-.78-.44-1.75-.49-.97-.07-1.72.39-1.81.26-.05-.06.08-.26.4-.47.32-.21.85-.4,1.46-.35.61.04,1.1.29,1.38.54.29.25.37.47.32.52Z"/>
                  <path class="cls-6" d="M573.23,183.76c0-.05.61-.12,1.6-.19.25,0,.49-.05.54-.21.07-.18-.02-.45-.12-.75-.2-.62-.4-1.26-.62-1.94-.86-2.76-1.46-5.01-1.35-5.05.11-.03.9,2.17,1.75,4.93.21.68.4,1.33.59,1.95.08.29.22.62.07.98-.08.18-.27.3-.43.34-.16.04-.3.03-.43.03-.99,0-1.6-.04-1.6-.1Z"/>
                  <path class="cls-6" d="M570.33,184.26c.16,0,.1,1.06.96,1.86.86.81,1.99.76,1.99.9.01.07-.26.19-.74.17-.47-.01-1.14-.2-1.66-.7-.52-.49-.72-1.12-.73-1.56-.01-.44.12-.7.19-.69Z"/>
                  <path class="cls-6" d="M570.38,172.12c-.11.26-1.08.07-2.23.14-1.15.04-2.09.32-2.23.08-.06-.12.11-.36.5-.59.38-.23.99-.44,1.68-.48.69-.03,1.31.11,1.72.31.41.19.61.41.56.54Z"/>
                  <path class="cls-6" d="M579.54,173c-.18.21-.84-.06-1.65-.12-.8-.09-1.5.06-1.64-.18-.06-.12.06-.33.37-.52.31-.19.81-.33,1.36-.28.55.05,1.02.28,1.29.52.27.25.35.48.27.58Z"/>
                  <path class="cls-11" d="M559.63,179.03c-.1-.05-4.27-1.55-4.4,2.79-.12,4.34,4.26,3.57,4.27,3.44.01-.12.13-6.23.13-6.23Z"/>
                  <path class="cls-9" d="M558.22,183.58s-.08.05-.21.1c-.13.05-.34.09-.57,0-.45-.18-.82-.92-.82-1.7,0-.4.09-.77.24-1.08.14-.31.35-.53.59-.56.23-.05.39.1.44.22.05.12.03.21.05.22.01.01.09-.07.07-.25-.02-.09-.06-.19-.16-.28-.1-.09-.25-.13-.41-.12-.34.01-.65.31-.81.65-.18.34-.3.76-.3,1.2,0,.88.43,1.71,1.05,1.9.3.09.56,0,.69-.1.14-.1.17-.2.15-.21Z"/>
                  <path class="cls-6" d="M578.6,166.47c.71-.37-1.35-2.69-3.06-3.51-2.58-1.24-6.55-2.04-8.97-1.41-2.91.76-5.34,2.16-6.85,4.76-1.51,2.61-2.11,5.66-2.09,8.67,0,.92.08,1.88.56,2.66.59.97,1.74,1.6,1.66,2.92-.03.48.1.97.42,1.33.78.86,1.76.09,2.23-.7.99-1.68,1.13-3.71,1.26-5.65.09-1.38.17-2.79-.19-4.13-.2-.73-.53-1.42-.68-2.15s-.12-1.57.35-2.16c.08-.1.2-.22.36-.35,1.25-1.05,2.98-1.34,4.51-.76,2.43.91,6.57,2.29,7.68,1.48,1.59-1.16,1.98-1.93,1.98-1.93l.85.93Z"/>
                </g>
                <path class="cls-6" d="M566.8,160.97c2.4-.75,5.11-.65,7.32.55,1.17.64,2.22,1.64,2.56,2.93s-.24,2.86-1.49,3.34l-.09.05c-1.86.59-3.06.31-4.89-.36-1.54-.57-2.9-1.55-4.45-2.12-1.64-.6-3.46-.68-5.16-.25,1.7-1.85,3.8-3.39,6.2-4.14Z"/>
              </g>
            </g>
            <path class="cls-7" d="M557.96,197.29s-9.07,10.63-9.04,18.06c.02,3.98,9.15,46.42,9.15,46.42l25.46-9.43c1.6-.59,2.56-2.22,2.3-3.91l-3.35-22.24-3.71-20-3.82-2.81-.29-2.08-.5-1.01-14.83-6.3-1.37,3.29Z"/>
            <polygon class="cls-6" points="620.2 247.34 638.84 249.46 640.79 246.34 629.59 243.23 621.66 243.8 620.2 247.34"/>
            <polygon class="cls-6" points="654.68 230.1 650.12 246.34 654.78 246.34 661.14 228.59 654.68 230.1"/>
            <path class="cls-6" d="M623.93,303.51s9.03-49.36,10.49-53.07c1.46-3.7,1.24-5.28,7.19-5.81,5.95-.53,36.28,0,36.28,0v58.17l-37.89.56-.16,19.64-19.69-.93,3.77-18.56Z"/>
            <path class="cls-10" d="M541.86,176.54s8.19.8,9.39,4c.87,2.33.47,11.54.19,16.38-.1,1.69-1.5,3.01-3.19,3.01h0s4.2,3.69,4.6,5.14c.4,1.45,8.19,48.39,7.39,56.7-.8,8.3-3.2,12.3-3.2,12.3l-15.19.8v-98.33h0Z"/>
            <g>
              <path class="cls-6" d="M561.25,272.98c-.12-.13,10.05-26.9,12.02-35.58,1.96-8.67,1.67-34.15,1.67-34.15.82,0,3.54,1.9,4.32,2.94,0,0-.34,22.94-1.47,31.77s-9.86,37.22-9.86,37.22l-6.67-2.2Z"/>
              <path class="cls-10" d="M561.25,272.98s.16.03.45.12c.31.1.74.23,1.29.4,1.16.37,2.82.9,4.97,1.58l-.14.07c1.68-5.76,4.5-15.08,7.51-26.83.72-2.94,1.5-6.04,2.04-9.29.51-3.26.68-6.7.89-10.25.37-7.09.59-14.64.73-22.45,0-.05,0-.1,0-.14l.05.16c-.53-.65-1.26-1.21-1.97-1.71-.36-.25-.72-.48-1.09-.69-.35-.2-.77-.4-1.06-.43l.26-.26c.04,10.05-.09,19.57-.85,28.17-.21,2.15-.47,4.24-.91,6.25-.48,1.99-1.06,3.88-1.63,5.7-1.15,3.64-2.31,6.99-3.38,10.04-2.15,6.1-3.96,10.98-5.22,14.35-1.17,3.13-1.73,4.62-1.95,5.22-.04,0,.11-.49.41-1.38.32-.92.78-2.23,1.36-3.9,1.2-3.39,2.96-8.29,5.06-14.4,1.05-3.06,2.19-6.41,3.32-10.05.56-1.82,1.13-3.71,1.6-5.68.43-1.97.68-4.05.88-6.19.73-8.57.85-18.09.8-28.12v-.29s.26.03.26.03c.55.06.91.29,1.31.5.39.22.76.46,1.13.72.73.53,1.46,1.07,2.08,1.82l.05.07v.1s0,.14,0,.14c-.14,7.82-.36,15.36-.75,22.47-.22,3.55-.4,7-.92,10.3-.56,3.29-1.35,6.38-2.09,9.32-3.06,11.76-5.96,21.05-7.73,26.79l-.03.11-.1-.04c-2.14-.73-3.8-1.3-4.96-1.69-.54-.19-.96-.34-1.27-.45-.28-.11-.42-.16-.42-.17Z"/>
            </g>
            <g>
              <path class="cls-6" d="M561.92,273.72c0-.47,8.93-16.92,19.55-20.61l5.88,1.72s-17.52,12.5-19.42,20.36l-6.01-1.47Z"/>
              <path class="cls-10" d="M561.92,273.72s.16.02.43.07c.32.07.71.15,1.2.26,1.08.24,2.56.58,4.41,1l-.18.11c.41-1.54,1.29-3.18,2.47-4.86,1.23-1.65,2.72-3.36,4.43-5.1,3.46-3.45,7.72-7.07,12.51-10.57l.08.46c-.06-.02-.13-.04-.2-.06-1.95-.57-3.85-1.13-5.68-1.67h.16c-3.81,1.43-6.85,3.93-9.3,6.37-2.45,2.46-4.37,4.91-5.89,7-3.03,4.2-4.45,6.99-4.45,6.99-.05.01.24-.77.93-2.01.69-1.26,1.76-3.05,3.24-5.18,1.49-2.13,3.39-4.61,5.84-7.12,2.45-2.48,5.52-5.05,9.45-6.54l.07-.03.08.02c1.83.53,3.73,1.09,5.68,1.66.07.02.14.04.2.06l.51.15-.43.31c-4.76,3.48-9.03,7.08-12.49,10.47-1.72,1.71-3.21,3.4-4.44,5.01-1.19,1.64-2.07,3.23-2.5,4.7l-.04.14-.14-.04c-1.86-.49-3.36-.88-4.45-1.17-.47-.13-.85-.23-1.15-.32-.26-.07-.39-.12-.38-.12Z"/>
            </g>
            <g>
              <path class="cls-7" d="M557.63,203.26c-5.77,2.94-3.64,14.5-1.85,19.47,3.13,8.69,8.03,22.36,10.58,24.71,3.56,3.29,29.04,11.92,29.04,11.92l4.93-9.32-23.87-12.7s-.02-1.92-.98-2.19c-.96-.27-3.74-18.11-3.74-18.11,0,0-1.05-6.93-3.51-10.22l-10.59-3.55Z"/>
              <path class="cls-6" d="M568.22,206.81s.54.59,1.2,1.93c.66,1.33,1.41,3.4,2.02,6.12.33,1.36.54,2.9.83,4.55.29,1.66.6,3.46.94,5.38.35,1.92.73,3.97,1.2,6.12.24,1.07.48,2.18.82,3.27.09.26.19.56.31.74-.07,0,.2.08.33.19.15.1.26.24.35.38.34.58.42,1.2.46,1.84l-.11-.19c6.98,3.7,15.11,8.01,23.89,12.67l.22.12-.12.23c-1.58,2.98-3.23,6.12-4.93,9.32l-.1.2-.21-.07c-1.47-.51-3.05-1.06-4.63-1.61-4.85-1.72-9.56-3.46-14.07-5.27-2.25-.91-4.45-1.84-6.56-2.84-.52-.26-1.04-.52-1.56-.79-.5-.3-1.02-.56-1.5-.89l-.71-.53c-.22-.19-.4-.44-.61-.65-.33-.47-.65-.95-.92-1.44-1.11-1.96-1.97-3.96-2.79-5.91-.82-1.95-1.57-3.86-2.27-5.71-1.41-3.71-2.65-7.18-3.78-10.36-1.17-3.18-1.77-6.21-2.03-8.88-.24-2.67-.14-5.03.37-6.86.5-1.83,1.33-3.14,2.13-3.76.17-.19.35-.31.52-.41.16-.1.29-.18.41-.25.22-.13.33-.2.34-.19,0,0-.1.09-.31.23-.11.08-.24.17-.39.27-.16.1-.33.23-.49.42-.76.63-1.54,1.93-2,3.73-.47,1.81-.55,4.14-.28,6.78.28,2.65.9,5.64,2.08,8.78,1.15,3.17,2.42,6.63,3.84,10.33.71,1.85,1.47,3.75,2.29,5.69.83,1.93,1.7,3.93,2.79,5.85.55.96,1.12,1.9,2.1,2.46.46.31.97.57,1.46.86.51.26,1.03.51,1.55.77,2.1.99,4.29,1.92,6.54,2.82,4.5,1.8,9.21,3.53,14.05,5.25,1.58.55,3.16,1.1,4.63,1.61l-.31.12c1.7-3.2,3.36-6.33,4.94-9.31l.1.34c-8.77-4.68-16.89-9.02-23.85-12.74l-.11-.06v-.13c-.03-.57-.12-1.17-.39-1.62-.07-.1-.15-.2-.24-.27-.09-.1-.17-.02-.41-.27-.2-.31-.27-.58-.37-.86-.35-1.12-.58-2.23-.81-3.31-.45-2.16-.82-4.21-1.16-6.14-.32-1.93-.62-3.73-.89-5.39-.27-1.67-.47-3.19-.77-4.55-.58-2.72-1.28-4.78-1.9-6.12-.3-.67-.58-1.16-.78-1.49-.2-.32-.29-.5-.29-.5Z"/>
            </g>
            <path class="cls-6" d="M541.86,174.29s-4.64.9-5.79,4.51,0,115.04,0,115.04h74.84s1.22-8.56-6.78-10.22c-7.99-1.66-35.6-.51-35.6-.51,0,0-9.71-9.46-11.89-11.38-2.17-1.92-3.07-3.39-6.14-2.85s-5.37.93-5.37.93v-37.32l-3.29-9.58v-48.62Z"/>
            <g>
              <path class="cls-6" d="M600.61,260.16s-3.22,1.27-2.93,4.58c.29,3.32,1.45,5.46,1.45,5.46l5.01,51.33h4.31l-4.75-53.19.02-6.31-3.12-1.88Z"/>
              <path class="cls-10" d="M600.61,260.16s.07.03.2.1c.16.09.35.2.6.34.56.33,1.35.78,2.36,1.37l.04.02v.05c0,1.61.02,3.73.03,6.31h0c1.02,11.1,2.81,30.69,4.87,53.17l.03.28h-4.83l-.02-.23c-2.03-21.32-3.82-39.99-4.9-51.34l.02.06c-.8-1.67-1.15-3.29-1.34-4.7-.09-.7-.14-1.38-.03-1.99.12-.61.35-1.13.63-1.55.56-.84,1.22-1.28,1.65-1.54.22-.13.4-.21.52-.27.12-.05.19-.07.19-.06,0,0-.05.04-.17.1-.11.06-.28.16-.49.3-.41.28-1.04.74-1.56,1.56-.25.41-.47.91-.57,1.49-.09.58-.03,1.23.07,1.93.21,1.39.59,2.99,1.38,4.6v.03s.02.03.02.03c1.13,11.34,3,30.01,5.12,51.32l-.26-.23h4.31l-.26.28c-1.96-22.49-3.66-42.09-4.63-53.2h0c.03-2.59.05-4.71.07-6.32l.04.07c-.98-.61-1.74-1.09-2.29-1.43-.24-.16-.44-.28-.59-.38-.13-.09-.2-.13-.2-.14Z"/>
            </g>
            <path class="cls-6" d="M574.28,200.55s.07.43-.03,1.19c-.1.76-.36,1.84-.98,3.04l-.09.16-.18-.07c-1.59-.62-3.54-1.44-5.61-2.41-2.62-1.21-4.94-2.42-6.59-3.35-1.65-.93-2.64-1.55-2.6-1.62.04-.07,1.09.45,2.77,1.29,1.69.84,4.03,1.99,6.64,3.2,2.07.96,3.99,1.81,5.55,2.49l-.27.09c1.26-2.28,1.26-4.06,1.38-4.03Z"/>
            <path class="cls-6" d="M580.5,211.93s.11.41.2,1.15c.11.85.25,1.9.41,3.15.35,2.66.88,6.32,1.5,10.37.61,3.99,1.17,7.59,1.6,10.36.17,1.24.32,2.3.44,3.15.09.74.13,1.16.09,1.17-.04,0-.14-.4-.29-1.13-.16-.85-.37-1.89-.61-3.12-.49-2.64-1.13-6.29-1.75-10.34-.62-4.05-1.1-7.73-1.35-10.41-.13-1.34-.21-2.42-.25-3.17-.04-.75-.04-1.17,0-1.17Z"/>
            <path class="cls-10" d="M675.04,223.72l-59.49,26.03c-1.08.47-2.33-.02-2.8-1.1l-.19-.42c-.47-1.08.02-2.33,1.09-2.8l59.49-26.03c1.08-.47,2.33.02,2.8,1.1l.19.42c.47,1.08-.02,2.33-1.09,2.8Z"/>
            <g>
              <path class="cls-11" d="M612.92,263.18c0-.59-1.76-7.14-2.35-7.89-.59-.76-10.87-3.7-10.82-3.79l-3.44,6.12,1.16,1.03c1.38,1.29,3.36,2.21,3.36,2.21l.92,3.32s.17,1.76.25,2.43c.08.67,2.1.5,2.1.5.42.59,2,.17,2,.17h1.61c-.67,1.34.5,1.6.5,1.6l1.85-.84c2.77-.42,1.51-2.18,1.51-2.18,0,0,1.34-2.1,1.34-2.69Z"/>
              <path class="cls-9" d="M604.37,266.98c-.15-.03.12-1.67,0-3.7-.09-2.02-.52-3.63-.37-3.68.12-.05.79,1.55.89,3.65.11,2.11-.4,3.76-.53,3.72Z"/>
              <path class="cls-9" d="M607.37,267.03c-.07-.03.07-.44.16-1.1.1-.66.11-1.59-.07-2.6-.39-2.01-1.04-3.62-.87-3.68.07-.02.28.35.57.98.28.64.63,1.54.82,2.61.19,1.07.11,2.08-.09,2.76-.19.69-.46,1.05-.52,1.02Z"/>
              <path class="cls-9" d="M607.49,267.35c-.04-.07.43-.32,1.1-.76.64-.43,1.53-1.27,1.32-2.46-.38-2.48-.6-4.53-.45-4.55.14-.02.58,1.97.97,4.49.11.66-.1,1.4-.47,1.86-.36.48-.8.78-1.18.98-.76.39-1.26.5-1.29.45Z"/>
              <path class="cls-9" d="M611.39,266.19c-.07.13-.45.07-.91.07-.45-.01-.84.03-.91-.1-.06-.12.33-.43.91-.42.58.01.97.33.9.45Z"/>
              <path class="cls-9" d="M603.98,259.39c-.14-.05-.04-.67-.39-1.31-.33-.65-.9-.92-.86-1.06.02-.06.21-.09.49.02.28.11.62.39.83.8.22.41.25.85.18,1.14-.06.3-.19.44-.25.42Z"/>
              <path class="cls-9" d="M606.82,258.41c-.15-.02-.2-.52-.45-1.04-.24-.53-.58-.89-.5-1.01.06-.13.66.11.97.79.32.68.11,1.29-.03,1.26Z"/>
              <path class="cls-9" d="M609.09,258.65c-.15-.02-.2-.61-.44-1.28-.23-.67-.57-1.17-.46-1.27.09-.11.68.3.95,1.1.28.79.08,1.48-.05,1.45Z"/>
            </g>
          </g>
          <g>
            <rect class="cls-7" x="536.29" y="142.66" width="7.52" height="249.34"/>
            <path class="cls-6" d="M543.81,392s-.01-.45-.02-1.3c0-.86-.01-2.12-.02-3.77,0-3.32-.02-8.2-.04-14.48-.02-12.57-.05-30.77-.08-53.29-.03-45.01-.07-107.31-.11-176.5l.26.26h-7.51l.26-.26c-.1,121.39-.18,223.04-.2,249.34l-.06-.06c2.55.02,4.42.03,5.66.04,1.24.01,1.85.03,1.85.03,0,0-.58.02-1.82.02-1.25,0-3.13.02-5.7.04h-.06v-.06c-.02-26.3-.1-127.95-.2-249.34v-.26h8.04v.26c-.04,69.27-.08,131.63-.11,176.69-.03,22.49-.06,40.67-.08,53.23-.02,6.26-.03,11.12-.04,14.42,0,1.64-.01,2.89-.02,3.74,0,.84-.02,1.26-.02,1.26Z"/>
          </g>
          <path class="cls-6" d="M638.63,359.45c0,.14-21.12.26-47.17.26s-47.17-.12-47.17-.26,21.12-.26,47.17-.26,47.17.12,47.17.26Z"/>
          <path class="cls-6" d="M638.92,377.8c0,.14-21.19.26-47.31.26s-47.32-.12-47.32-.26,21.18-.26,47.32-.26,47.31.12,47.31.26Z"/>
          <path class="cls-6" d="M640.04,322.5c0,.14-21.57.26-48.16.26s-48.16-.12-48.16-.26,21.56-.26,48.16-.26,48.16.12,48.16.26Z"/>
          <path class="cls-6" d="M639.15,341.67c0,.14-21.22.26-47.38.26s-47.39-.12-47.39-.26,21.21-.26,47.39-.26,47.38.12,47.38.26Z"/>
          <path class="cls-10" d="M639.15,244.98s-.28.08-.8.21c-.48.22-1.21.58-1.85,1.39-1.31,1.57-2.42,4.42-3.03,8.03-1.38,7.3-3.26,17.3-5.34,28.35-2.14,11.04-4.08,21.04-5.49,28.33-.72,3.58-1.31,6.5-1.72,8.57-.21.97-.37,1.75-.49,2.33-.12.53-.19.81-.21.8-.02,0,.02-.29.1-.82.1-.58.23-1.36.4-2.34.38-2.08.91-5.01,1.56-8.6,1.38-7.3,3.26-17.3,5.34-28.36,2.14-11.04,4.08-21.03,5.49-28.32.67-3.65,1.85-6.52,3.24-8.1.69-.81,1.46-1.16,1.97-1.35.27-.05.48-.08.62-.1.14-.02.21-.02.21-.01Z"/>
          <polygon class="cls-6" points="557.33 280.01 561.39 273.49 567.09 274.97 563.85 282.36 557.33 280.01"/>
          <g>
            <rect class="cls-7" x="640.01" y="142.66" width="7.52" height="248.7"/>
            <path class="cls-6" d="M647.53,391.37s-.01-.44-.02-1.29c0-.86-.01-2.12-.02-3.76,0-3.31-.02-8.18-.04-14.45-.02-12.54-.05-30.69-.08-53.15-.03-44.89-.07-107.03-.11-176.05l.26.26h-7.51l.26-.26c-.1,121.07-.18,222.45-.2,248.7l-.06-.06c2.55.02,4.42.03,5.66.04,1.24.01,1.85.03,1.85.03,0,0-.58.02-1.82.02-1.25,0-3.13.02-5.7.04h-.06v-.06c-.02-26.25-.1-127.63-.2-248.7v-.26h8.04v.26c-.04,69.09-.08,131.3-.11,176.24-.03,22.44-.06,40.56-.08,53.09-.02,6.24-.03,11.09-.04,14.39,0,1.63-.01,2.88-.02,3.73,0,.84-.02,1.26-.02,1.26Z"/>
          </g>
          <path class="cls-7" d="M567.33,276.36l-5.97-2.04c-.82-.28-1.26-1.18-.98-2h0c.28-.82,1.18-1.26,2-.98l5.97,2.04c.82.28,1.26,1.18.98,2h0c-.28.82-1.18,1.26-2,.98Z"/>
          <path class="cls-6" d="M651.1,210.76c-.12-.07,3.94-7.11,9.07-15.71,5.13-8.6,9.39-15.51,9.52-15.44s-3.94,7.1-9.07,15.71c-5.13,8.6-9.39,15.51-9.52,15.44Z"/>
          <path class="cls-6" d="M651.36,198.61s.26-.48.82-1.27c.61-.88,1.4-2.02,2.35-3.38,1.98-2.86,4.65-6.85,7.44-11.36,2.79-4.51,5.16-8.69,6.83-11.74.8-1.46,1.46-2.68,1.98-3.61.47-.85.74-1.32.77-1.3s-.18.51-.59,1.39c-.41.88-1.03,2.15-1.83,3.69-1.59,3.1-3.92,7.31-6.72,11.84-2.8,4.52-5.53,8.49-7.58,11.3-1.03,1.41-1.88,2.53-2.48,3.29-.61.76-.95,1.18-.98,1.15Z"/>
        </g>
        <path class="cls-6" d="M536.29,306.22c-.14,0-.26-36.59-.26-81.72s.12-81.73.26-81.73.26,36.58.26,81.73-.12,81.72-.26,81.72Z"/>
      </g>
    </g>
    <g id="Plant">
      <g>
        <g>
          <path class="cls-10" d="M254.86,370.74c2.13.92,3.7,2.89,4.49,5.08s.86,4.58.6,6.88c-.51,4.47-3.05,8.98-5.78,12.55-3.76-3.28-4.63-9.01-4.88-11.94-.41-4.64,1.68-13.26,5.58-12.57"/>
          <path class="cls-6" d="M254.17,395.29l-.02-.02c-2.72-2.38-4.42-6.51-4.89-11.96-.3-3.41.8-9.56,3.26-11.81.73-.67,1.52-.93,2.35-.79h0c2.01.87,3.65,2.73,4.5,5.1.7,1.96.9,4.22.6,6.89-.3,2.68-1.55,7.04-5.78,12.56l-.02.02ZM254.43,370.73c-.66,0-1.29.27-1.88.81-2.45,2.24-3.54,8.37-3.24,11.77.47,5.42,2.15,9.54,4.86,11.91,4.21-5.5,5.45-9.84,5.76-12.51s.11-4.92-.59-6.87c-.85-2.35-2.48-4.2-4.47-5.07-.15-.03-.29-.04-.43-.04Z"/>
        </g>
        <g>
          <path class="cls-10" d="M258.54,402.63c-.6-2.52.45-5.29,2.39-7.02s4.65-2.46,7.23-2.26c1.2.09,2.49.44,3.17,1.43.64.92.57,2.21.05,3.2s-1.42,1.74-2.37,2.33c-3.26,2.05-6.79,3.43-10.47,2.32"/>
          <path class="cls-6" d="M261.2,403.04c-.91,0-1.8-.13-2.67-.39h-.01s0-.02,0-.02c-.29-1.22-.21-2.54.24-3.82.44-1.24,1.18-2.36,2.15-3.22,1.85-1.65,4.49-2.48,7.25-2.27,1.54.12,2.61.6,3.19,1.44.6.87.62,2.13.05,3.23-.45.85-1.22,1.62-2.38,2.34-2.91,1.82-5.45,2.71-7.83,2.71ZM258.56,402.61c3.11.93,6.43.19,10.44-2.32,1.15-.72,1.92-1.48,2.36-2.32.56-1.08.55-2.32-.05-3.17-.57-.82-1.63-1.3-3.16-1.42-.28-.02-.56-.03-.84-.03-2.43,0-4.72.81-6.38,2.29-.97.86-1.71,1.97-2.14,3.2-.45,1.27-.53,2.57-.24,3.78Z"/>
        </g>
        <path class="cls-6" d="M253.72,416.32s.03-.33.13-.92c.12-.64.27-1.48.45-2.48.42-2.07.95-5.04,2.56-7.92,1.59-2.88,3.81-4.99,5.69-6.04.93-.54,1.74-.86,2.32-1.03.28-.1.52-.13.67-.17.15-.03.24-.04.24-.03.03.07-1.3.31-3.11,1.43-1.81,1.08-3.96,3.18-5.52,6.01-1.58,2.82-2.15,5.75-2.62,7.81-.23,1.04-.41,1.88-.56,2.46-.14.58-.24.9-.26.89Z"/>
        <path class="cls-6" d="M253.86,377.45s.03.14.05.4c.02.3.04.68.07,1.15.05,1,.11,2.45.17,4.24.12,3.58.21,8.53.18,13.99-.02,5.47-.16,10.41-.3,13.99-.07,1.79-.14,3.24-.21,4.24-.03.47-.06.85-.08,1.15-.02.26-.04.4-.05.4-.01,0-.02-.14-.02-.4,0-.3.01-.68.02-1.15.02-1.04.06-2.48.1-4.24.09-3.58.18-8.52.21-13.98.02-5.46-.03-10.4-.09-13.98-.03-1.76-.05-3.2-.07-4.24,0-.47,0-.86,0-1.15,0-.26,0-.4.02-.4Z"/>
        <g>
          <path class="cls-10" d="M252.03,405.35c-.86-5.4-4.5-10.29-9.43-12.65-1.26-.6-2.9-.99-3.93-.06-1.04.94-.8,2.62-.3,3.92,2.11,5.41,7.77,9.23,13.57,9.17"/>
          <path class="cls-6" d="M251.79,405.74c-2.77,0-5.61-.9-8.04-2.53-2.47-1.67-4.39-4.03-5.41-6.65-.32-.82-.92-2.83.3-3.95.5-.45,1.67-1.04,3.96.06,2.42,1.16,4.59,2.96,6.26,5.19,1.67,2.24,2.77,4.82,3.19,7.48h-.05c-.42-2.64-1.52-5.22-3.18-7.45-1.66-2.23-3.82-4.02-6.24-5.18-2.26-1.08-3.42-.51-3.9-.06-.4.36-1.23,1.47-.29,3.89,1.02,2.61,2.93,4.97,5.39,6.63,2.42,1.63,5.25,2.52,8.01,2.52.05,0,.1,0,.15,0v.05s-.1,0-.15,0Z"/>
        </g>
        <path class="cls-6" d="M243.21,396.93s.29.1.8.35c.25.12.56.27.9.48.34.21.75.42,1.15.72.41.29.87.6,1.31.99.47.36.92.8,1.4,1.27.93.95,1.86,2.1,2.66,3.41.79,1.33,1.35,2.69,1.75,3.96.18.64.35,1.25.44,1.84.13.58.17,1.13.23,1.63.07.5.05.96.06,1.35.02.4,0,.74-.03,1.02-.04.56-.07.87-.1.86-.07,0,.05-1.24-.17-3.22-.07-.49-.12-1.03-.26-1.6-.1-.58-.28-1.17-.46-1.8-.41-1.24-.97-2.58-1.74-3.88-.78-1.29-1.69-2.42-2.59-3.37-.46-.46-.9-.9-1.36-1.27-.43-.39-.88-.71-1.27-1.01-1.62-1.16-2.75-1.67-2.72-1.74Z"/>
      </g>
    </g>
    <g id="Signal">
      <g>
        <g>
          <rect class="cls-2" x="356.99" y="209.44" width="5.86" height="207.06"/>
          <path class="cls-6" d="M362.85,416.5s-.01-.37-.02-1.08c0-.72-.01-1.77-.02-3.14,0-2.76-.02-6.82-.04-12.04-.02-10.45-.05-25.56-.08-44.27-.03-37.38-.07-89.11-.11-146.54l.26.26h-5.86l.26-.26c0,101.09-.09,185.7-.2,207.06l-.06-.06c1.97.02,3.43.03,4.4.03.97,0,1.45.02,1.45.02,0,0-.45.01-1.42.02-.98,0-2.45.02-4.44.03h-.06v-.06c-.12-21.35-.2-105.97-.2-207.06v-.26h6.38v.26c-.04,57.51-.08,109.3-.11,146.73-.03,18.68-.06,33.77-.08,44.2-.02,5.2-.03,9.23-.04,11.98,0,1.36-.01,2.39-.02,3.1,0,.7-.02,1.04-.02,1.04Z"/>
        </g>
        <g>
          <g>
            <path class="cls-4" d="M382.92,214.76h-48.43c-2.17,0-3.94-1.76-3.94-3.94v-58.41c0-2.17,1.76-3.94,3.94-3.94h48.43c2.17,0,3.94,1.76,3.94,3.94v58.41c0,2.17-1.76,3.94-3.94,3.94Z"/>
            <path class="cls-6" d="M382.92,214.76s.21,0,.61-.08c.39-.07.99-.23,1.63-.69.63-.45,1.3-1.24,1.54-2.37.12-.55.06-1.18.07-1.85,0-.67,0-1.38-.01-2.13-.02-6.05-.05-14.77-.08-25.55-.01-5.4-.02-11.3-.03-17.64,0-3.17,0-6.45-.01-9.83,0-.84.02-1.72-.02-2.53-.08-.8-.41-1.59-.97-2.18-.55-.6-1.31-1.02-2.13-1.14-.4-.07-.83-.05-1.28-.05h-1.33c-14.26,0-29.94.01-46.4.02-.96,0-1.91.39-2.59,1.06-.68.67-1.08,1.61-1.09,2.56,0,2.03,0,4.05,0,6.05,0,4.01,0,7.96,0,11.84,0,7.76-.01,15.25-.02,22.38,0,3.57,0,7.04-.01,10.42,0,1.69,0,3.35,0,4.99,0,.82,0,1.63,0,2.44-.03.8.11,1.54.5,2.2.37.65.94,1.18,1.61,1.49.67.34,1.39.39,2.16.37,1.53,0,3.03,0,4.5,0,2.94,0,5.77.01,8.46.02,10.77.04,19.5.06,25.55.08,3,.02,5.34.04,6.95.05.78.01,1.38.02,1.81.03.41,0,.62.03.62.03,0,0-.21.02-.61.03-.43,0-1.03.02-1.81.03-1.61.01-3.94.03-6.95.05-6.05.02-14.77.05-25.55.08-2.7,0-5.52.01-8.46.02-1.47,0-2.97,0-4.5,0-.74.03-1.62-.03-2.35-.41-.74-.35-1.38-.94-1.8-1.66-.43-.71-.6-1.6-.56-2.41,0-.81,0-1.62,0-2.44,0-1.64,0-3.3,0-4.99,0-3.38,0-6.86-.01-10.42,0-7.13-.01-14.62-.02-22.38,0-3.88,0-7.83,0-11.84,0-2.01,0-4.02,0-6.06,0-1.08.46-2.16,1.24-2.93.77-.77,1.86-1.22,2.96-1.21,16.46,0,32.13.01,46.4.02h1.33c.43,0,.89-.02,1.36.06.92.14,1.78.61,2.4,1.29.63.67,1.01,1.56,1.09,2.46.04.9,0,1.72.02,2.57,0,3.38,0,6.66-.01,9.83-.01,6.34-.02,12.25-.03,17.64-.04,10.77-.06,19.5-.08,25.55,0,.75,0,1.46-.01,2.13-.02.66.04,1.3-.1,1.88-.26,1.17-.97,1.98-1.62,2.42-.67.46-1.28.6-1.68.65-.41.05-.62.03-.62.03Z"/>
          </g>
          <g>
            <path class="cls-7" d="M373.62,201.75h-28.7c-.8,0-1.45-.65-1.45-1.45v-37.09c0-.8.65-1.45,1.45-1.45h28.7c.8,0,1.45.65,1.45,1.45v37.09c0,.8-.65,1.45-1.45,1.45Z"/>
            <path class="cls-7" d="M344.04,181.09h-.98c-1.06,0-1.91-.86-1.91-1.91v-7.8c0-1.06.86-1.91,1.91-1.91h.98c1.06,0,1.91.86,1.91,1.91v7.8c0,1.05-.86,1.91-1.91,1.91Z"/>
            <path class="cls-7" d="M375.64,181.09h-.98c-1.06,0-1.91-.86-1.91-1.91v-7.8c0-1.06.86-1.91,1.91-1.91h.98c1.06,0,1.91.86,1.91,1.91v7.8c0,1.05-.86,1.91-1.91,1.91Z"/>
            <rect class="cls-4" x="347.22" y="169.46" width="24.1" height="15.07"/>
            <circle class="cls-4" cx="368.15" cy="191.01" r="3.15"/>
            <circle class="cls-4" cx="350.52" cy="191.01" r="3.15"/>
            <path class="cls-7" d="M349.02,206.13h-1.15c-1.24,0-2.24-1-2.24-2.24v-6.45h5.62v6.45c0,1.24-1,2.24-2.24,2.24Z"/>
            <path class="cls-7" d="M369.82,206.13h-1.15c-1.24,0-2.24-1-2.24-2.24v-6.45h5.62v6.45c0,1.24-1,2.24-2.24,2.24Z"/>
            <rect class="cls-4" x="353.2" y="165.06" width="12.14" height="1.34"/>
          </g>
        </g>
      </g>
    </g>
    <g>
      <path class="cls-4" d="M99.96,321.31c-1.28-1.97-2.68-3.84-4.22-5.59,0-.01,0-.02-.01-.02l-.03-.03c-1.02-1.18-2.11-2.3-3.25-3.38-1.63-1.54-3.32-3-5.16-4.28-1.41-.98-2.8-2-4.31-2.82-2.76-1.52-5.6-2.9-8.62-3.87-1.31-.42-2.58-.99-3.94-1.22-1.04-.18-2.09-.39-3.1-.63-2.2-.53-4.42-.69-6.65-.84-2.89-.19-5.77.02-8.65.37-1.93.23-3.86.53-5.75,1-1.56.39-3.09.93-4.63,1.42-1.39.44-2.74,1.04-4.09,1.59-.89.37-1.77.9-2.65,1.36-1.76.93-3.47,1.94-5.1,3.08-.16.1-.31.21-.46.32-.52.37-1.04.75-1.54,1.15-1.7,1.34-3.34,2.75-4.89,4.28-.03.03-.07.07-.09.1-.17.16-.33.32-.48.48-1.81,1.86-3.41,3.88-4.94,5.96-2.31,3.14-4.08,6.6-5.47,10.25-.55,1.43-1.05,2.86-1.49,4.31v37.9c0,7.18,4.86,13.47,12.14,16.94,3.8,1.81,8.26,2.86,13.03,2.86h26.83c-.03-.06-.05-.13-.07-.19-.01-.01-.01-.02-.02-.03v-.02c-1.51-3.83-2.53-7.9-2.96-12.15-.35.02-.7.04-1.06.05-2.47.06-4.96-.26-7.39-.88-.46-.12-.91-.24-1.35-.37-1.04-.31-2.06-.66-3.05-1.07-.41-.16-.81-.34-1.21-.52-.38-.16-.75-.34-1.11-.53-.17-.08-.34-.16-.51-.26-.34-.17-.67-.35-1-.54-.42-.24-.84-.49-1.26-.75-.41-.26-.82-.53-1.22-.81t-.02-.01s-.02,0-.03-.02c-.32-.22-.63-.44-.94-.68-.3-.23-.61-.46-.91-.71-.6-.48-1.19-.99-1.77-1.52-3.09-2.87-5.45-6.35-7.12-10.23-1.61-3.74-2.53-7.7-2.55-11.77-.03-8.67,2.82-16.28,9-22.5.38-.39.77-.76,1.17-1.12.35-.32.7-.64,1.06-.93.31-.27.63-.53.95-.77,0,0,0,0,0,0,.36-.28.72-.55,1.08-.81t.02-.02s.02-.02.03-.02c.01-.01.01-.02.02-.02.04-.03.08-.06.12-.08.22-.16.44-.32.66-.46.85-.59,1.72-1.11,2.59-1.58.28-.17.56-.31.84-.45.02-.02.05-.04.09-.05.41-.21.82-.41,1.23-.59.42-.19.85-.37,1.27-.55.42-.16.84-.32,1.26-.46.42-.15.83-.28,1.25-.4.41-.13.83-.24,1.24-.34.37-.09.73-.17,1.1-.24.04,0,.08-.01.12-.02.4-.08.8-.14,1.19-.19.35-.05.69-.09,1.03-.11.08-.02.16-.02.23-.02.36-.04.71-.05,1.05-.06.46,0,.92.01,1.38.02.4.02.79.04,1.18.06.38.02.76.05,1.13.08.32.03.65.06.97.1.27.03.53.06.79.1.74.09,1.47.21,2.19.35.33.06.65.13.97.2.26.05.52.11.77.17.23.06.47.12.71.18.26.07.51.14.76.21.19.05.37.11.56.17.24.07.49.14.73.23.26.08.52.17.78.26.22.08.44.16.66.24.8.3,1.58.63,2.34.98.25.11.49.23.72.35.24.11.48.23.71.36.23.12.46.24.69.37s.46.26.68.39c.21.12.41.24.61.36.05.03.1.06.15.1.19.11.38.23.56.36.22.14.43.28.65.43.21.14.42.28.62.44.21.14.41.3.62.46.4.3.8.62,1.18.95.18.15.35.3.52.44.23.21.46.41.67.62.18.16.34.32.51.49.17.16.33.33.5.5.33.33.65.67.95,1.01.05.05.1.1.13.16.26.29.5.58.74.87.37.44.72.9,1.05,1.37.25.35.5.7.73,1.06.08.1.15.21.22.33.18.28.36.57.53.87.07.1.13.2.18.3,5.63-2.72,11.9-4.33,18.53-4.54-1.1-2.53-2.4-4.96-3.91-7.28Z"/>
      <path class="cls-4" d="M189.8,358.54c-.29,1.68-.71,3.37-1.39,4.96-.2.48-.35.98-.5,1.46-1.29,4.09-3.43,7.73-5.7,11.32-1.2,1.89-2.72,3.54-4.14,5.26-1.08,1.31-2.44,2.32-3.51,3.63-.23.28-.59.46-.89.69-1.94,1.52-3.85,3.07-5.94,4.4-.79.5-1.6.93-2.41,1.37h-.01c-.09.05-.19.1-.29.15-.09.05-.17.1-.26.16h-.01s-.07.04-.11.06h-16.25c.03-.06.05-.13.07-.19.01-.01.01-.02.02-.03v-.02c1.74-4.38,2.81-9.08,3.12-14,.16-.06.32-.11.48-.17,1.18-.41,2.32-.97,3.44-1.54.55-.28,1.07-.6,1.59-.93.04-.02.08-.04.12-.07.01,0,.02-.02.03-.02,0-.01,0-.02.02-.02.47-.29.93-.59,1.41-.85.8-.45,1.49-1.01,2.15-1.59.06-.05.12-.1.17-.15.06-.05.11-.1.17-.15.42-.38.83-.76,1.26-1.13,1.31-1.12,2.38-2.47,3.45-3.82,1.42-1.78,2.61-3.7,3.53-5.78.75-1.67,1.26-3.41,1.8-5.15.65-2.09.9-4.23,1-6.38.09-2.06-.06-4.1-.34-6.16-.4-2.91-1.24-5.66-2.46-8.31-1.16-2.52-2.51-4.93-4.34-7.06-.5-.58-1-1.15-1.53-1.71-.17-.19-.35-.37-.53-.55-.06-.07-.11-.13-.17-.17-.2-.21-.41-.42-.62-.62-.34-.32-.68-.63-1.03-.93-.06-.05-.12-.11-.19-.16-.06-.05-.13-.1-.19-.16-.01,0-.02-.01-.03-.02-1.12-.89-2.28-1.72-3.51-2.46,0,0-.01-.01-.02-.01-.01-.01-.02-.01-.03-.02-1.07-.65-2.18-1.24-3.34-1.76-1.39-.63-2.84-1.09-4.3-1.51-.7-.21-1.42-.27-2.09-.48-1.63-.5-3.29-.69-4.96-.72-2.13-.03-4.24.02-6.37.34-2.02.3-3.95.83-5.83,1.49-2.61.9-5.05,2.22-7.31,3.81-.39.28-.86.38-1.22.75-1.38,1.43-2.93,2.67-4.25,4.2-.56.65-1.11,1.31-1.62,1.98-1.6-.38-3.23-.67-4.89-.87-.24-.7-.5-1.4-.78-2.09-.89-2.21-1.91-4.36-3.11-6.41-.91-1.54-1.78-3.1-2.9-4.51-.05-.06-.09-.12-.13-.17t-.01-.02s-.01-.02-.02-.03c-.23-.37-.17-.62.25-1.04,1.46-1.46,2.83-3.02,4.51-4.24.83-.61,1.54-1.35,2.38-1.96,1.73-1.25,3.54-2.36,5.36-3.47.79-.48,1.68-.79,2.47-1.27,1.06-.65,2.23-1.07,3.36-1.52,1.74-.69,3.53-1.28,5.35-1.78,1.78-.49,3.58-.93,5.41-1.16,1.66-.22,3.32-.49,5.02-.54,1.51-.04,3.03-.19,4.54-.1,2.5.16,5,.29,7.46.89,1.01.25,2.06.46,3.1.63,1.37.23,2.63.82,3.94,1.23,1.22.37,2.4.83,3.56,1.35.07.03.13.06.2.09.07.03.13.06.2.09,1.5.67,2.95,1.43,4.41,2.18,1.57.81,3.01,1.91,4.48,2.94,1.83,1.28,3.53,2.73,5.16,4.27,2.08,1.96,3.97,4.1,5.69,6.4,2.28,3.07,4.15,6.36,5.7,9.86.95,2.16,1.77,4.38,2.39,6.65.59,2.18,1.13,4.4,1.29,6.67.05.75.25,1.49.34,2.24.21,1.93.03,3.85.11,5.77.11,2.95-.5,5.82-.98,8.69Z"/>
      <path class="cls-12" d="M171.88,343.85c-.4-2.91-1.24-5.66-2.46-8.31-1.16-2.52-2.51-4.93-4.34-7.06-.5-.58-1-1.15-1.53-1.71-.17-.19-.35-.37-.53-.55-.06-.07-.11-.13-.17-.17-.2-.21-.41-.42-.62-.62-.34-.32-.68-.63-1.03-.93-.06-.05-.12-.11-.19-.16-.06-.05-.13-.1-.19-.16-.01,0-.02-.01-.03-.02-1.12-.89-2.28-1.72-3.51-2.46,0,0-.01-.01-.02-.01-.01-.01-.02-.01-.03-.02-1.07-.65-2.18-1.24-3.34-1.76-1.39-.63-2.84-1.09-4.3-1.51-.7-.21-1.42-.27-2.09-.48-1.63-.5-3.29-.69-4.96-.72-2.13-.03-4.24.02-6.37.34-2.02.3-3.95.83-5.83,1.49-2.61.9-5.05,2.22-7.31,3.81-.39.28-.86.38-1.22.75-1.38,1.43-2.93,2.67-4.25,4.2-.56.65-1.11,1.31-1.62,1.98,4.32,1,8.4,2.61,12.16,4.73.03-.04.07-.08.11-.11,1.92-1.74,4.09-3.04,6.49-3.89,1.51-.53,3.09-.94,4.73-.93.79.01,1.58-.04,2.37-.05,1.25-.03,2.46.26,3.66.49,1.76.33,3.38,1.09,4.95,1.95,2.93,1.62,5.12,3.95,6.82,6.72.02.01.03.03.03.05,0,0,.02.02.02.03.19.29.36.59.53.89.83,1.46,1.41,3.08,1.71,4.71.45,2.36.58,4.73.13,7.16-.43,2.34-1.21,4.49-2.37,6.53,0,.01-.01.03-.02.04-.01.02-.02.03-.03.05-.05.1-.11.2-.17.3-.98,1.64-2.24,3.02-3.71,4.25-.88.74-1.76,1.49-2.77,2.04.73,3.25,1.11,6.64,1.11,10.11,0,.98-.03,1.96-.09,2.92.16-.06.32-.11.48-.17,1.18-.41,2.32-.97,3.44-1.54.55-.28,1.07-.6,1.59-.93.04-.02.08-.04.12-.07.01,0,.02-.02.03-.02,0-.01,0-.02.02-.02.47-.29.93-.59,1.41-.85.8-.45,1.49-1.01,2.15-1.59.06-.05.12-.1.17-.15.06-.05.11-.1.17-.15.42-.38.83-.76,1.26-1.13,1.31-1.12,2.38-2.47,3.45-3.82,1.42-1.78,2.61-3.7,3.53-5.78.75-1.67,1.26-3.41,1.8-5.15.65-2.09.9-4.23,1-6.38.09-2.06-.06-4.1-.34-6.16Z"/>
      <path class="cls-12" d="M85.16,332.83c-.17-.3-.35-.59-.53-.87-.07-.12-.14-.23-.22-.33-.23-.36-.48-.71-.73-1.06-.33-.47-.68-.93-1.05-1.37-.24-.29-.48-.58-.74-.87-.03-.06-.08-.11-.13-.16-.31-.34-.62-.68-.95-1.01-.17-.17-.33-.34-.5-.5-.17-.17-.33-.33-.51-.49-.21-.21-.44-.41-.67-.62-.17-.14-.34-.29-.52-.44-.38-.33-.78-.65-1.18-.95-.21-.16-.41-.31-.62-.46-.2-.15-.41-.3-.62-.44-.22-.15-.43-.29-.65-.43-.18-.13-.37-.25-.56-.36-.05-.04-.1-.07-.15-.1-.2-.12-.4-.24-.61-.36-.22-.13-.45-.26-.68-.39s-.46-.25-.69-.37c-.23-.13-.47-.25-.71-.36-.23-.12-.47-.24-.72-.35-.76-.35-1.54-.68-2.34-.98-.22-.08-.44-.16-.66-.24-.26-.09-.52-.18-.78-.26-.24-.08-.49-.16-.73-.23-.19-.06-.37-.12-.56-.17-.25-.07-.5-.14-.76-.21-.24-.06-.48-.12-.71-.18-.25-.06-.51-.12-.77-.17-.32-.07-.64-.14-.97-.2-.72-.14-1.45-.26-2.19-.35-.26-.04-.52-.07-.79-.1-.32-.04-.65-.07-.97-.1-.37-.03-.75-.06-1.13-.08-.39-.02-.78-.04-1.18-.06-.46-.01-.92-.02-1.38-.02-.34.01-.69.03-1.05.06-.07,0-.15,0-.23.02-.34.02-.68.06-1.03.11-.39.05-.79.11-1.19.19-.04.01-.08.02-.12.02-.37.07-.73.15-1.1.24-.41.1-.83.21-1.24.34-.42.12-.83.25-1.25.4-.42.14-.84.3-1.26.46-.42.18-.85.36-1.27.55-.41.19-.82.38-1.23.59-.04.01-.07.03-.09.05-.28.14-.56.29-.84.45-.87.47-1.74.99-2.59,1.58-.22.14-.44.3-.66.46-.04.02-.08.05-.12.08-.01,0-.01,0-.02.02-.01,0-.02.01-.03.02t-.02.02c-.36.26-.72.53-1.08.81,0,0,0,0,0,0-.32.24-.64.5-.95.77-.36.29-.71.61-1.06.93-.4.36-.79.73-1.17,1.12-6.18,6.22-9.03,13.83-9,22.5.02,4.07.94,8.03,2.55,11.77,1.67,3.88,4.03,7.36,7.12,10.23.58.53,1.17,1.04,1.77,1.52.3.25.61.48.91.71.31.24.62.46.94.68.01.01.02.02.03.02t.02.01c.4.28.81.55,1.22.81.42.26.84.51,1.26.75.33.19.66.37,1,.54.17.1.34.18.51.26.36.19.73.37,1.11.53.4.18.8.36,1.21.52.99.41,2.01.76,3.05,1.07.44.13.89.25,1.35.37,2.43.62,4.92.94,7.39.88.36-.01.71-.03,1.06-.05-.17-1.57-.25-3.16-.25-4.77,0-2.61.22-5.17.63-7.66-.32.03-.65.05-.98.06-6.93.22-13.01-3.2-16.48-8.53-.04-.06-.08-.12-.12-.18-.03-.06-.07-.11-.11-.17-.76-1.23-1.39-2.56-1.85-3.97-.01-.02-.02-.04-.02-.06-.01-.03-.02-.05-.03-.08-.58-1.79-.91-3.71-.94-5.71-.01-.91.03-1.8.14-2.66,0-.08.02-.17.03-.25.01-.09.02-.17.03-.26.16-1.09.41-2.14.74-3.14.01-.03.02-.06.03-.09,0-.02.01-.04.02-.06,2.37-7.09,8.75-11.84,15.82-12.48,9.15-.83,15.91,3.87,19.06,10.28,3.08-2.68,6.51-4.95,10.23-6.75-.05-.1-.11-.2-.18-.3Z"/>
    </g>
    <g>
      <path class="cls-4" d="M497.98,302.77c0,1.67,0,3.34,0,5.01,0,.08-.02.14-.1.18-.02.01-.05.02-.08.02-.36,0-.73,0-1.09,0-.18,0-.36-.04-.52-.14-.16-.11-.29-.25-.35-.44-.04-.12-.06-.23-.06-.35,0-1.05,0-2.09,0-3.14,0-.01,0-.02,0-.04,0-.05,0-.06-.06-.06-.01,0-.02,0-.04,0-.75,0-1.49,0-2.24,0-.1,0-.1,0-.1.1,0,1.29,0,2.58,0,3.87,0,.03,0,.06,0,.09-.03.06-.07.1-.14.11-.02,0-.04,0-.06,0-.33,0-.65,0-.98,0-.12,0-.24,0-.35-.04-.11-.03-.21-.08-.29-.14-.12-.09-.22-.2-.28-.35-.05-.12-.08-.24-.09-.37,0-.02,0-.04,0-.06,0-2.84,0-5.68,0-8.52,0-.19.04-.38.15-.54.11-.16.25-.28.44-.35.13-.05.27-.06.4-.06.34,0,.67,0,1.01,0,.04,0,.08,0,.12.03.05.03.08.07.08.13,0,.02,0,.03,0,.05,0,1.25,0,2.5,0,3.75,0,0,0,.01,0,.02,0,.07,0,.07.07.07.45,0,.91,0,1.36,0,.3,0,.6,0,.9,0,.1,0,.1,0,.1-.09,0-1.01,0-2.02,0-3.04,0-.18.04-.35.14-.51.11-.17.26-.29.45-.36.12-.04.25-.06.38-.06.34,0,.69,0,1.03,0,.04,0,.08,0,.12.03.04.03.07.07.07.13,0,.02,0,.03,0,.05,0,1.67,0,3.34,0,5Z"/>
      <path class="cls-4" d="M528.24,307.98c-.28,0-.56,0-.85,0-.08,0-.13-.03-.17-.09-.04-.07-.1-.12-.16-.17-.03-.03-.07,0-.1,0-.09.03-.17.07-.26.09-.21.06-.42.11-.64.14-.19.02-.39.04-.58.02-.14,0-.28-.02-.42-.05-.15-.02-.3-.06-.44-.1-.11-.03-.22-.08-.33-.12-.22-.09-.43-.21-.62-.34-.14-.1-.28-.2-.4-.32-.25-.23-.46-.48-.64-.77-.11-.19-.21-.38-.29-.58-.05-.14-.1-.28-.13-.43-.04-.18-.07-.36-.09-.54,0-.11-.02-.22-.01-.34,0-.2.02-.41.06-.6.06-.27.14-.53.25-.78.11-.24.24-.46.4-.67.18-.24.39-.46.63-.64.21-.17.44-.31.68-.43.17-.08.35-.15.53-.2.1-.03.19-.05.29-.07.09-.02.18-.04.27-.04.08,0,.17-.02.25-.02.19-.01.37,0,.56.02.18.02.35.05.52.09.18.05.35.11.52.18.24.1.46.24.67.39.2.15.38.31.54.49.16.18.29.37.41.57.14.24.25.49.33.76.07.24.12.48.14.73.01.16.02.32.01.48,0,.04,0,.09,0,.14,0,1.04,0,2.08,0,3.12,0,.01,0,.03,0,.04,0,.03-.01.04-.04.04-.3,0-.6,0-.9,0h0ZM524.3,304.42c-.04.68.55,1.42,1.45,1.37.62-.04,1.29-.57,1.24-1.44-.03-.61-.55-1.3-1.46-1.25-.66.04-1.24.61-1.23,1.32Z"/>
      <path class="cls-4" d="M501.97,307.98c-2.01-.02-3.55-1.64-3.52-3.57.03-1.98,1.63-3.51,3.57-3.49,1.98.03,3.5,1.62,3.49,3.55-.02,2.01-1.64,3.5-3.54,3.51ZM500.63,304.45c-.03.67.55,1.4,1.45,1.35.61-.04,1.28-.56,1.24-1.43-.03-.57-.51-1.3-1.45-1.26-.63.03-1.26.6-1.24,1.35Z"/>
      <path class="cls-4" d="M505.99,310.5c0-.09,0-.18,0-.27,0-.22,0-.45,0-.67,0-.73,0-1.47,0-2.2,0-.36,0-.72,0-1.09,0-.37,0-.74,0-1.11,0-.29,0-.58,0-.87,0-.11.01-.21.03-.32.02-.12.03-.23.06-.34.04-.18.1-.36.16-.53.1-.26.22-.51.39-.73.12-.16.25-.32.39-.46.11-.11.23-.21.35-.3.16-.12.33-.23.5-.32.06-.03.12-.07.19-.1.1-.04.19-.08.29-.11.11-.03.22-.07.33-.1.13-.03.27-.05.41-.07.2-.02.41-.04.61-.03.16.01.32.02.47.06.07.02.15.03.22.04.1.02.19.06.28.09.21.07.42.17.61.27.11.06.21.13.31.2.13.09.25.19.37.3.2.19.38.41.53.64.12.18.21.37.3.56.06.15.12.31.16.48.03.11.05.22.07.34.03.19.06.38.04.57,0,.09,0,.18,0,.26-.03.25-.07.5-.14.74-.08.26-.19.52-.34.76-.06.11-.13.21-.2.31-.07.09-.15.18-.23.27-.07.09-.17.16-.24.25-.02.02-.04.04-.07.05-.14.11-.27.21-.42.31-.13.08-.28.15-.41.23-.16.1-.33.19-.49.28-.11.07-.23.12-.34.2-.09.06-.18.1-.26.16-.09.06-.18.11-.27.16-.13.07-.26.15-.39.22-.14.08-.27.16-.41.23-.11.07-.23.13-.34.2-.11.06-.22.12-.32.18-.12.07-.24.14-.36.21-.1.06-.2.11-.29.17-.14.09-.29.17-.44.25-.13.07-.26.16-.4.23-.07.03-.13.08-.2.12-.15.09-.3.17-.45.26-.01,0-.03.02-.06.01ZM509.34,302.2c-.42,0-.96.22-1.39.66-.44.44-.64.98-.64,1.6,0,.29.07.57.18.84.12.28.29.52.51.73.29.27.63.46,1.02.55.17.04.35.07.53.06.58-.02,1.1-.21,1.53-.62.48-.46.7-1.03.68-1.68-.04-1.15-.98-2.13-2.41-2.13Z"/>
      <path class="cls-4" d="M513.41,303.4s-.04-.11-.06-.16c-.04-.12-.08-.24-.12-.36-.06-.16-.14-.31-.22-.46-.06-.11-.13-.22-.21-.32-.03-.04-.03-.05,0-.09.1-.1.2-.21.32-.3.06-.04.11-.1.17-.14.12-.09.25-.17.38-.25.06-.03.12-.06.18-.09.08-.05.16-.08.24-.11.12-.05.25-.09.38-.13.13-.04.25-.07.38-.08.12-.02.24-.03.36-.04.11,0,.21-.01.32,0,.18.01.36.02.53.06.07.02.15.03.22.04.1.02.19.06.28.09.21.06.4.16.59.26.11.06.21.14.32.21.13.09.25.19.37.3.15.14.28.29.4.45.16.22.3.45.4.7.07.15.13.31.17.47.04.15.08.31.09.47,0,.05.02.11.02.16.02.14,0,.27,0,.41,0,.21-.04.41-.07.62-.02.12-.05.24-.1.35-.01.03-.03.07-.04.1-.09.29-.24.55-.4.8-.09.13-.19.25-.29.37-.08.09-.17.16-.25.26-.02.02-.04.03-.06.05-.14.11-.27.22-.42.31-.08.05-.17.09-.25.14-.16.1-.33.19-.49.29-.17.09-.33.19-.49.29-.09.05-.17.1-.26.15-.14.09-.3.17-.44.25-.05.03-.11.06-.16.09-.14.08-.27.16-.41.24-.13.08-.27.16-.4.23-.12.06-.23.13-.35.2-.11.07-.23.13-.34.2-.08.04-.15.09-.23.13-.16.09-.32.19-.49.28-.13.07-.26.16-.4.23-.07.03-.13.08-.2.12-.15.09-.29.17-.44.26-.06.03-.06.03-.06-.04,0-.44,0-.88,0-1.31,0-.47,0-.94,0-1.4,0-.06.01-.09.06-.13.05-.03.1-.07.14-.12.03-.03.07-.05.1-.07.04-.03.08-.05.11-.09.1-.1.19-.21.29-.31.06-.07.12-.15.18-.23.11-.13.18-.27.26-.41.04-.07.09-.14.12-.21.05-.12.12-.24.15-.37.01-.07.06-.13.07-.2.01-.04.01-.08.03-.12.01-.02.01-.05.03-.08.04.04.06.09.09.14.07.13.15.24.25.34.08.09.16.18.26.25.11.08.21.16.33.22.08.04.17.08.25.11.08.03.16.07.25.08.01,0,.02,0,.03.01.03.02.06.02.1.03.14.03.29.03.43.04.01,0,.03,0,.04,0,.05-.02.09-.01.14-.01.07,0,.14-.02.21-.02.14-.02.27-.07.4-.11.08-.03.16-.07.24-.11.08-.04.15-.09.23-.13.1-.06.18-.14.27-.21.09-.08.17-.18.24-.27.1-.13.19-.26.25-.41.05-.12.09-.24.13-.37.05-.15.06-.3.07-.45,0-.15,0-.29-.02-.44-.03-.21-.09-.4-.17-.59-.08-.18-.18-.35-.31-.5-.09-.11-.19-.22-.3-.31-.15-.12-.31-.22-.49-.3-.1-.04-.2-.08-.31-.11-.05-.01-.1-.02-.15-.03-.12-.04-.23-.05-.35-.05-.15,0-.3,0-.45.02-.14.02-.28.06-.41.11-.19.06-.36.16-.52.27-.03.02-.06.03-.09.05-.1.1-.21.19-.3.3-.11.13-.22.26-.3.42,0,.02-.01.04-.04.04Z"/>
      <path class="cls-4" d="M521.6,302.56c0,1.74,0,3.48,0,5.22,0,.04,0,.07-.01.11-.04.07-.1.1-.17.1-.34,0-.68,0-1.01,0-.06,0-.12,0-.18,0-.34-.04-.59-.22-.73-.54-.05-.1-.07-.22-.07-.33,0-.82,0-1.65,0-2.47,0-.09,0-.18,0-.26,0-.06,0-.12,0-.18,0-2.2,0-4.4,0-6.6,0-.3.13-.55.37-.73.09-.07.19-.11.31-.14.11-.03.22-.03.33-.03.2,0,.39,0,.59,0,.27.01.49.17.56.43.02.07.03.14.03.22,0,1.73,0,3.47,0,5.2Z"/>
      <path class="cls-12" d="M513.41,303.4s.03-.02.04-.04c.08-.15.18-.29.3-.42.09-.11.2-.2.3-.3.03-.03.06-.03.09-.05.16-.11.33-.21.52-.27.13-.05.27-.08.41-.11.15-.02.3-.03.45-.02.12,0,.24.02.35.05.05.01.1.02.15.03.1.03.21.06.31.11.18.08.34.18.49.3.11.09.21.2.3.31.13.15.23.32.31.5.09.19.15.38.17.59.02.15.03.29.02.44,0,.15-.02.3-.07.45-.04.12-.08.25-.13.37-.07.15-.15.28-.25.41-.08.1-.15.19-.24.27-.09.07-.16.16-.27.21-.08.04-.15.09-.23.13-.08.04-.16.08-.24.11-.13.05-.26.09-.4.11-.07,0-.14.02-.21.02-.05,0-.09,0-.14.01-.01,0-.02,0-.04,0-.14-.01-.29-.01-.43-.04-.03,0-.07,0-.1-.03,0,0-.02-.01-.03-.01-.09,0-.17-.04-.25-.08-.09-.03-.17-.07-.25-.11-.12-.06-.22-.15-.33-.22-.1-.07-.18-.16-.26-.25-.1-.1-.18-.22-.25-.34-.03-.05-.04-.1-.09-.14,0-.04.01-.07.02-.11.04-.16.05-.33.08-.5.02-.09,0-.19,0-.29,0-.15,0-.29-.01-.44-.02-.14-.03-.28-.06-.42-.02-.08-.05-.16-.04-.24ZM515.44,305.75c.24,0,.44-.07.63-.17.08-.04.15-.1.21-.15.1-.09.19-.18.26-.3.09-.15.15-.31.18-.49.03-.17.02-.34,0-.51-.02-.12-.06-.23-.12-.33-.13-.23-.29-.42-.53-.55-.11-.06-.23-.11-.35-.14-.09-.02-.17-.04-.26-.04-.06,0-.11,0-.17,0-.12,0-.23.03-.34.07-.17.06-.32.15-.46.28-.17.15-.28.33-.36.54-.05.13-.07.26-.08.4-.01.16.02.32.07.47.02.08.06.15.1.22.06.12.14.22.23.31.07.07.14.13.22.18.11.07.23.12.35.16.14.04.28.06.4.05Z"/>
      <path class="cls-12" d="M509.34,302.2c1.43,0,2.36.98,2.41,2.13.03.66-.2,1.23-.68,1.68-.43.41-.94.6-1.53.62-.18,0-.35-.02-.53-.06-.39-.1-.73-.28-1.02-.55-.22-.2-.39-.45-.51-.73-.11-.27-.18-.55-.18-.84,0-.62.2-1.16.64-1.6.44-.44.97-.65,1.39-.66ZM509.57,305.75c.75-.03,1.32-.62,1.3-1.37-.02-.71-.59-1.38-1.5-1.3-.64.06-1.2.59-1.19,1.34.01.76.63,1.35,1.39,1.33Z"/>
    </g>
    <line class="cls-13" x1="161.01" y1="302.78" x2="161.01" y2="391.9"/>
    <g>
      <path class="cls-3" d="M55.04,351.17h-16.88c-3.56,0-6.45-2.89-6.45-6.45h0c0-3.56,2.89-6.45,6.45-6.45h16.88c3.56,0,6.45,2.89,6.45,6.45h0c0,3.56-2.89,6.45-6.45,6.45Z"/>
      <path class="cls-6" d="M55.04,351.17c-.02-.08,1.09.07,2.78-.75.83-.41,1.75-1.12,2.47-2.21.71-1.09,1.17-2.59.97-4.22-.18-1.62-1.11-3.33-2.69-4.41-.79-.54-1.74-.9-2.74-1.03-.99-.11-2.12-.03-3.22-.05-4.45,0-9.33.01-14.46.02-2.49-.03-4.78,1.57-5.69,3.72-.94,2.14-.54,4.67.82,6.33.66.84,1.53,1.48,2.46,1.88.95.4,1.92.51,2.91.5,1.97.01,3.81.02,5.5.03,3.32.04,6.03.06,7.96.08.9.02,1.62.04,2.17.05.5.01.76.03.76.05s-.26.04-.75.05c-.54.01-1.26.03-2.17.05-1.94.02-4.64.05-7.96.08-1.69.01-3.53.02-5.5.03-.99.03-2.08-.08-3.09-.51-1-.43-1.94-1.1-2.66-2.01-1.47-1.78-1.92-4.51-.91-6.83.97-2.33,3.45-4.07,6.15-4.04,5.13,0,10.01.01,14.46.02,1.12.03,2.17-.05,3.27.07,1.08.15,2.09.54,2.93,1.13,1.68,1.18,2.64,3.01,2.81,4.73.18,1.73-.33,3.3-1.1,4.42-.78,1.13-1.76,1.84-2.63,2.23-.87.4-1.61.52-2.11.57-.25.02-.44.01-.57.01-.12,0-.19,0-.19-.02Z"/>
    </g>
  </g>
</svg>