<?xml version="1.0" encoding="utf-8"?>
<!-- Generator: Adobe Illustrator 27.5.0, SVG Export Plug-In . SVG Version: 6.00 Build 0)  -->
<svg version="1.1" xmlns="http://www.w3.org/2000/svg" xmlns:xlink="http://www.w3.org/1999/xlink" x="0px" y="0px"
	 viewBox="0 0 750 500" style="enable-background:new 0 0 750 500;" xml:space="preserve">
<g id="Background_Complete">
	<path style="fill:#EBEBEB;" d="M475.645,127.139l158.074,0.659c0,0-14.974-34.247-46.958-34.265
		c-24.391-0.014-25.475,15.177-40.11,19.513C532.016,117.382,501.12,90.823,475.645,127.139z"/>
	<path style="fill:#EBEBEB;" d="M225.66,72.092l114.669,0.478c0,0-10.862-24.843-34.064-24.856
		c-17.694-0.01-18.48,11.009-29.096,14.155C266.552,65.015,244.14,45.749,225.66,72.092z"/>
	<path style="fill:#EBEBEB;" d="M609.374,359.196c-9.127-16.974-29.572-28.861-48.028-23.313
		c2.011-18.119-8.027-36.986-24.178-45.442c-9.817-5.14-21.508-6.225-32.255-3.602v153.859h100.673l9.158-25.071
		C618.347,396.695,618.501,376.17,609.374,359.196z"/>
	<path style="fill:#E0E0E0;" d="M638.02,397.565c-5.18-0.565-10.446-0.093-15.437,1.606c0.873-16.762-7.959-33.687-22.208-42.558
		c-14.249-8.871-33.334-9.326-47.99-1.145c-1.725-11.309-9.48-21.516-19.912-26.209c-8.622-3.879-18.846-3.88-27.559-0.261v110.599
		h167.682v-2.703C672.595,416.956,657.84,399.726,638.02,397.565z"/>
	<path style="fill:#E0E0E0;" d="M36.167,440.492c-4.498-13.729-2.876-29.342,4.348-41.853c7.224-12.512,19.935-21.721,34.074-24.69
		c0.184-21.883,13.347-43.168,32.843-53.108c19.495-9.94,44.454-8.092,62.273,4.611l3.853,115.366L36.167,440.492z"/>
</g>
<g id="Background_Simple" style="display:none;">
	<path style="display:inline;fill:#EBEBEB;" d="M191.205,146.343c86.094,8.626,92.07,32.816,139.25,32.816
		c39.063,0,55.313-16.557,90.044-34.437c24.415-12.569,45.309-30.908,68.187-46.097c22.878-15.188,49.3-27.56,76.698-25.704
		c40.905,2.771,74.819,38.924,82.318,79.231c7.499,40.307-7.903,82.455-33.699,114.322c-25.795,31.867-57.599,67.706-93.952,86.661
		c-51.613,26.912-110.794,34.245-168.715,40.026c-57.92,5.781-118.265-3.691-168.594-32.934
		c-35.277-20.497-65.944-52.024-76.757-91.365s2.26-86.443,36.845-108.088C142.83,160.774,168.589,144.077,191.205,146.343z"/>
</g>
<g id="Floor">
	<g>
		<path style="fill:#263238;" d="M692.496,441.032c0,0.144-146.546,0.26-327.277,0.26c-180.794,0-327.309-0.116-327.309-0.26
			c0-0.144,146.514-0.26,327.309-0.26C545.951,440.772,692.496,440.889,692.496,441.032z"/>
	</g>
</g>
<g id="Bus_Stop">
	<g>
		<path style="fill:#F5F5F5;" d="M504.082,392.766H117.195V191.804h384.591C501.786,191.804,504.082,395.037,504.082,392.766z"/>
		<g>
			<path style="fill:#E0E0E0;" d="M361.469,203.727v89.981h66.961V203.71C428.43,203.71,361.469,204.453,361.469,203.727z"/>
			<polygon style="fill:#455A64;" points="361.469,203.913 361.469,217.914 428.454,218.323 428.454,203.727 			"/>
			<path style="fill:#FFFFFF;" d="M385.691,210.169v2.738h21.448v-2.373C407.14,210.533,386.241,210.169,385.691,210.169z"/>
			<rect x="365.204" y="224.354" style="fill:#FFFFFF;" width="20.969" height="22.484"/>
			<g>
				<path style="fill:#E8505B;" d="M383.24,270.388c0,0,0.32-0.015,0.928-0.023c0.659-0.005,1.545-0.012,2.659-0.021
					c2.362-0.008,5.68-0.02,9.745-0.035l-0.078,0.078c-0.007-6.702-0.016-15.541-0.026-25.214c0-1.92,0.001-3.807,0.001-5.639
					l0-0.103l0.103,0c7.327,0.009,13.962,0.017,19.277,0.024l-0.079,0.078c0.069-4.153,0.126-7.547,0.167-9.961
					c0.024-1.14,0.043-2.047,0.057-2.72c0.016-0.623,0.036-0.95,0.036-0.95s0.011,0.328,0.01,0.951
					c-0.004,0.673-0.009,1.581-0.015,2.721c-0.023,2.415-0.057,5.808-0.097,9.962l-0.001,0.078l-0.079,0
					c-5.316,0.007-11.951,0.015-19.277,0.024l0.103-0.103c0,1.832,0.001,3.719,0.001,5.639c-0.01,9.673-0.019,18.512-0.026,25.214
					l0,0.079l-0.078,0c-4.065-0.014-7.383-0.026-9.745-0.035c-1.113-0.009-2-0.016-2.659-0.021
					C383.56,270.403,383.24,270.388,383.24,270.388z"/>
			</g>
			<g>
				<path style="fill:#263238;" d="M422.711,277.049c0,0-0.552,0.019-1.588,0.028c-1.083,0.006-2.591,0.014-4.488,0.025
					c-3.914,0.009-9.423,0.022-16.016,0.037l-0.09,0l0-0.09c-0.004-6.465-0.009-14.084-0.014-22.214
					c0.001-3.578,0.002-7.056,0.003-10.377v-0.101l0.101,0c4.769,0.005,9.222,0.009,13.223,0.013l-0.088,0.088
					c0.015-6.202,0.028-11.365,0.037-15.032c0.01-1.773,0.018-3.182,0.024-4.196c0.009-0.967,0.027-1.482,0.027-1.482
					s0.018,0.515,0.027,1.482c0.006,1.015,0.014,2.423,0.024,4.196c0.009,3.666,0.022,8.83,0.037,15.032l0,0.088l-0.088,0
					c-4.001,0.004-8.454,0.008-13.223,0.013l0.101-0.101c0.001,3.321,0.002,6.799,0.003,10.377
					c-0.005,8.131-0.01,15.75-0.014,22.214l-0.09-0.09c6.593,0.015,12.102,0.028,16.016,0.037c1.897,0.011,3.405,0.019,4.488,0.025
					C422.159,277.03,422.711,277.049,422.711,277.049z"/>
			</g>
			<polygon style="fill:#FFFFFF;" points="365.336,251.874 365.336,253.985 382.299,253.985 382.299,251.452 			"/>
			<polygon style="fill:#FFFFFF;" points="365.204,255.431 365.204,257.543 382.167,257.543 382.167,255.009 			"/>
		</g>
		<g>
			<path style="fill:#263238;" d="M92.384,98.484v65.718h433.107V99.276C525.492,99.276,90.801,96.901,92.384,98.484z"/>
			<path style="fill:#263238;" d="M445.677,158.605l0.056,282.428h6.812l0.055-280.838
				C452.6,160.194,444.542,158.605,445.677,158.605z"/>
			<path style="fill:#263238;" d="M493.474,160.721l1.135,279.761h13.625v-40.305V160.721
				C508.234,160.721,492.339,159.535,493.474,160.721z"/>
			<path style="fill:#E8505B;" d="M92.384,128.742v15.586h433.107v-16.531C525.492,127.798,93.527,128.742,92.384,128.742z"/>
			<path style="fill:#263238;" d="M105.225,156.913l1.135,284.196h13.625v-40.943V156.913
				C119.985,156.913,104.089,155.709,105.225,156.913z"/>
			<path style="fill:#263238;" d="M167.62,163.59v277.672h6.812V162.298C174.432,162.298,166.485,163.59,167.62,163.59z"/>
		</g>
		<polygon style="fill:#E8505B;" points="125.022,201.306 125.416,382.645 162.531,382.645 161.79,201.306 		"/>
	</g>
</g>
<g id="Bench">
	<g>
		<rect x="277.081" y="366.391" style="fill:#263238;" width="6.987" height="74.199"/>
		<path style="fill:#455A64;" d="M363.566,366.888H193.965c-3.216,0-5.823-2.607-5.823-5.823l0,0c0-3.216,2.607-5.823,5.823-5.823
			h169.601c3.216,0,5.823,2.607,5.823,5.823l0,0C369.388,364.281,366.781,366.888,363.566,366.888z"/>
	</g>
</g>
<g id="Sign">
	<g>
		<rect x="654.439" y="201.126" style="fill:#263238;" width="8.964" height="239.906"/>
		<g>
			<rect x="622.557" y="134.405" style="fill:#E8505B;" width="78.568" height="66.721"/>
			
				<rect x="628.412" y="138.711" style="fill:none;stroke:#FFFFFF;stroke-width:0.75;stroke-miterlimit:10;" width="67.76" height="57.542"/>
			<path style="fill:#FFFFFF;" d="M638.485,157.283l-0.171,20.31h50.176v-7.711c0-2.328-1.887-4.216-4.216-4.216l0,0
				c-2.328,0-4.216-1.887-4.216-4.215v-4.297c0-2.337-1.877-4.227-4.214-4.216c-7.993,0.04-25.266,0.127-33.198,0.165
				C640.341,153.115,638.505,154.977,638.485,157.283z"/>
			<path style="fill:#E8505B;" d="M685.2,177.599c0,2.615-2.12,4.735-4.735,4.735s-4.735-2.12-4.735-4.735
				c0-2.615,2.12-4.735,4.735-4.735S685.2,174.984,685.2,177.599z"/>
			<circle style="fill:#FFFFFF;" cx="680.402" cy="177.64" r="3.307"/>
			<path style="fill:#E8505B;" d="M651.794,176.889c0,2.615-2.12,4.735-4.735,4.735c-2.615,0-4.735-2.12-4.735-4.735
				c0-2.615,2.12-4.735,4.735-4.735C649.674,172.154,651.794,174.274,651.794,176.889z"/>
			<path style="fill:#FFFFFF;" d="M650.303,176.93c0,1.826-1.481,3.307-3.307,3.307c-1.826,0-3.307-1.481-3.307-3.307
				c0-1.826,1.48-3.307,3.307-3.307C648.822,173.624,650.303,175.104,650.303,176.93z"/>
			<path style="fill:#E8505B;" d="M640.515,158.693v6.853h4.668v-6.853C645.183,158.693,640.515,158.494,640.515,158.693z"/>
			<path style="fill:#E8505B;" d="M647.269,158.693v6.853h4.668v-6.853C651.937,158.693,647.269,158.494,647.269,158.693z"/>
			<path style="fill:#E8505B;" d="M654.022,158.693v6.853h4.668v-6.853C658.69,158.693,654.022,158.494,654.022,158.693z"/>
			<path style="fill:#E8505B;" d="M661.173,158.693v6.853h4.668v-6.853C665.841,158.693,661.173,158.494,661.173,158.693z"/>
			<path style="fill:#E8505B;" d="M667.828,158.693v6.853h4.668v-6.853C672.495,158.693,667.828,158.494,667.828,158.693z"/>
			<path style="fill:#E8505B;" d="M674.978,158.693v6.853h4.668v-6.853C679.646,158.693,674.978,158.494,674.978,158.693z"/>
		</g>
	</g>
</g>
<g id="Character_3">
	<g>
		<path style="fill:#B78876;" d="M668.931,258.047c-1.131-0.637-5.725,4.211-5.489,2.722c0.237-1.489,6.476-5.419,5.259-6.046
			c-1.586-0.817-6.28,4.327-6.717,4.739c-0.425,0.401-1.192-0.068-0.773-0.423c0.603-0.512,6.773-6.007,5.225-6.822
			c-0.858-0.451-1.756,0.862-1.756,0.862s-5.303,5.474-6.017,5.07c-0.725-0.41,2.254-3.706,3.356-4.763
			c1.089-1.043,0.915-1.873-0.059-1.866c-0.664,0.005-4.135,3.177-5.195,4.241c-1.06,1.064-3.902,4.024-3.976,1.675
			c-0.074-2.349-1.243-4.119-1.982-4.418c-0.738-0.299-1.545,0.416-1.141,1.067c0.327,0.525,0.527,1.54,0.638,2.307
			c0.08,0.555,0.054,1.117-0.073,1.667c-2.651,2.188-21.657,17.787-23.864,17.124c-2.374-0.713-11.486-30.413-11.486-30.413
			l-9.318,27.057c0,0,6.534,19.541,18.631,19.746c14.516,0.246,35.143-25.885,35.146-25.888c2.737-1.663,5.667-3.518,7.144-4.688
			C669.624,258.509,669.352,258.284,668.931,258.047z"/>
		<path style="fill:#E8505B;" d="M610.687,273.045l12.945-8.419c0,0-6.402-26.362-17.037-27.209l-1.029,9.657L610.687,273.045z"/>
		<path style="fill:#A36957;" d="M581.349,308.468c0.828,1.159,7.364,49.63,7.364,49.63l-43.944,43.038l10.297,10.901
			c0,0,51.702-43.574,52.756-48.564c1.26-5.962-2.257-51.479-2.257-51.479L581.349,308.468z"/>
		<polygon style="fill:#263238;" points="582.142,335.05 591.686,335.05 579.303,315.427 		"/>
		<g>
			<path style="fill:#263238;" d="M578.722,214.066c-0.251,5.268-4.085,9.544-8.864,10.711c-2.512,0.614-5.403,0.325-7.393,2.012
				c-3.414,2.895-1.417,8.895-3.72,12.778c-1.416,2.387-4.227,3.558-5.819,5.825c-2.646,3.767-0.87,9.461,2.741,12.266
				c3.611,2.806,8.421,3.342,12.946,3.225c9.954-0.258,20.148-3.421,27.344-10.477c3.38-3.314,14.338-15.914,9.363-34.081"/>
		</g>
		<g>
			<g>
				<path style="fill:#B78876;" d="M601.399,237.482c-0.257-1.391-0.445-8.883-0.445-8.883s5.204-0.656,5.428-5.968
					c0.224-5.312-0.304-17.542-0.304-17.542l-9.578-4.599l-10.305,8.301l1.788,26.984L601.399,237.482z"/>
			</g>
			<g>
				<g>
					<path style="fill:#263238;" d="M605.195,214.026c0.007,0.375-0.285,0.684-0.65,0.69c-0.365,0.006-0.667-0.292-0.673-0.667
						c-0.006-0.375,0.285-0.684,0.65-0.691C604.887,213.352,605.189,213.65,605.195,214.026z"/>
				</g>
				<g>
					<g>
						<path style="fill:#263238;" d="M605.823,213.274c-0.084,0.089-0.58-0.329-1.293-0.356c-0.712-0.038-1.242,0.334-1.318,0.238
							c-0.037-0.043,0.049-0.206,0.28-0.375c0.227-0.168,0.612-0.325,1.057-0.305c0.444,0.021,0.815,0.211,1.027,0.399
							C605.792,213.064,605.864,213.235,605.823,213.274z"/>
					</g>
				</g>
			</g>
			<g>
				<g>
					<path style="fill:#263238;" d="M597.527,214.158c0.007,0.375-0.285,0.684-0.65,0.69c-0.365,0.006-0.667-0.292-0.673-0.667
						c-0.006-0.375,0.285-0.684,0.65-0.691C597.219,213.484,597.521,213.783,597.527,214.158z"/>
				</g>
				<g>
					<g>
						<path style="fill:#263238;" d="M597.926,213.411c-0.084,0.089-0.58-0.329-1.293-0.355c-0.712-0.038-1.242,0.334-1.318,0.237
							c-0.037-0.043,0.048-0.207,0.28-0.375c0.227-0.168,0.612-0.325,1.057-0.305c0.444,0.021,0.815,0.211,1.027,0.399
							C597.895,213.201,597.967,213.371,597.926,213.411z"/>
					</g>
				</g>
			</g>
			<g>
				<g>
					<path style="fill:#263238;" d="M600.603,219.542c-0.003-0.044,0.442-0.108,1.162-0.177c0.182-0.013,0.355-0.045,0.388-0.176
						c0.045-0.139-0.028-0.353-0.113-0.583c-0.164-0.479-0.335-0.981-0.515-1.507c-0.715-2.144-1.229-3.904-1.149-3.933
						c0.08-0.028,0.725,1.687,1.44,3.831c0.172,0.528,0.336,1.032,0.493,1.514c0.065,0.224,0.18,0.48,0.082,0.769
						c-0.051,0.144-0.187,0.244-0.304,0.273c-0.117,0.033-0.22,0.031-0.31,0.034C601.054,219.6,600.605,219.585,600.603,219.542z"/>
				</g>
			</g>
			<g>
				<path style="fill:#FFFFFF;" d="M598.262,220.275c0.599,0.261,2.012,1.182,3.465,1.157c0,0-0.874,1.338-2.349,0.729
					C597.845,221.528,598.262,220.275,598.262,220.275z"/>
			</g>
			<g>
				<path style="fill:#A36957;" d="M600.954,228.598c0,0-3.481,0.1-6.891-2.256c0,0,1.747,3.891,6.928,3.581L600.954,228.598z"/>
			</g>
			<g>
				<path style="fill:#263238;" d="M606.348,212.536L606.348,212.536c0,0,2.706-5.929-2.515-11.307
					c-5.22-5.378-8.719-4.183-10.729-4.148c-1.874,0.032-11.315,2.259-13.943,13.374c-0.111,0.468-0.203,1.335-0.282,2.157h0
					c0,0,0,0.003,0,0.003c-0.057,0.592-0.109,1.16-0.157,1.537l0.121-0.019c-0.018,4.597,0.644,18.189,9.023,19.875l-0.805-21.138
					c0,0,8.512-0.973,9.882-8.942C596.943,203.928,603.115,212.835,606.348,212.536z"/>
			</g>
		</g>
		<path style="fill:#B78876;" d="M610.26,362.047c2.907,14.05,13.563,72.976,13.563,72.976l14.763-2.627l-6.91-74.399
			c-0.164-1.962-0.562-3.897-1.185-5.765l-17.025-51.041l-33.306-21.597c-0.317,0.017-3.918,14.383-3.216,23.505
			c0.314,4.078,1.776,7.984,4.088,11.358c2.037,2.973,4.873,7.117,5.506,8.075C587.551,324.063,610.26,362.047,610.26,362.047z"/>
		<path style="fill:#B78876;" d="M546.563,221.64c-1.51-11.912,2.004-24.838,3.414-29.376c0.495-0.474,1.091-1.015,1.821-1.619
			c0.627-0.519,1.342-0.921,2.107-1.2c0.927-0.338,2.178-0.738,2.93-0.744c0.931-0.007,1.369-1.143,0.682-1.637
			c-0.686-0.494-3.253-0.536-5.966,0.74c-2.713,1.276-0.668-2.976,0.049-4.539c0.717-1.563,2.71-6.503,2.404-7.104
			c-0.448-0.882-1.476-0.564-2.156,1.014c-0.688,1.597-3.053,6.165-3.86,5.746c-0.795-0.412,2.965-8.319,2.965-8.319
			s1.077-1.56,0.161-2.075c-1.653-0.929-5.032,7.771-5.333,8.607c-0.209,0.581-1.102,0.157-0.844-0.454
			c0.266-0.63,3.935-7.799,2.26-8.761c-1.285-0.738-2.846,7.13-4.433,8.195c-1.587,1.064,1.79-5.846,0.535-6.501
			c-0.468-0.244-0.85-0.361-2.217,3.888c-0.663,2.062-1.433,5.933-2.059,9.436l-0.044-0.014c0,0-17.271,42.57,1.114,50.975
			c19.508,8.919,36.842,15.179,36.842,15.179l5.085-18.13C582.02,234.946,546.836,223.791,546.563,221.64z"/>
		<path style="fill:#B78876;" d="M577.057,253.112l2.928,27.714l-1.256,5.68l31.039,0.156l5.813-29.497l0.589-3.276
			c1.528-8.503-4.564-16.52-13.173-17.24c-0.129-0.011-0.259-0.021-0.39-0.031l-27.536-3.927L577.057,253.112z"/>
		<polygon style="fill:#B78876;" points="609.543,293.814 609.768,286.663 579.985,281.8 		"/>
		<g>
			<g>
				<g>
					<g>
						<g>
							<path style="fill:#E8505B;" d="M544.769,401.136l-4.65,4.145l0.591,0.724c2.659,3.196,13.746,16.063,16.253,17.521
								c2.796,1.626-3.805-9.692-3.805-9.692l1.907-1.797"/>
						</g>
					</g>
					<g style="opacity:0.5;">
						<g>
							<path style="fill:#FFFFFF;" d="M543.922,409.194c0.774-1.013,1.153-2.32,1.04-3.59c-0.113-1.27-0.655-2.458-1.595-3.319
								l-3.08,2.862L543.922,409.194z"/>
						</g>
					</g>
				</g>
				<g>
					<g>
						<path style="opacity:0.5;fill:#FFFFFF;" d="M556.221,419.516c0,0,2.106,4.16,1.185,4.254
							c-0.921,0.094-12.614-12.488-17.286-18.488l0.263-0.211l13.514,14.791C553.897,419.861,555.598,418.9,556.221,419.516z"/>
					</g>
				</g>
				<g>
					<g>
						<g>
							<path style="fill:#263238;" d="M540.228,404.891c-0.005,0.004,0.049,0.076,0.155,0.208c0.142,0.173,0.297,0.361,0.473,0.575
								c0.482,0.566,1.075,1.262,1.775,2.083c1.511,1.748,3.631,4.135,6.03,6.72c2.4,2.585,4.623,4.878,6.253,6.515
								c0.767,0.759,1.416,1.402,1.945,1.925c0.2,0.191,0.376,0.36,0.538,0.514c0.124,0.116,0.192,0.175,0.196,0.171
								c0.004-0.005-0.054-0.072-0.17-0.197c-0.154-0.162-0.323-0.339-0.513-0.539c-0.517-0.534-1.153-1.191-1.903-1.966
								c-1.607-1.66-3.813-3.965-6.212-6.549c-2.397-2.583-4.531-4.956-6.067-6.681c-0.717-0.806-1.324-1.489-1.818-2.044
								c-0.185-0.205-0.349-0.386-0.499-0.552C540.296,404.95,540.233,404.887,540.228,404.891z"/>
						</g>
					</g>
				</g>
				<g>
					<g>
						<g>
							<path style="fill:#263238;" d="M553.723,420.017c0.033,0.045,0.54-0.368,1.304-0.515c0.761-0.16,1.389,0.025,1.401-0.03
								c0.026-0.039-0.621-0.318-1.437-0.149C554.172,419.484,553.684,419.991,553.723,420.017z"/>
						</g>
					</g>
				</g>
				<g>
					<g>
						<g>
							<path style="fill:#263238;" d="M552.35,415.233c0.009,0.05,0.343,0.029,0.746-0.046c0.403-0.075,0.722-0.175,0.712-0.225
								c-0.009-0.049-0.343-0.029-0.746,0.046C552.66,415.082,552.341,415.183,552.35,415.233z"/>
						</g>
					</g>
				</g>
				<g>
					<g>
						<g>
							<path style="fill:#263238;" d="M551.993,413.902c-0.004,0.05,0.273,0.116,0.62,0.147c0.347,0.031,0.632,0.016,0.637-0.034
								c0.005-0.05-0.273-0.116-0.62-0.148C552.283,413.837,551.998,413.852,551.993,413.902z"/>
						</g>
					</g>
				</g>
				<g>
					<g>
						<g>
							<path style="fill:#263238;" d="M552.509,412.371c-0.037,0.034,0.169,0.322,0.461,0.643c0.292,0.321,0.559,0.554,0.596,0.52
								c0.037-0.034-0.169-0.322-0.461-0.643C552.813,412.57,552.546,412.337,552.509,412.371z"/>
						</g>
					</g>
				</g>
				<g>
					<g>
						<g>
							<path style="fill:#263238;" d="M553.062,411.496c-0.044,0.018,0.09,0.416,0.41,0.815c0.318,0.401,0.677,0.62,0.704,0.58
								c0.032-0.042-0.26-0.313-0.562-0.694C553.31,411.819,553.11,411.474,553.062,411.496z"/>
						</g>
					</g>
				</g>
				<g>
					<g>
						<g>
							<path style="fill:#263238;" d="M553.659,414.713c-0.016,0.013,0.204,0.316,0.663,0.704c0.229,0.194,0.52,0.404,0.867,0.599
								c0.177,0.092,0.348,0.202,0.579,0.266c0.112,0.027,0.25,0.043,0.383-0.029c0.133-0.069,0.2-0.237,0.183-0.37
								c-0.279-1.003-1.289-1.327-1.872-1.253c-0.307,0.028-0.54,0.126-0.687,0.208c-0.148,0.084-0.215,0.151-0.208,0.159
								c0.014,0.034,0.323-0.211,0.904-0.239c0.285-0.013,0.631,0.048,0.955,0.24c0.306,0.181,0.657,0.518,0.727,0.897
								c0.021,0.19-0.152,0.269-0.343,0.213c-0.183-0.047-0.369-0.155-0.54-0.24c-0.341-0.182-0.633-0.376-0.867-0.553
								C553.932,414.962,553.681,414.693,553.659,414.713z"/>
						</g>
					</g>
				</g>
				<g>
					<g>
						<g>
							<path style="fill:#263238;" d="M553.795,414.929c0.002,0.017,0.28-0.046,0.567-0.375c0.14-0.162,0.272-0.392,0.338-0.674
								c0.041-0.271,0.108-0.633-0.187-0.925c-0.174-0.145-0.435-0.051-0.53,0.086c-0.112,0.128-0.167,0.283-0.205,0.414
								c-0.079,0.27-0.112,0.522-0.118,0.732c-0.01,0.424,0.07,0.676,0.09,0.672c0.029-0.004-0.004-0.259,0.039-0.663
								c0.022-0.201,0.066-0.439,0.149-0.691c0.059-0.236,0.266-0.553,0.464-0.405c0.182,0.161,0.174,0.506,0.133,0.746
								c-0.05,0.254-0.157,0.469-0.274,0.628C554.023,414.796,553.778,414.901,553.795,414.929z"/>
						</g>
					</g>
				</g>
				<g>
					<g>
						<g>
							<path style="fill:#263238;" d="M543.452,402.313c-0.023,0.026,0.323,0.288,0.728,0.84c0.404,0.544,0.839,1.419,0.919,2.457
								c0.078,1.038-0.22,1.969-0.537,2.568c-0.316,0.607-0.618,0.919-0.592,0.94c0.008,0.008,0.091-0.062,0.223-0.206
								c0.132-0.144,0.306-0.369,0.483-0.672c0.355-0.599,0.687-1.56,0.606-2.643c-0.083-1.082-0.557-1.982-0.998-2.521
								c-0.22-0.273-0.427-0.469-0.579-0.592C543.552,402.361,543.459,402.305,543.452,402.313z"/>
						</g>
					</g>
				</g>
				<g>
					<g>
						<g>
							<path style="fill:#263238;" d="M546.285,409.582c-0.039,0.027,0.511,0.855,1.335,1.757c0.823,0.905,1.596,1.528,1.627,1.491
								c0.035-0.04-0.677-0.718-1.492-1.614C546.938,410.323,546.328,409.55,546.285,409.582z"/>
						</g>
					</g>
				</g>
				<g>
					<g>
						<g>
							<path style="fill:#263238;" d="M544.281,407.419c-0.052-0.002-0.098,0.201-0.195,0.428c-0.094,0.228-0.206,0.403-0.168,0.439
								c0.033,0.035,0.227-0.105,0.336-0.368C544.366,407.655,544.33,407.418,544.281,407.419z"/>
						</g>
					</g>
				</g>
				<g>
					<g>
						<g>
							<path style="fill:#263238;" d="M544.538,405.664c-0.05-0.002-0.099,0.176-0.108,0.397c-0.01,0.221,0.023,0.403,0.074,0.405
								c0.05,0.002,0.099-0.176,0.109-0.397C544.621,405.847,544.588,405.666,544.538,405.664z"/>
						</g>
					</g>
				</g>
				<g>
					<g>
						<g>
							<path style="fill:#263238;" d="M543.918,404.069c-0.03,0.042,0.107,0.188,0.201,0.402c0.099,0.212,0.116,0.411,0.168,0.417
								c0.048,0.011,0.118-0.228-0.001-0.492C544.167,404.132,543.942,404.026,543.918,404.069z"/>
						</g>
					</g>
				</g>
				<g>
					<g>
						<g>
							<path style="fill:#263238;" d="M543.366,403.037c-0.047,0.019-0.044,0.135,0.005,0.259c0.049,0.125,0.128,0.21,0.174,0.192
								c0.047-0.019,0.044-0.135-0.005-0.259C543.491,403.104,543.412,403.018,543.366,403.037z"/>
						</g>
					</g>
				</g>
			</g>
		</g>
		<path style="fill:#455A64;" d="M579.985,280.827c0,0-6.899,19.199-3.133,29.23c3.766,10.031,14.79,27.229,14.79,27.229
			l34.603-15.577l-16.478-29.45v-5.596L579.985,280.827z"/>
		<path style="fill:#E8505B;" d="M587.866,234.008l-26.119-5.877l-4.322,23.704l18.303,4.072l4.257,24.92l29.783,5.836
			c0,0,5.483-25.432,6.494-30.081c1.976-9.088-1.663-13.433-1.663-13.433c-1.793-3.038-4.543-4.844-8.004-5.733L587.866,234.008z"/>
		<g>
			<path style="fill:#263238;" d="M610.932,249.277c0.098,0.011-0.483,1.351,0.043,3.482c0.244,1.057,0.76,2.246,1.459,3.516
				c0.68,1.277,1.55,2.651,2.12,4.28c1.163,3.267,0.801,6.518,0.098,8.616c-0.348,1.063-0.756,1.874-1.077,2.407
				c-0.326,0.531-0.541,0.799-0.568,0.782c-0.09-0.049,0.698-1.193,1.292-3.295c0.595-2.071,0.88-5.202-0.236-8.336
				c-0.543-1.558-1.387-2.925-2.054-4.229c-0.684-1.296-1.188-2.553-1.394-3.662c-0.217-1.107-0.164-2.039-0.022-2.65
				C610.732,249.572,610.906,249.266,610.932,249.277z"/>
		</g>
		<g>
			<path style="fill:#263238;" d="M622.575,315.096c0.065,0.129-7.452,4.031-16.787,8.716c-9.338,4.686-16.958,8.38-17.022,8.252
				c-0.064-0.129,7.451-4.031,16.788-8.717C614.889,318.662,622.51,314.967,622.575,315.096z"/>
		</g>
		<g>
			<path style="fill:#263238;" d="M604.308,285.848c0.053-0.009,0.238,0.826,0.036,2.172c-0.191,1.33-0.87,3.182-2.333,4.694
				c-1.466,1.51-3.295,2.248-4.619,2.48c-1.34,0.244-2.179,0.086-2.172,0.032c0-0.089,0.829-0.066,2.092-0.392
				c1.252-0.314,2.949-1.065,4.325-2.483c1.373-1.42,2.071-3.139,2.345-4.4C604.268,286.679,604.219,285.85,604.308,285.848z"/>
		</g>
		<path style="fill:#263238;" d="M570.614,301.877c0,0-5.787-1.079-10.315,7.179c-3.125,5.7-5.729,12.607-7.589,18.623
			c-1.251,4.048,0.957,8.352,4.983,9.672l4.289,1.407c4.039,1.325,8.393-0.845,9.753-4.871
			C575.375,323.117,580.403,303.852,570.614,301.877z"/>
		<g>
			<path style="fill:#455A64;" d="M574.732,303.561c0.065,0.03-0.415,1.244-1.245,3.184c-0.442,1.012-0.94,2.153-1.483,3.396
				c-0.269,0.622-0.691,1.421-1.522,1.738c-0.8,0.306-1.639,0.262-2.471,0.088c-0.414-0.102-0.852-0.279-1.165-0.641
				c-0.32-0.357-0.413-0.869-0.346-1.286c0.137-0.85,0.586-1.469,0.902-2.079c0.664-1.182,1.274-2.268,1.815-3.23
				c1.047-1.832,1.726-2.947,1.789-2.913c0.063,0.034-0.501,1.212-1.465,3.088c-0.511,0.978-1.089,2.082-1.717,3.283
				c-0.315,0.62-0.726,1.248-0.818,1.917c-0.045,0.329,0.023,0.644,0.232,0.88c0.203,0.238,0.538,0.388,0.897,0.475
				c0.728,0.157,1.532,0.188,2.157-0.056c0.639-0.233,0.991-0.846,1.277-1.466c0.58-1.225,1.112-2.35,1.584-3.348
				C574.068,304.692,574.667,303.532,574.732,303.561z"/>
		</g>
		<g>
			<path style="fill:#455A64;" d="M568.719,311.746c0.034,0.01-0.051,0.419-0.236,1.152c-0.19,0.731-0.485,1.784-0.887,3.072
				c-0.792,2.582-2.027,6.101-3.424,9.97c-0.628,1.763-1.228,3.449-1.78,5l-0.052,0.145l-0.148,0.018
				c-2.788,0.334-5.171,0.602-6.859,0.772c-1.688,0.171-2.68,0.244-2.687,0.189c-0.007-0.055,0.972-0.231,2.649-0.485
				c1.677-0.255,4.051-0.588,6.835-0.959l-0.199,0.163c0.519-1.555,1.115-3.251,1.75-5.018c1.398-3.871,2.684-7.362,3.564-9.909
				c0.412-1.192,0.76-2.2,1.042-3.016C568.532,312.126,568.684,311.736,568.719,311.746z"/>
		</g>
		<g>
			<path style="fill:#455A64;" d="M562.161,330.861c0.105-0.099,1.658,1.381,3.468,3.303c1.811,1.923,3.194,3.562,3.089,3.661
				c-0.105,0.098-1.657-1.38-3.468-3.304C563.44,332.599,562.057,330.96,562.161,330.861z"/>
		</g>
		<g>
			<path style="fill:#E0E0E0;" d="M562.331,305.748c0.003-0.015,0.112-0.012,0.312,0.043c0.199,0.055,0.486,0.188,0.787,0.45
				c0.589,0.511,1.217,1.65,1.006,3.091c-0.168,1.438-1.115,2.872-1.889,4.457c-0.374,0.799-0.69,1.687-0.662,2.614
				c0.023,0.928,0.419,1.853,0.86,2.792c0.437,0.929,0.909,1.922,0.954,2.973c0.069,1.012-0.196,2.142-1.036,2.77
				c-0.83,0.636-1.926,0.52-2.669,0.168c-0.776-0.345-1.379-0.846-1.87-1.342c-0.944-1.002-1.701-1.79-2.364-2.149
				c-0.65-0.374-1.088-0.4-1.078-0.45c0.002-0.017,0.109-0.022,0.314,0c0.203,0.03,0.503,0.1,0.859,0.27
				c0.728,0.321,1.566,1.113,2.528,2.066c0.484,0.457,1.073,0.912,1.78,1.206c0.692,0.301,1.567,0.356,2.211-0.152
				c0.646-0.489,0.888-1.434,0.817-2.355c-0.045-0.94-0.471-1.837-0.917-2.787c-0.44-0.94-0.877-1.938-0.898-2.998
				c-0.023-1.057,0.341-2.01,0.739-2.833c0.834-1.636,1.76-2.98,1.958-4.306c0.239-1.305-0.281-2.375-0.783-2.889
				C562.767,305.857,562.309,305.801,562.331,305.748z"/>
		</g>
		<g>
			<path style="fill:#E0E0E0;" d="M573.599,327.886c0.009,0.033-0.268,0.15-0.788,0.304c-0.52,0.147-1.29,0.354-2.284,0.371
				c-0.973,0.021-2.26-0.234-3.245-1.198c-0.486-0.467-0.886-1.13-0.961-1.896c-0.083-0.763,0.175-1.552,0.616-2.192
				c0.893-1.32,2.33-1.931,3.519-2.342c1.216-0.416,2.301-0.736,3.122-1.201c1.703-0.894,2.099-2.137,2.165-2.085
				c0.026,0.007-0.016,0.318-0.296,0.799c-0.276,0.48-0.836,1.093-1.684,1.604c-0.84,0.531-1.961,0.902-3.143,1.334
				c-1.173,0.432-2.467,1.016-3.252,2.183c-0.389,0.566-0.601,1.225-0.539,1.85c0.054,0.625,0.374,1.185,0.791,1.605
				c0.85,0.866,1.989,1.144,2.913,1.17c0.938,0.031,1.706-0.115,2.233-0.2C573.294,327.9,573.59,327.849,573.599,327.886z"/>
		</g>
		<g>
			<path style="fill:#E0E0E0;" d="M571.968,335.16c-0.069,0.065-0.609-0.608-1.78-1.251c-1.142-0.643-3.021-1.179-4.982-0.696
				c-1.958,0.498-3.363,1.857-4.067,2.962c-0.73,1.118-0.889,1.967-0.981,1.942c-0.048,0-0.021-0.899,0.666-2.133
				c0.658-1.213,2.122-2.732,4.255-3.275c2.136-0.525,4.143,0.124,5.295,0.884C571.563,334.357,572.011,335.137,571.968,335.16z"/>
		</g>
		<path style="opacity:0.7;fill:#FFFFFF;" d="M588.347,257.397c0.248,0.439,0,6.117,0,6.117l20.679,1.112v-5.943L588.347,257.397z"
			/>
		<path style="fill:#263238;" d="M602.607,236.618L570.1,302.925l3.752,2.539l32.742-68.048
			C605.443,236.647,604.124,236.353,602.607,236.618z"/>
		<path style="fill:#263238;" d="M584.256,201.596c1.197-1.248,1.473-3.25,0.767-4.829c-0.706-1.579-2.304-2.688-4.017-2.925
			c-1.713-0.237-3.496,0.358-4.815,1.477c-0.944,0.802-1.699,2.033-1.401,3.235c0.182,0.735,0.724,1.325,1.293,1.826
			c1.302,1.148,2.907,2.034,4.639,2.151c1.732,0.117,3.581-0.656,4.437-2.166"/>
		<g>
			<g>
				<g>
					<g>
						<g>
							<path style="fill:#E8505B;" d="M638.735,431.605l0.551,2.619c0,0,13.382,0.278,10.475,1.848
								c-2.607,1.407-19.73,4.215-23.932,4.83l-0.946,0.13l-1.135-6.261L638.735,431.605z"/>
						</g>
					</g>
					<g style="opacity:0.5;">
						<g>
							<path style="fill:#FFFFFF;" d="M630.318,439.803c-0.471-1.215-1.408-2.241-2.575-2.82s-2.491-0.739-3.743-0.379l0.853,4.21
								L630.318,439.803z"/>
						</g>
					</g>
				</g>
				<g>
					<g>
						<path style="opacity:0.5;fill:#FFFFFF;" d="M645.869,434.583c0,0,4.748,0.381,4.339,1.234
							c-0.409,0.852-17.606,4.341-25.326,5.216l-0.044-0.341l20.094-3.898C644.931,436.793,645,434.798,645.869,434.583z"/>
					</g>
				</g>
				<g>
					<g>
						<g>
							<path style="fill:#263238;" d="M624.599,440.73c0.001,0.006,0.092-0.002,0.265-0.024c0.226-0.032,0.474-0.067,0.753-0.106
								c0.75-0.119,1.673-0.265,2.761-0.437c2.329-0.386,5.54-0.962,9.071-1.675c3.532-0.714,6.715-1.43,9.011-1.979
								c1.07-0.264,1.977-0.487,2.714-0.669c0.273-0.072,0.514-0.136,0.735-0.195c0.167-0.046,0.255-0.074,0.253-0.08
								c-0.002-0.006-0.092,0.009-0.262,0.044c-0.223,0.048-0.467,0.101-0.743,0.161c-0.741,0.166-1.652,0.37-2.727,0.611
								c-2.303,0.516-5.488,1.211-9.018,1.925c-3.529,0.712-6.734,1.309-9.056,1.728c-1.085,0.195-2.003,0.361-2.751,0.495
								c-0.277,0.052-0.523,0.098-0.747,0.141C624.687,440.702,624.598,440.723,624.599,440.73z"/>
						</g>
					</g>
				</g>
				<g>
					<g>
						<g>
							<path style="fill:#263238;" d="M644.975,437.028c0.057-0.004-0.033-0.667,0.246-1.411c0.266-0.749,0.762-1.197,0.721-1.237
								c-0.02-0.043-0.608,0.372-0.896,1.173C644.749,436.352,644.931,437.048,644.975,437.028z"/>
						</g>
					</g>
				</g>
				<g>
					<g>
						<g>
							<path style="fill:#263238;" d="M640.073,435.674c0.048,0.018,0.208-0.284,0.358-0.674c0.15-0.391,0.232-0.722,0.184-0.741
								c-0.048-0.018-0.208,0.284-0.358,0.674C640.107,435.324,640.025,435.656,640.073,435.674z"/>
						</g>
					</g>
				</g>
				<g>
					<g>
						<g>
							<path style="fill:#263238;" d="M638.723,435.277c0.041,0.031,0.247-0.176,0.459-0.462c0.212-0.286,0.351-0.542,0.31-0.573
								c-0.041-0.031-0.247,0.176-0.459,0.462C638.82,434.99,638.681,435.246,638.723,435.277z"/>
						</g>
					</g>
				</g>
				<g>
					<g>
						<g>
							<path style="fill:#263238;" d="M637.663,434.012c0.01,0.051,0.371,0.024,0.806-0.059c0.436-0.083,0.781-0.192,0.771-0.242
								c-0.01-0.051-0.37-0.024-0.806,0.059C637.999,433.853,637.654,433.961,637.663,434.012z"/>
						</g>
					</g>
				</g>
				<g>
					<g>
						<g>
							<path style="fill:#263238;" d="M637.195,433.063c-0.008,0.049,0.411,0.144,0.929,0.077c0.519-0.064,0.901-0.259,0.881-0.304
								c-0.019-0.05-0.411,0.06-0.904,0.12C637.609,433.019,637.201,433.009,637.195,433.063z"/>
						</g>
					</g>
				</g>
				<g>
					<g>
						<g>
							<path style="fill:#263238;" d="M640.317,434.257c0.003,0.021,0.384-0.009,0.967-0.202c0.291-0.096,0.629-0.238,0.984-0.436
								c0.175-0.105,0.362-0.196,0.541-0.363c0.083-0.083,0.171-0.195,0.179-0.349c0.01-0.153-0.1-0.3-0.225-0.357
								c-1.022-0.292-1.843,0.417-2.09,0.964c-0.14,0.283-0.178,0.538-0.185,0.71c-0.005,0.173,0.017,0.267,0.028,0.266
								c0.037,0.006-0.012-0.394,0.273-0.915c0.141-0.255,0.378-0.525,0.718-0.705c0.321-0.171,0.802-0.297,1.169-0.155
								c0.177,0.083,0.154,0.276,0.003,0.412c-0.138,0.135-0.332,0.239-0.497,0.343c-0.341,0.2-0.665,0.351-0.944,0.462
								C640.68,434.151,640.311,434.227,640.317,434.257z"/>
						</g>
					</g>
				</g>
				<g>
					<g>
						<g>
							<path style="fill:#263238;" d="M640.578,434.254c0.016,0.008,0.109-0.268-0.025-0.695c-0.067-0.209-0.197-0.446-0.408-0.653
								c-0.214-0.18-0.494-0.432-0.906-0.33c-0.219,0.074-0.276,0.352-0.208,0.508c0.052,0.166,0.158,0.296,0.252,0.399
								c0.193,0.213,0.395,0.375,0.576,0.493c0.364,0.235,0.626,0.3,0.633,0.279c0.012-0.027-0.228-0.134-0.557-0.387
								c-0.164-0.126-0.347-0.292-0.523-0.499c-0.174-0.178-0.34-0.526-0.106-0.62c0.238-0.072,0.534,0.118,0.721,0.282
								c0.195,0.179,0.325,0.387,0.401,0.574C640.583,433.984,640.544,434.253,640.578,434.254z"/>
						</g>
					</g>
				</g>
				<g>
					<g>
						<g>
							<path style="fill:#263238;" d="M624.07,436.546c0.01,0.033,0.423-0.129,1.12-0.186c0.689-0.062,1.684,0.025,2.631,0.508
								c0.947,0.485,1.599,1.241,1.952,1.836c0.361,0.599,0.471,1.028,0.504,1.017c0.011-0.003-0.006-0.112-0.061-0.304
								c-0.055-0.192-0.159-0.464-0.329-0.779c-0.333-0.628-0.994-1.43-1.981-1.936c-0.988-0.504-2.025-0.571-2.729-0.473
								c-0.355,0.047-0.636,0.122-0.824,0.189C624.165,436.485,624.067,436.535,624.07,436.546z"/>
						</g>
					</g>
				</g>
				<g>
					<g>
						<g>
							<path style="fill:#263238;" d="M631.916,437.95c0.003,0.048,1.017,0.01,2.243-0.228c1.227-0.235,2.182-0.577,2.167-0.623
								c-0.016-0.052-0.987,0.208-2.202,0.44C632.909,437.776,631.911,437.896,631.916,437.95z"/>
						</g>
					</g>
				</g>
				<g>
					<g>
						<g>
							<path style="fill:#263238;" d="M628.963,438.544c-0.029,0.044,0.123,0.192,0.269,0.397c0.149,0.203,0.242,0.394,0.293,0.38
								c0.049-0.01,0.029-0.254-0.142-0.489C629.213,438.596,628.988,438.501,628.963,438.544z"/>
						</g>
					</g>
				</g>
				<g>
					<g>
						<g>
							<path style="fill:#263238;" d="M627.569,437.386c-0.029,0.043,0.1,0.18,0.288,0.306c0.188,0.126,0.363,0.194,0.392,0.152
								c0.029-0.043-0.1-0.18-0.288-0.306C627.774,437.411,627.598,437.343,627.569,437.386z"/>
						</g>
					</g>
				</g>
				<g>
					<g>
						<g>
							<path style="fill:#263238;" d="M625.849,437.076c0.021,0.049,0.221,0.007,0.458,0.04c0.238,0.027,0.42,0.118,0.453,0.076
								c0.035-0.036-0.135-0.225-0.429-0.261C626.037,436.892,625.824,437.032,625.849,437.076z"/>
						</g>
					</g>
				</g>
				<g>
					<g>
						<g>
							<path style="fill:#263238;" d="M624.655,437.007c-0.009,0.051,0.094,0.111,0.228,0.134c0.135,0.023,0.251,0.001,0.26-0.05
								c0.009-0.051-0.094-0.11-0.228-0.134C624.78,436.934,624.664,436.957,624.655,437.007z"/>
						</g>
					</g>
				</g>
			</g>
		</g>
	</g>
</g>
<g id="Character_2">
	<g>
		<g>
			<g>
				<g>
					<g>
						<g>
							<path style="fill:#E8505B;" d="M347.158,435.271l1.073-7.959l-14.896-2.104l-1.692,11.628l0.915,0.19
								c4.078,0.809,20.793,3.826,23.658,3.381C359.411,439.909,347.158,435.271,347.158,435.271z"/>
						</g>
					</g>
					<g style="opacity:0.3;">
						<g>
							<path style="fill:#FFFFFF;" d="M337.059,437.481c-0.036-1.275-0.565-2.529-1.452-3.444c-0.887-0.916-2.056-1.498-3.329-1.575
								l-0.591,4.163L337.059,437.481z"/>
						</g>
					</g>
				</g>
				<g style="opacity:0.3;">
					<g>
						<path style="fill:#FFFFFF;" d="M353.114,437.757c0,0,4.255,1.906,3.598,2.559c-0.656,0.652-17.662-1.761-25.07-3.482
							l0.071-0.329l19.812,2.984C351.525,439.489,352.242,437.671,353.114,437.757z"/>
					</g>
				</g>
				<g>
					<g>
						<g>
							<path style="fill:#263238;" d="M331.48,436.463c-0.001,0.006,0.086,0.028,0.252,0.064c0.219,0.045,0.459,0.094,0.729,0.149
								c0.731,0.136,1.63,0.303,2.691,0.501c2.275,0.407,5.425,0.927,8.916,1.425c3.492,0.498,6.662,0.879,8.96,1.125
								c1.073,0.107,1.983,0.198,2.723,0.272c0.275,0.023,0.519,0.043,0.742,0.061c0.17,0.012,0.259,0.015,0.26,0.009
								c0.001-0.006-0.088-0.022-0.256-0.046c-0.222-0.029-0.464-0.06-0.738-0.095c-0.738-0.089-1.645-0.199-2.716-0.329
								c-2.293-0.278-5.459-0.68-8.949-1.177c-3.489-0.498-6.64-0.998-8.92-1.372c-1.064-0.175-1.966-0.323-2.7-0.444
								c-0.273-0.043-0.514-0.081-0.735-0.115C331.571,436.466,331.482,436.457,331.48,436.463z"/>
						</g>
					</g>
				</g>
				<g>
					<g>
						<g>
							<path style="fill:#263238;" d="M351.488,439.72c0.054,0.015,0.188-0.626,0.689-1.22c0.491-0.604,1.094-0.855,1.07-0.905
								c-0.004-0.046-0.683,0.144-1.21,0.789C351.502,439.022,351.442,439.724,351.488,439.72z"/>
						</g>
					</g>
				</g>
				<g>
					<g>
						<g>
							<path style="fill:#263238;" d="M347.41,436.866c0.038,0.033,0.285-0.193,0.551-0.505c0.266-0.312,0.45-0.591,0.412-0.623
								c-0.038-0.033-0.285,0.193-0.551,0.505C347.556,436.555,347.372,436.834,347.41,436.866z"/>
						</g>
					</g>
				</g>
				<g>
					<g>
						<g>
							<path style="fill:#263238;" d="M346.294,436.057c0.028,0.042,0.285-0.082,0.575-0.276c0.289-0.194,0.501-0.385,0.473-0.427
								c-0.028-0.042-0.285,0.082-0.575,0.276C346.478,435.824,346.266,436.016,346.294,436.057z"/>
						</g>
					</g>
				</g>
				<g>
					<g>
						<g>
							<path style="fill:#263238;" d="M345.731,434.543c-0.008,0.05,0.334,0.144,0.763,0.209c0.429,0.066,0.783,0.079,0.791,0.029
								c0.008-0.05-0.334-0.143-0.763-0.209C346.093,434.507,345.739,434.494,345.731,434.543z"/>
						</g>
					</g>
				</g>
				<g>
					<g>
						<g>
							<path style="fill:#263238;" d="M345.61,433.515c-0.023,0.042,0.332,0.267,0.831,0.375c0.499,0.111,0.916,0.056,0.912,0.008
								c-0.001-0.053-0.399-0.08-0.873-0.186C346.006,433.61,345.633,433.468,345.61,433.515z"/>
						</g>
					</g>
				</g>
				<g>
					<g>
						<g>
							<path style="fill:#263238;" d="M348.099,435.639c-0.004,0.02,0.357,0.117,0.958,0.13c0.3,0.006,0.658-0.014,1.051-0.08
								c0.196-0.04,0.398-0.062,0.617-0.158c0.104-0.05,0.221-0.124,0.279-0.264c0.06-0.138,0.006-0.31-0.091-0.403
								c-0.848-0.604-1.837-0.219-2.243,0.205c-0.221,0.215-0.34,0.438-0.403,0.594c-0.061,0.158-0.072,0.252-0.061,0.255
								c0.032,0.017,0.118-0.368,0.552-0.755c0.214-0.19,0.521-0.36,0.893-0.415c0.352-0.052,0.837-0.011,1.13,0.24
								c0.136,0.134,0.051,0.305-0.132,0.381c-0.172,0.079-0.384,0.112-0.571,0.154c-0.38,0.073-0.729,0.106-1.022,0.117
								C348.469,435.66,348.103,435.609,348.099,435.639z"/>
						</g>
					</g>
				</g>
				<g>
					<g>
						<g>
							<path style="fill:#263238;" d="M348.341,435.721c0.012,0.012,0.188-0.212,0.205-0.649c0.007-0.214-0.035-0.476-0.162-0.736
								c-0.139-0.236-0.315-0.56-0.727-0.601c-0.226-0.003-0.37,0.234-0.358,0.4c-0.006,0.17,0.048,0.325,0.102,0.451
								c0.108,0.259,0.242,0.475,0.37,0.643c0.259,0.336,0.48,0.482,0.493,0.465c0.02-0.021-0.166-0.199-0.387-0.539
								c-0.11-0.17-0.225-0.383-0.319-0.631c-0.103-0.221-0.141-0.597,0.105-0.607c0.243,0.011,0.454,0.284,0.573,0.496
								c0.121,0.228,0.173,0.463,0.182,0.661C348.434,435.474,348.31,435.71,348.341,435.721z"/>
						</g>
					</g>
				</g>
				<g>
					<g>
						<g>
							<path style="fill:#263238;" d="M332.363,432.431c-0.001,0.034,0.432,0.02,1.094,0.195c0.656,0.169,1.545,0.574,2.26,1.33
								c0.715,0.758,1.068,1.668,1.199,2.333c0.137,0.671,0.098,1.103,0.132,1.103c0.011,0.001,0.032-0.105,0.043-0.3
								c0.012-0.195,0.005-0.48-0.048-0.826c-0.101-0.689-0.449-1.645-1.194-2.435c-0.746-0.789-1.681-1.19-2.363-1.33
								c-0.343-0.073-0.627-0.096-0.822-0.095C332.47,432.405,332.363,432.419,332.363,432.431z"/>
						</g>
					</g>
				</g>
				<g>
					<g>
						<g>
							<path style="fill:#263238;" d="M334.786,426.451c-0.05-0.008-0.302,1.354-0.563,3.041c-0.261,1.688-0.433,3.061-0.383,3.069
								c0.05,0.008,0.302-1.354,0.563-3.041C334.664,427.833,334.836,426.459,334.786,426.451z"/>
						</g>
					</g>
				</g>
				<g>
					<g>
						<g>
							<path style="fill:#263238;" d="M339.14,436.294c-0.013,0.046,0.935,0.343,2.144,0.524c1.209,0.185,2.202,0.182,2.203,0.135
								c0.003-0.053-0.978-0.132-2.176-0.315C340.113,436.459,339.153,436.243,339.14,436.294z"/>
						</g>
					</g>
				</g>
				<g>
					<g>
						<g>
							<path style="fill:#263238;" d="M336.221,435.876c-0.042,0.031,0.05,0.217,0.118,0.455c0.071,0.237,0.094,0.443,0.146,0.447
								c0.048,0.007,0.11-0.225,0.029-0.498C336.435,436.005,336.259,435.844,336.221,435.876z"/>
						</g>
					</g>
				</g>
				<g>
					<g>
						<g>
							<path style="fill:#263238;" d="M335.315,434.351c-0.04,0.03,0.034,0.199,0.166,0.377c0.132,0.178,0.272,0.298,0.312,0.268
								c0.04-0.03-0.034-0.198-0.166-0.377C335.496,434.441,335.356,434.321,335.315,434.351z"/>
						</g>
					</g>
				</g>
				<g>
					<g>
						<g>
							<path style="fill:#263238;" d="M333.83,433.502c0.003,0.052,0.201,0.078,0.409,0.186c0.21,0.103,0.349,0.247,0.393,0.219
								c0.044-0.022-0.051-0.251-0.311-0.381C334.063,433.394,333.822,433.453,333.83,433.502z"/>
						</g>
					</g>
				</g>
				<g>
					<g>
						<g>
							<path style="fill:#263238;" d="M332.751,433.047c-0.025,0.044,0.05,0.133,0.167,0.198c0.117,0.065,0.231,0.083,0.256,0.039
								c0.025-0.044-0.05-0.132-0.167-0.198C332.891,433.021,332.776,433.004,332.751,433.047z"/>
						</g>
					</g>
				</g>
			</g>
		</g>
		<g>
			<g>
				<g>
					<g>
						<g>
							<path style="fill:#E8505B;" d="M387.141,394.733l-4.01-6.959l-13.082,7.427l5.758,10.242l0.841-0.408
								c3.724-1.849,18.804-9.664,20.802-11.766C399.678,390.926,387.141,394.733,387.141,394.733z"/>
						</g>
					</g>
					<g style="opacity:0.3;">
						<g>
							<path style="fill:#FFFFFF;" d="M380.492,402.649c-0.807-0.987-1.991-1.658-3.253-1.842c-1.262-0.184-2.543,0.069-3.598,0.785
								l2.073,3.658L380.492,402.649z"/>
						</g>
					</g>
				</g>
				<g style="opacity:0.3;">
					<g>
						<path style="fill:#FFFFFF;" d="M393.377,393.067c0,0,4.534-1.088,4.412-0.17c-0.122,0.917-15.064,9.388-21.982,12.548
							l-0.145-0.304l17.513-9.732C393.175,395.408,392.633,393.531,393.377,393.067z"/>
					</g>
				</g>
				<g>
					<g>
						<g>
							<path style="fill:#263238;" d="M375.452,405.249c0.003,0.006,0.085-0.03,0.239-0.103c0.201-0.098,0.42-0.206,0.668-0.327
								c0.662-0.339,1.476-0.755,2.437-1.246c2.05-1.067,4.862-2.578,7.932-4.314c3.069-1.738,5.814-3.371,7.783-4.579
								c0.916-0.571,1.691-1.054,2.323-1.447c0.232-0.15,0.437-0.283,0.625-0.404c0.142-0.094,0.214-0.146,0.211-0.151
								s-0.083,0.036-0.23,0.12c-0.193,0.113-0.404,0.236-0.642,0.375c-0.639,0.38-1.425,0.846-2.352,1.397
								c-1.986,1.18-4.739,2.794-7.806,4.531c-3.067,1.735-5.868,3.264-7.902,4.359c-0.95,0.511-1.754,0.945-2.409,1.297
								c-0.242,0.133-0.457,0.25-0.652,0.358C375.526,405.197,375.449,405.243,375.452,405.249z"/>
						</g>
					</g>
				</g>
				<g>
					<g>
						<g>
							<path style="fill:#263238;" d="M393.287,395.613c0.052-0.021-0.233-0.611-0.199-1.387c0.02-0.777,0.345-1.345,0.295-1.37
								c-0.032-0.034-0.453,0.531-0.477,1.364C392.872,395.053,393.253,395.645,393.287,395.613z"/>
						</g>
					</g>
				</g>
				<g>
					<g>
						<g>
							<path style="fill:#263238;" d="M388.315,395.843c0.05,0.002,0.107-0.327,0.128-0.736c0.02-0.409-0.004-0.743-0.054-0.745
								c-0.05-0.003-0.108,0.327-0.128,0.736C388.24,395.507,388.265,395.841,388.315,395.843z"/>
						</g>
					</g>
				</g>
				<g>
					<g>
						<g>
							<path style="fill:#263238;" d="M386.938,395.884c0.048,0.016,0.176-0.239,0.287-0.569c0.111-0.33,0.162-0.611,0.114-0.627
								c-0.048-0.016-0.176,0.239-0.287,0.569C386.941,395.587,386.89,395.868,386.938,395.884z"/>
						</g>
					</g>
				</g>
				<g>
					<g>
						<g>
							<path style="fill:#263238;" d="M385.568,395.028c0.024,0.044,0.352-0.09,0.732-0.3c0.38-0.21,0.668-0.416,0.644-0.46
								c-0.024-0.044-0.352,0.09-0.732,0.3C385.832,394.779,385.543,394.984,385.568,395.028z"/>
						</g>
					</g>
				</g>
				<g>
					<g>
						<g>
							<path style="fill:#263238;" d="M384.844,394.288c0.008,0.048,0.426,0.009,0.888-0.21c0.463-0.217,0.759-0.515,0.727-0.551
								c-0.033-0.041-0.365,0.181-0.805,0.386C385.215,394.121,384.833,394.236,384.844,394.288z"/>
						</g>
					</g>
				</g>
				<g>
					<g>
						<g>
							<path style="fill:#263238;" d="M388.112,394.45c0.009,0.018,0.354-0.125,0.838-0.482c0.241-0.178,0.513-0.413,0.783-0.705
								c0.131-0.151,0.277-0.292,0.393-0.502c0.052-0.103,0.1-0.233,0.06-0.379c-0.037-0.146-0.184-0.249-0.318-0.264
								c-1.04,0.039-1.589,0.948-1.651,1.532c-0.044,0.305-0.002,0.555,0.044,0.717c0.048,0.163,0.097,0.244,0.107,0.24
								c0.036-0.006-0.131-0.363-0.024-0.934c0.054-0.281,0.193-0.603,0.454-0.874c0.247-0.256,0.656-0.52,1.041-0.5
								c0.19,0.023,0.227,0.21,0.128,0.382c-0.088,0.168-0.236,0.324-0.358,0.47c-0.256,0.29-0.512,0.529-0.738,0.716
								C388.417,394.242,388.097,394.424,388.112,394.45z"/>
						</g>
					</g>
				</g>
				<g>
					<g>
						<g>
							<path style="fill:#263238;" d="M388.353,394.368c0.017,0.002,0.02-0.283-0.234-0.639c-0.126-0.174-0.319-0.356-0.578-0.484
								c-0.254-0.102-0.591-0.251-0.943-0.032c-0.181,0.135-0.15,0.411-0.039,0.535c0.099,0.139,0.237,0.228,0.356,0.295
								c0.244,0.139,0.482,0.229,0.686,0.284c0.41,0.108,0.674,0.089,0.674,0.068c0.003-0.029-0.253-0.056-0.636-0.191
								c-0.191-0.068-0.412-0.166-0.638-0.305c-0.216-0.112-0.476-0.387-0.287-0.545c0.199-0.14,0.533-0.052,0.756,0.043
								c0.235,0.107,0.42,0.261,0.548,0.412C388.276,394.115,388.322,394.378,388.353,394.368z"/>
						</g>
					</g>
				</g>
				<g>
					<g>
						<g>
							<path style="fill:#263238;" d="M373.689,401.516c0.02,0.028,0.355-0.248,0.986-0.514c0.623-0.267,1.574-0.489,2.602-0.326
								c1.028,0.164,1.865,0.669,2.374,1.115c0.518,0.448,0.751,0.814,0.778,0.793c0.009-0.006-0.039-0.103-0.149-0.264
								c-0.109-0.162-0.288-0.383-0.543-0.625c-0.501-0.483-1.359-1.029-2.432-1.2c-1.072-0.169-2.057,0.084-2.683,0.389
								c-0.316,0.151-0.555,0.307-0.709,0.427C373.759,401.431,373.682,401.508,373.689,401.516z"/>
						</g>
					</g>
				</g>
				<g>
					<g>
						<g>
							<path style="fill:#263238;" d="M371.958,395.301c-0.044,0.024,0.587,1.257,1.41,2.752c0.823,1.496,1.526,2.689,1.57,2.665
								c0.044-0.024-0.587-1.256-1.411-2.753C372.706,396.47,372.002,395.277,371.958,395.301z"/>
						</g>
					</g>
				</g>
				<g>
					<g>
						<g>
							<path style="fill:#263238;" d="M381.416,400.439c0.018,0.044,0.95-0.299,2.018-0.893c1.07-0.591,1.855-1.2,1.827-1.238
								c-0.03-0.044-0.855,0.493-1.915,1.079C382.287,399.975,381.395,400.391,381.416,400.439z"/>
						</g>
					</g>
				</g>
				<g>
					<g>
						<g>
							<path style="fill:#263238;" d="M378.849,401.889c-0.014,0.05,0.173,0.141,0.371,0.288c0.201,0.144,0.345,0.293,0.388,0.265
								c0.042-0.024-0.05-0.245-0.281-0.412C379.097,401.862,378.859,401.842,378.849,401.889z"/>
						</g>
					</g>
				</g>
				<g>
					<g>
						<g>
							<path style="fill:#263238;" d="M377.2,401.234c-0.014,0.048,0.148,0.137,0.361,0.197c0.213,0.061,0.397,0.07,0.411,0.022
								c0.014-0.048-0.148-0.137-0.361-0.197C377.398,401.196,377.214,401.186,377.2,401.234z"/>
						</g>
					</g>
				</g>
				<g>
					<g>
						<g>
							<path style="fill:#263238;" d="M375.505,401.469c0.034,0.039,0.207-0.061,0.438-0.102c0.229-0.047,0.427-0.017,0.445-0.067
								c0.022-0.044-0.194-0.168-0.479-0.112C375.624,401.241,375.469,401.436,375.505,401.469z"/>
						</g>
					</g>
				</g>
				<g>
					<g>
						<g>
							<path style="fill:#263238;" d="M374.374,401.768c0.007,0.05,0.121,0.074,0.253,0.055c0.133-0.019,0.234-0.076,0.227-0.125
								c-0.007-0.05-0.121-0.074-0.253-0.055C374.468,401.662,374.366,401.718,374.374,401.768z"/>
						</g>
					</g>
				</g>
			</g>
		</g>
		<path style="fill:#FFBE9D;" d="M336.875,283.497c0,0,5.781,23.233,7.593,22.241c9.838-5.387,19.596-15.32,23.239-19.229
			c0.138-0.528,0.28-1.118,0.418-1.791c0.159-0.776,0.181-1.577,0.078-2.365c-0.125-0.956-0.343-2.219-0.671-2.873
			c-0.406-0.81,0.356-1.7,1.077-1.327c0.72,0.373,1.892,2.577,2.018,5.502c0.126,2.924,2.802-0.758,3.801-2.082
			c0.998-1.324,4.277-5.271,4.918-5.276c0.941-0.008,1.128,1.025,0.101,2.323c-1.04,1.314-3.84,5.416-3.13,5.927
			c0.699,0.504,5.693-6.308,5.693-6.308s0.837-1.634,1.676-1.072c1.514,1.015-4.316,7.852-4.887,8.488
			c-0.397,0.443,0.355,1.026,0.756,0.528c0.413-0.513,4.827-6.915,6.378-5.897c1.191,0.782-4.745,5.671-4.939,7.524
			c-0.193,1.854,4.132-4.179,5.239-3.385c0.412,0.296,0.68,0.575-2.293,3.668c-1.598,1.663-5.004,4.434-7.883,6.694
			c-7.882,8.799-37,37.115-42.951,21.937c-7.082-18.066-5.999-29.736-5.999-29.736L336.875,283.497z"/>
		<g>
			<path style="fill:#455A64;" d="M295.422,291.835l1.783,18.363l-2.1,12.852l-2.976,7.08l39.297-4.223l-3.255-16.485l0.306-5.593
				c0.842,3.631,1.942,7.983,2.979,10.876c2.074,5.79,5.911,6.978,5.911,6.978c13.015,2.864,37.972-25.117,37.972-25.117
				l-8.9-10.746l-21.108,18.13c0,0,0.538-0.645,0-1.291c-0.538-0.645-1.506,1.291-1.506,1.291l-4.948-17.747l0,0
				c0,0-1.433-15.941-17.06-16.703h-13.014l0,0c-12.212,2.523-21.637,12.392-23.369,24.742c-0.24,1.714-0.387,3.543-0.421,5.495
				c-0.376,22.009,10.41,26.9,10.41,26.9l6.005-18.059L295.422,291.835z"/>
			<g>
				<path style="fill:#263238;" d="M327.023,304.439c0.035,0.037,0.713-0.542,1.502-1.735c0.788-1.18,1.631-3.029,1.879-5.212
					c0.25-2.184-0.156-4.175-0.658-5.502c-0.5-1.34-1.031-2.056-1.073-2.028c-0.07,0.037,0.35,0.805,0.756,2.134
					c0.409,1.321,0.745,3.243,0.505,5.342c-0.239,2.098-0.998,3.895-1.694,5.091C327.546,303.734,326.964,304.387,327.023,304.439z"
					/>
			</g>
			<g>
				<path style="fill:#263238;" d="M330.788,322.045c-0.023,0.037-0.645-0.326-1.79-0.939c-1.142-0.618-2.82-1.467-4.965-2.346
					c-2.15-0.862-4.763-1.774-7.754-2.435c-1.492-0.339-3.074-0.627-4.728-0.823c-0.826-0.1-1.669-0.19-2.527-0.241
					c-0.854-0.074-1.73-0.064-2.644-0.209c-0.905-0.13-1.839-0.544-2.438-1.271c-0.604-0.715-0.907-1.579-1.109-2.406
					c-0.361-1.677-0.506-3.272-0.683-4.81c-0.312-3.07-0.416-5.85-0.408-8.181c0.004-2.332,0.12-4.217,0.225-5.515
					c0.053-0.649,0.107-1.152,0.151-1.493c0.043-0.34,0.074-0.518,0.092-0.517c0.041,0.003,0.003,0.722-0.041,2.021
					c-0.043,1.299-0.103,3.179-0.06,5.5c0.039,2.321,0.181,5.084,0.517,8.133c0.186,1.514,0.35,3.144,0.701,4.74
					c0.195,0.788,0.485,1.577,1.007,2.19c0.518,0.619,1.285,0.967,2.13,1.094c0.841,0.135,1.727,0.13,2.595,0.206
					c0.867,0.054,1.719,0.148,2.554,0.252c1.671,0.206,3.268,0.507,4.772,0.862c3.015,0.694,5.641,1.651,7.788,2.563
					c2.143,0.93,3.807,1.835,4.922,2.509c0.566,0.324,0.982,0.614,1.27,0.801C330.652,321.922,330.797,322.03,330.788,322.045z"/>
			</g>
			<g>
				<path style="fill:#263238;" d="M301.078,317.849c-0.133-0.025,0.232-1.393,1.509-2.479c1.267-1.1,2.674-1.254,2.678-1.119
					c0.04,0.15-1.19,0.509-2.339,1.514C301.761,316.749,301.22,317.911,301.078,317.849z"/>
			</g>
		</g>
		<g>
			<path style="fill:#E8505B;" d="M315.271,234.746c2.498-0.785,5.253-0.997,7.717-0.111c2.464,0.886,4.566,3.004,4.984,5.589
				c0.207,1.283,0.023,2.674,0.636,3.82c0.653,1.22,2.03,1.831,3.069,2.745c1.625,1.428,2.423,3.736,2.027,5.863
				c-0.217,1.164-0.765,2.291-0.669,3.471c0.098,1.201,0.849,2.244,1.658,3.136c0.81,0.892,1.721,1.725,2.268,2.798
				c0.547,1.073,0.643,2.491-0.147,3.401c-0.88,1.014-2.421,1.012-3.763,0.977c-4.68-0.123-9.354,0.331-14.013,0.785"/>
			<path style="fill:#FFBE9D;" d="M321.835,269.345c-0.045-2.294-0.063-4.255-0.063-4.255s5.593-0.706,5.834-6.414
				c0.241-5.709-0.327-18.854-0.327-18.854l-10.294-4.943l-8.984,10.242l0.317,24.443c0.048,3.681,3.032,6.647,6.714,6.672l0,0
				C318.833,276.26,321.909,273.145,321.835,269.345z"/>
			<g>
				<path style="fill:#263238;" d="M325.836,249.427c0.007,0.403-0.306,0.735-0.699,0.742c-0.392,0.007-0.717-0.314-0.724-0.717
					c-0.007-0.403,0.306-0.736,0.698-0.742C325.505,248.702,325.829,249.023,325.836,249.427z"/>
				<g>
					<path style="fill:#263238;" d="M327.005,248.619c-0.09,0.096-0.623-0.353-1.39-0.382c-0.766-0.04-1.335,0.359-1.416,0.255
						c-0.04-0.046,0.053-0.222,0.301-0.403c0.244-0.18,0.658-0.349,1.136-0.327c0.478,0.022,0.876,0.226,1.104,0.428
						C326.972,248.393,327.049,248.577,327.005,248.619z"/>
				</g>
			</g>
			<g>
				<path style="fill:#263238;" d="M317.503,249.427c0.007,0.403-0.306,0.735-0.699,0.742c-0.392,0.007-0.716-0.314-0.724-0.717
					c-0.007-0.403,0.306-0.736,0.698-0.742C317.171,248.702,317.495,249.023,317.503,249.427z"/>
				<g>
					<path style="fill:#263238;" d="M318.517,248.766c-0.09,0.096-0.624-0.353-1.39-0.382c-0.766-0.04-1.335,0.359-1.416,0.255
						c-0.04-0.046,0.052-0.222,0.301-0.403c0.244-0.181,0.658-0.349,1.135-0.327c0.478,0.022,0.876,0.227,1.104,0.428
						C318.484,248.54,318.561,248.724,318.517,248.766z"/>
				</g>
			</g>
			<g>
				<path style="fill:#263238;" d="M321.395,255.355c-0.003-0.047,0.475-0.116,1.249-0.19c0.196-0.014,0.382-0.048,0.417-0.19
					c0.049-0.149-0.03-0.379-0.121-0.626c-0.176-0.515-0.36-1.054-0.554-1.619c-0.768-2.305-1.321-4.196-1.235-4.227
					c0.086-0.03,0.779,1.813,1.547,4.117c0.185,0.568,0.361,1.11,0.529,1.628c0.07,0.241,0.194,0.516,0.089,0.827
					c-0.055,0.155-0.201,0.262-0.327,0.293c-0.126,0.036-0.236,0.034-0.333,0.036C321.879,255.418,321.397,255.402,321.395,255.355z
					"/>
			</g>
			<path style="fill:#EB996E;" d="M321.772,265.089c0,0-3.741,0.107-7.406-2.424c0,0,1.741,4.158,7.309,3.825L321.772,265.089z"/>
			<path style="fill:#E8505B;" d="M294.725,262.714c0.558-0.534,1.217-1.006,1.543-1.706c0.531-1.141,0.014-2.48-0.574-3.593
				c-0.587-1.114-1.272-2.309-1.056-3.549c0.378-2.176,3.204-3.075,4.021-5.128c0.732-1.84-0.354-4.112,0.623-5.835
				c0.792-1.396,2.621-1.843,3.664-3.064c0.807-0.945,1.047-2.234,1.579-3.356c0.951-2.005,2.933-3.487,5.126-3.83
				c2.111-0.331,4.352,0.411,5.871,1.91c3.072-0.879,6.512-0.221,9.274,1.432c1.212,0.725,2.354,1.676,2.934,2.964
				c0.518,1.151,0.541,2.454,0.554,3.716c0.01,0.903,0.019,1.807,0.029,2.71c0.003,0.23,0.001,0.476-0.126,0.668
				c-0.203,0.308-0.629,0.352-0.997,0.366c-1.394,0.052-2.787,0.105-4.181,0.157c-0.286,0.011-0.589,0.017-0.835-0.129
				c-0.431-0.256-0.696-0.824-0.658-1.324c0.031-0.399,0.013-1.201,0.022-1.43c-0.188,0.894-0.361,1.063-0.495,1.622
				c-0.137,0.571-0.388,1.169-0.904,1.451c-0.361,0.197-0.791,0.205-1.202,0.202c-0.603-0.003-1.205-0.018-1.807-0.043
				c-0.298-0.013-0.617-0.035-0.854-0.218c-0.382-0.295-0.386-0.864-0.315-1.342c0.072-0.477,0.271-0.975,0.283-1.869
				c-0.541,1.063-0.799,2.388-1.466,2.565c-0.725,0.193-1.812-0.083-2.016-0.147c-0.674-0.21-1.15-0.381-1.638-0.536
				c0.043,0.278,0.107,0.553,0.206,0.821c0.507,1.37,1.646,2.689,1.255,4.097c-0.355,1.278-1.806,1.9-2.54,3.005
				c-0.8,1.204-0.635,2.815-0.16,4.18c0.476,1.366,1.228,2.637,1.547,4.047c0.32,1.41,0.091,3.089-1.062,3.962
				c-0.886,0.67-2.082,0.708-3.192,0.718c-3.383,0.031-6.765,0.062-10.148,0.093c-0.655,0.006-1.327,0.009-1.944-0.211
				c-0.617-0.22-1.18-0.713-1.292-1.359C293.661,263.971,294.166,263.248,294.725,262.714z"/>
			<g>
				<path style="fill:#E8505B;" d="M332.449,259.624c-0.012,0.007-0.098-0.104-0.206-0.346c-0.109-0.24-0.226-0.624-0.241-1.132
					c-0.065-1.02,0.411-2.468,1.313-3.986c0.42-0.772,0.904-1.61,1.159-2.577c0.271-0.959,0.178-2.064-0.332-3.055
					c-0.257-0.489-0.603-0.951-1.045-1.32c-0.432-0.384-0.971-0.626-1.556-0.87c-0.577-0.249-1.221-0.486-1.76-0.979
					c-0.559-0.485-0.818-1.265-0.835-1.963c-0.039-0.707,0.059-1.371,0.018-1.996c-0.027-0.628-0.149-1.243-0.35-1.821
					c-0.415-1.152-1.093-2.165-1.91-2.951c-1.626-1.614-3.693-2.278-5.403-2.464c-1.73-0.196-3.152,0.027-4.109,0.212
					c-0.961,0.197-1.482,0.364-1.495,0.323c-0.006-0.017,0.118-0.076,0.361-0.172c0.243-0.095,0.608-0.221,1.089-0.348
					c0.957-0.247,2.398-0.535,4.191-0.381c1.766,0.142,3.96,0.797,5.701,2.486c0.872,0.822,1.604,1.89,2.057,3.126
					c0.219,0.62,0.354,1.285,0.386,1.967c0.043,0.686-0.053,1.351-0.016,1.99c0.024,0.641,0.224,1.218,0.667,1.612
					c0.432,0.403,1.027,0.639,1.607,0.889c0.58,0.245,1.198,0.525,1.681,0.962c0.493,0.419,0.872,0.936,1.15,1.481
					c0.554,1.094,0.635,2.351,0.321,3.383c-0.296,1.041-0.816,1.886-1.256,2.647c-0.936,1.489-1.427,2.829-1.431,3.803
					C332.181,259.117,332.508,259.604,332.449,259.624z"/>
			</g>
			<g>
				<path style="fill:#E8505B;" d="M292.923,252.293c0.029-0.045,0.348,0.27,1.074,0.426c0.691,0.154,1.906,0.076,2.824-0.857
					c0.913-0.916,1.328-2.627,0.692-4.265c-0.256-0.819-0.712-1.831-0.32-2.912c0.406-1.053,1.4-1.666,2.341-2.112
					c0.949-0.442,1.895-0.809,2.499-1.492c0.61-0.675,0.821-1.598,0.993-2.465c0.171-0.874,0.307-1.753,0.675-2.516
					c0.353-0.768,0.903-1.351,1.46-1.779c1.134-0.865,2.323-1.06,3.09-1.048c0.39,0.006,0.689,0.059,0.885,0.112
					c0.197,0.055,0.296,0.092,0.292,0.11c-0.01,0.049-0.425-0.061-1.171-0.019c-0.732,0.049-1.842,0.293-2.868,1.135
					c-0.504,0.416-0.993,0.967-1.295,1.669c-0.318,0.695-0.437,1.534-0.596,2.425c-0.164,0.878-0.367,1.902-1.084,2.716
					c-0.717,0.81-1.741,1.19-2.659,1.624c-0.905,0.421-1.772,0.995-2.086,1.82c-0.322,0.824,0.034,1.732,0.299,2.587
					c0.659,1.765,0.172,3.692-0.89,4.671c-1.08,1.016-2.406,1.016-3.133,0.793c-0.38-0.112-0.645-0.273-0.807-0.398
					C292.982,252.387,292.913,252.305,292.923,252.293z"/>
			</g>
			<path style="fill:#EB996E;" d="M321.119,257.368c-0.088-0.482-0.434-0.91-0.888-1.096c-0.315-0.129-0.687-0.141-0.988,0.018
				s-0.507,0.505-0.456,0.841c0.058,0.379,0.417,0.654,0.792,0.735c0.375,0.08,0.763,0.005,1.137-0.077
				c0.103-0.023,0.21-0.047,0.296-0.109c0.086-0.061,0.148-0.169,0.124-0.272"/>
			<g>
				<path style="fill:#263238;" d="M319.22,255.325c0.142,0.002,0.148,0.879,0.837,1.525c0.685,0.651,1.561,0.605,1.572,0.747
					c0.012,0.065-0.199,0.183-0.578,0.184c-0.372,0.004-0.915-0.142-1.351-0.553c-0.435-0.411-0.613-0.945-0.63-1.317
					C319.049,255.534,319.154,255.317,319.22,255.325z"/>
			</g>
		</g>
		<g>
			<path style="fill:#263238;" d="M292.741,329.611c0,0,58.174-12.186,63.807-9.518c5.633,2.668,31.138,70.929,31.138,70.929
				l-18.298,10.979l-24.653-60.594c0,0-40.729,14.877-47.844,13.399C289.777,353.327,292.741,329.611,292.741,329.611z"/>
			<path style="fill:#263238;" d="M318.742,333.033c0.889,0.297,34.541,14.129,36.913,18.576c2.372,4.447-3.675,81.264-3.675,81.264
				c-0.889-0.08-21.078-1.763-21.078-1.763l3.344-66.841l-37.354-9.464L318.742,333.033z"/>
			<g>
				<path style="fill:#455A64;" d="M296.697,354.955c0.003,0.015,0.178-0.004,0.508-0.054c0.378-0.064,0.854-0.144,1.439-0.243
					c1.307-0.241,3.095-0.57,5.277-0.972c4.45-0.848,10.602-2.03,17.315-3.714c3.355-0.853,6.523-1.774,9.378-2.698
					c2.849-0.941,5.385-1.877,7.479-2.75c2.095-0.869,3.77-1.624,4.9-2.2c0.529-0.268,0.96-0.486,1.302-0.66
					c0.295-0.155,0.447-0.244,0.44-0.258s-0.172,0.047-0.48,0.175c-0.352,0.153-0.794,0.346-1.337,0.582
					c-1.151,0.525-2.841,1.233-4.945,2.062c-2.103,0.833-4.642,1.734-7.488,2.65c-2.852,0.899-6.014,1.805-9.361,2.655
					c-6.697,1.68-12.833,2.911-17.266,3.839c-2.171,0.461-3.949,0.838-5.249,1.114c-0.578,0.133-1.049,0.241-1.423,0.326
					C296.862,354.89,296.694,354.939,296.697,354.955z"/>
			</g>
			<g>
				<path style="fill:#455A64;" d="M355.647,368.571c0.031,0.003,0.094-0.391,0.18-1.105c0.086-0.806,0.194-1.82,0.322-3.028
					c0.123-1.312,0.264-2.828,0.42-4.495c0.137-1.684,0.377-3.583,0.009-5.57c-0.356-2.004-1.524-3.664-2.796-4.815
					c-1.279-1.174-2.662-1.92-3.831-2.462c-1.177-0.54-2.163-0.883-2.843-1.117c-0.682-0.23-1.065-0.34-1.076-0.311
					c-0.033,0.08,1.478,0.609,3.78,1.718c1.137,0.572,2.468,1.331,3.685,2.478c1.214,1.133,2.298,2.7,2.635,4.594
					c0.353,1.889,0.137,3.76,0.02,5.45c-0.12,1.67-0.229,3.189-0.323,4.503c-0.071,1.212-0.131,2.23-0.178,3.04
					C355.618,368.17,355.615,368.569,355.647,368.571z"/>
			</g>
			<g>
				<path style="fill:#455A64;" d="M338.857,362.228c-0.051-0.115-1.106,0.238-2.357,0.789c-1.251,0.551-2.224,1.09-2.174,1.205
					c0.051,0.115,1.106-0.238,2.357-0.789C337.934,362.883,338.908,362.343,338.857,362.228z"/>
			</g>
			<g>
				<path style="fill:#455A64;" d="M337.169,360.21c-0.122-0.052-0.655,1.007-1.53,2.156c-0.866,1.156-1.739,1.958-1.656,2.061
					c0.068,0.097,1.11-0.578,2.019-1.787C336.917,361.436,337.281,360.249,337.169,360.21z"/>
			</g>
		</g>
	</g>
</g>
<g id="Character_1">
	<g>
		<g>
			<g>
				<g>
					<g>
						<g>
							<path style="fill:#E8505B;" d="M234.057,437.026l-0.57-8.011l14.999-1.164l0.958,11.711l-0.925,0.132
								c-4.121,0.551-20.992,2.51-23.824,1.887C221.536,440.884,234.057,437.026,234.057,437.026z"/>
						</g>
					</g>
					<g style="opacity:0.3;">
						<g>
							<path style="fill:#FFFFFF;" d="M243.996,439.867c0.116-1.27,0.723-2.488,1.666-3.346c0.943-0.858,2.146-1.366,3.421-1.362
								l0.328,4.192L243.996,439.867z"/>
						</g>
					</g>
				</g>
				<g style="opacity:0.3;">
					<g>
						<path style="fill:#FFFFFF;" d="M227.956,439.133c0,0-4.367,1.635-3.752,2.327c0.614,0.692,17.738-0.647,25.239-1.898
							l-0.05-0.333l-19.961,1.732C229.433,440.961,228.832,439.102,227.956,439.133z"/>
					</g>
				</g>
				<g>
					<g>
						<g>
							<path style="fill:#263238;" d="M249.628,439.202c0.001,0.006-0.087,0.023-0.256,0.048c-0.221,0.031-0.464,0.065-0.737,0.103
								c-0.738,0.09-1.646,0.2-2.717,0.331c-2.296,0.263-5.473,0.584-8.988,0.862c-3.516,0.277-6.704,0.459-9.013,0.559
								c-1.078,0.039-1.992,0.073-2.735,0.1c-0.276,0.005-0.521,0.01-0.744,0.014c-0.17,0.001-0.26-0.001-0.26-0.007
								c0-0.006,0.089-0.016,0.258-0.029c0.223-0.015,0.467-0.031,0.742-0.048c0.742-0.043,1.654-0.096,2.731-0.158
								c2.306-0.133,5.491-0.335,9.005-0.612c3.513-0.278,6.69-0.578,8.988-0.808c1.073-0.108,1.982-0.199,2.722-0.273
								c0.275-0.025,0.519-0.048,0.741-0.068C249.538,439.2,249.627,439.195,249.628,439.202z"/>
						</g>
					</g>
				</g>
				<g>
					<g>
						<g>
							<path style="fill:#263238;" d="M229.455,441.194c-0.055,0.011-0.148-0.636-0.611-1.261c-0.452-0.633-1.039-0.922-1.011-0.971
								c0.007-0.046,0.672,0.186,1.158,0.864C229.486,440.497,229.501,441.201,229.455,441.194z"/>
						</g>
					</g>
				</g>
				<g>
					<g>
						<g>
							<path style="fill:#263238;" d="M233.705,438.603c-0.04,0.03-0.272-0.211-0.518-0.538c-0.246-0.328-0.412-0.618-0.372-0.648
								c0.04-0.03,0.272,0.211,0.518,0.538C233.579,438.282,233.745,438.573,233.705,438.603z"/>
						</g>
					</g>
				</g>
				<g>
					<g>
						<g>
							<path style="fill:#263238;" d="M234.869,437.866c-0.031,0.04-0.28-0.099-0.556-0.311c-0.277-0.212-0.476-0.416-0.445-0.456
								c0.031-0.04,0.28,0.099,0.556,0.311C234.7,437.621,234.9,437.826,234.869,437.866z"/>
						</g>
					</g>
				</g>
				<g>
					<g>
						<g>
							<path style="fill:#263238;" d="M235.526,436.39c0.005,0.05-0.342,0.122-0.775,0.161c-0.432,0.039-0.786,0.029-0.791-0.021
								c-0.005-0.05,0.342-0.122,0.775-0.161C235.167,436.331,235.522,436.34,235.526,436.39z"/>
						</g>
					</g>
				</g>
				<g>
					<g>
						<g>
							<path style="fill:#263238;" d="M235.712,435.371c0.02,0.044-0.348,0.246-0.853,0.322c-0.505,0.079-0.917-0.002-0.911-0.05
								c0.004-0.052,0.403-0.054,0.883-0.13C235.311,435.441,235.692,435.323,235.712,435.371z"/>
						</g>
					</g>
				</g>
				<g>
					<g>
						<g>
							<path style="fill:#263238;" d="M233.094,437.334c0.003,0.02-0.364,0.094-0.964,0.069c-0.3-0.013-0.656-0.055-1.044-0.146
								c-0.193-0.052-0.393-0.087-0.606-0.196c-0.1-0.056-0.213-0.137-0.262-0.281c-0.051-0.141,0.014-0.31,0.116-0.397
								c0.884-0.549,1.847-0.103,2.226,0.346c0.207,0.228,0.312,0.458,0.365,0.618c0.051,0.162,0.056,0.256,0.045,0.258
								c-0.033,0.015-0.095-0.374-0.503-0.788c-0.201-0.203-0.497-0.392-0.865-0.471c-0.348-0.074-0.835-0.064-1.143,0.168
								c-0.144,0.125-0.071,0.301,0.108,0.389c0.167,0.09,0.377,0.136,0.56,0.189c0.374,0.097,0.72,0.152,1.013,0.181
								C232.724,437.332,233.092,437.305,233.094,437.334z"/>
						</g>
					</g>
				</g>
				<g>
					<g>
						<g>
							<path style="fill:#263238;" d="M232.848,437.401c-0.013,0.012-0.174-0.223-0.163-0.66c0.007-0.215,0.065-0.473,0.208-0.725
								c0.153-0.227,0.349-0.539,0.764-0.554c0.226,0.011,0.355,0.257,0.332,0.422c-0.004,0.17-0.069,0.321-0.13,0.443
								c-0.124,0.252-0.271,0.459-0.41,0.619c-0.279,0.319-0.509,0.451-0.521,0.433c-0.019-0.022,0.179-0.188,0.42-0.514
								c0.12-0.163,0.249-0.368,0.358-0.61c0.116-0.214,0.178-0.587-0.067-0.612c-0.243-0.004-0.471,0.255-0.603,0.459
								c-0.135,0.22-0.202,0.452-0.224,0.648C232.77,437.149,232.879,437.392,232.848,437.401z"/>
						</g>
					</g>
				</g>
				<g>
					<g>
						<g>
							<path style="fill:#263238;" d="M249.001,435.122c-0.001,0.034-0.433-0.007-1.104,0.126c-0.665,0.127-1.578,0.476-2.34,1.185
								c-0.761,0.711-1.171,1.598-1.344,2.253c-0.179,0.661-0.167,1.095-0.201,1.093c-0.011,0-0.025-0.107-0.024-0.302
								c0-0.195,0.025-0.479,0.1-0.822c0.145-0.681,0.551-1.613,1.344-2.355c0.794-0.74,1.752-1.082,2.441-1.179
								c0.347-0.052,0.632-0.057,0.827-0.043C248.896,435.09,249.002,435.111,249.001,435.122z"/>
						</g>
					</g>
				</g>
				<g>
					<g>
						<g>
							<path style="fill:#263238;" d="M246.959,429.002c0.05-0.005,0.216,1.37,0.371,3.07c0.155,1.701,0.239,3.083,0.189,3.087
								c-0.05,0.004-0.216-1.37-0.371-3.071C246.993,430.389,246.909,429.007,246.959,429.002z"/>
						</g>
					</g>
				</g>
				<g>
					<g>
						<g>
							<path style="fill:#263238;" d="M241.994,438.552c0.01,0.047-0.955,0.283-2.172,0.388c-1.218,0.109-2.209,0.043-2.207-0.004
								c0.001-0.053,0.985-0.07,2.191-0.177C241.012,438.655,241.984,438.5,241.994,438.552z"/>
						</g>
					</g>
				</g>
				<g>
					<g>
						<g>
							<path style="fill:#263238;" d="M244.934,438.318c0.04,0.034-0.064,0.214-0.146,0.446c-0.086,0.232-0.122,0.436-0.174,0.437
								c-0.048,0.003-0.096-0.231,0.002-0.499C244.712,438.434,244.898,438.284,244.934,438.318z"/>
						</g>
					</g>
				</g>
				<g>
					<g>
						<g>
							<path style="fill:#263238;" d="M245.934,436.853c0.039,0.033-0.046,0.196-0.189,0.365c-0.143,0.17-0.29,0.281-0.328,0.248
								c-0.038-0.032,0.046-0.196,0.189-0.366C245.748,436.931,245.895,436.82,245.934,436.853z"/>
						</g>
					</g>
				</g>
				<g>
					<g>
						<g>
							<path style="fill:#263238;" d="M247.469,436.099c-0.007,0.052-0.206,0.065-0.42,0.16c-0.216,0.09-0.364,0.224-0.406,0.194
								c-0.042-0.024,0.067-0.248,0.334-0.361C247.244,435.976,247.481,436.051,247.469,436.099z"/>
						</g>
					</g>
				</g>
				<g>
					<g>
						<g>
							<path style="fill:#263238;" d="M248.575,435.713c0.022,0.045-0.058,0.129-0.179,0.187c-0.121,0.058-0.236,0.068-0.258,0.023
								c-0.022-0.045,0.058-0.129,0.179-0.187C248.437,435.678,248.553,435.668,248.575,435.713z"/>
						</g>
					</g>
				</g>
			</g>
		</g>
		<g>
			<g>
				<g>
					<g>
						<g>
							<path style="fill:#E8505B;" d="M200.742,437.029l0.202-8.029l15.041,0.283l-0.172,11.749l-0.934,0.042
								c-4.155,0.152-21.136,0.481-23.895-0.412C187.908,439.667,200.742,437.029,200.742,437.029z"/>
						</g>
					</g>
					<g style="opacity:0.3;">
						<g>
							<path style="fill:#FFFFFF;" d="M210.362,440.812c0.238-1.253,0.959-2.407,1.98-3.171c1.021-0.764,2.268-1.153,3.536-1.027
								l-0.076,4.204L210.362,440.812z"/>
						</g>
					</g>
				</g>
				<g style="opacity:0.3;">
					<g>
						<path style="fill:#FFFFFF;" d="M194.467,438.54c0,0-4.503,1.208-3.959,1.956c0.545,0.748,17.718,1.061,25.305,0.536
							l-0.018-0.336l-20.035-0.194C195.761,440.502,195.342,438.594,194.467,438.54z"/>
					</g>
				</g>
				<g>
					<g>
						<g>
							<path style="fill:#263238;" d="M216.032,440.691c0,0.006-0.089,0.014-0.259,0.023c-0.223,0.009-0.468,0.02-0.743,0.031
								c-0.743,0.018-1.658,0.041-2.736,0.068c-2.31,0.041-5.503,0.055-9.029-0.006c-3.527-0.062-6.717-0.188-9.025-0.31
								c-1.077-0.065-1.989-0.119-2.732-0.164c-0.275-0.021-0.519-0.04-0.742-0.057c-0.169-0.015-0.258-0.026-0.258-0.032
								c0-0.006,0.09-0.008,0.26-0.005c0.223,0.007,0.468,0.014,0.744,0.023c0.743,0.029,1.656,0.064,2.734,0.105
								c2.308,0.089,5.498,0.194,9.023,0.256c3.524,0.061,6.714,0.067,9.024,0.059c1.079-0.004,1.992-0.007,2.736-0.01
								c0.276,0.001,0.521,0.002,0.744,0.003C215.942,440.681,216.032,440.685,216.032,440.691z"/>
						</g>
					</g>
				</g>
				<g>
					<g>
						<g>
							<path style="fill:#263238;" d="M195.761,440.736c-0.056,0.006-0.087-0.648-0.487-1.314c-0.389-0.674-0.945-1.018-0.913-1.064
								c0.012-0.045,0.651,0.25,1.07,0.971C195.858,440.045,195.806,440.747,195.761,440.736z"/>
						</g>
					</g>
				</g>
				<g>
					<g>
						<g>
							<path style="fill:#263238;" d="M200.24,438.565c-0.043,0.026-0.251-0.236-0.464-0.586c-0.213-0.35-0.351-0.654-0.308-0.681
								c0.043-0.026,0.251,0.236,0.464,0.586C200.145,438.234,200.283,438.539,200.24,438.565z"/>
						</g>
					</g>
				</g>
				<g>
					<g>
						<g>
							<path style="fill:#263238;" d="M201.47,437.943c-0.035,0.037-0.269-0.126-0.524-0.363c-0.255-0.238-0.434-0.46-0.399-0.497
								c0.034-0.037,0.269,0.126,0.524,0.363C201.325,437.684,201.504,437.906,201.47,437.943z"/>
						</g>
					</g>
				</g>
				<g>
					<g>
						<g>
							<path style="fill:#263238;" d="M202.265,436.538c0,0.051-0.353,0.089-0.787,0.086c-0.434-0.003-0.786-0.046-0.785-0.097
								c0-0.05,0.353-0.089,0.787-0.086C201.914,436.444,202.266,436.487,202.265,436.538z"/>
						</g>
					</g>
				</g>
				<g>
					<g>
						<g>
							<path style="fill:#263238;" d="M202.548,435.541c0.016,0.045-0.37,0.211-0.88,0.239c-0.511,0.031-0.913-0.09-0.902-0.137
								c0.009-0.052,0.407-0.015,0.892-0.045C202.142,435.572,202.533,435.491,202.548,435.541z"/>
						</g>
					</g>
				</g>
				<g>
					<g>
						<g>
							<path style="fill:#263238;" d="M199.754,437.244c0.001,0.02-0.371,0.059-0.966-0.024c-0.297-0.041-0.648-0.118-1.025-0.246
								c-0.187-0.071-0.383-0.124-0.585-0.253c-0.094-0.066-0.199-0.157-0.234-0.305c-0.037-0.146,0.043-0.307,0.154-0.384
								c0.933-0.462,1.848,0.075,2.182,0.558c0.184,0.247,0.266,0.486,0.304,0.651c0.036,0.166,0.031,0.26,0.02,0.262
								c-0.034,0.012-0.058-0.382-0.425-0.833c-0.181-0.221-0.457-0.438-0.816-0.552c-0.339-0.107-0.825-0.144-1.153,0.057
								c-0.156,0.111-0.099,0.292,0.07,0.397c0.157,0.105,0.362,0.172,0.539,0.242c0.364,0.133,0.702,0.221,0.991,0.277
								C199.386,437.206,199.754,437.214,199.754,437.244z"/>
						</g>
					</g>
				</g>
				<g>
					<g>
						<g>
							<path style="fill:#263238;" d="M199.502,437.287c-0.014,0.01-0.152-0.239-0.099-0.673c0.027-0.213,0.11-0.465,0.277-0.701
								c0.174-0.211,0.399-0.503,0.814-0.478c0.224,0.033,0.328,0.29,0.29,0.452c-0.021,0.169-0.099,0.313-0.172,0.429
								c-0.148,0.239-0.314,0.431-0.467,0.577c-0.309,0.29-0.55,0.399-0.56,0.381c-0.016-0.024,0.196-0.17,0.468-0.471
								c0.135-0.151,0.283-0.342,0.415-0.573c0.136-0.202,0.234-0.567-0.008-0.616c-0.242-0.028-0.493,0.209-0.644,0.399
								c-0.156,0.206-0.244,0.43-0.285,0.623C199.449,437.028,199.535,437.28,199.502,437.287z"/>
						</g>
					</g>
				</g>
				<g>
					<g>
						<g>
							<path style="fill:#263238;" d="M215.8,436.57c-0.004,0.034-0.43-0.049-1.111,0.019c-0.675,0.063-1.616,0.322-2.443,0.955
								c-0.826,0.635-1.319,1.478-1.554,2.113c-0.241,0.641-0.271,1.073-0.305,1.069c-0.011-0.001-0.014-0.109,0.005-0.303
								c0.019-0.194,0.071-0.474,0.179-0.808c0.209-0.664,0.704-1.553,1.565-2.215c0.862-0.66,1.848-0.908,2.543-0.939
								c0.351-0.018,0.634,0.005,0.827,0.036C215.698,436.528,215.802,436.56,215.8,436.57z"/>
						</g>
					</g>
				</g>
				<g>
					<g>
						<g>
							<path style="fill:#263238;" d="M214.355,430.283c0.05,0,0.083,1.385,0.074,3.092c-0.009,1.708-0.058,3.091-0.108,3.091
								c-0.05,0-0.083-1.385-0.074-3.092C214.256,431.666,214.305,430.283,214.355,430.283z"/>
						</g>
					</g>
				</g>
				<g>
					<g>
						<g>
							<path style="fill:#263238;" d="M208.496,439.311c0.006,0.047-0.977,0.19-2.2,0.178c-1.223-0.009-2.203-0.169-2.197-0.216
								c0.006-0.053,0.987,0.025,2.198,0.034C207.509,439.319,208.491,439.258,208.496,439.311z"/>
						</g>
					</g>
				</g>
				<g>
					<g>
						<g>
							<path style="fill:#263238;" d="M211.444,439.361c0.036,0.038-0.084,0.207-0.189,0.43c-0.108,0.222-0.163,0.422-0.215,0.418
								c-0.049-0.001-0.073-0.239,0.05-0.496C211.212,439.455,211.412,439.323,211.444,439.361z"/>
						</g>
					</g>
				</g>
				<g>
					<g>
						<g>
							<path style="fill:#263238;" d="M212.58,437.998c0.035,0.036-0.065,0.191-0.223,0.346c-0.158,0.155-0.315,0.251-0.351,0.215
								c-0.035-0.036,0.065-0.191,0.223-0.346C212.388,438.059,212.545,437.962,212.58,437.998z"/>
						</g>
					</g>
				</g>
				<g>
					<g>
						<g>
							<path style="fill:#263238;" d="M214.181,437.396c-0.011,0.051-0.211,0.045-0.434,0.119c-0.224,0.068-0.384,0.188-0.423,0.154
								c-0.04-0.028,0.091-0.24,0.367-0.327C213.968,437.252,214.197,437.349,214.181,437.396z"/>
						</g>
					</g>
				</g>
				<g>
					<g>
						<g>
							<path style="fill:#263238;" d="M215.318,437.118c0.017,0.047-0.07,0.123-0.196,0.169c-0.126,0.046-0.242,0.045-0.259-0.002
								c-0.017-0.047,0.07-0.123,0.196-0.169C215.185,437.07,215.301,437.071,215.318,437.118z"/>
						</g>
					</g>
				</g>
			</g>
		</g>
		<g>
			<g>
				<path style="fill:#263238;" d="M213.213,336.505c22.256-2.184,39.847-0.5,39.847-0.5l-16.843,24.178l-15.195,0.06l-3.183,74.305
					h-20.156l1.922-82.878C199.784,343.953,205.559,337.516,213.213,336.505L213.213,336.505z"/>
				<g>
					<path style="fill:#455A64;" d="M218.506,428.824c0,0.144-4.677,0.26-10.444,0.26c-5.77,0-10.445-0.117-10.445-0.26
						c0-0.144,4.676-0.26,10.445-0.26C213.829,428.564,218.506,428.68,218.506,428.824z"/>
				</g>
				<g>
					<path style="fill:#455A64;" d="M226.491,345.261c-0.003,0.02-0.341-0.011-0.984-0.062c-0.643-0.054-1.592-0.125-2.816-0.171
						c-1.222-0.041-2.723-0.066-4.45,0.083c-0.862,0.074-1.782,0.2-2.722,0.452c-0.92,0.253-1.955,0.61-2.608,1.414
						c-0.317,0.389-0.516,0.91-0.685,1.451c-0.172,0.539-0.319,1.103-0.452,1.682c-0.261,1.162-0.488,2.377-0.579,3.655
						c-0.231,2.568-0.447,5.314-0.649,8.205c-0.398,5.783-0.688,12.151-0.925,18.839c-0.448,13.384-0.969,25.498-1.333,34.264
						c-0.198,4.35-0.359,7.885-0.472,10.38c-0.065,1.192-0.117,2.134-0.155,2.821c-0.022,0.296-0.039,0.537-0.053,0.733
						c-0.015,0.165-0.027,0.249-0.036,0.249c-0.009,0-0.015-0.086-0.017-0.251c0-0.196,0.001-0.438,0.002-0.735
						c0.014-0.688,0.033-1.631,0.057-2.825c0.074-2.497,0.178-6.034,0.307-10.387c0.303-8.807,0.72-20.903,1.181-34.268
						c0.237-6.691,0.542-13.065,0.967-18.854c0.215-2.894,0.447-5.642,0.698-8.211c0.102-1.295,0.343-2.536,0.617-3.706
						c0.14-0.586,0.295-1.158,0.477-1.71c0.181-0.551,0.383-1.095,0.766-1.564c0.769-0.91,1.858-1.247,2.809-1.501
						c0.973-0.246,1.909-0.361,2.783-0.422c1.75-0.123,3.257-0.067,4.484,0.005c1.227,0.077,2.176,0.182,2.817,0.269
						c0.321,0.041,0.564,0.081,0.728,0.11C226.409,345.233,226.492,345.252,226.491,345.261z"/>
				</g>
			</g>
			<g>
				<path style="fill:#263238;" d="M250.213,362.091l1.457,71.356l-23.321,1.139c0,0-3.708-69.903-1.857-89.743
					c1.267-13.58,53.077-7.741,53.077-7.741C280.32,364.135,250.213,362.091,250.213,362.091"/>
				<g>
					<path style="fill:#455A64;" d="M251.669,427.816c0.005,0.072-1.265,0.201-3.323,0.352c-2.058,0.151-4.903,0.324-8.047,0.483
						c-3.145,0.159-5.994,0.273-8.057,0.331c-2.063,0.057-3.341,0.056-3.345-0.016c-0.004-0.072,1.267-0.201,3.324-0.352
						c2.057-0.151,4.902-0.324,8.046-0.483c3.143-0.159,5.991-0.273,8.054-0.33C250.386,427.744,251.664,427.745,251.669,427.816z"
						/>
				</g>
				<g>
					<path style="fill:#455A64;" d="M274.542,336.585c0.008,0,0.014,0.106-0.007,0.309c-0.023,0.203-0.038,0.509-0.106,0.903
						c-0.139,0.784-0.445,1.949-1.215,3.272c-0.774,1.305-2.065,2.763-3.999,3.786c-0.966,0.501-2.084,0.886-3.31,1.057
						c-1.237,0.167-2.524,0.095-3.874,0.116c-2.707,0.004-5.667,0.009-8.843,0.013c-1.59,0.001-3.234,0.002-4.926,0.003
						c-0.842,0.007-1.716-0.014-2.566,0.015c-0.84,0.034-1.684,0.229-2.469,0.586c-1.572,0.707-2.887,2.084-3.498,3.784
						c-0.318,0.853-0.42,1.75-0.405,2.7c0.001,0.955,0.002,1.918,0.003,2.891c0.002,3.89,0.004,7.917,0.005,12.041
						c-0.03,16.488-0.057,31.412-0.076,42.256c-0.035,5.38-0.063,9.745-0.083,12.805c-0.021,1.484-0.037,2.65-0.049,3.481
						c-0.011,0.374-0.019,0.673-0.026,0.905c-0.009,0.204-0.018,0.308-0.027,0.308s-0.018-0.104-0.027-0.308
						c-0.007-0.233-0.015-0.531-0.026-0.905c-0.012-0.832-0.028-1.997-0.049-3.481c-0.02-3.06-0.048-7.426-0.083-12.805
						c-0.02-10.844-0.046-25.768-0.076-42.256c0.002-4.124,0.004-8.151,0.005-12.041c0.001-0.972,0.002-1.936,0.003-2.891
						c-0.015-0.957,0.098-1.967,0.442-2.87c0.662-1.827,2.079-3.299,3.768-4.051c0.843-0.38,1.75-0.586,2.648-0.618
						c0.89-0.026,1.735-0.001,2.586-0.004c1.693,0.008,3.336,0.016,4.926,0.023c3.176,0.018,6.137,0.035,8.843,0.05
						c1.35-0.009,2.648,0.073,3.829-0.076c1.188-0.152,2.276-0.512,3.221-0.987c1.892-0.97,3.175-2.37,3.96-3.632
						c0.781-1.281,1.115-2.417,1.286-3.187c0.084-0.387,0.115-0.688,0.156-0.888C274.52,336.688,274.532,336.584,274.542,336.585z"
						/>
				</g>
				<g>
					<path style="fill:#455A64;" d="M250.509,356.101c0.144,0.008,0.172,1.561,0.064,3.467c-0.108,1.908-0.313,3.447-0.456,3.438
						c-0.144-0.008-0.172-1.56-0.064-3.468C250.161,357.632,250.365,356.093,250.509,356.101z"/>
				</g>
			</g>
			<g>
				<path style="fill:#455A64;" d="M251.411,335.998c0.002,0.036-0.602,0.102-1.694,0.189c-1.18,0.087-2.74,0.203-4.626,0.342
					c-1.95,0.155-4.272,0.358-6.819,0.761c-2.512,0.428-5.307,1.2-7.757,2.817c-1.205,0.815-2.223,1.875-2.652,3.158
					c-0.444,1.306-0.667,2.643-0.823,3.917c-0.298,2.556-0.327,4.891-0.383,6.847c-0.044,1.958-0.085,3.545-0.151,4.64
					c-0.03,0.548-0.066,0.973-0.098,1.26c-0.031,0.287-0.056,0.438-0.074,0.437c-0.041-0.002-0.029-0.608-0.031-1.703
					c-0.004-1.183-0.009-2.747-0.015-4.639c0.009-1.959-0.001-4.301,0.275-6.897c0.147-1.295,0.361-2.661,0.818-4.029
					c0.469-1.422,1.584-2.573,2.841-3.422c2.563-1.687,5.407-2.447,7.977-2.86c2.575-0.38,4.91-0.546,6.868-0.655
					c1.959-0.104,3.544-0.15,4.64-0.177C250.803,335.96,251.409,335.962,251.411,335.998z"/>
			</g>
		</g>
		<path style="fill:#EB996E;" d="M216.954,294.866c0,0,4.502,30.616,19.075,29.623l-0.877-16.594l-12.778-11.793L216.954,294.866z"
			/>
		<g>
			<path style="fill:#E8505B;" d="M279.722,336.837l-3.191-25.153l3.293-25.743c-2.161-12.043-19.044-12.872-19.044-12.872
				l-13.25-0.215c0,0-11.129-1.621-15.191,5.861l-7.494,26.836c0,0,5.163,0.736,9.976,0.911l0.331,2.924l0.079,0.006l1.398,26.46
				L279.722,336.837z"/>
			<g>
				<path style="fill:#263238;" d="M260.913,272.707c0.031,0.006,0.017,0.288-0.09,0.786c-0.116,0.493-0.322,1.216-0.796,2.012
					c-0.466,0.796-1.237,1.638-2.283,2.277c-1.042,0.654-2.386,1.066-3.806,1.064c-2.887,0.032-5.237-1.685-6.104-3.309
					c-0.459-0.809-0.642-1.541-0.728-2.041c-0.084-0.503-0.076-0.786-0.046-0.79c0.111-0.033,0.168,1.143,1.089,2.639
					c0.892,1.47,3.1,3.008,5.788,2.979c2.698,0.027,4.857-1.565,5.779-3.017C260.663,273.826,260.809,272.672,260.913,272.707z"/>
			</g>
		</g>
		<g>
			<path style="fill:#263238;" d="M236.029,284.445c0.144,0,0.26,2.871,0.26,6.412c0,3.542-0.117,6.412-0.26,6.412
				c-0.144,0-0.26-2.87-0.26-6.412C235.768,287.316,235.885,284.445,236.029,284.445z"/>
		</g>
		<g>
			<g>
				<path style="fill:#263238;" d="M210.908,271.812c0.4,0.471,14.889,19.845,14.889,19.845l-2.04,1.156l-14.868-19.128
					L210.908,271.812z"/>
				<path style="fill:#FFBE9D;" d="M269.114,287.13c0,0-15.242,21.941-16.161,22.372c-1.809,0.849-22.662-17.171-24.651-18.895
					c-0.274-0.366-0.84-1.139-1.95-2.676c0,0-1.645-7.529-3.401-6.95c-1.756,0.578,0.962,3.826-0.181,6.686
					c-1.143,2.86-6.38-3.962-6.59-4.574l-1.351-1.765c0,0-1.416,4.015-1.32,5.692c0.307,5.371,5.389,11.759,5.389,11.759
					s22.821,28.27,38.453,29.147c7.187,0.403,23.289-32.391,23.289-32.391L269.114,287.13z"/>
				<g>
					<path style="fill:#EB996E;" d="M216.075,287.975c-0.071,0.045-0.663-0.766-1.209-1.872c-0.549-1.106-0.834-2.069-0.755-2.098
						c0.083-0.031,0.494,0.869,1.035,1.959C215.684,287.054,216.15,287.928,216.075,287.975z"/>
				</g>
			</g>
			<g>
				<path style="fill:#E8505B;" d="M272.642,276.422c0,0,15.155,6.393,3.572,33.18l-18.348-10.817L272.642,276.422z"/>
				<g>
					<path style="fill:#263238;" d="M272.948,276.898c0,0.018-0.176,0.048-0.506,0.09c-0.328,0.054-0.823,0.042-1.416,0.267
						c-1.208,0.306-2.847,1.216-4.353,2.89c-3.08,3.322-5.654,9.125-8.27,15.512c-0.397,0.957-0.789,1.901-1.16,2.795l-0.115-0.326
						c5.465,2.994,10.206,5.833,13.533,7.989c1.665,1.076,2.983,1.97,3.877,2.607c0.449,0.315,0.789,0.57,1.018,0.744
						c0.229,0.175,0.344,0.273,0.334,0.286c-0.02,0.029-0.532-0.287-1.458-0.873c-0.995-0.621-2.328-1.454-3.956-2.47
						c-3.37-2.074-8.132-4.853-13.596-7.829l-0.204-0.111l0.089-0.216c0.37-0.894,0.76-1.838,1.156-2.796
						c2.618-6.388,5.261-12.225,8.484-15.566c1.575-1.682,3.31-2.581,4.569-2.833c0.617-0.199,1.127-0.155,1.462-0.175
						C272.773,276.875,272.948,276.88,272.948,276.898z"/>
				</g>
			</g>
		</g>
		<g>
			<g>
				<g>
					<g>
						<g>
							<path style="fill:#FFBE9D;" d="M253.95,278.454L253.95,278.454c-3.9,0-7.047-3.186-7.004-7.086
								c0.027-2.434,0.068-4.54,0.068-4.54s-5.63-0.523-6.043-6.094c-0.413-5.571-0.236-18.434-0.236-18.434l0,0
								c6.283-3.172,13.79-2.695,19.622,1.246l0.865,0.585l-0.267,27.386C260.917,275.359,257.792,278.454,253.95,278.454z"/>
						</g>
						<g>
							<g>
								<path style="fill:#263238;" d="M246.872,257.3c-0.002,0.06-0.485,0.101-1.266,0.121c-0.097,0.001-0.21,0.008-0.345-0.024
									c-0.134-0.027-0.299-0.136-0.364-0.298c-0.123-0.324-0.001-0.603,0.059-0.84c0.156-0.523,0.313-1.052,0.478-1.608
									c0.702-2.275,1.363-4.09,1.477-4.055c0.114,0.035-0.363,1.907-1.065,4.182c-0.176,0.552-0.345,1.078-0.511,1.598
									c-0.087,0.245-0.152,0.465-0.108,0.586c0.022,0.109,0.184,0.144,0.386,0.154C246.393,257.174,246.874,257.241,246.872,257.3
									z"/>
							</g>
						</g>
						<g>
							<path style="fill:#FFFFFF;" d="M249.419,257.994c0.771-0.526-2.131,1.307-3.698,1.327c0,0,0.985,1.378,2.556,0.69
								C249.908,259.297,249.419,257.994,249.419,257.994z"/>
						</g>
						<g>
							<path style="fill:#EB996E;" d="M246.999,266.747c0,0,3.541,0.069,7.141-2.514c0,0-1.47,4.119-7.065,3.96L246.999,266.747z"/>
						</g>
					</g>
				</g>
				<g>
					<g>
						<path style="fill:#FFBE9D;" d="M259.782,250.292c0.103-0.039,3.527-0.484,3.204,3.559c-0.323,4.044-4.3,2.38-4.298,2.263
							C258.69,255.998,259.782,250.292,259.782,250.292z"/>
					</g>
					<g>
						<g>
							<path style="fill:#EB996E;" d="M260.04,254.794c0.019-0.012,0.066,0.055,0.181,0.119c0.112,0.062,0.308,0.115,0.526,0.053
								c0.44-0.123,0.854-0.772,0.932-1.499c0.04-0.367-0.009-0.724-0.116-1.024c-0.1-0.306-0.275-0.527-0.487-0.583
								c-0.21-0.067-0.373,0.05-0.431,0.16c-0.063,0.109-0.044,0.191-0.066,0.197c-0.012,0.009-0.081-0.075-0.036-0.239
								c0.023-0.079,0.078-0.171,0.179-0.241c0.103-0.071,0.249-0.1,0.398-0.072c0.31,0.046,0.568,0.356,0.686,0.686
								c0.135,0.333,0.199,0.734,0.154,1.147c-0.091,0.813-0.569,1.542-1.167,1.664c-0.29,0.051-0.521-0.053-0.636-0.159
								C260.04,254.893,260.026,254.801,260.04,254.794z"/>
						</g>
					</g>
				</g>
				<g>
					<path style="fill:#263238;" d="M241.172,242.635c-1.377-0.34-2.349-1.773-2.298-3.191c0.051-1.417,1.029-2.72,2.319-3.31
						c1.29-0.59,2.832-0.508,4.129,0.067c0.391-2.06,2.408-3.683,4.504-3.624c2.096,0.058,4.019,1.791,4.296,3.869
						c0.135-1.076,1.352-1.678,2.435-1.742c1.081-0.065,2.239,0.253,2.941,1.077c0.702,0.824,0.772,2.206-0.026,2.937
						c1.206-0.136,2.479,0.115,3.46,0.829c0.981,0.714,1.629,1.918,1.538,3.128c-0.09,1.21-0.989,2.356-2.177,2.603
						c-0.409,0.085-0.902,0.107-1.122,0.462c-0.122,0.197-0.119,0.443-0.112,0.675c0.039,1.337,0.078,2.674,0.117,4.012
						c-0.707-0.356-1.602,0.156-1.944,0.869c-0.343,0.713-0.285,1.545-0.221,2.333c-0.343,0.516-1.209,0.364-1.584-0.13
						c-0.374-0.494-0.398-1.161-0.405-1.781c-0.027-2.15-0.055-4.301-0.082-6.451c-0.632,0.351-1.444,0.351-2.076,0
						c-0.632-0.351-1.061-1.04-1.098-1.762c-0.908,0.873-2.217,1.31-3.468,1.157c-1.25-0.153-2.416-0.892-3.087-1.957
						c-0.666,0.528-1.341,1.061-2.117,1.407c-0.776,0.346-1.676,0.491-2.479,0.213c-0.803-0.277-1.465-1.042-1.452-1.892
						c0.094-0.081,0.189-0.161,0.283-0.242"/>
				</g>
			</g>
			<g>
				<g>
					<path style="fill:#263238;" d="M242.63,250.76c-0.007,0.403,0.306,0.735,0.699,0.742c0.392,0.007,0.717-0.314,0.724-0.717
						c0.007-0.403-0.306-0.736-0.698-0.742C242.962,250.035,242.637,250.357,242.63,250.76z"/>
					<g>
						<path style="fill:#263238;" d="M241.462,249.952c0.09,0.096,0.623-0.353,1.39-0.382c0.766-0.04,1.335,0.359,1.416,0.255
							c0.04-0.046-0.053-0.222-0.301-0.403c-0.244-0.18-0.658-0.349-1.136-0.327c-0.477,0.022-0.876,0.227-1.104,0.428
							C241.495,249.727,241.418,249.91,241.462,249.952z"/>
					</g>
				</g>
				<g>
					<path style="fill:#263238;" d="M250.964,250.76c-0.007,0.403,0.306,0.735,0.699,0.742c0.392,0.007,0.716-0.314,0.723-0.717
						c0.007-0.403-0.306-0.736-0.698-0.742C251.295,250.035,250.971,250.357,250.964,250.76z"/>
					<g>
						<path style="fill:#263238;" d="M249.949,250.099c0.09,0.096,0.624-0.353,1.39-0.382c0.766-0.04,1.335,0.359,1.416,0.255
							c0.04-0.046-0.052-0.222-0.301-0.403c-0.244-0.18-0.658-0.349-1.136-0.327c-0.477,0.022-0.876,0.227-1.104,0.428
							C249.983,249.874,249.905,250.057,249.949,250.099z"/>
					</g>
				</g>
			</g>
		</g>
	</g>
</g>
</svg>
