<?xml version="1.0" encoding="UTF-8"?>
<svg id="Layer_2" data-name="Layer 2" xmlns="http://www.w3.org/2000/svg" viewBox="0 0 728.5 467.93">
  <defs>
    <style>
      .cls-1 {
      fill: #e64d3d;
      }

      .cls-1, .cls-2, .cls-3, .cls-4, .cls-5, .cls-6, .cls-7, .cls-8, .cls-9, .cls-10, .cls-11, .cls-12, .cls-13, .cls-14 {
        stroke-width: 0px;
      }

      .cls-2 {
        fill: #c78976;
      }

      .cls-4 {
        fill: #e0e0e0;
      }

      .cls-5 {
        fill: #f5f5f5;
      }

      .cls-15 {
        opacity: .3;
      }

      .cls-6 {
        fill: #fff;
      }

      .cls-16 {
        opacity: .75;
      }

      .cls-7 {
        fill: #fafafa;
      }

      .cls-8 {
        fill: #263238;
      }

      .cls-9 {
      fill: #225dd3;
      }

      .cls-10 {
        fill: #ebebeb;
      }

      .cls-11 {
        fill: #ffbe9d;
      }

      .cls-12 {
        fill: #eb996e;
      }

      .cls-13 {
        fill: #455a64;
      }

      .cls-14 {
        fill: #eaeaea;
      }
    </style>
  </defs>
  <g id="Layer_1-2" data-name="Layer 1">
    <g id="Background_Complete" data-name="Background Complete">
      <path class="cls-10" d="M728.5,448.73c-1.02-18.1-17.44-31.57-35.33-28.64-.62.1-1.24.22-1.84.34-14.19,2.94-27.53,9.75-42.16,9.29-23.8-.75-41.49-20.24-65.16-22.47-29.73-2.8-53.38,22.12-83.12,24.87-21.2,1.96-41.73-7.7-63.07-7.44-21.16.25-40.71,10.19-61.85,10.86-23.32.74-44.96-9.8-68.1-12.23-44.72-4.68-90.28,21.13-133.24,9.93-28.74-7.49-49.83-30.42-79.69-33.9-11.52-1.34-22.73.39-33.52,3.8-22.06,6.96-41.24,20.95-55.18,39.41l-4.67,6.18h726.94Z"/>
      <path class="cls-10" d="M717.85,195.76c.68-4.96-6.32-9.04-11.57-9.46-2.51-.2-5.11.18-7.49-.65-5.15-1.79-7.2-8.44-12.22-10.56-3.75-1.58-8.08-.17-11.72,1.66-3.64,1.83-7.24,4.14-11.3,4.4-3.54.23-7.38-1.09-10.47.64-2.31,1.29-3.51,3.95-5.64,5.51-2.08,1.53-4.79,1.86-7.37,2-2.58.14-5.25.17-7.6,1.24s-4.29,3.56-3.8,6.1l89.19-.88Z"/>
      <path class="cls-10" d="M120.48,169.27c.68-4.96-6.32-9.04-11.57-9.46-2.51-.2-5.11.18-7.49-.65-5.15-1.79-7.2-8.44-12.22-10.56-3.75-1.58-8.08-.17-11.72,1.66s-7.24,4.14-11.3,4.4c-3.54.23-7.38-1.09-10.47.64-2.31,1.29-3.51,3.95-5.64,5.51-2.08,1.53-4.79,1.86-7.37,2-2.58.14-5.25.17-7.6,1.24s-4.29,3.56-3.81,6.1l89.19-.88Z"/>
      <polygon class="cls-4" points="293.59 467.93 102.68 467.93 112.58 458.61 303.48 458.61 293.59 467.93"/>
      <polygon class="cls-4" points="622.18 467.93 431.28 467.93 441.17 458.61 632.08 458.61 622.18 467.93"/>
      <g>
        <g>
          <circle class="cls-4" cx="441.58" cy="51.18" r="19.26"/>
          <path class="cls-4" d="M441.57,70.45c-2.6,0-5.13-.51-7.51-1.51-2.3-.97-4.36-2.36-6.13-4.13-1.77-1.77-3.16-3.83-4.13-6.13-1.01-2.38-1.52-4.9-1.52-7.5s.51-5.13,1.52-7.51c.97-2.3,2.36-4.36,4.13-6.13,1.77-1.77,3.83-3.16,6.13-4.13,2.38-1.01,4.9-1.51,7.51-1.51s5.13.51,7.51,1.51c2.3.97,4.36,2.36,6.13,4.13s3.16,3.83,4.13,6.13c1.01,2.38,1.52,4.9,1.52,7.51s-.51,5.13-1.52,7.5c-.97,2.3-2.36,4.36-4.13,6.13-1.77,1.77-3.83,3.16-6.13,4.13-2.38,1.01-4.9,1.51-7.51,1.51Z"/>
        </g>
        <g>
          <path class="cls-4" d="M438.83,94.24c-.11,0-.2-3.56-.2-7.94s.09-7.94.2-7.94.2,3.56.2,7.94-.09,7.94-.2,7.94Z"/>
          <path class="cls-4" d="M438.83,94.26s-.1,0-.16-2.35c-.04-1.5-.06-3.49-.06-5.62s.02-4.12.06-5.62c.06-2.35.13-2.35.16-2.35s.1,0,.16,2.35c.04,1.5.06,3.5.06,5.62s-.02,4.12-.06,5.62c-.06,2.35-.13,2.35-.16,2.35ZM438.83,78.39c-.09.29-.18,3.31-.18,7.91s.09,7.62.18,7.91c.09-.29.18-3.31.18-7.91,0-4.6-.09-7.62-.18-7.91Z"/>
        </g>
        <g>
          <path class="cls-4" d="M427.73,73.87c.1.06-1.71,3.38-4.05,7.41-2.33,4.04-4.3,7.27-4.4,7.21-.1-.06,1.71-3.37,4.05-7.41,2.33-4.04,4.3-7.27,4.4-7.21Z"/>
          <path class="cls-4" d="M419.29,88.51s-.01,0-.01,0c-.03-.02-.09-.05,1.11-2.24.76-1.4,1.81-3.25,2.93-5.2,1.13-1.95,2.21-3.78,3.04-5.14,1.17-1.92,1.33-2.08,1.38-2.08,0,0,0,0,.01,0,.03.02.09.05-1.11,2.24-.77,1.4-1.81,3.25-2.93,5.2-2,3.46-4.22,7.17-4.4,7.22,0,0,0,0,0,0ZM427.71,73.9c-.23.23-1.92,2.96-4.36,7.19-2.44,4.23-3.96,7.05-4.04,7.37.23-.23,1.92-2.96,4.36-7.19,2.44-4.23,3.97-7.05,4.05-7.37Z"/>
        </g>
        <g>
          <path class="cls-4" d="M416.34,66.78c.07.09-1.95,1.81-4.5,3.83-2.55,2.03-4.68,3.61-4.75,3.52-.07-.09,1.94-1.8,4.5-3.83,2.55-2.03,4.68-3.6,4.75-3.52Z"/>
          <path class="cls-4" d="M407.09,74.15s-.02,0-.02-.01c-.02-.03-.06-.08,1.27-1.22.85-.72,2-1.66,3.23-2.65,2.16-1.71,4.55-3.53,4.76-3.53h0s.02,0,.02.01h0s0,.01,0,.02c-.02.18-2.34,2.12-4.51,3.84-1.23.98-2.41,1.89-3.31,2.55-1.15.86-1.39.97-1.45.97ZM416.31,66.8c-.21.06-2.11,1.45-4.71,3.51-2.68,2.13-4.39,3.61-4.49,3.8.21-.05,2.03-1.38,4.72-3.51,2.6-2.07,4.38-3.6,4.49-3.8Z"/>
        </g>
        <g>
          <path class="cls-4" d="M458.05,86.41c-.06.01-.23-.74-.51-1.96-.28-1.21-.67-2.88-1.16-4.71-.49-1.83-.99-3.47-1.36-4.66-.37-1.19-.6-1.93-.54-1.95.05-.02.37.68.81,1.85s.98,2.81,1.48,4.65c.49,1.84.85,3.53,1.05,4.76.2,1.23.28,2,.23,2.01Z"/>
          <path class="cls-4" d="M458.04,86.43c-.07,0-.14-.3-.53-1.97-.26-1.13-.66-2.85-1.16-4.71-.51-1.91-1.02-3.57-1.36-4.66v-.02c-.5-1.58-.6-1.92-.53-1.95.02-.01.06-.02.29.49.15.35.35.83.55,1.37.3.8.89,2.46,1.48,4.65.59,2.19.91,3.93,1.05,4.77.18,1.1.28,1.95.23,2.02,0,0-.01.01-.02.01h0ZM454.49,73.17c0,.14.24.92.54,1.89v.02c.35,1.09.85,2.75,1.37,4.66.5,1.87.9,3.58,1.16,4.72.22.96.41,1.8.48,1.93.02-.12-.04-.79-.24-1.97-.14-.84-.46-2.57-1.05-4.76-.59-2.19-1.18-3.85-1.48-4.65-.42-1.13-.71-1.73-.78-1.83Z"/>
        </g>
        <g>
          <path class="cls-4" d="M477.58,72.55c-.07.08-2.62-2.02-5.69-4.71-3.07-2.68-5.5-4.93-5.43-5.01s2.62,2.02,5.69,4.71c3.07,2.68,5.5,4.93,5.43,5.01Z"/>
          <path class="cls-4" d="M477.58,72.57c-.2,0-3.08-2.43-5.7-4.71-1.48-1.3-2.87-2.54-3.89-3.48-1.6-1.48-1.56-1.53-1.54-1.56,0,0,0,0,.02,0h0c.2,0,3.08,2.43,5.7,4.72,1.48,1.3,2.87,2.53,3.89,3.48,1.6,1.48,1.56,1.53,1.54,1.56h0s0,0-.02,0c0,0,0,0,0,0ZM466.49,62.85c.14.24,2.19,2.16,5.41,4.97,3.22,2.82,5.39,4.59,5.65,4.7-.14-.24-2.19-2.16-5.41-4.97-3.22-2.82-5.39-4.59-5.65-4.7Z"/>
        </g>
        <g>
          <path class="cls-4" d="M485.06,53.5c-.01.06-.9-.1-2.32-.33-1.43-.24-3.4-.54-5.59-.79-2.19-.25-4.18-.4-5.63-.49-1.44-.09-2.34-.14-2.34-.2,0-.05.9-.11,2.35-.09,1.45.02,3.46.12,5.66.38,2.2.25,4.18.61,5.6.92,1.42.31,2.28.56,2.27.62Z"/>
          <path class="cls-4" d="M485,53.53c-.17,0-.64-.08-1.8-.27l-.46-.08c-1.95-.33-3.83-.59-5.59-.79-1.75-.2-3.64-.36-5.62-.49l-.46-.03c-1.59-.1-1.9-.13-1.9-.19,0,0,0-.01,0-.02.07-.07,1.1-.1,2.36-.09,1,.01,3.07.08,5.66.38,2.6.3,4.62.7,5.6.92,1.23.27,2.23.54,2.28.62,0,0,0,.01,0,.02h0s-.03.03-.09.03ZM469.23,51.68c.14.04.86.09,1.84.15l.46.03c1.98.13,3.88.29,5.63.49,1.76.2,3.64.47,5.59.79l.46.08c.93.15,1.62.27,1.8.27,0,0,.01,0,.02,0-.14-.07-.93-.3-2.24-.59-.98-.21-3-.62-5.6-.92-2.59-.3-4.66-.36-5.66-.37-1.34-.01-2.16.03-2.31.07Z"/>
        </g>
        <g>
          <path class="cls-4" d="M485.09,34.76c.03.11-4.14,1.22-9.31,2.48-5.17,1.26-9.38,2.19-9.41,2.08-.03-.11,4.14-1.22,9.31-2.48,5.17-1.26,9.38-2.19,9.41-2.08Z"/>
          <path class="cls-4" d="M466.41,39.35c-.06,0-.06-.01-.06-.02,0-.03-.02-.1,2.72-.83,1.76-.47,4.11-1.06,6.61-1.67s4.86-1.16,6.63-1.56c2.78-.61,2.79-.55,2.8-.51h0s.02.1-2.72.83c-1.76.47-4.1,1.06-6.61,1.67-2.5.61-4.86,1.16-6.64,1.56-2.03.45-2.58.54-2.74.54ZM485.05,34.77c-.38,0-3.95.77-9.36,2.09s-8.94,2.27-9.28,2.45c.38,0,3.95-.77,9.36-2.09,5.41-1.32,8.94-2.27,9.27-2.45Z"/>
        </g>
        <g>
          <path class="cls-4" d="M463.32,12.94c.09.06-1.9,3.24-4.45,7.11-2.55,3.87-4.7,6.95-4.79,6.89-.09-.06,1.9-3.24,4.46-7.11,2.55-3.86,4.7-6.95,4.79-6.89Z"/>
          <path class="cls-4" d="M454.08,26.95s0,0-.01,0c0,0,0,0-.01-.02-.04-.18,2.27-3.81,4.46-7.12,1.24-1.87,2.42-3.62,3.32-4.91,1.39-2,1.47-2,1.5-1.98h0s.09.06-1.23,2.16c-.84,1.34-1.98,3.11-3.22,4.98-1.23,1.87-2.41,3.61-3.32,4.92-1.27,1.82-1.44,1.98-1.49,1.98ZM463.3,12.97c-.25.21-2.08,2.82-4.76,6.86-2.68,4.05-4.35,6.76-4.45,7.06.25-.21,2.08-2.81,4.76-6.86,2.68-4.05,4.35-6.75,4.45-7.07Z"/>
        </g>
        <g>
          <path class="cls-4" d="M441.72,8.38c.06,0,.05,1.01.03,2.64-.02,1.63-.05,3.88-.05,6.37,0,2.49.04,4.74.07,6.37.03,1.63.04,2.64-.02,2.64-.05,0-.16-1-.26-2.63-.1-1.63-.18-3.89-.19-6.38,0-2.49.08-4.75.17-6.38.1-1.63.2-2.64.26-2.63Z"/>
          <path class="cls-4" d="M441.74,26.43s-.06-.03-.13-.72c-.05-.49-.1-1.16-.15-1.93-.07-1.1-.18-3.39-.19-6.38,0-2.99.11-5.28.17-6.38.05-.77.1-1.44.14-1.93.07-.69.11-.72.13-.72h0c.06,0,.08.25.05,2.67-.02,1.54-.05,3.86-.05,6.37,0,2.44.04,4.65.07,6.27v.1c.04,2.42.02,2.66-.04,2.66,0,0,0,0,0,0ZM441.72,8.42c-.05.17-.15,1.09-.24,2.59-.07,1.1-.17,3.39-.17,6.38,0,3,.12,5.28.19,6.38.09,1.51.19,2.42.24,2.59.04-.22.02-1.64,0-2.6v-.1c-.03-1.62-.06-3.83-.07-6.27,0-2.51.03-4.83.05-6.37.01-.96.04-2.38,0-2.6Z"/>
        </g>
        <g>
          <path class="cls-4" d="M425.36,28.75c-.1.06-2.12-3.09-4.53-7.03-2.41-3.94-4.28-7.18-4.19-7.24.1-.06,2.12,3.09,4.53,7.03,2.41,3.94,4.28,7.18,4.18,7.24Z"/>
          <path class="cls-4" d="M425.36,28.77s-.21-.16-1.42-2.03c-.86-1.33-1.97-3.11-3.13-5.01-2.07-3.38-4.23-7.07-4.19-7.25,0,0,0-.01.01-.02.03-.02.09-.06,1.43,2.02.86,1.33,1.97,3.11,3.13,5.01,1.16,1.9,2.24,3.71,3.03,5.07,1.24,2.14,1.18,2.17,1.15,2.19h0s0,0-.01,0ZM416.67,14.52c.09.31,1.66,3.07,4.18,7.2,2.52,4.13,4.26,6.78,4.49,7-.09-.31-1.66-3.07-4.18-7.19-2.52-4.13-4.25-6.78-4.49-7Z"/>
        </g>
        <g>
          <path class="cls-4" d="M415.59,37.05c-.01.05-.8-.06-2.05-.33s-2.97-.68-4.84-1.24c-1.87-.55-3.55-1.13-4.74-1.59-1.2-.46-1.92-.79-1.9-.84.02-.05.78.18,1.99.57,1.21.39,2.89.92,4.76,1.47,1.86.55,3.57,1.01,4.8,1.35,1.23.33,1.99.55,1.98.6Z"/>
          <path class="cls-4" d="M415.53,37.09c-.08,0-.22-.01-.5-.06-.38-.06-.9-.16-1.49-.28-.85-.18-2.6-.57-4.85-1.24-2.24-.66-3.93-1.28-4.74-1.59-.57-.22-1.05-.42-1.4-.57-.52-.24-.51-.27-.5-.29.02-.06.29,0,2.02.56.98.31,2.79.89,4.76,1.47,1.8.53,3.42.97,4.8,1.35,1.75.47,2.01.56,1.99.63h0s0,.03-.08.03ZM402.1,33.08c.1.08.7.36,1.87.81.81.31,2.5.93,4.74,1.59,2.24.66,4,1.06,4.84,1.24,1.21.25,1.82.34,1.98.34.01,0,.02,0,.03,0-.14-.08-1.14-.36-1.95-.58-1.38-.37-3-.82-4.8-1.35-1.97-.58-3.79-1.16-4.76-1.47-.76-.24-1.79-.57-1.95-.57Z"/>
        </g>
        <g>
          <path class="cls-4" d="M411.33,51.85c.01.11-2.74.47-6.15.79-3.41.33-6.17.5-6.19.39-.01-.11,2.74-.47,6.15-.79,3.4-.33,6.17-.5,6.19-.39Z"/>
          <path class="cls-4" d="M399.34,53.09c-.21,0-.33-.01-.36-.03,0,0-.01-.01-.01-.02,0,0,0-.01,0-.02.12-.14,3.26-.52,6.16-.79,2.9-.28,6.05-.51,6.2-.39,0,0,.01.01.01.02h0s0,.01,0,.02c-.12.14-3.26.52-6.16.79-2.37.23-4.91.42-5.84.42ZM399.02,53.04c.22.07,2.58-.07,6.15-.41,3.58-.34,5.92-.66,6.12-.77-.22-.07-2.58.07-6.15.41-3.58.34-5.92.66-6.12.77Z"/>
        </g>
      </g>
      <path class="cls-10" d="M368.72,63.02c.79-5.74-7.31-10.46-13.39-10.95-2.9-.23-5.92.21-8.67-.75-5.96-2.08-8.34-9.77-14.15-12.22-4.35-1.83-9.35-.2-13.56,1.92-4.21,2.12-8.38,4.79-13.08,5.09-4.09.26-8.54-1.26-12.12.74-2.67,1.49-4.07,4.57-6.53,6.38-2.41,1.78-5.55,2.15-8.53,2.31-2.99.16-6.08.19-8.8,1.44-2.72,1.25-4.97,4.12-4.4,7.06l103.23-1.02Z"/>
      <path class="cls-5" d="M241,31.92c.37-2.69-3.43-4.9-6.28-5.13-1.36-.11-2.77.1-4.06-.35-2.79-.97-3.91-4.58-6.63-5.73-2.04-.86-4.38-.09-6.35.9-1.97.99-3.93,2.24-6.13,2.38-1.92.12-4-.59-5.68.35-1.25.7-1.91,2.14-3.06,2.99-1.13.83-2.6,1.01-4,1.08s-2.85.09-4.12.67c-1.27.58-2.33,1.93-2.06,3.31l48.38-.48Z"/>
    </g>
    <g id="Floor">
      <path class="cls-8" d="M688.55,447c0,.14-144.62.26-322.97.26s-323-.12-323-.26,144.59-.26,323-.26,322.97.12,322.97.26Z"/>
    </g>
    <g id="Trees">
      <g>
        <g>
          <path class="cls-2" d="M105.99,100.84s-24.04,138.32-14.29,345.95h23.89s-20.21-245.3-1.4-345l-8.2-.96Z"/>
          <path class="cls-8" d="M105.01,307.88c.04.15-2.95.9-6.71.7-3.76-.18-6.66-1.23-6.6-1.37.05-.19,2.96.56,6.63.74,3.67.2,6.64-.25,6.67-.06Z"/>
          <path class="cls-8" d="M102.24,281.89c.03.17-2.49.66-5.64.65-3.15,0-5.67-.49-5.64-.66.02-.18,2.54.03,5.64.02,3.1,0,5.62-.2,5.64-.02Z"/>
          <path class="cls-8" d="M104.37,251.21c.04.16-2.24.83-5.14.89-2.91.07-5.21-.5-5.18-.66.03-.18,2.33.1,5.16.02,2.83-.05,5.12-.44,5.16-.26Z"/>
          <path class="cls-8" d="M101.81,223.26c.02.16-2.15.54-4.84.32-2.69-.21-4.78-.92-4.73-1.08.05-.18,2.15.24,4.78.45,2.63.22,4.78.13,4.79.32Z"/>
          <path class="cls-8" d="M103.3,193.78c.01.17-1.47.4-3.28.12-1.81-.27-3.16-.92-3.1-1.08.06-.17,1.46.2,3.2.45,1.74.27,3.18.32,3.19.51Z"/>
          <path class="cls-8" d="M104.69,161c.01.17-1.41.4-3.17.29-1.76-.1-3.15-.5-3.11-.67.03-.18,1.43-.07,3.15.03,1.72.1,3.12.16,3.13.34Z"/>
          <path class="cls-8" d="M110.03,128.3c-.02.16-1.36.15-2.99-.21-1.62-.39-2.83-.96-2.78-1.12.06-.18,1.36.12,2.93.5,1.57.35,2.88.65,2.85.83Z"/>
          <path class="cls-8" d="M102,336.67c0,.18-2.21.32-4.93.32s-4.93-.14-4.93-.32,2.21-.32,4.93-.32c2.72,0,4.93.14,4.93.32Z"/>
          <path class="cls-8" d="M109.1,360.53c0,.18-2.21.32-4.93.32s-4.93-.14-4.93-.32,2.21-.32,4.93-.32,4.93.14,4.93.32Z"/>
        </g>
        <g>
          <path class="cls-13" d="M183.85.04c-.33.09-.71.22-1.12.38-8.26,3.14-32.34,18.06-32.34,18.06l-3.04-3.51-.65,11.68-13.1,17.97-4.43-13.67c-1.87,2.51-1.16,22.55-1.16,22.55l-4.57,16.93-7.82-17.98c-3.88,10.28,3.77,30.87,3.77,30.87l-8.07,19.59c-5.89-10.64-13.07-44.95,6.99-75.08C138.37-2.29,183.85.04,183.85.04Z"/>
          <path class="cls-8" d="M182.04.9s-.13.03-.37.05c-.28.02-.64.05-1.09.08-.96.09-2.37.09-4.18.3-3.62.36-8.85,1.12-15.09,2.95-6.21,1.85-13.46,4.81-20.64,9.51-3.58,2.37-7.12,5.17-10.5,8.4-3.31,3.29-6.44,6.99-9.16,11.13-5.29,8.38-8.5,17.43-10.01,25.88-.8,4.22-1.25,8.29-1.43,12.1-.24,3.82-.19,7.38-.12,10.63.24,6.5.78,11.75,1.22,15.37.19,1.81.4,3.21.51,4.16.05.45.09.81.12,1.08.02.25.03.37.02.37s-.04-.12-.08-.36c-.05-.28-.11-.63-.18-1.08-.15-.95-.4-2.34-.63-4.15-.51-3.61-1.13-8.86-1.42-15.38-.1-3.26-.18-6.84.04-10.68.17-3.84.6-7.93,1.38-12.18,1.49-8.51,4.71-17.65,10.05-26.11,2.75-4.18,5.92-7.91,9.26-11.23,3.41-3.25,7-6.06,10.61-8.44,7.26-4.72,14.57-7.65,20.84-9.46,6.29-1.79,11.56-2.48,15.19-2.77,1.82-.17,3.24-.14,4.2-.18.45,0,.81-.01,1.09-.02.24,0,.37,0,.37.01Z"/>
          <path class="cls-13" d="M106.32,103.14l-.88-1.16s22.39-42.55,63.77-45.96c41.38-3.41,64.02,18.39,69.13,22.85,5.11,4.47,18.5,20.75,18.5,20.75l-27.51-7.09s-18.5-21.27-28.48-22.59c0,0,25.31,24.16,29.21,40.97,0,0-18.74-7.62-22.39-7.62,0,0-9.49-15.86-21.42-20.01l10.71,16.07-24.83-6.83-8.79-8.29-1.43,6.72s-22.24-5.4-55.59,12.19Z"/>
          <path class="cls-13" d="M106.32,102.98c.3-.06.64-.11,1.03-.16,7.69-.88,32.41,1.43,32.41,1.43l.99-4.25,5.12,9.57,17.34,9.57-1.94-13.41c2.45,1.32,9.82,18.51,9.82,18.51l10.26,12.33-1-18.49c7.09,7.01,9.26,27.64,9.26,27.64l14.38,15.31c.39-11.48-7.88-45.71-35.46-62.56-27.58-16.85-62.2,4.52-62.2,4.52Z"/>
          <path class="cls-13" d="M106.37,102.85c-4-7.88-20.15-24.19-20.15-24.19l4.63-4.03-10.47.6-18.92-11.27,8.63-6.29c-2.7-1.59-18.69,2.06-18.69,2.06l-15.62-4.17,11.4-6.48c-10.64-2.76-24.65,3.82-24.65,3.82L0,47.95c9.95-6.99,45.39-24.43,77.48-7.69,32.1,16.74,32.77,62.09,32.77,62.09"/>
          <path class="cls-13" d="M108.45,101.99c-.28-.13-1.71,1-2.08.87-7.49-2.68-27.03,1.06-27.03,1.06l.03-4.61-7.4,8.68-19.62,5.86,5.13-13.38c-2.77.8-14.23,16.83-14.23,16.83l-14.62,13.54,5.4-18.84c-3.66,4.52-14.43,23.17-14.43,23.17l-18.03,12.46c2.34-11.93,15.92-52.48,47.53-63.49,31.61-11.01,59.36,17.86,59.36,17.86Z"/>
          <path class="cls-8" d="M195.1,66.56s-.34-.1-.98-.29c-.64-.19-1.6-.44-2.85-.63-1.25-.2-2.8-.33-4.6-.36-1.8-.06-3.86.08-6.13.13-9.06.37-21.62,2.51-34.41,7.91-6.4,2.67-12.17,5.95-17.16,9.28-.63.42-1.24.82-1.85,1.23-.6.42-1.17.86-1.74,1.28-1.13.86-2.26,1.66-3.3,2.49-2.04,1.73-4,3.26-5.62,4.86-.83.78-1.62,1.51-2.37,2.21-.71.74-1.38,1.43-2,2.08-1.26,1.3-2.33,2.42-3.14,3.41-.81.93-1.45,1.67-1.92,2.21-.44.5-.69.76-.7.75-.02-.01.19-.3.61-.82.45-.57,1.07-1.33,1.84-2.29.78-1.01,1.83-2.16,3.07-3.49.62-.66,1.26-1.39,1.98-2.12.74-.71,1.53-1.46,2.35-2.25,1.61-1.63,3.57-3.18,5.6-4.94,1.04-.85,2.17-1.66,3.3-2.53.57-.43,1.14-.88,1.74-1.3.61-.41,1.23-.82,1.86-1.25,5-3.38,10.79-6.7,17.23-9.38,12.87-5.43,25.52-7.52,34.63-7.78,2.28-.02,4.35-.13,6.16-.04,1.81.07,3.38.23,4.63.47,1.26.23,2.21.52,2.85.75.32.11.55.21.71.28.16.07.24.11.23.12Z"/>
          <path class="cls-8" d="M180.81,55.07s-.33.03-.95.04c-.62.02-1.53-.03-2.7.02-2.34.04-5.74.25-9.88.91-8.26,1.26-19.51,4.85-30.24,11.85-10.74,7-18.71,15.63-23.82,22.24-2.57,3.31-4.5,6.11-5.79,8.07-.66.97-1.13,1.75-1.48,2.26-.34.52-.53.78-.55.77-.02-.01.14-.3.44-.83.31-.53.75-1.33,1.39-2.33,1.23-2,3.11-4.85,5.65-8.21,5.05-6.7,13.02-15.44,23.83-22.48,10.81-7.05,22.18-10.61,30.5-11.77,4.17-.61,7.59-.76,9.94-.73,1.18-.02,2.09.07,2.71.09.62.03.94.06.94.08Z"/>
          <path class="cls-8" d="M154.57,93s-.7-.02-1.96-.13c-1.26-.11-3.08-.26-5.33-.33-2.25-.07-4.93-.04-7.91.12-.74.04-1.51.09-2.29.14-.79.04-1.55.1-2.34.26-1.59.29-3.21.7-4.91,1.07-1.69.31-3.27.81-4.8,1.35-1.53.54-3,1.08-4.39,1.61-2.79,1.06-5.26,2.1-7.33,3-1.99.89-3.63,1.63-4.88,2.18-1.15.52-1.79.81-1.81.77,0-.02.14-.11.43-.28.29-.17.72-.4,1.28-.7,1.12-.59,2.75-1.41,4.81-2.36,2.05-.95,4.52-2.03,7.31-3.12,1.39-.55,2.86-1.1,4.39-1.65,1.53-.55,3.17-1.07,4.87-1.38,1.68-.36,3.31-.77,4.93-1.06.8-.16,1.64-.21,2.41-.25.78-.04,1.55-.08,2.29-.12,2.99-.14,5.69-.12,7.95,0,2.26.13,4.08.34,5.34.52.63.09,1.11.17,1.44.24.33.06.5.11.49.13Z"/>
          <path class="cls-8" d="M107.9,94.52s-.13-.25-.31-.73c-.2-.55-.45-1.26-.76-2.14-.16-.47-.34-.99-.54-1.55-.21-.56-.47-1.16-.73-1.81-.54-1.29-1.08-2.79-1.87-4.36-.38-.8-.77-1.63-1.18-2.5-.41-.86-.92-1.73-1.4-2.64-.94-1.84-2.13-3.7-3.34-5.68-2.54-3.89-5.6-7.99-9.19-11.97-3.64-3.94-7.44-7.36-11.08-10.25-1.86-1.39-3.61-2.74-5.36-3.84-.87-.56-1.68-1.15-2.5-1.64-.82-.49-1.62-.95-2.38-1.4-1.49-.93-2.94-1.6-4.17-2.26-.62-.32-1.19-.63-1.73-.89-.54-.24-1.04-.47-1.49-.67-.85-.39-1.53-.71-2.06-.95-.47-.22-.71-.35-.7-.37,0-.02.27.07.75.25.54.22,1.24.5,2.11.84.46.19.97.4,1.52.62.55.24,1.13.54,1.76.85,1.25.63,2.72,1.28,4.24,2.19.77.44,1.57.9,2.41,1.37.83.48,1.66,1.06,2.54,1.62,1.77,1.09,3.54,2.44,5.43,3.82,3.68,2.88,7.53,6.31,11.19,10.28,3.62,4.01,6.69,8.15,9.22,12.08,1.21,2,2.39,3.88,3.31,5.75.47.92.97,1.8,1.38,2.67.4.88.78,1.72,1.15,2.53.77,1.59,1.28,3.11,1.79,4.42.25.66.49,1.26.68,1.83.18.57.34,1.09.48,1.57.27.89.48,1.62.65,2.18.14.5.21.76.18.77Z"/>
          <path class="cls-8" d="M85.76,46.26s.58.47,1.56,1.39c.49.46,1.08,1.03,1.73,1.74.65.7,1.42,1.48,2.18,2.42,1.58,1.82,3.32,4.11,5.09,6.77,1.74,2.68,3.49,5.73,5.05,9.06,1.54,3.35,2.73,6.66,3.65,9.71.88,3.07,1.5,5.88,1.87,8.26.22,1.18.32,2.27.43,3.22.12.95.18,1.77.21,2.44.07,1.35.1,2.09.05,2.09-.04,0-.15-.74-.3-2.07-.07-.67-.16-1.48-.32-2.42-.15-.94-.27-2.02-.53-3.19-.42-2.36-1.08-5.14-1.99-8.17-.94-3.02-2.14-6.29-3.66-9.61-1.55-3.31-3.27-6.34-4.96-9.01-1.73-2.65-3.42-4.95-4.94-6.8-.73-.95-1.47-1.74-2.09-2.46-.62-.73-1.18-1.32-1.64-1.81-.92-.98-1.42-1.53-1.39-1.57Z"/>
          <path class="cls-8" d="M28.64,108.13s.16-.24.52-.66c.37-.41.86-1.06,1.6-1.8,1.42-1.53,3.63-3.62,6.63-5.88,2.99-2.26,6.83-4.6,11.39-6.56,4.56-1.96,9.86-3.46,15.56-4.1,5.7-.59,11.21-.25,16.07.7,4.87.94,9.12,2.42,12.52,3.99,3.4,1.57,6.01,3.14,7.72,4.34.88.57,1.5,1.09,1.95,1.42.44.33.66.52.64.54-.01.02-.26-.13-.72-.43-.47-.29-1.11-.78-2.01-1.32-1.75-1.13-4.37-2.63-7.77-4.13-3.4-1.51-7.62-2.92-12.45-3.82-4.82-.91-10.26-1.22-15.9-.64-5.63.63-10.88,2.09-15.4,4-4.53,1.9-8.35,4.18-11.35,6.38-3.01,2.19-5.25,4.22-6.72,5.69-.76.71-1.29,1.33-1.68,1.71-.39.39-.6.59-.61.58Z"/>
        </g>
      </g>
      <g>
        <g>
          <path class="cls-2" d="M622.51,100.84s24.04,138.32,14.29,345.95h-23.89s20.21-245.3,1.4-345l8.2-.96Z"/>
          <path class="cls-8" d="M623.49,307.88c-.04.15,2.95.9,6.71.7,3.76-.18,6.66-1.23,6.6-1.37-.05-.19-2.96.56-6.63.74-3.67.2-6.64-.25-6.67-.06Z"/>
          <path class="cls-8" d="M626.26,281.89c-.03.17,2.49.66,5.64.65,3.15,0,5.67-.49,5.64-.66-.02-.18-2.54.03-5.64.02-3.1,0-5.62-.2-5.64-.02Z"/>
          <path class="cls-8" d="M624.13,251.21c-.04.16,2.23.83,5.14.89,2.91.07,5.21-.5,5.18-.66-.03-.18-2.33.1-5.16.02-2.83-.05-5.12-.44-5.16-.26Z"/>
          <path class="cls-8" d="M626.68,223.26c-.02.16,2.15.54,4.84.32,2.69-.21,4.78-.92,4.73-1.08-.05-.18-2.16.24-4.78.45-2.63.22-4.78.13-4.79.32Z"/>
          <path class="cls-8" d="M625.2,193.78c-.01.17,1.47.4,3.28.12,1.81-.27,3.16-.92,3.1-1.08-.06-.17-1.46.2-3.2.45-1.74.27-3.18.32-3.19.51Z"/>
          <path class="cls-8" d="M623.81,161c-.01.17,1.41.4,3.17.29,1.76-.1,3.15-.5,3.11-.67-.03-.18-1.43-.07-3.15.03-1.72.1-3.12.16-3.13.34Z"/>
          <path class="cls-8" d="M618.47,128.3c.02.16,1.36.15,2.99-.21,1.62-.39,2.83-.96,2.78-1.12-.05-.18-1.36.12-2.93.5-1.57.35-2.88.65-2.85.83Z"/>
          <path class="cls-8" d="M626.5,336.67c0,.18,2.21.32,4.93.32s4.93-.14,4.93-.32-2.21-.32-4.93-.32c-2.72,0-4.93.14-4.93.32Z"/>
          <path class="cls-8" d="M619.4,360.53c0,.18,2.21.32,4.93.32s4.93-.14,4.93-.32-2.21-.32-4.93-.32-4.93.14-4.93.32Z"/>
        </g>
        <g>
          <path class="cls-13" d="M544.65.04c.33.09.71.22,1.12.38,8.26,3.14,32.34,18.06,32.34,18.06l3.03-3.51.65,11.68,13.1,17.97,4.43-13.67c1.87,2.51,1.16,22.55,1.16,22.55l4.57,16.93,7.82-17.98c3.88,10.28-3.77,30.87-3.77,30.87l8.08,19.59c5.89-10.64,13.07-44.95-6.98-75.08C590.13-2.29,544.65.04,544.65.04Z"/>
          <path class="cls-8" d="M546.46.9s.13.03.37.05c.28.02.64.05,1.09.08.96.09,2.37.09,4.18.3,3.62.36,8.85,1.12,15.09,2.95,6.22,1.85,13.46,4.81,20.64,9.51,3.58,2.37,7.12,5.17,10.5,8.4,3.31,3.29,6.44,6.99,9.16,11.13,5.29,8.38,8.5,17.43,10.01,25.88.8,4.22,1.24,8.29,1.43,12.1.24,3.82.19,7.38.12,10.63-.23,6.5-.78,11.75-1.22,15.37-.19,1.81-.4,3.21-.51,4.16-.05.45-.09.81-.12,1.08-.02.25-.03.37-.02.37s.04-.12.09-.36c.05-.28.11-.63.18-1.08.15-.95.4-2.34.63-4.15.51-3.61,1.13-8.86,1.42-15.38.1-3.26.18-6.84-.04-10.68-.17-3.84-.59-7.93-1.39-12.18-1.49-8.51-4.71-17.65-10.05-26.11-2.75-4.18-5.92-7.91-9.26-11.23-3.41-3.25-7-6.06-10.61-8.44-7.26-4.72-14.57-7.65-20.84-9.46-6.29-1.79-11.56-2.48-15.19-2.77-1.82-.17-3.24-.14-4.2-.18-.45,0-.81-.01-1.09-.02-.24,0-.37,0-.37.01Z"/>
          <path class="cls-13" d="M622.25,103.14l.81-1.16s-20.7-42.55-58.94-45.96c-38.24-3.41-59.16,18.39-63.89,22.85-4.72,4.47-17.1,20.75-17.1,20.75l25.42-7.09s17.1-21.27,26.32-22.59c0,0-23.4,24.16-26.99,40.97,0,0,17.32-7.62,20.7-7.62,0,0,8.77-15.86,19.79-20.01l-9.9,16.07,22.95-6.83,8.12-8.29,1.33,6.72s20.56-5.4,51.38,12.19Z"/>
          <path class="cls-13" d="M622.25,102.98c-.27-.06-.59-.11-.95-.16-7.11-.88-29.95,1.43-29.95,1.43l-.91-4.25-4.73,9.57-16.02,9.57,1.79-13.41c-2.27,1.32-9.08,18.51-9.08,18.51l-9.48,12.33.92-18.49c-6.55,7.01-8.56,27.64-8.56,27.64l-13.29,15.31c-.36-11.48,7.28-45.71,32.78-62.56,25.49-16.85,57.48,4.52,57.48,4.52Z"/>
          <path class="cls-13" d="M622.13,102.85c4-7.88,20.15-24.19,20.15-24.19l-4.63-4.03,10.47.6,18.92-11.27-8.63-6.29c2.7-1.59,18.69,2.06,18.69,2.06l15.62-4.17-11.4-6.48c10.64-2.76,24.65,3.82,24.65,3.82l22.53-4.97c-9.95-6.99-45.39-24.43-77.48-7.69-32.09,16.74-32.77,62.09-32.77,62.09"/>
          <path class="cls-13" d="M620.04,101.99c.28-.13,1.71,1,2.08.87,7.49-2.68,27.03,1.06,27.03,1.06l-.03-4.61,7.4,8.68,19.62,5.86-5.13-13.38c2.77.8,14.23,16.83,14.23,16.83l14.62,13.54-5.4-18.84c3.66,4.52,14.43,23.17,14.43,23.17l18.03,12.46c-2.34-11.93-15.92-52.48-47.53-63.49-31.61-11.01-59.36,17.86-59.36,17.86Z"/>
          <path class="cls-8" d="M540.2,66.56s.31-.1.91-.29c.59-.19,1.47-.44,2.63-.63,1.16-.2,2.59-.33,4.26-.36,1.67-.06,3.57.08,5.67.13,8.37.37,19.98,2.51,31.8,7.91,5.92,2.67,11.25,5.95,15.86,9.28.58.42,1.15.82,1.71,1.23.56.42,1.08.86,1.61,1.28,1.05.86,2.09,1.66,3.05,2.49,1.88,1.73,3.7,3.26,5.19,4.86.77.78,1.5,1.51,2.19,2.21.65.74,1.27,1.43,1.85,2.08,1.16,1.3,2.16,2.42,2.9,3.41.74.93,1.34,1.67,1.77,2.21.41.5.63.76.65.75.02-.01-.18-.3-.56-.82-.42-.57-.98-1.33-1.7-2.29-.72-1.01-1.69-2.16-2.84-3.49-.57-.66-1.17-1.39-1.83-2.12-.69-.71-1.41-1.46-2.17-2.25-1.48-1.63-3.3-3.18-5.17-4.94-.96-.85-2-1.66-3.05-2.53-.53-.43-1.05-.88-1.61-1.3-.56-.41-1.14-.82-1.72-1.25-4.62-3.38-9.97-6.7-15.93-9.38-11.89-5.43-23.59-7.52-32-7.78-2.11-.02-4.02-.13-5.69-.04-1.68.07-3.12.23-4.28.47-1.16.23-2.05.52-2.63.75-.29.11-.51.21-.66.28-.15.07-.22.11-.22.12Z"/>
          <path class="cls-8" d="M553.41,55.07s.3.03.87.04c.57.02,1.41-.03,2.5.02,2.17.04,5.3.25,9.13.91,7.63,1.26,18.03,4.85,27.95,11.85,9.92,7,17.29,15.63,22.02,22.24,2.38,3.31,4.16,6.11,5.35,8.07.61.97,1.05,1.75,1.37,2.26.32.52.49.78.5.77.02-.01-.12-.3-.41-.83-.29-.53-.7-1.33-1.28-2.33-1.14-2-2.87-4.85-5.22-8.21-4.66-6.7-12.03-15.44-22.03-22.48-9.99-7.05-20.5-10.61-28.19-11.77-3.85-.61-7.01-.76-9.18-.73-1.09-.02-1.93.07-2.5.09-.57.03-.87.06-.87.08Z"/>
          <path class="cls-8" d="M573.92,93s.7-.02,1.96-.13c1.26-.11,3.08-.26,5.33-.33,2.25-.07,4.93-.04,7.91.12.74.04,1.51.09,2.29.14.79.04,1.55.1,2.34.26,1.59.29,3.21.7,4.91,1.07,1.69.31,3.27.81,4.8,1.35,1.53.54,3,1.08,4.39,1.61,2.78,1.06,5.26,2.1,7.33,3,1.99.89,3.63,1.63,4.88,2.18,1.15.52,1.79.81,1.81.77,0-.02-.14-.11-.43-.28-.29-.17-.72-.4-1.28-.7-1.12-.59-2.75-1.41-4.8-2.36-2.05-.95-4.52-2.03-7.31-3.12-1.39-.55-2.86-1.1-4.39-1.65-1.53-.55-3.17-1.07-4.87-1.38-1.67-.36-3.31-.77-4.93-1.06-.8-.16-1.64-.21-2.41-.25-.78-.04-1.55-.08-2.29-.12-2.99-.14-5.69-.12-7.95,0-2.26.13-4.08.34-5.34.52-.63.09-1.11.17-1.44.24-.33.06-.5.11-.49.13Z"/>
          <path class="cls-8" d="M620.6,94.52s.13-.25.31-.73c.2-.55.45-1.26.76-2.14.16-.47.34-.99.53-1.55.21-.56.47-1.16.73-1.81.54-1.29,1.08-2.79,1.87-4.36.38-.8.77-1.63,1.18-2.5.41-.86.92-1.73,1.4-2.64.94-1.84,2.13-3.7,3.34-5.68,2.54-3.89,5.6-7.99,9.19-11.97,3.64-3.94,7.45-7.36,11.08-10.25,1.86-1.39,3.61-2.74,5.36-3.84.87-.56,1.68-1.15,2.5-1.64.83-.49,1.62-.95,2.38-1.4,1.49-.93,2.94-1.6,4.17-2.26.62-.32,1.19-.63,1.73-.89.54-.24,1.04-.47,1.49-.67.84-.39,1.53-.71,2.06-.95.47-.22.71-.35.7-.37s-.27.07-.75.25c-.54.22-1.24.5-2.11.84-.46.19-.97.4-1.52.62-.55.24-1.13.54-1.76.85-1.25.63-2.72,1.28-4.23,2.19-.77.44-1.58.9-2.41,1.37-.84.48-1.66,1.06-2.54,1.62-1.77,1.09-3.54,2.44-5.42,3.82-3.68,2.88-7.53,6.31-11.2,10.28-3.62,4.01-6.68,8.15-9.22,12.08-1.21,2-2.39,3.88-3.31,5.75-.47.92-.97,1.8-1.38,2.67-.4.88-.78,1.72-1.15,2.53-.77,1.59-1.28,3.11-1.79,4.42-.24.66-.49,1.26-.68,1.83-.17.57-.34,1.09-.48,1.57-.27.89-.48,1.62-.65,2.18-.14.5-.21.76-.18.77Z"/>
          <path class="cls-8" d="M642.74,46.26s-.58.47-1.56,1.39c-.49.46-1.09,1.03-1.73,1.74-.65.7-1.42,1.48-2.18,2.42-1.58,1.82-3.32,4.11-5.09,6.77-1.73,2.68-3.48,5.73-5.05,9.06-1.53,3.35-2.73,6.66-3.65,9.71-.88,3.07-1.51,5.88-1.87,8.26-.22,1.18-.32,2.27-.43,3.22-.12.95-.18,1.77-.21,2.44-.08,1.35-.09,2.09-.05,2.09.04,0,.15-.74.3-2.07.07-.67.16-1.48.32-2.42.15-.94.27-2.02.53-3.19.42-2.36,1.09-5.14,1.99-8.17.94-3.02,2.14-6.29,3.66-9.61,1.55-3.31,3.27-6.34,4.96-9.01,1.73-2.65,3.42-4.95,4.95-6.8.73-.95,1.47-1.74,2.09-2.46.62-.73,1.18-1.32,1.64-1.81.92-.98,1.42-1.53,1.39-1.57Z"/>
          <path class="cls-8" d="M699.85,108.13s-.16-.24-.52-.66c-.36-.41-.86-1.06-1.6-1.8-1.42-1.53-3.63-3.62-6.63-5.88-2.99-2.26-6.83-4.6-11.39-6.56-4.55-1.96-9.86-3.46-15.55-4.1-5.7-.59-11.21-.25-16.07.7-4.87.94-9.12,2.42-12.52,3.99-3.41,1.57-6.01,3.14-7.72,4.34-.88.57-1.5,1.09-1.95,1.42-.44.33-.66.52-.65.54.01.02.26-.13.72-.43.47-.29,1.11-.78,2.01-1.32,1.75-1.13,4.37-2.63,7.77-4.13,3.4-1.51,7.62-2.92,12.45-3.82,4.82-.91,10.26-1.22,15.9-.64,5.63.63,10.88,2.09,15.4,4,4.53,1.9,8.35,4.18,11.35,6.38,3,2.19,5.25,4.22,6.72,5.69.76.71,1.29,1.33,1.68,1.71.39.39.6.59.61.58Z"/>
        </g>
      </g>
    </g>
    <g id="Van">
      <g>
        <g>
          <g>
            <path class="cls-8" d="M602.58,165.98c0-.48-.02-5.51-.07-17.39l.07.07c-49.02.02-217.38.1-417.23.19h-.02l.26-.26v17.39l-.26-.26c232.17.14,414.45.26,417.25.26-2.8,0-185.08.12-417.25.26h-.26v-17.91h.28c199.85.09,368.21.17,417.23.19h.07v.07c-.05,11.88-.07,16.91-.07,17.39Z"/>
            <g>
              <rect class="cls-9" x="77.89" y="321.06" width="567.34" height="76.1"/>
              <g class="cls-15">
                <rect class="cls-3" x="77.89" y="321.06" width="567.34" height="76.1"/>
              </g>
            </g>
            <g>
              <path class="cls-6" d="M74.66,339.37h0c-6.23,0-11.28-5.05-11.28-11.28v-14.05c0-6.23,5.05-11.28,11.28-11.28h0c1.86,0,3.37,1.51,3.37,3.37v29.88c0,1.86-1.51,3.37-3.37,3.37Z"/>
              <path class="cls-8" d="M74.66,339.37s.32-.01.89-.18c.55-.16,1.39-.59,1.94-1.57.62-.96.35-2.41.39-4.02-.01-1.62-.02-3.46-.04-5.49-.02-4.08-.04-8.92-.06-14.29,0-1.35,0-2.72,0-4.13,0-.7,0-1.42,0-2.13-.02-.71.05-1.47-.08-2.11-.27-1.33-1.54-2.42-2.96-2.43-1.47,0-2.98.27-4.37.86-2.8,1.19-4.97,3.53-5.99,6.2-1.1,2.68-.66,5.58-.76,8.26,0,2.69-.02,5.24-.02,7.64,0,1.2-.04,2.36.07,3.43.11,1.09.42,2.1.78,3.03.8,1.83,1.97,3.29,3.2,4.3,1.24,1.01,2.49,1.63,3.56,1.98,2.16.69,3.46.56,3.45.65,0,0-.08.01-.23.02-.18,0-.41,0-.68,0-.6-.03-1.49-.14-2.59-.46-1.1-.33-2.39-.94-3.68-1.95-1.29-1.01-2.51-2.49-3.36-4.38-.38-.96-.72-2-.84-3.12-.13-1.13-.09-2.29-.1-3.48,0-2.39-.02-4.95-.02-7.64,0-1.35,0-2.72,0-4.13,0-1.43.23-2.91.77-4.31,1.06-2.8,3.33-5.25,6.26-6.5,1.47-.62,3.03-.92,4.59-.9,1.65.02,3.13,1.28,3.44,2.83.15.8.06,1.5.08,2.22,0,.72,0,1.43,0,2.13,0,1.41,0,2.79,0,4.13-.02,5.37-.04,10.21-.06,14.29-.01,2.03-.03,3.87-.04,5.49,0,.8-.01,1.56-.02,2.25.01.71-.18,1.37-.48,1.86-.61,1.02-1.51,1.43-2.09,1.57-.6.14-.92.08-.92.08Z"/>
            </g>
            <path class="cls-1" d="M73.6,396.21v-54.78s2.42-46.05,5.66-68.28c3.23-22.23,25.01-111.06,80.76-113.44,49.79-2.13,381.55,1.35,449.14,1.63,11.52.05,22.82,3.19,32.53,9.27,11.91,7.46,17.64,20.09,18.51,39.18,1.62,35.73.72,189.74.72,189.74h-81.11l-4.16-27.81c-5.37-15.77-20.37-26.42-37.3-26.47l-27.12-.07c-18.68-.05-34.84,12.78-38.7,30.74l-5.08,23.61h-184.55l-2.25-21.18c-9.5-21.92-31.53-36.05-55.78-35.76h0c-24.67.29-46.62,15.42-55.31,38.1l-5.94,15.52h-90.01Z"/>
            <g class="cls-15">
              <polygon class="cls-6" points="660.7 344.85 73.6 344.85 74.92 320.66 660.7 320.66 660.7 344.85"/>
            </g>
            <path class="cls-8" d="M651.57,179.32c0,.14-119.32.26-266.47.26s-266.5-.12-266.5-.26,119.29-.26,266.5-.26,266.47.12,266.47.26Z"/>
            <g>
              <path class="cls-4" d="M263.8,266.22H127.84c-3.29,0-5.65-2.92-4.69-5.81l21.22-63.87c1.15-3.46,4.62-5.82,8.56-5.82h114.47c2.7,0,4.88,1.99,4.9,4.47l.45,62.76c.03,4.56-3.98,8.26-8.95,8.26Z"/>
              <path class="cls-8" d="M263.8,266.22s.09-.01.27-.03c.18-.02.45-.01.81-.07.71-.09,1.77-.29,3.03-.89,1.24-.6,2.7-1.67,3.73-3.43.51-.88.88-1.93.98-3.1.07-1.16,0-2.43,0-3.76-.1-10.67-.23-26.08-.4-45.13-.05-4.76-.09-9.74-.14-14.94-.09-1.24-.84-2.4-1.89-3.1-.53-.36-1.13-.61-1.76-.74-.62-.14-1.29-.1-1.97-.1-2.7,0-5.45,0-8.26,0-11.2,0-23.17.02-35.77.02-12.6,0-25.82,0-39.52.01-6.85,0-13.83,0-20.9,0-1.77,0-3.54,0-5.33,0h-2.68c-.9,0-1.78-.02-2.64.13-1.72.28-3.37,1.06-4.65,2.26-.64.6-1.18,1.3-1.6,2.07-.42.76-.65,1.64-.95,2.5-4.59,13.8-9.07,27.27-13.39,40.28-2.16,6.5-4.29,12.89-6.37,19.15-.26.78-.52,1.56-.78,2.34-.27.79-.52,1.52-.45,2.29.12,1.54,1.19,2.92,2.6,3.53.71.32,1.46.44,2.25.43.8,0,1.6,0,2.4,0,1.59,0,3.18,0,4.75,0,25.19.02,47.88.04,66.93.06,19.05.04,34.46.06,45.12.08,5.32.02,9.45.04,12.27.05,1.39.01,2.46.02,3.19.03.72,0,1.09.03,1.09.03,0,0-.37.02-1.09.03-.73,0-1.8.02-3.19.03-2.82.01-6.95.03-12.27.05-10.66.02-26.08.05-45.12.08-19.06.02-41.74.04-66.93.06-1.57,0-3.16,0-4.75,0-.8,0-1.6,0-2.4,0-.82,0-1.68-.13-2.45-.48-1.55-.66-2.76-2.2-2.9-3.93-.08-.87.21-1.74.47-2.49.26-.78.52-1.56.78-2.34,2.08-6.26,4.2-12.65,6.36-19.15,4.32-13.01,8.8-26.48,13.38-40.28.3-.85.52-1.75.98-2.58.44-.83,1.02-1.57,1.7-2.21,1.36-1.27,3.11-2.09,4.92-2.39.91-.16,1.84-.14,2.72-.14h2.68c1.78,0,3.56,0,5.33,0,7.08,0,14.05,0,20.9,0,13.71,0,26.93,0,39.52.01,12.6,0,24.56.02,35.77.02,2.8,0,5.55,0,8.26,0,.67,0,1.36-.03,2.05.12.68.14,1.33.41,1.9.8,1.14.76,1.96,2.04,2.06,3.4.04,5.21.07,10.2.11,14.97.1,19.04.18,34.46.24,45.13-.01,1.34.05,2.58-.03,3.78-.11,1.19-.5,2.27-1.02,3.16-1.07,1.79-2.56,2.86-3.82,3.45-1.28.59-2.36.78-3.07.85-.72.05-1.09.04-1.09.04Z"/>
            </g>
            <path class="cls-4" d="M469.27,266.5h-148.45c-4.86,0-8.81-3.94-8.81-8.81v-58.14c0-4.87,3.94-8.81,8.81-8.81h148.45c4.86,0,8.81,3.94,8.81,8.81v58.14c0,4.86-3.94,8.81-8.81,8.81Z"/>
            <g>
              <path class="cls-13" d="M638.37,266.49h-122.14c-4.94,0-8.95-4.01-8.95-8.95v-57.87c0-4.94,4.01-8.95,8.95-8.95h122.14c4.37,0,7.91,3.54,7.91,7.91v59.94c0,4.37-3.54,7.91-7.91,7.91Z"/>
              <path class="cls-8" d="M638.37,266.49s.09-.01.27-.03c.18-.02.45,0,.79-.08.69-.09,1.75-.33,2.93-1.04,1.17-.69,2.48-1.92,3.25-3.78.85-1.86.51-4.26.57-6.87-.02-10.51-.05-25.7-.08-44.47,0-2.35,0-4.75,0-7.21,0-1.23,0-2.47,0-3.73.03-1.25-.12-2.48-.61-3.64-.5-1.14-1.27-2.18-2.26-2.99-1-.79-2.19-1.37-3.47-1.59-1.27-.21-2.64-.1-3.99-.13-1.36,0-2.72,0-4.1,0-11.04,0-22.84.02-35.25.02-24.82.01-52.1.03-80.74.05-3.5.18-6.68,2.69-7.7,5.99-.25.82-.41,1.67-.41,2.53v2.64c0,1.76,0,3.51,0,5.25,0,6.98,0,13.85,0,20.61,0,6.76,0,13.39,0,19.89,0,3.25,0,6.46,0,9.64,0,3.11,1.76,6.09,4.42,7.55,2.66,1.62,5.88,1.02,8.87,1.14,3.02,0,6.01,0,8.95,0,5.88,0,11.59,0,17.11.01,11.04.01,21.32.02,30.71.03,18.77.04,33.96.06,44.47.08,5.24.02,9.32.04,12.09.05,1.37.01,2.42.02,3.14.03.71,0,1.07.02,1.07.02,0,0-.36.02-1.07.03-.72,0-1.77.01-3.14.03-2.78.01-6.85.03-12.09.05-10.51.02-25.7.05-44.47.08-9.39.01-19.67.02-30.71.03-5.52,0-11.23,0-17.11.01-2.94,0-5.92,0-8.95,0-1.51,0-3.03,0-4.57,0-1.57-.01-3.16-.4-4.54-1.19-2.8-1.54-4.67-4.69-4.67-7.97,0-3.18,0-6.39,0-9.64,0-6.5,0-13.13,0-19.89,0-6.76,0-13.63,0-20.61,0-1.74,0-3.49,0-5.25v-2.64c.02-.91.18-1.81.44-2.68.57-1.73,1.65-3.3,3.09-4.42,1.44-1.13,3.23-1.83,5.07-1.93,28.65,0,55.95,0,80.78,0,12.41,0,24.21.02,35.25.02,1.38,0,2.75,0,4.1,0,1.35.03,2.69-.09,4.06.14,1.35.23,2.6.85,3.65,1.68,1.04.85,1.85,1.95,2.37,3.15.52,1.21.67,2.55.63,3.8,0,1.26,0,2.5,0,3.73,0,2.46,0,4.86,0,7.21-.03,18.77-.06,33.96-.08,44.47,0,1.31,0,2.55-.01,3.72,0,1.17-.22,2.27-.61,3.21-.8,1.89-2.15,3.12-3.34,3.81-1.2.71-2.27.93-2.97,1.01-.7.08-1.07.05-1.07.05Z"/>
            </g>
            <path class="cls-8" d="M141.99,179.32s-.08.31-.27.92c-.19.61-.47,1.51-.83,2.7-.74,2.38-1.84,5.88-3.25,10.43-2.86,9.1-7.02,22.34-12.24,38.96-2.62,8.31-5.5,17.47-8.62,27.37-1.53,4.96-3.34,10.04-4.38,15.51-1.1,5.45-1.67,11.18-1.65,17.1-.05,23.7-.11,50.12-.18,78.46l-.25-.25c11.38,0,23.2,0,35.35,0,6.07,0,12.23,0,18.44,0h1.77c.07-.05-.49.49-.25.25v-.04s0-.07,0-.07v-.15s.02-.29.02-.29l.11-2.36c.04-.79.2-1.56.3-2.35l.17-1.17c.08-.39.18-.77.27-1.15.64-3.1,1.85-6.08,3.39-8.88,2.28-4.08,5.41-7.66,9.15-10.37,3.77-2.67,8.13-4.46,12.64-5.13,1.12-.23,2.26-.24,3.39-.31,1.14-.09,2.25-.03,3.38-.05,2.24,0,4.48,0,6.7,0,4.45,0,8.86,0,13.24,0,8.75,0,17.34,0,25.76,0,4.21,0,8.37,0,12.49,0,2.05-.01,4.11.03,6.13-.03,2.02,0,3.98-.48,5.86-1.1,3.75-1.33,6.97-3.83,9.32-6.91,1.17-1.55,2.1-3.24,2.84-5.01.66-1.79,1.24-3.61,1.43-5.49.27-1.86.23-3.75.23-5.63,0-1.88,0-3.74,0-5.58,0-3.69,0-7.33,0-10.9.01-14.3.02-27.61.03-39.77.04-24.31.06-43.98.08-57.59.02-6.79.04-12.07.05-15.66.01-1.78.02-3.15.03-4.07,0-.92.03-1.39.03-1.39,0,0,.02.47.03,1.39,0,.93.01,2.29.03,4.07.01,3.59.03,8.86.05,15.66.02,13.61.05,33.28.08,57.59.01,12.16.02,25.48.03,39.77,0,3.57,0,7.21,0,10.9,0,1.85,0,3.71,0,5.58,0,1.87.05,3.78-.23,5.69-.2,1.92-.78,3.78-1.46,5.61-.76,1.8-1.71,3.53-2.9,5.11-2.4,3.14-5.69,5.71-9.53,7.07-1.92.64-3.94,1.13-6.01,1.13-2.05.06-4.08.02-6.14.03-4.12,0-8.28,0-12.49,0-8.41,0-17.01,0-25.76,0-4.37,0-8.79,0-13.24,0-2.22,0-4.46,0-6.7,0-1.12.02-2.25-.04-3.36.05-1.11.07-2.23.07-3.33.3-4.43.67-8.71,2.42-12.41,5.04-3.68,2.66-6.76,6.18-9,10.2-1.51,2.75-2.7,5.68-3.34,8.74-.09.38-.19.76-.27,1.14l-.16,1.15c-.09.77-.26,1.54-.29,2.31l-.11,2.32v.29s-.02.14-.02.14v.07s0,.04,0,.04c.23-.23-.31.33-.27.27h-1.77c-6.22,0-12.37,0-18.44,0-12.15,0-23.97,0-35.35,0h-.25v-.25c.09-28.34.18-54.76.25-78.46-.01-5.94.57-11.71,1.68-17.18,1.05-5.5,2.88-10.59,4.42-15.54,3.14-9.89,6.04-19.04,8.68-27.35,5.28-16.6,9.49-29.83,12.38-38.92,1.45-4.53,2.57-8.03,3.33-10.4.38-1.18.67-2.07.87-2.68.2-.6.31-.91.31-.91Z"/>
            <path class="cls-8" d="M492.02,348.31c-.14,0-.26-37.83-.26-84.49s.12-84.5.26-84.5.26,37.82.26,84.5c0,46.66-.12,84.49-.26,84.49Z"/>
            <g>
              <path class="cls-4" d="M78.75,277.82h16.5c3.07,0,5.82-1.94,6.84-4.84l25.91-73.49c1.66-4.72-1.84-9.66-6.84-9.66h-11.13s-14.14,21.23-23.94,52.05c-9.32,29.33-7.34,35.95-7.34,35.95Z"/>
              <path class="cls-8" d="M78.75,277.82s-.06-.15-.11-.46c-.05-.31-.1-.77-.11-1.39-.04-1.22.05-3.03.33-5.35.57-4.64,1.97-11.29,4.25-19.43,2.32-8.12,5.32-17.82,9.72-28.3,2.17-5.25,4.64-10.71,7.45-16.28,2.82-5.57,5.91-11.28,9.53-16.93l.07-.12h.14c2.73,0,5.52,0,8.36,0h2.14c.7,0,1.47,0,2.2.17,1.47.28,2.83,1.08,3.87,2.16,1.37,1.44,2.16,3.42,2.07,5.4-.01.98-.28,1.96-.62,2.84-.31.89-.63,1.77-.94,2.66-1.25,3.53-2.47,7.01-3.68,10.43-2.41,6.83-4.74,13.43-6.96,19.71-4.45,12.55-8.45,23.85-11.82,33.35-.84,2.37-1.65,4.63-2.41,6.77-.78,2.2-2.56,3.81-4.48,4.48-.96.36-1.96.45-2.9.43-.93,0-1.83,0-2.69-.01-1.72-.01-3.29-.02-4.7-.03-2.8-.02-4.98-.04-6.48-.05-.72-.01-1.28-.02-1.67-.02-.38,0-.56-.02-.56-.02,0,0,.21-.01.59-.02.4,0,.97-.01,1.7-.02,1.5-.01,3.69-.03,6.49-.05,1.41,0,2.97-.02,4.67-.03.85,0,1.74,0,2.67-.01.92.01,1.87-.08,2.79-.44,1.84-.65,3.54-2.2,4.27-4.31.75-2.14,1.54-4.41,2.37-6.78,3.34-9.51,7.31-20.83,11.71-33.39,2.21-6.28,4.53-12.88,6.94-19.71,1.2-3.42,2.43-6.9,3.67-10.43.31-.88.62-1.77.94-2.66.33-.89.57-1.75.58-2.68.09-1.83-.65-3.68-1.92-5.02-.97-1.01-2.23-1.75-3.6-2.01-1.35-.26-2.81-.13-4.23-.16-2.84,0-5.64,0-8.36,0l.21-.12c-3.6,5.6-6.7,11.31-9.52,16.86-2.81,5.56-5.29,11-7.47,16.23-4.41,10.45-7.45,20.12-9.81,28.22-2.32,8.12-3.77,14.75-4.39,19.36-.31,2.31-.42,4.11-.42,5.33,0,1.22.12,1.85.12,1.85Z"/>
            </g>
            <path class="cls-8" d="M254.85,291.44s.28-.02.79-.12c.51-.09,1.26-.3,2.08-.85.79-.55,1.66-1.47,2.06-2.8.4-1.31.28-3.02-.72-4.44-.5-.7-1.19-1.32-2.05-1.7-.86-.42-1.82-.51-2.87-.47-2.1,0-4.34.02-6.69.02-4.72,0-9.89.01-15.33.02-1.3,0-2.56.52-3.47,1.39-.92.87-1.47,2.07-1.56,3.28-.23,2.48,1.57,4.77,3.78,5.27.55.14,1.09.18,1.67.17.57,0,1.14,0,1.7,0,1.12,0,2.2,0,3.25.01,2.09.01,4.04.02,5.83.03,3.52.03,6.39.06,8.44.08.96.02,1.72.04,2.29.05.52.02.8.03.8.05s-.27.04-.8.05c-.57.01-1.34.03-2.29.05-2.05.02-4.92.05-8.44.08-1.79.01-3.74.02-5.83.03-1.05,0-2.13,0-3.25.01-.56,0-1.12,0-1.7,0-.56.02-1.2-.02-1.79-.17-2.42-.54-4.41-3.05-4.17-5.77.09-1.34.7-2.67,1.71-3.62,1-.96,2.4-1.54,3.83-1.53,5.43,0,10.61.01,15.33.02,2.35,0,4.59.02,6.69.02,1.03-.03,2.15.07,3.04.54.92.43,1.65,1.1,2.18,1.86,1.05,1.54,1.14,3.37.69,4.74-.45,1.4-1.38,2.34-2.23,2.89-.86.54-1.65.72-2.17.78-.53.06-.8.01-.8.01Z"/>
            <g>
              <g>
                <path class="cls-1" d="M156.22,238.53c2.29,4.97,4.65,12.04,4.08,19.33-.38,4.87-4.49,8.62-9.38,8.62h-26.63s-5.08-4.42-2.65-9.28,4.42-3.92,4.42-3.92c0,0,6.49-13.15,16.39-18.99,4.95-2.92,11.36-.98,13.77,4.24Z"/>
                <path class="cls-8" d="M156.22,238.53c-.06.04-.43-1.03-1.79-2.51-.7-.71-1.67-1.49-2.97-2.08-1.29-.6-2.94-.97-4.75-.82-1.82.11-3.73.88-5.49,2.19-1.8,1.24-3.61,2.76-5.36,4.56-3.46,3.61-6.8,8.2-9.58,13.52l-.1.19-.23-.08c-.45-.15-1.11.08-1.59.44-.51.36-.93.86-1.32,1.39-.74,1.08-1.46,2.29-1.71,3.59-.25,1.32.04,2.71.62,3.97.6,1.25,1.47,2.42,2.51,3.38l-.17-.06h1.15c8.21,0,16.02.01,23.14.02,1.79-.01,3.52.12,5.08-.41,1.57-.48,2.95-1.38,4.01-2.51,1.05-1.13,1.79-2.48,2.15-3.87.35-1.39.36-2.81.37-4.14-.07-5.36-1.36-9.59-2.31-12.42-.49-1.42-.93-2.5-1.23-3.23-.14-.34-.26-.62-.34-.83-.08-.19-.11-.28-.1-.29,0,0,.06.09.15.27.1.21.23.48.39.81.33.72.8,1.79,1.32,3.21,1.01,2.82,2.37,7.05,2.49,12.48,0,1.35,0,2.78-.35,4.25-.37,1.45-1.13,2.87-2.22,4.06-1.1,1.18-2.54,2.14-4.19,2.65-.82.24-1.69.43-2.58.44-.88.03-1.75.01-2.64.02-7.12,0-14.93.01-23.14.02h-1.25l-.07-.06c-1.11-1.03-1.99-2.23-2.64-3.55-.61-1.33-.93-2.84-.65-4.28.29-1.45,1.03-2.67,1.8-3.8.41-.56.87-1.09,1.44-1.5.57-.39,1.27-.75,2.09-.48l-.33.11c2.84-5.38,6.2-9.96,9.73-13.59,1.77-1.8,3.62-3.33,5.45-4.57,1.78-1.3,3.8-2.1,5.68-2.19,1.88-.13,3.56.28,4.88.91,1.33.63,2.3,1.45,2.99,2.18.67.77,1.09,1.43,1.33,1.89.1.22.19.39.26.54.06.12.08.18.08.19Z"/>
              </g>
              <path class="cls-8" d="M131.85,266.48c-.04.09-.91-.17-2.08-1.03-1.12-.85-2.71-2.31-3.31-4.55-.57-2.18-.43-4.17-.43-5.57.04-1.41.11-2.29.22-2.29s.23.87.34,2.27c.13,1.4.1,3.37.63,5.37.51,1.99,1.9,3.4,2.9,4.33,1.02.93,1.78,1.36,1.73,1.47Z"/>
            </g>
            <path class="cls-4" d="M168.57,399.53h-99.26c-6.54,0-11.84-5.3-11.84-11.84h0c0-6.54,5.3-11.84,11.84-11.84h99.26c2.66,0,4.81,2.15,4.81,4.81v14.06c0,2.66-2.15,4.81-4.81,4.81Z"/>
            <path class="cls-4" d="M580.17,399.53h82.8c6.54,0,11.84-5.3,11.84-11.84h0c0-6.54-5.3-11.84-11.84-11.84l-86.19.66,3.39,23.02Z"/>
            <path class="cls-8" d="M173.61,375.85c0,.14-22.95.26-51.26.26s-51.27-.12-51.27-.26,22.95-.26,51.27-.26,51.26.12,51.26.26Z"/>
            <g>
              <path class="cls-8" d="M179.36,397.94c-.38,26.71,20.95,48.67,47.66,49.06,26.71.39,48.67-20.95,49.06-47.66.39-26.71-20.95-48.67-47.66-49.06-26.71-.38-48.67,20.95-49.06,47.66Z"/>
              <path class="cls-8" d="M179.37,397.81s0,.08,0,.12c-.38,26.71,20.95,48.67,47.66,49.06,26.71.39,48.67-20.95,49.06-47.66,0-.04,0-.08,0-.12l-96.7-1.39Z"/>
              <path class="cls-7" d="M193.77,398.14c-.27,18.75,14.71,34.17,33.46,34.44,18.75.27,34.17-14.71,34.44-33.46.27-18.75-14.71-34.17-33.46-34.44s-34.17,14.71-34.44,33.46Z"/>
              <path class="cls-4" d="M228.21,364.68c-18.75-.27-34.17,14.71-34.44,33.46l67.9.98c.27-18.75-14.71-34.17-33.46-34.44Z"/>
              <path class="cls-8" d="M207.04,398.33c-.16,11.42,8.96,20.82,20.38,20.98s20.82-8.96,20.98-20.38c.17-11.42-8.96-20.82-20.38-20.98-11.42-.17-20.81,8.96-20.98,20.38Z"/>
            </g>
            <g>
              <circle class="cls-8" cx="525.95" cy="398.58" r="48.36" transform="translate(86.67 891.05) rotate(-85.42)"/>
              <path class="cls-8" d="M477.62,397.77s0,.08,0,.12c-.39,26.71,20.95,48.67,47.66,49.06,26.71.39,48.67-20.95,49.06-47.66,0-.04,0-.08,0-.12l-96.7-1.39Z"/>
              <path class="cls-7" d="M492.02,398.1c-.27,18.75,14.71,34.17,33.46,34.44,18.75.27,34.17-14.71,34.44-33.46.27-18.75-14.71-34.17-33.46-34.44-18.75-.27-34.17,14.71-34.44,33.46Z"/>
              <path class="cls-4" d="M526.46,364.64c-18.75-.27-34.17,14.71-34.44,33.46l67.9.98c.27-18.75-14.71-34.17-33.46-34.44Z"/>
              <path class="cls-8" d="M505.29,398.29c-.16,11.42,8.96,20.82,20.38,20.98s20.82-8.96,20.98-20.38c.16-11.42-8.96-20.82-20.38-20.98-11.42-.17-20.82,8.96-20.98,20.38Z"/>
            </g>
            <path class="cls-8" d="M472.63,377.06c0,.14-42.53.26-94.97.26s-94.98-.12-94.98-.26,42.52-.26,94.98-.26,94.97.12,94.97.26Z"/>
            <path class="cls-8" d="M662.97,375.85s-.29.04-.85.05c-.6.01-1.42.03-2.44.05-2.17.03-5.22.07-8.96.12-7.61.1-18.05.23-29.57.37-11.55.14-22.01.22-29.58.21-3.75-.02-6.8-.04-8.97-.05-1.02-.02-1.83-.03-2.44-.05-.56-.02-.85-.03-.85-.05s.29-.04.85-.05c.6-.01,1.42-.03,2.44-.05,2.17-.03,5.22-.07,8.96-.12,7.61-.1,18.05-.23,29.58-.37,11.55-.14,22.01-.22,29.58-.22,3.75.02,6.8.04,8.97.05,1.02.02,1.83.03,2.44.05.56.02.85.03.85.05Z"/>
            <path class="cls-6" d="M637.18,295.57l1,40.34c.06,2.35,1.98,4.23,4.34,4.23h18.74s.53-44.92.28-48.09l-19.82-.91c-2.51-.12-4.6,1.92-4.53,4.44Z"/>
            <path class="cls-8" d="M609.62,150.22H175.24c-.9,0-1.63-.73-1.63-1.63h0c0-.9.73-1.63,1.63-1.63h434.38c.9,0,1.63.73,1.63,1.63h0c0,.9-.73,1.63-1.63,1.63Z"/>
            <path class="cls-8" d="M90.47,235.1c-.1-.1,4.26-4.88,9.74-10.68,5.48-5.8,10.01-10.42,10.12-10.32s-4.25,4.88-9.74,10.68c-5.48,5.8-10.01,10.42-10.12,10.32Z"/>
            <path class="cls-6" d="M144.7,237.37c.04.07-1.01.66-2.62,1.72-1.61,1.06-3.78,2.62-5.97,4.58-2.19,1.97-3.97,3.95-5.19,5.45-1.22,1.49-1.92,2.47-1.99,2.42-.03-.02.11-.29.4-.75.28-.47.72-1.12,1.3-1.9,1.16-1.56,2.92-3.61,5.13-5.61,2.22-1.99,4.44-3.52,6.12-4.51.84-.49,1.53-.87,2.03-1.1.49-.23.77-.35.79-.32Z"/>
            <path class="cls-6" d="M168.67,165.09s-.19.02-.54,0c-.41-.02-.92-.04-1.55-.07-.67-.05-1.49-.09-2.45-.07-.95,0-2.04-.04-3.24.06-.6.04-1.23.07-1.88.11-.65.04-1.33.15-2.03.22-1.4.13-2.88.42-4.44.7-3.1.65-6.46,1.59-9.87,2.93-3.39,1.38-6.48,3.01-9.17,4.67-1.32.88-2.6,1.68-3.7,2.55-.56.43-1.12.82-1.62,1.24-.5.42-.98.83-1.44,1.22-.94.75-1.69,1.53-2.39,2.18-.71.64-1.27,1.24-1.72,1.74-.43.45-.79.82-1.07,1.12-.25.25-.39.38-.4.37-.01-.01.1-.16.32-.44.27-.32.6-.71,1-1.19.43-.52.98-1.14,1.67-1.8.68-.67,1.42-1.48,2.35-2.25.46-.4.93-.82,1.43-1.25.5-.43,1.06-.83,1.62-1.27,1.1-.9,2.38-1.72,3.71-2.62,2.71-1.7,5.82-3.36,9.24-4.75,3.44-1.35,6.84-2.29,9.97-2.92,1.58-.26,3.07-.55,4.49-.66.71-.07,1.39-.16,2.05-.19.66-.03,1.29-.05,1.9-.07,1.21-.08,2.3,0,3.26.01.96,0,1.78.08,2.45.16.62.07,1.13.13,1.54.17.35.05.53.08.53.1Z"/>
            <path class="cls-6" d="M76.08,365s-.04-.28-.06-.8c-.02-.58-.04-1.35-.07-2.31-.06-2.01-.09-4.91-.07-8.49.04-7.17.38-17.09,1.34-27.99.97-10.91,2.37-20.73,3.59-27.8.61-3.54,1.14-6.39,1.55-8.35.2-.94.36-1.7.48-2.26.11-.52.18-.78.2-.78.02,0-.02.28-.1.8-.1.57-.22,1.33-.38,2.28-.35,1.97-.83,4.83-1.39,8.37-1.12,7.08-2.46,16.89-3.43,27.79-.96,10.89-1.36,20.79-1.49,27.95-.07,3.58-.1,6.48-.1,8.49-.01.96-.02,1.73-.02,2.31-.01.53-.02.8-.04.81Z"/>
            <path class="cls-6" d="M257.88,283.49c0,.14-5.23.26-11.69.26s-11.69-.12-11.69-.26,5.23-.26,11.69-.26,11.69.12,11.69.26Z"/>
            <path class="cls-6" d="M258.79,186.17c0,.14-19.97.26-44.6.26s-44.6-.12-44.6-.26,19.96-.26,44.6-.26c24.63,0,44.6.12,44.6.26Z"/>
            <path class="cls-6" d="M464.9,186.17c0,.14-27.43.26-61.27.26s-61.27-.12-61.27-.26,27.43-.26,61.27-.26c33.83,0,61.27.12,61.27.26Z"/>
            <path class="cls-6" d="M631.6,187.9c0,.14-21.52.26-48.06.26s-48.07-.12-48.07-.26,21.52-.26,48.07-.26,48.06.12,48.06.26Z"/>
            <path class="cls-6" d="M523.72,339.82s-.08,0-.24-.02c-.18-.03-.41-.07-.69-.11-.61-.08-1.48-.32-2.64-.42-2.29-.34-5.66-.56-9.78-.25-4.12.3-9,1.34-14.06,3.4-2.51,1.07-5.07,2.38-7.57,4-2.47,1.65-4.87,3.59-7.08,5.83-2.23,2.23-4.12,4.68-5.79,7.14-1.68,2.46-3.08,4.98-4.28,7.43-2.43,4.91-4.11,9.57-5.43,13.5-1.31,3.94-2.26,7.16-2.92,9.39-.32,1.08-.58,1.93-.77,2.56-.08.27-.15.48-.21.66-.05.15-.08.22-.09.22,0,0,0-.08.04-.23.04-.18.1-.4.16-.68.17-.63.39-1.5.68-2.59.6-2.24,1.5-5.49,2.77-9.45,1.28-3.95,2.92-8.65,5.35-13.6,1.2-2.48,2.6-5.02,4.29-7.51,1.68-2.48,3.58-4.97,5.84-7.22,2.24-2.27,4.67-4.23,7.18-5.9,2.52-1.64,5.12-2.95,7.66-4.02,5.13-2.06,10.05-3.07,14.22-3.32,4.16-.27,7.55.01,9.84.41,1.16.14,2.03.41,2.63.52.27.07.49.12.68.16.15.04.23.06.22.07Z"/>
          </g>
          <path class="cls-6" d="M502.54,264.63c-.14,0-.26-15.19-.26-33.93s.12-33.93.26-33.93.26,15.19.26,33.93-.12,33.93-.26,33.93Z"/>
          <path class="cls-6" d="M304.56,264.63c-.14,0-.26-15.19-.26-33.93s.12-33.93.26-33.93.26,15.19.26,33.93-.12,33.93-.26,33.93Z"/>
        </g>
        <path class="cls-8" d="M605.82,210.24s-.14.17-.44.46c-.34.32-.78.73-1.32,1.24-1.15,1.07-2.84,2.59-4.93,4.46-4.2,3.73-10.06,8.81-16.67,14.26-6.61,5.45-12.72,10.25-17.18,13.65-2.23,1.7-4.05,3.07-5.32,3.99-.6.43-1.09.78-1.47,1.06-.34.24-.52.36-.53.34-.01-.01.15-.16.47-.42.36-.29.83-.67,1.41-1.13,1.28-1.01,3.05-2.41,5.22-4.12,4.41-3.48,10.47-8.32,17.07-13.76,6.6-5.45,12.51-10.48,16.76-14.13,2.09-1.8,3.8-3.27,5.04-4.34.57-.48,1.02-.86,1.38-1.17.32-.26.49-.39.51-.38Z"/>
        <path class="cls-8" d="M583.35,214.42c.09.11-5.11,4.65-11.63,10.13-6.52,5.49-11.88,9.85-11.97,9.74-.09-.11,5.11-4.65,11.63-10.14,6.52-5.49,11.87-9.85,11.97-9.74Z"/>
        <path class="cls-10" d="M467.46,220c-.1-2.99-4.33-5.05-7.32-5.01-6.17.09-16.14.21-23.03.3-4.59.06-8.65,2.96-10.2,7.28l-15.88,44.15s4.06.02,7.49-.03l48.99-.3-.06-46.38Z"/>
        <path class="cls-8" d="M469.08,266.71s.1-.01.3-.03c.2-.02.51,0,.9-.09.78-.11,1.97-.38,3.3-1.19,1.32-.78,2.78-2.19,3.62-4.31.42-1.05.62-2.27.6-3.58,0-1.31,0-2.71-.01-4.2-.02-11.86-.05-29.01-.08-50.2-.02-1.32.03-2.68-.04-4.01-.09-1.32-.51-2.64-1.21-3.79-1.38-2.33-3.99-3.99-6.83-4.14-5.76-.05-11.8,0-18.02-.01-12.46,0-25.78.02-39.79.02-28.02,0-58.83.01-91.17.02-1.96.01-3.91.69-5.42,1.93-1.51,1.24-2.57,2.99-2.96,4.89-.2.95-.17,1.92-.17,2.93v2.98c0,1.98,0,3.96,0,5.93,0,7.88,0,15.64,0,23.26,0,7.63,0,15.12,0,22.45.02,1.84-.15,3.67.55,5.32.6,1.66,1.76,3.08,3.19,4.08,2.93,2.16,6.75,1.32,10.19,1.49,28.03.02,53.26.04,74.46.06,21.19.04,38.34.06,50.2.08,5.92.02,10.52.04,13.65.05,1.55.01,2.74.02,3.55.03.8,0,1.21.03,1.21.03,0,0-.41.02-1.21.03-.81,0-2,.02-3.55.03-3.13.01-7.73.03-13.65.05-11.86.02-29.01.05-50.2.08-21.2.02-46.44.04-74.46.06-1.75,0-3.51,0-5.29,0-.9-.02-1.82-.12-2.7-.39-.88-.27-1.71-.67-2.48-1.18-1.51-1.05-2.74-2.55-3.38-4.31-.34-.87-.53-1.8-.56-2.73-.04-.93-.01-1.83-.02-2.76,0-7.34,0-14.83,0-22.45,0-7.63,0-15.39,0-23.26v-8.91c0-.98-.02-2.02.18-3.03.42-2.01,1.55-3.88,3.14-5.19,1.6-1.32,3.67-2.04,5.75-2.05,32.34,0,63.15.01,91.17.02,14.01,0,27.33.02,39.79.02,6.24.02,12.24-.02,18.05.04,2.97.16,5.7,1.9,7.13,4.34.74,1.21,1.17,2.58,1.26,3.97.07,1.38.02,2.7.03,4.03-.04,21.19-.06,38.34-.08,50.2,0,1.48,0,2.88-.01,4.2.02,1.32-.2,2.57-.64,3.63-.87,2.14-2.36,3.56-3.71,4.34-1.35.81-2.56,1.06-3.35,1.15-.79.09-1.21.06-1.21.06Z"/>
        <g>
          <path class="cls-1" d="M563.19,147.17h-102.46c-4.61,0-8.35-3.74-8.35-8.35v-12.92c0-4.61,3.74-8.35,8.35-8.35h102.46c4.61,0,8.35,3.74,8.35,8.35v12.92c0,4.61-3.74,8.35-8.35,8.35Z"/>
          <path class="cls-8" d="M571.03,132.44c0,.14-26.43.26-59.02.26s-59.03-.12-59.03-.26,26.42-.26,59.03-.26c32.59,0,59.02.12,59.02.26Z"/>
          <path class="cls-8" d="M511.61,147.46c-.14,0-.26-6.6-.26-14.74s.12-14.74.26-14.74.26,6.6.26,14.74c0,8.14-.12,14.74-.26,14.74Z"/>
          <g class="cls-15">
            <path class="cls-3" d="M563.18,147.46h-51.56v-29.92h51.56c4.62,0,8.37,3.75,8.37,8.37v13.18c0,4.62-3.75,8.37-8.37,8.37Z"/>
          </g>
        </g>
        <g>
          <g>
            <path class="cls-13" d="M461.18,147.17h-102.46c-4.61,0-8.35-3.74-8.35-8.35v-12.92c0-4.61,3.74-8.35,8.35-8.35h102.46c4.61,0,8.35,3.74,8.35,8.35v12.92c0,4.61-3.74,8.35-8.35,8.35Z"/>
            <path class="cls-8" d="M461.18,147.2h-102.46c-4.62,0-8.38-3.76-8.38-8.38v-12.92c0-4.62,3.76-8.38,8.38-8.38h102.46c4.62,0,8.38,3.76,8.38,8.38v12.92c0,4.62-3.76,8.38-8.38,8.38ZM358.73,117.57c-4.59,0-8.33,3.74-8.33,8.33v12.92c0,4.59,3.74,8.33,8.33,8.33h102.46c4.59,0,8.33-3.74,8.33-8.33v-12.92c0-4.59-3.73-8.33-8.33-8.33h-102.46Z"/>
          </g>
          <path class="cls-8" d="M469.02,132.44c0,.14-26.43.26-59.02.26s-59.03-.12-59.03-.26,26.42-.26,59.03-.26c32.59,0,59.02.12,59.02.26Z"/>
          <path class="cls-8" d="M409.61,147.46c-.14,0-.26-6.6-.26-14.74s.12-14.74.26-14.74.26,6.6.26,14.74c0,8.14-.12,14.74-.26,14.74Z"/>
          <g class="cls-15">
            <path class="cls-3" d="M461.17,147.46h-51.56v-29.92h51.56c4.62,0,8.37,3.75,8.37,8.37v13.18c0,4.62-3.75,8.37-8.37,8.37Z"/>
          </g>
        </g>
        <path class="cls-8" d="M309.39,148.9s.05-.19.2-.52c.18-.39.4-.87.68-1.46.59-1.27,1.52-3.07,2.72-5.26,1.2-2.19,2.74-4.75,4.54-7.52,1.82-2.76,3.93-5.73,6.29-8.73,2.37-2.99,4.77-5.73,7.04-8.14,2.28-2.4,4.41-4.48,6.26-6.16,1.85-1.68,3.39-3,4.48-3.87.51-.4.93-.73,1.26-1,.29-.22.45-.33.46-.32.01.01-.12.15-.4.4-.32.28-.71.64-1.2,1.07-1.05.91-2.55,2.27-4.36,3.98-1.82,1.71-3.91,3.81-6.16,6.21-2.23,2.42-4.61,5.15-6.98,8.13-2.35,2.99-4.45,5.94-6.29,8.67-1.82,2.75-3.38,5.27-4.62,7.43-1.24,2.16-2.22,3.93-2.86,5.16-.31.57-.56,1.04-.76,1.41-.18.32-.28.49-.3.48Z"/>
        <g>
          <path class="cls-4" d="M586.88,103.62c-.71-3.13-1.18-6.3-.96-9.5.33-4.95,2.61-10.05,6.94-12.48,1.36-.76,2.88-1.24,4.21-2.07,1.8-1.13,3.3-3.19,2.05-5.49-.34-.62-.85-1.14-1.45-1.51-1.89-1.18-4.12-1.02-6.22-.68-8.41,1.37-16.31,5.65-22.05,11.95-5.06,5.56-8.41,12.65-9.53,20.08l-326.84,3.51c-1.46.02-1.78,2.05-.39,2.51,9.06,2.99,28.57,7.6,61.91,7.2,46.15-.55,273.87.46,317.57.67,4,.02,7.26-3.22,7.26-7.22h0c0-4.02-3.28-7.27-7.3-7.22l-25.19.27Z"/>
          <path class="cls-8" d="M586.88,103.62s.76-.02,2.21-.04c1.46-.02,3.62-.05,6.45-.1,2.83-.04,6.34-.09,10.47-.14,2.07-.01,4.29-.09,6.68-.05,1.21.08,2.42.5,3.5,1.19,1.06.72,1.99,1.73,2.57,2.97.59,1.23.83,2.67.64,4.1-.19,1.43-.81,2.84-1.84,3.96-1.01,1.14-2.43,1.94-3.98,2.26-.78.16-1.6.14-2.39.14-.8,0-1.61,0-2.43,0-6.55-.02-13.67-.05-21.31-.07-15.29-.05-32.7-.11-51.95-.18-38.5-.11-84.33-.23-135.23-.38-25.45,0-52.16-.02-79.85-.03-6.92.03-13.91.07-20.95.1-3.52.02-7.06.04-10.61.06-3.55-.03-7.12-.1-10.69-.24-7.15-.29-14.35-.84-21.54-1.81-7.19-.96-14.4-2.3-21.47-4.37-.51-.15-1.02-.3-1.53-.46l-.76-.24c-.23-.08-.54-.15-.8-.36-.52-.4-.7-1.13-.49-1.72.18-.62.83-1.05,1.45-1.04,2.11-.02,4.23-.04,6.33-.07,4.21-.04,8.41-.09,12.59-.14,8.36-.09,16.66-.18,24.89-.27,16.45-.18,32.61-.35,48.42-.51,31.63-.33,61.86-.65,90.24-.95,56.76-.58,106.11-1.09,144.36-1.48l-.16.14c1.11-7.25,4.22-13.73,8.38-18.75,4.17-5.05,9.38-8.61,14.62-10.84,2.63-1.11,5.28-1.9,7.88-2.37,1.29-.25,2.59-.44,3.87-.39,1.28.04,2.54.4,3.54,1.13,1,.73,1.66,1.9,1.67,3.09,0,1.21-.66,2.27-1.46,3.03-1.65,1.56-3.8,2.01-5.47,3.02-1.7.99-3.01,2.35-3.97,3.79-.97,1.44-1.61,2.94-2.04,4.38-.87,2.89-.89,5.47-.76,7.5.13,2.04.42,3.57.6,4.6.19.97.27,1.4.3,1.54,0,0-.14-.51-.35-1.53-.2-1.02-.5-2.55-.65-4.6-.14-2.03-.14-4.63.73-7.54.42-1.45,1.07-2.97,2.04-4.43.97-1.45,2.29-2.84,4.01-3.85,1.69-1.03,3.83-1.5,5.42-3.01.77-.74,1.4-1.76,1.39-2.89-.02-1.12-.64-2.24-1.59-2.92-.97-.69-2.18-1.04-3.43-1.08-1.25-.05-2.53.14-3.82.39-2.58.47-5.22,1.26-7.83,2.38-5.21,2.22-10.37,5.77-14.5,10.79-4.12,5-7.19,11.43-8.28,18.62l-.02.14h-.14c-38.25.43-87.6.99-144.35,1.62-28.38.31-58.62.64-90.24.99-15.81.17-31.97.35-48.42.53-8.23.09-16.52.18-24.89.27-4.18.04-8.38.09-12.59.14-2.11.02-4.22.04-6.33.07-.44,0-.83.26-.96.68-.14.41-.02.89.31,1.14.16.13.38.19.64.28l.76.24c.5.16,1.01.32,1.52.46,7.03,2.05,14.22,3.4,21.39,4.35,7.18.97,14.36,1.52,21.49,1.81,3.57.15,7.13.21,10.67.24,3.55-.02,7.08-.04,10.6-.05,7.04-.03,14.03-.07,20.95-.1,27.69.02,54.41.04,79.86.06,50.89.18,96.73.35,135.23.49,19.25.09,36.66.18,51.95.26,7.65.04,14.76.08,21.31.12.82,0,1.63,0,2.43.01.8,0,1.59.02,2.34-.13,1.51-.31,2.88-1.09,3.86-2.18,2.03-2.18,2.35-5.44,1.19-7.82-.55-1.21-1.46-2.19-2.49-2.9-1.05-.68-2.23-1.1-3.41-1.17-2.37-.04-4.62.02-6.69.03-4.15.03-7.66.06-10.49.08-2.83.02-4.98.03-6.44.04-1.45,0-2.18,0-2.18,0Z"/>
        </g>
        <path class="cls-8" d="M442.04,147.2s-.09-.18-.2-.53c-.13-.41-.29-.93-.48-1.56-.43-1.42-1.01-3.36-1.73-5.73-1.51-4.8-3.67-11.51-7.65-18.09-2.01-3.26-4.34-6.12-6.75-8.4-2.41-2.28-4.87-4.03-7.09-5.2-2.22-1.18-4.14-1.89-5.5-2.26-1.35-.38-2.12-.54-2.11-.58,0-.02.2,0,.57.07.36.07.92.13,1.6.32,1.38.32,3.35.97,5.61,2.13,2.27,1.15,4.79,2.88,7.25,5.18,2.46,2.3,4.83,5.18,6.86,8.48,4.03,6.65,6.14,13.42,7.56,18.25.7,2.43,1.22,4.41,1.57,5.78.16.64.28,1.16.38,1.58.08.37.12.56.1.56Z"/>
        <path class="cls-8" d="M551.61,151.87s-.07-.2-.14-.58c-.08-.44-.17-.99-.29-1.68-.11-.73-.26-1.62-.51-2.64-.23-1.02-.44-2.2-.82-3.46-.17-.64-.35-1.3-.54-2-.19-.69-.45-1.4-.69-2.14-.45-1.49-1.08-3.02-1.71-4.64-1.35-3.21-3.04-6.66-5.14-10.09-2.13-3.41-4.45-6.48-6.71-9.13-1.17-1.29-2.26-2.54-3.38-3.61-.55-.54-1.07-1.09-1.6-1.57-.53-.48-1.05-.94-1.54-1.38-.96-.9-1.92-1.62-2.73-2.29-.8-.68-1.53-1.21-2.13-1.64-.56-.41-1.01-.75-1.37-1.01-.31-.24-.47-.37-.46-.38s.19.09.52.3c.37.25.84.56,1.43.94.62.4,1.37.92,2.19,1.57.83.65,1.81,1.35,2.79,2.24.5.44,1.03.89,1.57,1.36.54.48,1.07,1.02,1.63,1.56,1.15,1.06,2.25,2.31,3.44,3.6,2.3,2.65,4.65,5.73,6.79,9.17,2.11,3.46,3.8,6.94,5.14,10.18.62,1.64,1.24,3.19,1.67,4.69.23.75.48,1.46.66,2.16.18.7.35,1.37.51,2.02.36,1.28.54,2.47.75,3.5.22,1.03.34,1.93.42,2.67.08.69.15,1.25.2,1.7.04.39.05.59.04.6Z"/>
        <path class="cls-8" d="M661.02,375.85c-.14,0-.33-32.91-.42-73.51-.09-40.61-.05-73.51.1-73.51.14,0,.33,32.91.42,73.51.09,40.59.04,73.51-.1,73.51Z"/>
        <path class="cls-8" d="M390.9,136.39h-21.85c-1.69,0-3.06-1.37-3.06-3.06h0c0-1.69,1.37-3.06,3.06-3.06h21.85c1.69,0,3.06,1.37,3.06,3.06h0c0,1.69-1.37,3.06-3.06,3.06Z"/>
        <g>
          <path class="cls-8" d="M703.74,362.82c0,.14-17.82.26-39.79.26s-39.8-.12-39.8-.26,17.82-.26,39.8-.26,39.79.12,39.79.26Z"/>
          <path class="cls-8" d="M712.87,355.72c0,.14-15.55.26-34.72.26s-34.73-.12-34.73-.26,15.55-.26,34.73-.26c19.18,0,34.72.12,34.72.26Z"/>
          <path class="cls-8" d="M396.68,366.42c0,.14-11.89.26-26.56.26s-26.56-.12-26.56-.26,11.89-.26,26.56-.26c14.67,0,26.56.12,26.56.26Z"/>
          <path class="cls-8" d="M407.18,357.77c0,.14-10.1.26-22.55.26s-22.55-.12-22.55-.26,10.09-.26,22.55-.26c12.45,0,22.55.12,22.55.26Z"/>
          <path class="cls-8" d="M450.27,241.73c0,.14-7.22.26-16.12.26s-16.12-.12-16.12-.26,7.22-.26,16.12-.26,16.12.12,16.12.26Z"/>
          <path class="cls-8" d="M467.66,236.66c0,.14-7.54.26-16.84.26s-16.84-.12-16.84-.26,7.54-.26,16.84-.26c9.3,0,16.84.12,16.84.26Z"/>
        </g>
      </g>
      <g>
        <path class="cls-13" d="M360.28,261.78c.49-2.58,2.43-4.71,4.71-6.02,2.28-1.31,4.89-1.91,7.46-2.43,3.78-.76,7.65-1.38,11.48-.96s7.67,2.02,10.1,5.01c2.18,2.68,3.02,6.18,3.68,9.58h-37.91l.47-5.19Z"/>
        <path class="cls-13" d="M367.4,251.54c-1.99-4.35-4.27-8.56-6.82-12.61-1.46-2.32-3.07-4.72-3.22-7.46l-.03-.57c-2.26.41-4.46,2.77-5.03,4.99s-.23,4.57.25,6.81c.49,2.31,1.13,4.61,2.22,6.71s2.66,3.99,4.71,5.16c.75.43,1.56.76,2.42.83,1.7.15,3.32-.72,4.81-1.56.36-.21.75-.44.92-.82.2-.48-.01-1.02-.23-1.49Z"/>
        <path class="cls-13" d="M377.25,228.39l7.33,6.11c.07.6,2.92,21.3,2.48,21.7-.26.24-.64.27-.99.3-6.72.43-13.44.86-20.16,1.29,0-1.59-1.05-3.04-2.36-3.94-1.32-.9-2.88-1.34-4.41-1.78-.23.48-.47.95-.71,1.43-.61-.36-1.1-.92-1.37-1.57-.18.32-.36.64-.54.95-.48-.34-.77-.94-.75-1.53-.19.43-.38.87-.57,1.3-2.05-2.23-2.35-5.89-.68-8.42.51-.78,1.18-1.47,1.48-2.35.48-1.44-.18-2.98-.41-4.48-.52-3.43,1.36-6.93,4.18-8.96,2.81-2.03,6.4-2.75,9.86-2.7,2.62.04,5.39.57,7.31,2.35"/>
        <path class="cls-13" d="M361.2,261.15c-2.45-.03-5.89.68-7.95,2.01-1.01.65-1.95,1.48-2.53,2.53-.59,1.05-.79,2.36-.33,3.48.45,1.12,1.63,1.96,2.83,1.84.57.54,1.4.77,2.16.62.76-.16,1.44-.71,1.74-1.42.5.61,1.39.86,2.13.6.74-.25,1.29-.99,1.32-1.78.44.36,1.12.4,1.59.08s.68-.97.5-1.51c.53.31,1.08.62,1.7.67.61.04,1.29-.28,1.46-.87.13-.46-.08-.95-.32-1.36"/>
        <path class="cls-13" d="M379.87,259.04c-2.43-.44-4.82.6-6.66,2.24-1.84,1.65-2.87,4.16-2.72,6.63.03.5.12,1.03.44,1.42s.93.58,1.35.29c.3-.08.61-.16.91-.24.27.7.96,1.21,1.7,1.26s1.5-.36,1.86-1.01c1.26.99,3.19,1.01,4.48.05.68-.51,1.2-1.26,2.01-1.51.6-.19,1.26-.07,1.86-.23.86-.23,1.5-1.03,1.7-1.9.21-.87.03-1.79-.3-2.62-1.07-2.65-3.89-4.48-6.74-4.37"/>
        <path class="cls-8" d="M362.66,241.65c-.11-.26-.29-.48-.49-.66l.11.08c-.17-.32-.51-.53-.86-.62s-.72-.08-1.08-.03c-.71.09-1.44.29-1.97.78s-.79,1.31-.47,1.95c.07.14.17.28.32.35.15.07.34.05.44-.07.09-.1.09-.25.09-.39s0-.28.08-.39.27-.15.34-.04c-.07.38-.13.79.05,1.12.18.34.7.51.95.22.12-.14.14-.35.13-.54,0-.19-.02-.38.05-.56s.27-.32.44-.25c.16.06.23.25.32.4.28.42.97.43,1.34.08.37-.36.42-.95.21-1.42Z"/>
        <path class="cls-9" d="M362.38,247.56c.78.06.8,1.47.62,2.23-.11.48-.6.82-1.09.86s-.98-.17-1.38-.46c-.67-.5-1.13-1.27-1.25-2.1,0,0,.97-.84.71-1.54,0,0,1.62.95,2.39,1.01Z"/>
        <path class="cls-8" d="M371.09,249.78s-.3,0-.81-.13c-.51-.14-1.24-.4-2.03-.94l.14-.18c.3.24.56.61.68,1.05l.05.19-.19-.03c-.88-.13-1.83-.54-2.62-1.27l.2-.23c.34.26.63.64.79,1.09l.1.27-.28-.07c-.43-.11-.89-.22-1.33-.43-.61-.29-1.15-.84-1.23-1.54l.18.13c-1.94.36-3.7-.26-4.79-1.04l.17-.07c-.2.93-.75,1.52-1.16,1.82-.21.16-.38.25-.51.3-.12.05-.19.07-.2.06-.01-.03.25-.14.62-.46.36-.32.85-.91,1.02-1.77l.03-.17.14.1c1.07.72,2.77,1.27,4.61.92l.16-.03.02.17c.06.55.51,1.03,1.06,1.29.4.2.85.31,1.27.42l-.18.2c-.14-.39-.39-.72-.68-.95l.2-.23c.73.7,1.63,1.1,2.46,1.24l-.15.16c-.09-.39-.31-.72-.57-.94l.14-.18c1.51,1.08,2.73,1.19,2.7,1.26Z"/>
        <circle class="cls-8" cx="367.38" cy="238.46" r="1.39"/>
        <ellipse class="cls-8" cx="357.2" cy="238.84" rx="1.29" ry="1.39"/>
        <path class="cls-8" d="M354.12,250.98s-.04-.07-.09-.21c-.05-.14-.11-.36-.19-.64-.13-.56-.25-1.4-.18-2.43.07-1.03.35-2.26,1-3.48.32-.61.77-1.18,1.12-1.8.36-.62.57-1.34.39-2.08-.16-.73-.45-1.47-.55-2.21-.11-.74-.12-1.47-.05-2.15.15-1.37.57-2.54,1.02-3.47.45-.93.93-1.62,1.29-2.06.17-.23.33-.39.43-.5.1-.11.16-.16.17-.16.06.04-.84.97-1.68,2.82-.42.92-.8,2.08-.93,3.4-.06.66-.05,1.36.06,2.08.09.72.37,1.41.55,2.2.2.8-.05,1.65-.43,2.29-.37.65-.82,1.21-1.13,1.79-.64,1.16-.94,2.35-1.03,3.36-.19,2.02.31,3.25.24,3.26Z"/>
        <path class="cls-8" d="M369.35,234.17c-.26.68-1.01,1.02-1.72.95-.71-.08-1.38-.57-1.49-1.28-.12-.7.67-1.42,1.76-1.31,1.08.11,1.71.97,1.45,1.64Z"/>
        <path class="cls-8" d="M358.49,234.79c-.26.68-1.01,1.02-1.72.95-.71-.08-1.38-.57-1.49-1.28-.12-.7.67-1.42,1.76-1.31,1.08.11,1.71.97,1.45,1.64Z"/>
        <path class="cls-13" d="M401.16,243.58c-2.52-3.34-7.99-3.16-10.56-6.46-1.26-1.62-2.05-3.51-3.15-5.24-1.03-1.63-3.03-3.19-4.93-3.52-1.9-.33-7.13-.45-8.65.74-.15,1.95-.29,3.92.03,5.84.32,1.93,1.16,3.84,2.68,5.07,1.35,1.1,3.12,1.58,4.53,2.62,1.65,1.22,2.67,3.09,3.93,4.71,1.26,1.62,3.06,3.11,5.11,2.98,1.02-.07,2.09-.66,2.35-1.64.6.28,1.22.56,1.88.65.66.09,1.38-.04,1.87-.49.49-.45.64-1.28.23-1.8.98.33,2,.66,3.03.56,1.03-.1,2.08-.76,2.31-1.77.17-.79-.18-1.6-.66-2.24Z"/>
        <path class="cls-8" d="M374.17,229.06s.23-.12.69-.31c.46-.18,1.16-.39,2.09-.56.93-.15,2.09-.23,3.43-.11,1.33.14,2.86.42,4.38,1.2.76.37,1.51.89,2.12,1.6.62.73.98,1.62,1.47,2.47.47.86.98,1.75,1.57,2.61.58.87,1.26,1.7,2.17,2.31,1.8,1.26,4.12,1.8,6.3,2.9,1.08.55,2.15,1.27,2.9,2.33.36.52.66,1.15.64,1.84,0,.69-.42,1.34-.97,1.72-.68.49-1.55.65-2.35.56-.8-.08-1.55-.33-2.27-.56l.17-.24c.37.48.32,1.15.05,1.62-.28.5-.8.79-1.32.89-1.07.22-2.05-.25-2.9-.64l.21-.1c-.29,1.04-1.32,1.6-2.25,1.73-.96.12-1.91-.13-2.7-.56-1.61-.87-2.68-2.29-3.59-3.59-.91-1.31-1.78-2.55-2.87-3.42-1.08-.86-2.31-1.32-3.34-1.9-1.05-.55-1.88-1.27-2.43-2.02-.56-.75-.88-1.48-1.1-2.09-.43-1.22-.46-1.93-.46-1.93.01,0,.04.17.12.49.08.32.2.8.43,1.4.45,1.16,1.39,2.94,3.52,3.98,1.02.56,2.26,1.01,3.39,1.89,1.13.88,2.02,2.14,2.94,3.44.91,1.29,1.97,2.67,3.51,3.49.76.41,1.65.64,2.53.52.86-.12,1.77-.64,2-1.51l.05-.17.16.08c.85.39,1.77.81,2.71.61.45-.09.89-.34,1.11-.74.22-.39.25-.93-.03-1.28l-.32-.4.49.16c.72.24,1.45.48,2.2.55.75.08,1.52-.06,2.14-.5.49-.35.83-.89.84-1.48.01-.59-.24-1.17-.58-1.65-.7-1-1.73-1.7-2.78-2.24-2.13-1.08-4.46-1.63-6.32-2.94-.94-.63-1.65-1.52-2.23-2.39-.59-.88-1.1-1.77-1.57-2.64-.48-.86-.86-1.76-1.43-2.43-.58-.68-1.3-1.19-2.04-1.56-1.47-.78-2.99-1.07-4.29-1.22-1.32-.14-2.47-.07-3.39.05-.92.15-1.62.34-2.09.5-.46.17-.71.25-.71.25Z"/>
        <path class="cls-8" d="M392.86,245.32s-.27.03-.76.01c-.48-.03-1.2-.05-2.05-.32-.42-.14-.88-.34-1.29-.68-.42-.33-.77-.79-1.07-1.28-.6-.99-1.14-2.16-2.28-2.82-1.1-.7-2.34-1.01-3.41-1.44-1.08-.41-2.03-.95-2.62-1.63-.6-.67-.85-1.39-.89-1.88-.05-.5.07-.76.07-.76.03,0-.03.27.05.74.08.47.34,1.13.93,1.75.58.63,1.49,1.12,2.56,1.51,1.06.4,2.32.71,3.48,1.44.58.36,1.07.84,1.43,1.38.36.53.63,1.07.93,1.56.55,1,1.37,1.64,2.19,1.9.81.28,1.51.34,1.99.41.48.05.75.08.75.11Z"/>
        <path class="cls-8" d="M397.01,244.69s-.77-.7-2.05-1.77c-.65-.52-1.45-1.1-2.46-1.53-1-.44-2.2-.75-3.31-1.46-1.11-.74-1.82-1.8-2.43-2.71-.6-.93-1.15-1.76-1.72-2.35-1.13-1.24-2.23-1.43-2.2-1.48,0-.01.27,0,.71.18.44.17,1.04.54,1.64,1.14.61.59,1.19,1.43,1.8,2.35.62.91,1.32,1.92,2.36,2.61,1.05.68,2.24,1,3.26,1.46,1.03.46,1.85,1.08,2.49,1.62.64.55,1.11,1.04,1.43,1.38.32.34.49.54.48.55Z"/>
        <path class="cls-8" d="M365.91,257.79c-.06.02-.11-1.07-.99-2.49-.44-.7-1.12-1.44-2.11-1.93-.97-.51-2.15-.84-3.39-1.2l.2-.16s0,.1,0,.15c.02.67-.1,1.33-.32,1.92l-.05.14-.14-.05c-1.11-.42-1.89-1.32-2.23-2.23l.25-.02c-.04.24-.18.45-.3.6-.12.15-.2.3-.23.46l-.05.28-.16-.23c-.2-.29-.43-.53-.57-.83-.15-.3-.15-.6-.13-.85l.16.02c-.15.46-.38.74-.48.96-.12.21-.15.33-.17.33-.01,0,0-.14.09-.36.08-.23.29-.54.4-.96l.18-.66-.02.68c0,.24.01.5.15.75.13.25.37.49.58.78l-.21.05c.05-.45.47-.7.5-1.06l.04-.56.21.54c.33.83,1.06,1.66,2.09,2.03l-.2.09c.21-.55.32-1.17.29-1.8,0-.05,0-.1,0-.14v-.22s.2.06.2.06c1.23.36,2.43.7,3.43,1.24,1.02.52,1.73,1.33,2.16,2.06.44.74.64,1.41.73,1.87.1.47.09.73.08.73Z"/>
        <path class="cls-8" d="M387.44,262s-.08-.44-.57-1.07c-.46-.64-1.42-1.36-2.79-1.81-1.37-.41-3.14-.71-5.08-.48-1.92.22-4.1,1.05-5.68,2.74v.02s-.02,0-.02,0c-1.3,1.16-2.28,2.88-2.58,4.8-.11.79-.15,1.61,0,2.35.08.36.26.7.54.89.28.19.67.24.92.06l.02-.02h.03c.31-.09.61-.17.91-.24l.13-.03.05.13c.26.68.95,1.15,1.63,1.17.69.02,1.35-.37,1.67-.93l.08-.14.13.1c1.37,1.06,3.27.88,4.37.03.56-.43,1-.97,1.58-1.29.58-.34,1.22-.29,1.72-.32,1.05,0,1.68-.68,1.95-1.14.29-.47.33-.78.36-.77,0,0-.01.31-.29.82-.25.48-.91,1.22-2.02,1.26-.52.04-1.11,0-1.63.33-.53.3-.95.84-1.53,1.3-1.16.92-3.17,1.14-4.68,0l.21-.04c-.36.65-1.11,1.11-1.92,1.09-.8-.02-1.59-.55-1.9-1.35l.18.09c-.3.08-.6.16-.91.24l.05-.02c-.39.27-.91.18-1.26-.06-.38-.25-.58-.67-.67-1.07-.17-.82-.13-1.64-.01-2.47.31-1.99,1.33-3.77,2.69-4.97l-.02.02c1.68-1.78,3.91-2.59,5.88-2.81,2-.22,3.77.12,5.17.56,1.4.48,2.36,1.25,2.81,1.93.23.33.36.62.42.82.06.2.07.31.06.31Z"/>
        <path class="cls-8" d="M373.31,269.73c-.06.06-.57-.75-.33-1.82.22-1.08,1.02-1.61,1.05-1.52.07.07-.55.63-.74,1.59-.22.95.11,1.72.02,1.76Z"/>
        <path class="cls-8" d="M377.17,270.15c-.06.06-.56-.68-.4-1.7.14-1.02.83-1.58.87-1.51.07.06-.44.65-.56,1.55-.14.9.18,1.61.09,1.65Z"/>
        <path class="cls-8" d="M354.01,267.76c.06.07-.8.49-1,1.51-.19,1.02.46,1.73.38,1.77-.02.03-.23-.1-.43-.41-.2-.31-.37-.84-.26-1.42.11-.58.46-1.01.76-1.22.3-.22.54-.26.55-.23Z"/>
        <path class="cls-8" d="M358.09,267c.05.07-.75.49-1.01,1.45-.26.96.22,1.73.14,1.76-.03.02-.2-.13-.34-.46-.14-.32-.24-.84-.09-1.39.15-.54.49-.94.78-1.15.29-.21.51-.26.53-.22Z"/>
        <path class="cls-8" d="M365.5,266.03s.08.09.19.3c.1.2.27.54.21,1-.07.47-.57.93-1.23,1.01-.67.09-1.38-.25-2.06-.65l.16-.13c.18.52.03,1.18-.46,1.58-.49.4-1.27.42-1.82-.02l.21-.1c-.02.76-.52,1.54-1.31,1.87-.79.32-1.8.1-2.39-.6l.25-.04c-.31.72-.97,1.3-1.79,1.5-.81.19-1.73-.04-2.37-.64l.12.04c-.21.02-.44.02-.66-.02-1.36-.23-2.36-1.42-2.53-2.67-.19-1.25.23-2.47.89-3.38,1.37-1.83,3.31-2.73,4.9-3.22,1.61-.5,2.98-.66,3.91-.73.47-.03.83-.04,1.08-.03.25,0,.38.02.38.03s-.13.02-.38.03c-.25.01-.61.04-1.07.09-.92.11-2.27.3-3.85.82-1.56.5-3.44,1.41-4.74,3.17-.63.87-1.01,2.02-.83,3.17.15,1.14,1.08,2.2,2.28,2.41.2.04.4.03.58.02h.07s.05.04.05.04c.55.52,1.37.73,2.08.57.71-.17,1.31-.69,1.58-1.32l.1-.22.16.19c.5.6,1.39.8,2.06.53.68-.27,1.13-.96,1.15-1.62v-.27s.21.17.21.17c.43.36,1.1.35,1.5.03.41-.32.55-.89.41-1.33l-.09-.28.25.15c.67.41,1.33.73,1.93.67.6-.06,1.05-.45,1.13-.86.08-.41-.07-.75-.15-.95-.09-.22-.14-.32-.13-.33Z"/>
        <path class="cls-8" d="M364.76,254.86s14.31-.87,22.36-4.08l.68,2.44s-16.01,6.38-22.05,3.69l-.98-2.05Z"/>
      </g>
      <g>
        <g>
          <path class="cls-11" d="M235.72,211.58l-3.27,32.16c-.56,5.47-2.49,13.39-11.1,12.12h0c-7.38-1.67-8.56-8.97-8.03-14.08.25-2.42.45-4.44.46-4.69,0,0-8.11-1.6-7.88-9.77.11-3.95,1.01-12.05,1.9-19.38.96-7.87,7.81-13.67,15.73-13.35l.79.03c8.47.84,12.48,8.51,11.41,16.95Z"/>
          <path class="cls-12" d="M213.77,237.09s5.13.51,10.75-2.71c0,0-2.84,5.85-10.95,4.79l.19-2.08Z"/>
          <path class="cls-8" d="M221.24,212.84c.14.18,1.16-.46,2.52-.34,1.36.1,2.29.9,2.46.74.08-.07-.05-.39-.46-.75-.4-.36-1.1-.73-1.95-.8-.85-.07-1.59.19-2.02.49-.45.29-.61.59-.54.67Z"/>
          <path class="cls-8" d="M220.73,215.92c-.04.58.41,1.1,1.02,1.16.6.06,1.13-.37,1.18-.95.04-.58-.41-1.1-1.02-1.16-.61-.06-1.13.37-1.18.95Z"/>
          <path class="cls-8" d="M216.77,221.88c0-.07-.76-.24-2.02-.45-.32-.05-.62-.12-.66-.34-.07-.23.08-.57.25-.94.33-.76.68-1.56,1.05-2.4,1.46-3.42,2.53-6.23,2.39-6.29-.14-.06-1.43,2.67-2.89,6.08-.35.84-.69,1.65-1.01,2.41-.14.36-.36.76-.22,1.25.08.24.3.43.51.49.2.07.38.08.54.1,1.27.12,2.06.16,2.06.09Z"/>
          <path class="cls-8" d="M222.4,207.82c.1.32,1.21.21,2.5.43,1.29.19,2.33.62,2.51.35.08-.13-.09-.43-.5-.75-.41-.32-1.07-.63-1.84-.75-.77-.12-1.49-.02-1.98.16-.48.18-.73.41-.69.56Z"/>
          <path class="cls-8" d="M209.25,208.85c.11.26,1.2.11,2.49.22,1.29.08,2.33.39,2.49.15.07-.12-.11-.36-.54-.6-.42-.24-1.09-.47-1.86-.53-.77-.06-1.47.07-1.94.25-.47.18-.7.39-.65.52Z"/>
          <path class="cls-11" d="M234.8,217.6c.14-.05,5.68-1.43,5.27,4.14s-5.92,4.01-5.91,3.85c0-.16.65-8,.65-8Z"/>
          <path class="cls-12" d="M236.01,223.61s.09.07.25.16c.15.09.43.16.72.07.6-.17,1.17-1.07,1.27-2.07.05-.51-.02-1-.17-1.41-.14-.42-.38-.72-.68-.8-.29-.09-.51.07-.59.22-.09.15-.06.26-.09.27-.02.01-.11-.1-.05-.33.03-.11.11-.24.24-.33.14-.1.34-.14.55-.1.43.06.79.49.95.94.19.46.28,1.01.22,1.58-.12,1.12-.77,2.13-1.59,2.3-.4.07-.72-.07-.88-.21-.16-.15-.18-.28-.16-.29Z"/>
          <path class="cls-8" d="M217.64,225.87c-.04-.15,1.08-.35,1.96-1.28.44-.46.72-.98.93-1.36.21-.38.36-.62.42-.6.05.02,0,.29-.13.72-.14.42-.4,1.02-.9,1.54-.49.53-1.1.8-1.54.92-.44.12-.73.1-.74.05Z"/>
          <path class="cls-8" d="M243.2,209.46c-.93-2.09-.93-4.45-1.32-6.71-.38-2.25-1.34-4.65-3.39-5.66l-.05.02c-1.83-.99-4.2-1.27-5.93-.12-.06-2.93-2.33-5.5-5.06-6.56-2.73-1.06-7.29-1.13-10.11-.36-2.18.6-4.4,2.09-7.13,4.34-1.15.95-2.24,1.98-3.22,3.1l-3.31,7.27,1.64,4.2c.09.28.19.57.32.85v-.02s.94,8.56.94,8.56c.38-2.26,1.12-10.2,1.5-12.46,3.53.25,6.87-.8,9.52-3.15,1.4-1.24,2.58-2.85,4.33-3.48,2.26-.82,4.73.25,6.9,1.29l-.09-.1c1.11.68,2.1,1.57,2.87,2.62-1.02,4.42-1.08,9.07-.16,13.51.14.67.57,2.07,1.17,2.38,1.19.62,1.67-.61,2.5-1.19.61-.43,1.43-.4,2.33-.3.68-1.32,1.49-3.59,2.18-5.58.73.31,1.52.47,2.31.42-.17-.6-.35-1.2-.52-1.8.29.23.59.47.95.57.36.1.79,0,.99-.3.26-.4.03-.93-.17-1.36Z"/>
          <path class="cls-13" d="M229.86,197.63s.31.25.73.84c.41.58.83,1.55.93,2.83.06.63.06,1.34-.03,2.08-.08.74-.23,1.54-.39,2.37-.15.83-.31,1.71-.36,2.65-.03.46-.02.94.02,1.42.05.47.11.99.42,1.42.24.35.69.55,1.1.51.41-.02.8-.2,1.09-.46.59-.55.81-1.3,1.01-1.97h-.17c.21.64.42,1.28.79,1.81.36.53.9.92,1.48,1.04.29.06.59.05.85-.05.27-.1.48-.29.63-.49.15-.21.24-.46.25-.7.01-.24-.05-.48-.19-.66l-.09.07c.54.78,1.16,1.24,1.59,1.5.22.13.39.22.51.27.12.05.19.07.19.07,0,0-.06-.04-.17-.1-.12-.06-.29-.16-.49-.29-.42-.28-1.01-.74-1.53-1.51l-.1.07c.24.32.2.83-.08,1.21-.14.19-.33.36-.57.43-.24.08-.51.09-.77.04-.53-.12-1.03-.48-1.37-.98-.35-.51-.55-1.12-.76-1.77l-.09-.27-.09.27c-.21.66-.43,1.39-.97,1.88-.27.24-.62.39-.98.41-.36.03-.72-.13-.93-.44-.26-.38-.34-.87-.38-1.33-.05-.47-.05-.93-.02-1.39.05-.91.21-1.79.35-2.62.15-.83.29-1.63.37-2.38.08-.76.07-1.47,0-2.11-.12-1.29-.57-2.28-1.01-2.86-.44-.58-.78-.79-.78-.79Z"/>
          <path class="cls-13" d="M203.94,202.64s.02.02.06.06c.05.05.11.1.18.17.08.08.18.17.32.26.13.1.28.21.46.32.71.44,1.87.93,3.39,1.02,1.5.09,3.35-.24,5.09-1.24,1.75-.98,3.36-2.53,4.75-4.35.7-.91,1.29-1.86,1.93-2.73.63-.87,1.31-1.66,2.09-2.26.77-.6,1.63-1.01,2.49-1.15.43-.08.85-.06,1.24,0,.4.07.76.19,1.1.35.67.31,1.19.76,1.57,1.21.38.45.62.9.78,1.29.28.79.25,1.26.28,1.26,0,0,0-.03,0-.09,0-.07,0-.15,0-.25-.01-.22-.07-.55-.2-.95-.15-.4-.38-.87-.76-1.33-.38-.46-.91-.93-1.59-1.26-.34-.16-.72-.29-1.13-.37-.41-.06-.85-.09-1.29,0-.89.13-1.78.55-2.57,1.16-.8.61-1.49,1.41-2.13,2.28-.64.87-1.24,1.82-1.93,2.72-1.37,1.81-2.96,3.35-4.68,4.32-1.7,1-3.51,1.33-4.99,1.26-1.49-.07-2.65-.53-3.36-.95-.72-.42-1.05-.76-1.06-.74Z"/>
          <path class="cls-8" d="M208.83,211.94c.14.18,1.16-.46,2.52-.34,1.36.1,2.29.9,2.46.74.08-.07-.05-.39-.46-.75-.4-.36-1.1-.73-1.95-.8-.85-.07-1.59.19-2.02.49-.45.29-.61.59-.54.67Z"/>
          <path class="cls-8" d="M209.45,214.64c-.04.58.41,1.1,1.02,1.16.6.06,1.13-.37,1.18-.95.04-.58-.41-1.1-1.02-1.16-.61-.06-1.13.37-1.18.95Z"/>
          <path class="cls-8" d="M207.77,196.66c-.78.84-1.93,1.56-3.05,1.32-.33-.07-1.17-.48-1.17-.48-.42.2-.47,1.57-.23,1.97.24.4.76.97.76.97-1.4.58-2.58.1-3.95-.56,0,2.44,1.42,4.83,3.57,6,.68.38,1.54.63,2.23.27.61-.31.92-1,1.16-1.64.88-2.36,1.47-4.84,1.75-7.35l-1.07-.51Z"/>
        </g>
        <path class="cls-8" d="M244.42,243.35l-11.41-5.13c-7.47,7.35-18.16,7.28-19.43.95,0,0-11.23-.34-13.92,2.76-2.69,3.1-10.76,25.4-10.76,25.4l47,1.07,11.03-11.12-2.49-13.93Z"/>
        <path class="cls-11" d="M232.56,257.99l-12.37,15.29-38.8-17.47,3.08,11.52s28.4,21.14,34.8,24.09c5.96,2.74,7.86.61,11.79-2.01,3.93-2.62,14.62-20.77,14.62-20.77l-13.13-10.65Z"/>
        <path class="cls-8" d="M245.69,244.01s6.68,3.81,5.34,18.15c-.88,9.39-2.14,9.43-3.68,14.19l-22.4-12.51s5.72-13.11,10.48-18.35c4.77-5.24,10.26-1.48,10.26-1.48Z"/>
        <g>
          <path class="cls-11" d="M188.4,259.58l-12.44-8.62-12.37-5.46c-.51-.23-1.1.13-1.11.69,0,.64.27,1.51,1.4,2.43,2.14,1.74,7.14,4.86,7.14,4.86,0,0-5.46,3.2-5.37,3.85.09.66.47,1.5.47,1.5,0,0-1.97,1.15-1.31,2.4.66,1.25,2.24,1.95,2.24,1.95l-.98,3.83c.1.4,1.56,1.06,2.26-.19.08-.14.98.76.98.76,0,0,1.59-.32,1.5-1.26,0,0,1.59-.24.94-1.9l-.66-1.66,2.06-.47,2.82.66s7.58,5.53,8.61,5.53h2.53l1.29-8.9Z"/>
          <path class="cls-12" d="M166.53,265.23c-.07-.02,0-.63.21-1.6.1-.49.24-1.06.42-1.7.09-.32.2-.65.32-.99.07-.17.14-.35.23-.52.08-.18.26-.39.44-.5,1.35-.85,2.62-1.28,3.55-1.65.93-.34,1.53-.5,1.55-.44.03.07-.52.35-1.41.77-.87.44-2.18.97-3.39,1.73-.26.15-.35.47-.5.79-.13.32-.24.64-.34.95-.18.56-.35,1.11-.52,1.65-.29.94-.49,1.52-.56,1.51Z"/>
          <path class="cls-12" d="M167.05,263.19s-.18-.05-.35-.32c-.17-.27-.29-.71-.35-1.23-.06-.52-.15-1.15-.1-1.87.04-.71.31-1.57.95-2.17,1.25-1.16,2.67-1.61,3.61-2.05.96-.4,1.51-.72,1.56-.65.04.05-.46.49-1.4.99-.91.52-2.29,1.04-3.4,2.08-.54.52-.76,1.2-.84,1.85-.08.65-.03,1.27-.01,1.79.02.52.07.92.16,1.18.09.26.2.38.17.41Z"/>
          <path class="cls-12" d="M166.48,259.58c-.12.04-.46-.35-.75-.99-.3-.63-.24-1.28-.07-1.26.13.02.28.46.55,1.05.26.58.43,1.14.27,1.2Z"/>
          <path class="cls-12" d="M174.77,257.24c-.06-.03-.06-.19.08-.4.13-.2.42-.44.81-.51.39-.07.74.06.93.21.2.15.25.3.21.35-.1.1-.53-.14-1.05-.05-.52.08-.85.46-.97.39Z"/>
          <path class="cls-12" d="M174.22,254.56c-.11-.09.34-.64,1.14-.63.8,0,1.25.55,1.13.64-.1.11-.55-.13-1.13-.12-.59-.01-1.04.22-1.13.11Z"/>
          <path class="cls-12" d="M174.17,252.01c.05.14-.75.53-1.72,1.01-.97.47-1.77.85-1.85.72-.08-.12.62-.71,1.63-1.19,1-.49,1.9-.67,1.95-.54Z"/>
          <path class="cls-12" d="M167.82,267.33c-.1-.09.65-1.2,1.34-2.71.23-.49.41-.96.54-1.36l.05-.15.13-.02c.85-.11,1.33-.55,1.4-.46.07.04-.32.67-1.32.91l.18-.17c-.09.45-.27.95-.51,1.46-.71,1.57-1.7,2.6-1.81,2.49Z"/>
        </g>
      </g>
    </g>
    <g class="cls-16">
      <path class="cls-6" d="M330.56,302.48c0,8.13,0,16.26,0,24.4,0,.4-.12.69-.48.88-.12.06-.25.08-.38.08-1.77,0-3.53.01-5.3,0-.89,0-1.75-.19-2.51-.7-.8-.54-1.4-1.23-1.72-2.16-.19-.56-.27-1.13-.27-1.71,0-5.09,0-10.18,0-15.27,0-.06,0-.12,0-.18,0-.26-.02-.27-.29-.28-.06,0-.12,0-.18,0-3.63,0-7.25,0-10.88,0-.5,0-.47-.02-.47.46,0,6.28,0,12.57,0,18.85,0,.15.03.31-.04.46-.13.31-.36.5-.7.54-.09.01-.19,0-.29,0-1.59,0-3.17,0-4.76,0-.58,0-1.14-.04-1.7-.18-.52-.13-1-.37-1.43-.7-.58-.45-1.06-.99-1.35-1.68-.24-.57-.37-1.17-.42-1.79,0-.09,0-.19,0-.29,0-13.82,0-27.64,0-41.46,0-.95.2-1.85.73-2.64.52-.79,1.22-1.38,2.14-1.7.64-.22,1.29-.3,1.96-.3,1.63,0,3.27,0,4.9,0,.21,0,.41.01.58.14.23.16.38.36.37.65,0,.08,0,.17,0,.25,0,6.08,0,12.16,0,18.24,0,.04,0,.07,0,.11,0,.35,0,.36.36.36,2.21,0,4.41,0,6.62,0,1.46,0,2.91,0,4.37,0,.49,0,.47.03.47-.46,0-4.92,0-9.85,0-14.77,0-.89.18-1.72.67-2.47.53-.82,1.24-1.43,2.18-1.75.61-.21,1.22-.29,1.86-.29,1.67,0,3.34,0,5.01,0,.21,0,.41.02.58.15.21.15.36.35.35.63,0,.08,0,.17,0,.25,0,8.12,0,16.24,0,24.36Z"/>
      <path class="cls-6" d="M477.87,327.81c-1.37,0-2.74-.01-4.11,0-.39,0-.65-.12-.85-.46-.19-.33-.51-.57-.78-.84-.15-.15-.32-.04-.47.02-.42.17-.84.33-1.27.46-1.01.31-2.04.53-3.09.66-.94.12-1.87.18-2.82.12-.69-.05-1.37-.12-2.06-.23-.73-.12-1.44-.29-2.15-.49-.55-.15-1.08-.37-1.61-.58-1.07-.43-2.08-1-3.04-1.64-.69-.46-1.34-.99-1.96-1.55-1.22-1.1-2.25-2.36-3.11-3.76-.55-.9-1.01-1.85-1.39-2.84-.26-.68-.47-1.37-.64-2.07-.21-.87-.36-1.74-.42-2.64-.04-.55-.09-1.09-.07-1.64.04-.99.12-1.97.31-2.94.27-1.31.66-2.59,1.22-3.82.53-1.17,1.17-2.26,1.93-3.28.88-1.18,1.91-2.22,3.06-3.13,1.03-.82,2.14-1.51,3.32-2.07.84-.4,1.7-.73,2.59-.98.47-.13.94-.26,1.42-.35.43-.08.86-.18,1.3-.21.4-.02.8-.09,1.21-.12.91-.06,1.81,0,2.71.1.85.09,1.69.25,2.52.46.86.22,1.7.53,2.52.89,1.16.51,2.25,1.15,3.27,1.9.96.71,1.83,1.52,2.63,2.41.77.86,1.43,1.78,2.02,2.76.69,1.16,1.23,2.39,1.61,3.68.34,1.15.56,2.33.67,3.53.07.79.12,1.56.06,2.35-.02.22.04.45.04.67,0,5.07,0,10.13,0,15.2,0,.07,0,.14,0,.21,0,.16-.06.2-.22.19-1.45,0-2.91,0-4.36,0h0ZM458.69,310.51c-.2,3.33,2.67,6.93,7.05,6.67,3-.18,6.27-2.77,6.04-7.01-.16-2.96-2.67-6.34-7.1-6.09-3.19.18-6.04,2.99-6,6.43Z"/>
      <path class="cls-6" d="M349.96,327.81c-9.78-.11-17.27-7.98-17.15-17.38.13-9.62,7.94-17.1,17.4-16.97,9.63.14,17.05,7.9,16.97,17.27-.09,9.79-7.98,17.04-17.21,17.08ZM343.46,310.62c-.14,3.26,2.69,6.82,7.06,6.55,2.95-.18,6.23-2.73,6.03-6.98-.13-2.76-2.48-6.34-7.08-6.12-3.08.15-6.12,2.91-6.02,6.55Z"/>
      <path class="cls-6" d="M369.57,340.11c0-.44,0-.88,0-1.32,0-1.08.02-2.17.02-3.25,0-3.58,0-7.15,0-10.73,0-1.76,0-3.53,0-5.29,0-1.8,0-3.6,0-5.39,0-1.41-.02-2.81,0-4.22,0-.52.06-1.04.13-1.56.08-.56.15-1.13.27-1.68.19-.88.48-1.73.8-2.58.48-1.26,1.09-2.46,1.89-3.54.58-.79,1.2-1.56,1.91-2.26.53-.53,1.1-1.01,1.69-1.48.76-.6,1.59-1.12,2.45-1.57.3-.16.61-.34.92-.47.47-.19.93-.4,1.41-.55.53-.17,1.06-.36,1.6-.49.65-.16,1.32-.27,1.99-.35.99-.12,1.99-.19,2.99-.13.77.05,1.54.11,2.3.29.35.08.71.16,1.07.22.47.08.91.28,1.36.42,1.04.33,2.02.81,2.98,1.34.52.28,1,.64,1.49.98.63.44,1.22.95,1.78,1.48.99.93,1.85,1.98,2.59,3.12.56.87,1.04,1.78,1.44,2.73.31.75.58,1.52.77,2.32.13.54.26,1.09.35,1.64.14.91.28,1.83.19,2.77-.04.43.04.86,0,1.28-.14,1.22-.32,2.43-.7,3.6-.41,1.28-.94,2.52-1.63,3.68-.3.51-.62,1.02-.96,1.5-.33.46-.74.87-1.1,1.31-.36.45-.82.79-1.19,1.23-.09.11-.22.18-.33.27-.66.51-1.31,1.04-2.03,1.5-.65.41-1.36.73-2.01,1.14-.78.48-1.59.91-2.37,1.38-.55.33-1.13.6-1.67.95-.42.27-.87.48-1.29.76-.42.28-.88.51-1.32.77-.63.36-1.25.74-1.88,1.09-.67.37-1.32.76-1.98,1.14-.55.32-1.1.65-1.65.97-.52.31-1.05.6-1.58.9-.59.33-1.17.67-1.75,1.01-.47.28-.95.53-1.42.82-.7.42-1.4.85-2.12,1.24-.66.36-1.27.79-1.94,1.12-.34.17-.65.4-.98.59-.72.42-1.45.84-2.18,1.27-.07.04-.14.09-.31.05ZM385.86,299.68c-2.07.05-4.66,1.08-6.78,3.22-2.13,2.15-3.12,4.78-3.11,7.78,0,1.41.32,2.77.88,4.07.58,1.34,1.39,2.55,2.46,3.53,1.42,1.31,3.08,2.22,4.97,2.69.84.21,1.7.33,2.56.3,2.85-.08,5.37-1.03,7.44-3.02,2.32-2.23,3.42-5,3.29-8.2-.22-5.61-4.76-10.36-11.71-10.37Z"/>
      <path class="cls-6" d="M405.66,305.54c-.2-.23-.2-.53-.28-.79-.18-.59-.37-1.18-.6-1.75-.31-.76-.66-1.51-1.08-2.21-.31-.53-.61-1.07-1-1.56-.14-.18-.14-.26.03-.44.5-.51.98-1.04,1.56-1.47.29-.21.54-.47.83-.68.6-.43,1.22-.82,1.85-1.2.27-.17.58-.27.85-.44.37-.22.77-.37,1.16-.52.6-.24,1.22-.44,1.85-.62.62-.17,1.24-.32,1.87-.4.58-.07,1.15-.17,1.74-.18.52-.02,1.05-.07,1.57-.04.86.05,1.73.1,2.58.31.35.09.71.16,1.07.22.47.08.91.28,1.36.42,1.01.31,1.96.8,2.89,1.28.55.28,1.04.66,1.55,1.02.63.44,1.22.94,1.79,1.48.72.68,1.37,1.42,1.96,2.21.79,1.06,1.44,2.2,1.97,3.41.33.75.61,1.52.83,2.3.21.75.39,1.52.44,2.3.02.26.09.51.12.77.07.66.01,1.33.04,1.99.04,1.02-.17,2.01-.34,3-.1.58-.24,1.16-.48,1.71-.07.16-.12.34-.17.5-.44,1.41-1.19,2.67-1.97,3.91-.41.65-.94,1.22-1.43,1.82-.37.45-.84.8-1.21,1.25-.08.1-.2.16-.31.24-.67.52-1.33,1.06-2.05,1.52-.4.26-.83.46-1.24.7-.8.47-1.6.94-2.41,1.39-.81.45-1.6.93-2.4,1.39-.42.24-.85.47-1.26.74-.7.44-1.44.83-2.16,1.24-.26.15-.51.3-.77.45-.66.39-1.33.79-2,1.18-.66.38-1.31.77-1.97,1.13-.57.32-1.14.64-1.7.97-.55.32-1.11.64-1.66.96-.37.22-.74.43-1.11.64-.79.46-1.57.94-2.37,1.38-.66.36-1.27.79-1.94,1.12-.34.16-.65.4-.98.59-.71.42-1.43.83-2.14,1.25-.27.16-.31.13-.31-.19,0-2.13,0-4.26,0-6.4,0-2.28,0-4.55,0-6.83,0-.28.07-.46.31-.62.24-.16.49-.33.68-.57.13-.15.32-.25.49-.36.19-.13.37-.26.52-.43.46-.51.94-1.01,1.39-1.53.31-.36.58-.75.89-1.12.52-.61.86-1.34,1.29-2.01.21-.33.42-.67.57-1.02.25-.6.59-1.17.72-1.81.07-.34.27-.62.36-.96.05-.19.06-.4.14-.58.05-.12.06-.25.13-.37.21.19.3.45.42.69.32.62.74,1.16,1.21,1.66.4.44.79.88,1.29,1.22.54.37,1.04.8,1.63,1.09.4.2.81.39,1.22.56.39.16.77.36,1.21.38.06,0,.12.03.16.06.14.1.31.11.47.14.69.15,1.4.15,2.11.22.06,0,.12.01.18,0,.22-.08.45-.05.67-.06.35,0,.68-.08,1.02-.12.68-.09,1.31-.32,1.95-.54.41-.14.8-.33,1.19-.53.38-.19.73-.45,1.1-.65.5-.28.88-.68,1.3-1.04.45-.39.82-.86,1.19-1.32.49-.62.9-1.28,1.22-2,.26-.58.44-1.18.62-1.78.22-.72.31-1.46.34-2.2.03-.71-.02-1.42-.12-2.13-.14-1.01-.43-1.96-.85-2.87-.4-.87-.87-1.7-1.5-2.44-.46-.53-.94-1.06-1.48-1.49-.73-.58-1.53-1.08-2.38-1.47-.48-.22-.98-.38-1.49-.52-.24-.07-.49-.09-.72-.16-.56-.17-1.14-.24-1.71-.25-.74-.01-1.47,0-2.2.12-.7.1-1.36.29-2.01.51-.9.31-1.74.77-2.53,1.32-.14.1-.3.13-.42.26-.48.49-1.01.92-1.47,1.45-.55.63-1.05,1.29-1.45,2.02-.04.08-.07.18-.19.18Z"/>
      <path class="cls-6" d="M445.51,301.44c0,8.46,0,16.93,0,25.39,0,.18.03.36-.06.53-.18.34-.46.49-.85.48-1.65,0-3.29,0-4.94,0-.3,0-.6,0-.89-.04-1.68-.2-2.88-1.07-3.57-2.61-.23-.51-.34-1.06-.34-1.63,0-4.01,0-8.01,0-12.02,0-.43.02-.86.04-1.28.02-.28-.05-.57-.05-.85,0-10.7,0-21.41,0-32.11,0-1.47.62-2.67,1.82-3.54.44-.32.95-.52,1.49-.66.53-.14,1.06-.15,1.59-.15.95,0,1.91-.03,2.86,0,1.29.06,2.39.83,2.75,2.11.1.35.14.7.14,1.06,0,8.44,0,16.88,0,25.32Z"/>
      <path class="cls-14" d="M405.66,305.54c.12,0,.15-.1.19-.18.4-.74.9-1.39,1.45-2.02.45-.53.99-.96,1.47-1.45.12-.13.28-.16.42-.26.78-.55,1.62-1.01,2.53-1.32.65-.23,1.32-.41,2.01-.51.74-.11,1.47-.13,2.2-.12.58,0,1.15.07,1.71.25.23.07.48.09.72.16.51.15,1.01.31,1.49.52.86.39,1.66.88,2.38,1.47.54.44,1.02.96,1.48,1.49.63.73,1.1,1.57,1.5,2.44.42.92.71,1.86.85,2.87.1.71.15,1.42.12,2.13-.03.74-.12,1.48-.34,2.2-.19.6-.37,1.2-.62,1.78-.32.72-.73,1.38-1.22,2-.37.47-.74.93-1.19,1.32-.42.36-.8.76-1.3,1.04-.37.21-.72.46-1.1.65-.39.2-.78.39-1.19.53-.64.22-1.27.45-1.95.54-.34.04-.68.11-1.02.12-.22,0-.45-.03-.67.06-.05.02-.12.02-.18,0-.7-.07-1.41-.07-2.11-.22-.16-.03-.33-.04-.47-.14-.05-.03-.11-.06-.16-.06-.44-.02-.82-.22-1.21-.38-.42-.17-.82-.36-1.22-.56-.59-.29-1.09-.71-1.63-1.09-.49-.34-.89-.79-1.29-1.22-.46-.51-.88-1.05-1.21-1.66-.12-.23-.22-.5-.42-.69-.04-.19.07-.35.1-.52.18-.8.25-1.61.4-2.42.09-.46.02-.95.04-1.42.03-.71,0-1.42-.07-2.13-.07-.68-.16-1.36-.31-2.04-.09-.39-.23-.77-.2-1.19ZM415.55,316.98c1.17-.01,2.15-.36,3.09-.83.38-.19.71-.47,1.04-.75.51-.42.94-.9,1.28-1.47.44-.74.74-1.53.9-2.39.16-.84.11-1.66-.04-2.48-.11-.56-.31-1.12-.59-1.63-.62-1.1-1.43-2.03-2.56-2.66-.54-.3-1.1-.56-1.71-.68-.42-.08-.83-.18-1.27-.17-.27,0-.54.02-.82.02-.57,0-1.12.14-1.64.32-.83.29-1.58.74-2.24,1.34-.81.73-1.38,1.6-1.74,2.61-.22.63-.33,1.28-.37,1.95-.05.8.12,1.55.33,2.3.11.38.31.73.49,1.09.28.58.7,1.05,1.13,1.49.32.33.68.62,1.07.88.53.36,1.11.59,1.7.77.66.2,1.36.31,1.97.26Z"/>
      <path class="cls-14" d="M385.86,299.68c6.95,0,11.49,4.76,11.71,10.37.12,3.21-.97,5.97-3.29,8.2-2.07,1.99-4.59,2.94-7.44,3.02-.85.02-1.72-.09-2.56-.3-1.89-.48-3.55-1.38-4.97-2.69-1.07-.99-1.88-2.19-2.46-3.53-.56-1.29-.87-2.66-.88-4.07-.01-3,.97-5.63,3.11-7.78,2.12-2.13,4.71-3.17,6.78-3.22ZM386.99,316.97c3.67-.14,6.42-3.04,6.33-6.68-.08-3.43-2.89-6.72-7.28-6.32-3.12.28-5.86,2.89-5.81,6.54.05,3.7,3.06,6.58,6.76,6.46Z"/>
    </g>
  </g>
</svg>