<?xml version="1.0" encoding="UTF-8"?>
<svg id="Layer_2" data-name="Layer 2" xmlns="http://www.w3.org/2000/svg" viewBox="0 0 253.64 190.04">
  <defs>
    <style>
      .cls-1 {
        fill: #ccc;
        stroke: #fff;
        stroke-width: .5px;
      }
    </style>
  </defs>
  <g id="Layer_1-2" data-name="Layer 1">
    <path id="GE-AB" class="cls-1" d="M32.24,1.85l1.25,1.14,1.6-.26.82.35,2.6,2.34,2.4-.45.98.31,1.28.75.82.16h1.23s.74.08.74.08l1.91.32,1.11-.04.84-.54.85-.7.57-.33,2.28,1.46,2.38.31,1.14.71,1,1.42,1.21.52,1.27.45,2.09.38,2.89,1.04.94.08,1.8-.99,2.93-3.53.95-.63,1.05-.21.77-.28.81-.48,1.18-.91,1.25.02.71.17,1.01.91.64,1.03.61,1.25.67.57,1.07.43.98.23,2.03.09,1.39.65,1.77.97,1.18.84,1.07,1.07,1.43.78,2.41,1.07,1.42.78,1.55,1.14,4.16-.07,1.42.13,1.53.94.61.61.15.82-.42,1.52.07.48.51.63,1.06.38,1.08.68.88.84,1.21,2.75,1.57.55,1.85-.15,1.06-.36.67-.88.49-.38.73-.12.87.34,1.27,1.05,1.33.86,1.35.65.76,1.02.62,1.08.12,1.98.27.25,1.87,1.11,3.39.81,1.33-.06.59-.52.37-.91.54-.75.67-.62.74-.06,1.56.12,1.49.49,1.46.75,1.75.52,2.63,1.01,2.12.68,1.94,1,2.03,1.49,3.68.71.93.42,1.1,1,1.25,1.74,1.45-.08.89.06-.03.22.26-.51,1.04-.61.95-.91,1.3-2.1.83-.54.52.14.68.36h.44l1.23-.55,1.02-.13.74.21,1.47,1.35.31,7.04.31.61.59.32.85.19,2.79.45.79-.05,1.26.53.6.66.41.66.83.87,1.12.84,2.58,1.28,2.32,1.51.64.79.42,1.15,2.24.85,1.09,1.32,1.96.34,2.81,1.42.91.25,1.19-.16,1.09-.91.89-.09.51.19,3.09,1.65.46.33.92.22.9.04.98-.52.8-.91.6-1.21.43-.25.57.03,1.42.93,1.76,1.83,2.22.64,1.42.13,2.48,1.15h.63s1.25-.29,1.25-.29l2.55-.85,1.3-.79.55-1.15-.69-1.52-.14-.78.24-.8.39-.59.67-.2.74.14,1.46,1.5,3.12,1.37,2.37.22.66.27.46.53.91,1.53.59.45.92-.08,1.52-.76,2.46-.14,1.99.21,1.47,1.32,1.01,1.52,1.13.35,1.11.1,2.76-1.67,2.7-.15,1.06-.35,2.82-2.13,1.02-.07,1.14.37h0l-.34.77-.29,1.16-.98,2-.26,1.01-1.01,2.15-.13.62v4.03s1.1,2.26,1.1,2.26l.1.96-.47,1.16-.28,1.68-1,2.07-.2.89-1.91,3.93-.25.39-1.66,1.71-.94.79-1.13.65-.52.48-.33.48-.54,1.13-.17.61-.14,1.2-.46.95-.24.28-.41.18-1.2.17-.95.34-.85.1-2.22.05-1.53.5-1.96.17-3.29,1.58-1.76.31-1.05.39-1.8.14-.56.14-2.45,1.14-.35.32-.21.43.05.55.4,1.06.17,1.31.6,1.03.22.17.42.1,1.86.04.46.27.16.75-.1.63-.4.91-.14.65v3.78l.28.68.41.41.59.29.4.48.15.46.08,1.8.17.57.87.9.16.51-.07.68-.68,1.47-.66.9-1.03.39-1.64.81-.7.74-.41.75-.66.84-.16.45.17.48,1.44,1.44v.65l.56,1.6.12,2.88.09.48.36.74.08.48.04,6.92.1,1.16.39.89.26,1.02.4.68,2.36,2.42.52.94.66.86.3.62.1.73-.02,2.54-.08.56-.39.96-.26,1.62-.37.91-.26,1.01-.6.67-1.12.58-2,.68-1.11,1.36-.89,1.83-1.56,1.81-.57,1.02-2.43,2.5-.85,1.37-1.74,1.72-.9.48-1.02.77-.99.54-1.75,1.47-1.01.54-1.04.8-7.51,3.66-1.86.29-.87.35-.9.2-1.42.63-.44.32-.5.55-.8,1.3-2.25,2.3-.33.44-.33.67-.75.86-2.9,1.47-3.07,1.43-2.46,1.33h0l-.29-1.1-.13-1.33-.3-1.46-.26-1.68-.3-2.08-.45-4.03-.07-1.29-.23-1.46-.16-2.13-.13-1.06-.99-6.29-.19-.98-.3-1.15-.2-.49-.26-1.46-.16-.76-.13-.85-.43-.97-.3-1.02-.68-2.44-.27-2-2.88-8.62-.79-2.31-.92-1.86-.26-.58-.2-.62-.39-.76-.92-1.56-.95-1.06-.46-.05-1.21.27-.1.04-.29-.71-.4-.31-.39-.67-.75-.93-1.41-.85-1.81-.58-.88.05h-.53l-.72-.22-.52-.14-.59-.13-.4-.27-.95-.4-.49-.13-.52-.14-.53-.04-.33.13h-.32l-.79-.13-.52-.22-.73-.54-.59-.53-1.05-.8-.91-.22-.66-.27-.82-.27-.59-.13-1.7-.45-.69-.22-.69-.18-.62-.4-1.25-.35-1.74-.09-1.14.35-.3.14-.56.44-.62.54-.59.31h-.56l-.46-.12-.52-.11-.79-.26-.95-.14-.36-.08-.52-.54-.1-.22-.36-.94-.07-.71-.19-.27-.3-.17-.43-.58-.36-.45-.75-.53-.16-.27-.07-.53-.79-.98-.69-.5-.29-.53-.43-1.34-.06-1.07-.2-1.24-.29-1.07-.23-1.56-.23-1.92-.72-4.06-.37-1.83-.42-2.01-.43-1.11-.52-1.16-.23-.89-.23-.5-.43-.89-.23-.4-.36-.54-.36-.58-.23-.8-.36-.58-.85-.81-.56-.53-1.15-.45-.91.05-.2.35-.75.27-1.48-.22-.95.04-.66.72-.23.22-.46.49-.29.32-.49.49-.66.18-.56-.23-.22-.18-.2-.22-.36-1.16-.59-.63-.89-.98-.29-.36-.92-.44-.13-.18-.33-.9-.29-.76-.17-.35-1.08-1.39-.49-.45-1.12-.66-.39-.76-.52-.23-.27-.71-.26-.45-.39-.63-.63-1.07-.72-.89-.36-.41-1.41-1.2-.69-.23-1.67-.09-1.15-.58-1.57-.36-1.44-.04-.33-.18h-.43l-.45.13-.56.32h-.33l-.39-.14-.23-.22-.89-.22-2.95-.41-2.23.05-.65.22-.89.09h-.39l-1.38-.18-.56-.13h-.46l-.36.18-.72-.05-.78-.13-1.74-.76-1.22-.99-1.14-.26-.43-.18h-.36l-1.25.62-2.39.67-1.44.32-1.31.09-.76-.05-.36-.13-.49-.32-1.38-1.65-.59-1.16-.49-.63-.88-1.16-.23-.54-.43-.67-.33-.27-.75-.49-.39-.41-.37-.4-.52-.36-.75-.31-.53-.05h-.59l-.46.05-.26.22h-.52l-.89-.04-.39-.18h-.33l-.33.09-.33.27-.26.18-.26.13-.49-.54-.2-.49-.43-.36-.79-.45-.32-.18-.3-.13h-.45l-.27.13-.85-.35-.36-.27-.52-.58-.43-.23-.26-.04-.46-.18-.63-.54-.22-.36-.4-.27-1.28-.67-1.05-.09-1.44.36-1.08.63-.43.36-.42.4-.59.81-.33.4-.59.54.06.4.04.27-.17.31-.13.14-.39-.09-.66-.54-.46-.72-.55-.36-.63-.58-.45-.4-.89-1.3-.39-.31h-.79l-.36-.18-.76-.81-.39-.45-.26-.22-.76-.72-.16-.36-.43-2.24-.39-5.94-.46-3.97-.66-3.14-.52-1.97-.49-1.48-.49-1.04-.46-.67-.33-.31-.75-.45-1.02-.41-.49-.09-.26-.04-.3-.23-.29-.36-.63-.31-.52-.27-1.94-.31-.65-.27-1.51-.36-1.15-.54-1.08-.72-2.36-1.93-.72-.36-1.18.04-.13-.13-.03-.18-1.54-1.04-.79-.49-.17-.09-1.57-1.03-.82-.23h-1.47l-1.48-.09-1.93-.45-1.09-.31-.65-.23-.64.05-.1-2.24.57-2.59-.15-1.26.26-.88.57-.77,2.03-3.86.33-1.17.52-2.91.71-.82,1.34-1.78.12-.94.38-.85.78-.67,2.5-2.6.4-.95-.04-.71-.62-1.68.03-1.2.4-1.04.58-.71.57-.13,2.12.48,1.18-.19,1.47-.57,1.72-.8,1.7-.39h.78s1.16.45,1.16.45l2.31-.04.86-.33.86-.69,1.13-.41,1.45-.12,1.72.27,2.25,1.33Z"/>
  </g>
</svg>