<?xml version="1.0" encoding="UTF-8"?>
<svg id="Layer_2" data-name="Layer 2" xmlns="http://www.w3.org/2000/svg" viewBox="0 0 123.44 74.44">
  <defs>
    <style>
      .cls-1 {
        fill: #ccc;
        stroke: #fff;
        stroke-width: .5px;
      }
    </style>
  </defs>
  <g id="Layer_1-2" data-name="Layer 1">
    <path id="GE-AJ" class="cls-1" d="M26.49.47l.31-.21.88.07.63.09.91.38.49.1,6.16.05.66.13.92.39.5.09,5.14.03,1.04.15,2.6,1.24.57.82.07.73-.07,3.03.09.44.28.35.45.12.8.03,3.21-.06.92.2.5.34.35.38.72,1.19.44.54.5.32,1.2.35.59.28,1.96.32.82.44.29.25.17.54.09,1.23.35.47.41.07.52-.16,3.16-1.58.99-.22,1.2-.45.5-.06,4.1.03.83.03.48.14,2.52,1.19.59.6.64,1.2.54,1.52,1.39-.41.9-.39,2.26-.24.76-.32.85-.2,6.04.1,2.84-2.72,2.3-1.17,1.74-1.46.44-.15.47-.05h2.61s.79.1.79.1l.42.2,1.73,1.65.47.62,1.46,3.01.48.49.42.16.47.05,4.09.03h0l.28,1.16,1.63,3.21.12.45.03.65.02,3.42-.11.81-.39.64-1.7,1.68-.33.68-.05,1.5.14.58.41.85.18.83,1.38,2.77,1.51,1.73.47.85.42.35,1.92.91.85.75,1.24,2.39,2.22,2.21.38.47.24.56.19,1.45.35.72.48,1.31.82,2.69h0l-.61.35-.5.65-.22.69.08,1.79-.14.94-1.46,2.99.36.5.15,1.76-.79.33-.75.68-.89,1.73-1.54-.13-.5.43-.14.83-.47.46-.86.3-.36.36-.71,1.65,1.27,2.15.29,1.25-.03.58-.32.5-.79.04-1.08-.89-.93.04-2.98.91-2.87-.16-.9-.39-1.15-1.14-1.77-1.1-.83-1.47-2.62.05-1.68.27-1.05-.61-1.19-.71-1.36.12-.79.18-1.04-.42-.87-1.07-.87-.53-.86-.28-1.7-1.32-.83-.17-2.08.34-1.69-.64-4.77.22-.65.33-.66-1.93-.36-.36-.61-.21-.73-.78-1.47-.06-2.29.88h-.76s-1,.16-1,.16l-.9.3-1.07.08-.23-1.11-.79-.14-1.14.7-1.77-.38-.96.37-3,2.18-.64.15-.8-.24-2.71-1.48-.97-.13-1.58.02-.5-.07-.37-.64-.04-.86-1.42-1.43-2.58.11-.92,1.26-2.89,2.01-.57.23-1.25.3-.49,1.37-.82.73-.06,1.22-1.23,1.44-.81,1.42-3.15,1.01-.24.83-1.01,1.44-1.61.89-.54-.02-.95-1.25-.48-.96-1.3-.59-1.15-.31-.3-1.11-.76-.42-1.59-.7-1.63-.8-3.01.11-1.52-.33-.25-.5.27-.76.57-.44.1-.61-.33-.71-1.16-.53-3.89,1.71-1.43.35-1.04.16-1.05-.45-2.97-1.97-1.53-1.41-2.97-1.1-.48-.79-.9-.34-1.58-.12-1.12-.52.1-1.17.13-.22.23-.26.06-.57.2-.18.26-.04.23-.17.4-.35.23-1.01.16-1.35.1-1.83-.03-1.53.32-1.84.59-1.74.63-.88.42-.39.2-.35.29-.61.56-.74.49-.4.66-.87.23-.44,1.02-1.27,1.14-1.09,1.08-.96.5-.31.19-.08h.43l.39.17v.44l.13.39.27.66.68-.13.43.13-.06-.31.06-.3.3-.27.19.35.53.05.52-.35.17-.13.36-.48.29-.31.53-.88.65-.69.72-1.05.69-1.23.49-.87.27-.48.16-.57.23-.18.39-.04.26-.57.46-.66.43-1.18.43-1,1.21-3.37.82-2.98.46-.26.23-.27.32-.79.53-.74.75-2.01.14-.66.81-2.24.23-.96.56-3.86.13-2.15.17-2.45-.1-.92-.63-2.72-.03-.84-.13-.65-.03-1.3Z"/>
  </g>
</svg>