<?xml version="1.0" encoding="UTF-8"?>
<svg id="Layer_2" data-name="Layer 2" xmlns="http://www.w3.org/2000/svg" viewBox="0 0 112.17 58.87">
  <defs>
    <style>
      .cls-1 {
        fill: #ccc;
        stroke: #fff;
        stroke-width: .5px;
      }
    </style>
  </defs>
  <g id="Layer_1-2" data-name="Layer 1">
    <path id="GE-GU" class="cls-1" d="M6.31,4.62l.59-.37.42-.12,1.35-.2.9-.35.63-.09,8.01.07.61-.07,1.41-.42,2.21-.25.91-.35,1.77-.31,1.85-.85.66-.2h5.67s.67-.11.67-.11l.76-.33,2.42-.41,1.45.79,1.68.25.92.38,1.63.26.89.38,1.07.28.82.65,2.88,2.9.92.6,1.63.23.76.35.47.09,5.26.06,1.11.13.9.42.97.22,1.09.6.3.42.35.95h0l-.98.53-.74.54-.91.97-.17.28-.11.44-.06,1.48.16.47,1.26,2.5.58.58,1.12.56.45.13,3.21.06.81.13,1.39.71,1.11.84.61.2.49.05h.64l.7-.22.58-.86.38-.89.47-.78.17-.19.42-.17.98-.05,2.95.08.49.11.89.38,1.04.19.67.23,1.74,3.5.24,1.59.39.89.28,1.14.66,1.39.63.97.69.2h1.96l.78.09,2.81,1.34,1.53.84,2.59,2.45.43.21.87.19.91.38,1.26.36.62.48,1.37,1.34.67.4.94.11,5.69-.04.84.06.62.21.48.47,1.13,1.7.2.65.04,8.48.18.98.36.91.14,2.12h0l-3.19-.03-.61.13-.57.35-.81.77-.49.64-.59,1.26-.18,1.44-.13.44-.54.87-.35.22-1.23.19-1.06.41h-.73l-.71-.31-1.45-1.28-.46-.18-.5-.06h-2.22l-.65.14-.74.34-.31.05-2.31.1h0l-4.09-.03-.47-.05-.42-.16-.48-.49-1.46-3.01-.47-.62-1.73-1.65-.42-.2-.79-.09h-2.61s-.47.04-.47.04l-.44.15-1.74,1.46-2.3,1.17-2.84,2.72-6.04-.1-.85.2-.76.32-2.26.24-.9.39-1.39.41-.54-1.52-.64-1.2-.59-.6-2.52-1.19-.48-.14-.83-.03-4.1-.03-.5.06-1.2.45-.99.22-3.16,1.58-.52.16-.41-.07-.35-.47-.09-1.23-.17-.54-.29-.25-.82-.44-1.96-.32-.59-.28-1.2-.35-.5-.32-.44-.54-.72-1.19-.35-.38-.5-.34-.92-.2-3.21.06-.8-.03-.45-.12-.28-.35-.09-.44.07-3.03-.07-.73-.57-.82-2.6-1.24-1.04-.15-5.14-.03-.5-.09-.92-.39-.66-.13-6.16-.05-.49-.1-.91-.38-.63-.09-.88-.07-.31.21h0l-.07-.85-.19-.97-.17-.39-.23-3.43-.19-3.12-.46-3.82-.04-2.29.07-.83-.3-.66-.36-1.58.04-.57.19-.22.2-1.23-.13-.05-.26.62-.1.7-.23.09-.62-.97-.2-.7-.56-.18-.23-.57-.42-.62-.2-.44-.82-1.89-.26-1.1-1.08-1.89-.27-.48-.06-.44-.36-.57-.17-.45-.39-.48v-.26l.16-.31h.27l.23.04-.07-.44.03-.13.17-.13h.16v.44l.33.83.1.31v.53l.23.31.16.44v.22l-.13.17-.1.49.43.26.23.05.09-.22.37.08.29.75h.13l.23-.39.13-.14v-.3l-.19-.36-.07-.17v-.22l.13-.27.23.05.13-.13-.1-.22-.26-.05-.03-.13.13-.17.39-.23.13-.13v-.13l-.13-.22-.46.04-.19-.08-.13-.44-.13-.44-.66-.14-.13-.3-.4-.09-.09-.35-.27.08-.13-.3.2-.36h.36l.43.18.32.13.37-.17.19-.09.23-.09.89-.31.65-.31h.56l.33-.04.23-.13.23-.31.16-.44-.13-.62v-.75l.13-.26.3-.09.23-.09.39-.13.29-.13v-.18l-.32-.26-.27-.09-.39-.09-.16-.04-.23-.18-.14-.34Z"/>
  </g>
</svg>