<?xml version="1.0" encoding="UTF-8"?>
<svg id="Layer_2" data-name="Layer 2" xmlns="http://www.w3.org/2000/svg" viewBox="0 0 40.26 28.31">
  <defs>
    <style>
      .cls-1 {
        fill: #ccc;
        stroke: #fff;
        stroke-width: .5px;
      }
    </style>
  </defs>
  <g id="Layer_1-2" data-name="Layer 1">
    <path id="GE-TB" class="cls-1" d="M.34,15.14l.67-1.82.7-.76,1.16-.61,1.41-.35.69-.38.27-.3.12-.43-.02-.62-.12-.47-.42-.87-.1-.63.06-.61.22-.36.91-.53.57-.12.74.11,1.59.78.36.1.35-.08.99-.45,1.01-.78.87-.46.39-.38.69-1.35.26-1.13.58-1.26.52-.89.29-.23h.38s.82.36.82.36l1.01.25,1.28.61.59.44,1.78,1.69,1.39.71.42.12,1.37.15,1.16.43h0l-.7,1.06-1.36,1.35-.74.58-.93.46-.59.5-.36.5-.09.56.1.39.17.21,1.84.95.58.52.37.49,1.28,2.64.09.78v2.23l.12.44.34.43.99.56,1.13.83,2.53,1.24.94.14h2.13s.47-.07.47-.07l.42-.19,1.02-.91.55-.72.84-1.75.47-.48.75-.21,1.46-.03.57.08.3.27.02.37-.37.78-.24,1.46-.42,1.01-.24,1.61-.59,1.25-.55.9-.26.28-.91.54-2.54,1.2-.76.16-2.12.07-1.52.52-.99.04-.81-.1-6.1-2.97-.98-.1h-3.03l-.79-.15-1.25-.89-1.05-.6-2.25-2.18-.77-.47-1.98-.16-1.03-.42-.6-.12H3.24s-.58-.07-.58-.07l-.31-.27-.03-.37.94-2.29.05-.37-.09-.24-.27-.24-.79-.45-1.06-.32-.76-.14Z"/>
  </g>
</svg>