<?xml version="1.0" encoding="UTF-8"?>
<svg id="Layer_2" data-name="Layer 2" xmlns="http://www.w3.org/2000/svg" viewBox="0 0 185.87 115.32">
  <defs>
    <style>
      .cls-1 {
        fill: #ccc;
        stroke: #fff;
        stroke-width: .5px;
      }
    </style>
  </defs>
  <g id="Layer_1-2" data-name="Layer 1">
    <path id="GE-IM" class="cls-1" d="M48.71.42l1.28,1.52.28.75v1.47s-.13.46-.13.46l-.44,1.04-.08,1.78.17.94.9,1.23.19.6.03,2.93-.12,1.42,1.27.16,1.19-.09.89-.38,1.14-.29.75-.33,1.15-.27,1.14-.53.63-.53,1.07-2.1.31-.28.42-.17,1.21.03,1.17.49,1.5.21.52.3,1.27,1.16.23.16.62.17h.99l1.23-.45,1.07-.16.26-.11.22-.25.31-1.59.42-1.23.2-.36.49-.16.42.03,2.23.9.19.18.55.98.66.68.27.17,1.51.28.17.1.06.16,1.42.44,1.27.91,1.03.59,5.31,5.22.55.75.29,1.13.38.89.17,2.75.38.88.21.77.15.22.36.18.42.05h2.82s.72.16.72.16l2.53,1.28,1.5,1.32,1.15.67,1.1,1.03.46.28h.28l.24-.11,1.19-1.09.53-.29,1.98-.15,1.03-.42.59-.11,1.09.02.91.25,1.21-.75,1.79-.26,1.39-.67,1.13-.86.9-.47,1.57-1.45.64-.81.86-1.77.35-.41,4.23-2.13,1.02-.96.09-.44.13-.21.57-.25h1.82s1.95.12,1.95.12l1.4-.16,1.04-.41.64-.11h6.03s.81.15.81.15l.75.35,1,.25,1.04.43,1.95.19,1.22.47,1.3.11.81-.09.9-.39,1.14-.29.76-.33,1.62-.25,1.06-.43,1.15-.06.62.16,5.67,2.85,1.62.26,1.19.46,1.6.15h0l1.78,1.76.77.54,1.63.26.89.38.46.1,2.93.13,1.03.43.59.1.72-.13,2.39-1.19,1.86-1.56,1.55-.73.97-.1,1.49.05.59.16.82.46.29.26.62,1.03.6,1.26.09.59-.1.58-.35.73-.29,1.13-.36.74-.28,1.13-.95,1.85-.14.41-.04.75.08.6.41.88.34,1.04-1.26.24-1.05.41-1.62.24-1.27.61-1.1.82-.43.2-.82.1-2.72-.03-.77.19-.52.38-.69.7-.4.5-.49.93-1,1.06-.65.47-1.79.83-.51.46-.69,1.35-.24,1-.4.87-.08.43.08.73.36.73.3,1.12.4.89.09.77-.02,3.36-.13.6-.42,1.02-.13,1.69-2.41,1.17-.59.57-.61,1.24-.27,1.14-.35.73-.23,1.62-.39.88-.33,1.25-.64,1.25-1.42,1.59-.73,1.22-.87.73-4.33,2.06-.69.5-.11,1.04-.38.88-.13.79.02,8.55-.1.96-.4.57-1.13.66-1.98,1.77-.93.5-.52.39-1.21,1.16-.61.76-.63,1.24-.13.95.07,1.13.47,1.18.11,1.05h0l-1.07.09-1.03.41-1.35.15-.42.12-1.4.71-1.74,1.63-.64.43-1.64.24-1.03.4-1.35.15-.42.12-1.4.7-1.61,1.4-2.54,1.23-.42.12-1.49.19-.75.34-1.15.27-.75.34-1.15.27-.75.34-1.01.22-.89.39-1.14.26-7.06,3.43-1.58.68-1.49-.69-1.29-.73-.69.15-1.49.13-1.55.5-3.98.05-1.7.53-3.21.05-.63.11-1.07.39-1.78.13-.46.15-.4.27-1.32,1.31-1.42.06-1.01-.1-.27-.09-3.01-1.52-.44-.13-.83-.08-3.12.03-.84-.06-.62-.16-2.02-.98-.67-.1h-2.22l-.7.15-3.75,1.79-.65.49-1.56,1.49-.42.25-1.32.16-1.21-.02-1.01-.14-2.3-1.06-.75-.09-1.29.02-.64-.47-.71-1.21-2.03-2.08h0l-.14-2.12-.36-.91-.18-.98-.04-8.48-.2-.65-1.13-1.7-.48-.47-.62-.21-.84-.06-5.69.04-.94-.11-.67-.4-1.37-1.34-.62-.48-1.26-.36-.91-.38-.87-.19-.43-.21-2.59-2.45-1.53-.84-2.81-1.34-.78-.09h-1.96l-.69-.2-.63-.97-.66-1.39-.28-1.14-.39-.89-.24-1.59-1.74-3.5-.67-.23-1.04-.19-.89-.38-.49-.11-2.95-.08-.98.05-.42.17-.17.19-.47.78-.38.89-.58.86-.7.22h-.64l-.49-.05-.61-.2-1.11-.84-1.39-.71-.81-.13-3.21-.06-.45-.13-1.12-.56-.58-.58-1.26-2.5-.16-.47.06-1.48.11-.44.17-.28.91-.97.74-.54.98-.53h0l.9-.15.69.02.49.1.9.38h.84s.47-.19.47-.19l.95-.69.64-.35.36-.32.18-.28.13-.49.1-1.53.45-1.23.11-1.21v-11.22s-.13-.85-.13-.85l-.47-1.18.09-.6.33-.29,1.5-.48,1.37-.2.34-.27.16-.57v-.99s-.08-1.02-.08-1.02l-.21-.76,1.08-2.02,1.03-1.57,1.11-1.38,1.03-2.03.94-1.21,2.93-5.77,1.3-1.29,1.04-.56.49-.38,2.2-2.13.74-.82.67-1.15,1.57-1.59.38-.49.15-.43.06-.61-.04-6.69.05-.77.16-.41.39-.39,1.89-.88.33-.25.24-.34.15-.79v-3.01s.17-.61.17-.61l.74-.79,1.17-.64.58-.52.37-.5.84-1.76.26-.32.34-.24.97-.15,4.6.05.77-.21.98-.73.55-.24,1.43-.07,1.72.17Z"/>
  </g>
</svg>