<?xml version="1.0" encoding="UTF-8"?>
<svg id="Layer_2" data-name="Layer 2" xmlns="http://www.w3.org/2000/svg" viewBox="0 0 201.36 236.91">
  <defs>
    <style>
      .cls-1 {
        fill: #ccc;
        stroke: #fff;
        stroke-width: .5px;
      }
    </style>
  </defs>
  <g id="Layer_1-2" data-name="Layer 1">
    <path id="GE-KA" class="cls-1" d="M191.3,229.96l-2.41-.06-.95.81-1.34-.14-1.88-2.15-2.7-1.08-2.82-.67-2.29,1.62-3.36,4.84-1.62,3.1-1.61.4-2.69-3.57-.54-3.36-2.69-1.08-2.56,1.35h-2.15l-3.69-4.65-1.7-2.48-3.76-4.58-3.5-3.23-6.87-.27-4.71.54-2.69-1.34h-1.88l-.61.72-2.21.59-.83,3.05-1.61.9-1.9-.71-1.46-.27-3.04.17-2.64-.28-1.09.32-2.33.38-3.82-.25-3.05-1.72-2.49-2.24-2.74-1.46-2-.93-1.42-.37-2.83.11-1.74-.34-2.19-.83-2.41-1.87-2.56-1.28-3.32-2.26-3.11-4.38-1.24-1.83-.47-.85.03-.53.35-.68.64-.14.61-.89.57-1.29.74-.57.49-.67.52-.24.61-.13,1.82-.06.62-.2.27-.42-.16-.48-1.81-1.78-.72-.84-.68-.05-2.48,1.54-.87-.09-1.17-.4-3.16-1.91-1.32-.32-2.09.18-2.14.62-1.97-.77-.66-.5-.63-.75-.4-2.34-.56-1.3-1.58-.73-3.93-.96-2.27-.79-1.06-.64-.66-.63-1.97-2.36-.85-.46-.93-.13h-.93l-.54-.12-1.86,2.28-.96.9-.7.45-.9.12-.9-.07-2.96-1.85-2.56-1.87-1.78-1.88h0l-.33-1.22-2.21-4.28v-.56s.86-1.74.86-1.74l-.05-.37-.42-.54-1.87-1.79-.75-.46-1.01-.23-1.04-.42-2.93-.11-1.5-.51-1.53-.09-.58-.12-.35-.24-.26-.31-1.24-2.47-.11-.58.02-.75.11-.43.41-.85.03-.72-.11-.41-1.62-3.05-.09-.43.05-.59.29-.53,1.68-1.67.78-1.25,1.43-1.57.63-1.22.07-.4-.08-.41-.32-.72-.22-1.46-.39-.88-.29-1.12-.34-.73-.25-1.6-.47-1.17-.05-3.02-.09-.77-1.68-3.36-.27-1.13-.33-.74-.21-.76-.15-.22-.24-.14-.88-.1-2.61.07-.45.11-.73.35-.44.09-.59-.05-.38-.2-.36-.41-.92-1.89-1.4-1.58-.51-.91-.85-1.09-1.74-3.4-1.34-1.38-.91-.66h0v-1.79l-.08-.74-.82-1.65-.79-.76-.92-.49-1.11-.84-1.58-.61,5.7-5.51.26-.12.44-.04,1.38.63.82.66,1.73,1.73.7.54,1.28.6,1.64.25,1.01.4.55-.07,2-.96,1.99-.14,1.17-.45,1.94-.24-.35-1.04-.8-1.51-1.93-1.99-1.01-.78-1.14-.3-1.04-.41-2.32-.12-1.48-.51-1.98-.18-1.04-.42-1.65-.25-.74-.33-.78-.22-.3-.25-.25-1.35-.38-.88-.1-.44-.05-.91.07-.76.24-.55.76-.95.51-.88,1.33-1.44.13-.26.04-.43-1.01-2.08-.28-1.14-.61-1.25-.48-.63-1.38-1.34-.27-.47.06-.47,1.2-2.39.08-.47-.45-1.09-1.58-2.93-.13-.54.05-.28.22-.39,1.69-1.66.39-.66.15-2.58.42-1.01.13-.6.08-3.36.46-1.17.21-1.47.37-.88.3-1.12.56-.76,1.99-1.93.4-.67.1-.93-.04-3.68.05-.46.16-.44.49-.61,3.36-3.31.59-1.03.84-1.1.58-.95.48-.29.99-.23.75-.32,1.65-.22.9-.37,1.13-.28.52-.43,1.27-2.47.17-.72v-.61l-.08-.44-.39-.89-.24-1.39-.45-.91-.23-.7-.95-1.86-.13-.42-.08-3.53.09-.94.3-.54.32-.34.49-.37,1.05-.56,1.89-1.72,1.11-.64.39-.57.11-.9-.05-5.11-.12-.63-.35-.74-.26-.99-.43-1.01v-.89s1.94-3.88,1.94-3.88l.93-1.22,1.02-2.03,1.45-1.61.45-.88.57-.67h0l1.02,2.21,1.27,1.5,1.07.91,1.01.43,1.16.15,1.29-.3,1.33-.54,2.43-.7.82-.41.77-.16,2.97-.2,2.95.34,3.69.12,3-.16,3.15-1.33,2.01-.05,1.53.27.9.43,1.66,1.77,1.24,1.1,3.3,1.9,3.57,1.47,5.72,3.45.44.12,3.4-.29,1.21.05,1.1.76.84,1.09.5,1.33.35,1.55-.06,1.68-.2,1.49-.78,1.54-4.13,6.5-.4,1.15-.19,1.02.56,3.04-.05,1.42-.73,2.09.35.48,1.45,1.26.45.59.19,1.76-.42.64-.79.63-2.51,1.08-1.32.25-.77.3h-1.46s-1.26.6-1.26.6l-.8-.03-.67-.68-.71-.38-.91-.11-.7.23-.39.76-1.62,5.22-1.2,3.24-.87,1.97.27.7.49.49.87.21.61.27,2.03,2.18,2.7.85,3.05,2.03,1.01.43.77.68,2.56,1.65,1.48,1.29.53,1.61.68.17.78.54.88.9.48.78,1.78.97,1.3.22.95.8.72.32,1.12.14,2.23-.53,1.52.09,2.62.92,1.38.78,2.64,2.27.15,1.02-.03,1.82.17,1.27.47,1.11,1.35,1.61.3,1.75.49.49,1.06.69.79.17.85-.54,2.14-1.85.77-.11,1,.39,1.22.3.89-.54,1.17-.29.5.2.34.67.23,1.46.2.51.57.24.73-.11.67-.34.71-.66,1.37-1.77.9.33.63.6.26,2.55.28,1.1.57,1.18,1.18,1.32,1.32.74.66-.2.27-.53.28-2.56.54-.85.48-.2.61.2.67.43,3.79,4.1,1.33.23,1.78-.07,1.35-.38,2.72-1.82,1.14-.24.64.17.52.57.43,1.17,1.16,1.57,3.6,3.34.7,1.33,1.04.3.45.45.2.48-.14.75.06.29,1.88.15.48-.41.25-.71.13-1.38.43-.63.65-.05.57.28.78,1.16.67.39.56-.38,1.16-1.65.52-.34.54.02.24.37.23,1.5-.14,1.51.41,2.16.33.81,3.18,1.94-.41,4.4-.59,1.93-1.27,2.58-.69.95-1.93,1.98-1.84.94-2.57,1.73-5.14,4.63-5.92,1.23-5.26,1.92-3.11,4.06,1.68,8.62,1.67,5.02.24,7.42,2.15,2.63,3.35-3.35,2.05.3-.07.23,3.48,1.51.92,1.83-.51,1.34.28,1.7.82,1.77,1.37,1.72.31.54,1.56,2.17.26,1.38-.31,2.25.51.91,1.14.99,3.99,1.47,3.04,1.34.19.66.05,1.44.31.23,2.65.14.74.39,1.07,1.09.96,1.8.9.73,2.27,1.57,1.73.57,6.81,2.67.12.09.17.64.88.35,2.66.79.15.41.48.34.09-.4.34-.65.4.02.4.49-.1.57-.26.64.07.65h.65s.49-.38.49-.38l.32.41.22.58.57.17.43-1.12.64.34.39.74-.6,1.28-.58.23-.56.07-.34.47-.09.41.88.18.57.02.63.66.34-.32.25-.56-.06-.65.1-.8.17-.32.56.17.3.9-.03,1.46-.42.64.32.17.65-.15.32.25.06.65-.18.73.07.4.81.18,1.22-.37.56.18.15.41-.41.39.14.65.31.58-.27.96.47.82.79.75.15.49-.26.64.32.13,2.77.23.64.85.04.69-.57.61-1.13.6-1.2,1.73-.67.65-.11,3.19-2.07,2.09-.44,1.16-.83.93-1.24,1.88.26,1.55.66,1.06.35.88-.43.4v1.83l-.77.41-.39,1.22.23,4.68-.84,1.32-.08,1.12-.54.72Z"/>
  </g>
</svg>