<?xml version="1.0" encoding="UTF-8"?>
<svg id="Layer_2" data-name="Layer 2" xmlns="http://www.w3.org/2000/svg" viewBox="0 0 132.27 170.28">
  <defs>
    <style>
      .cls-1 {
        fill: #ccc;
        stroke: #fff;
        stroke-width: .5px;
      }
    </style>
  </defs>
  <g id="Layer_1-2" data-name="Layer 1">
    <path id="GE-MM" class="cls-1" d="M101.57,8.92l4.42.63,2.44-.71,3.17-.72,3.03.3,1.3.62,1.11,1.13,1.19,1.94,2.39,2.37,2.85,3.93,2.93,3.71,1,1.01,2.93,2.35.8,1.23.66,3.68.19.42h0l-.57.67-.45.88-1.45,1.61-1.02,2.03-.93,1.22-1.95,3.88v.89s.44,1.01.44,1.01l.26.99.35.74.12.63.05,5.11-.11.9-.39.57-1.11.64-1.89,1.72-1.05.56-.49.37-.32.34-.3.54-.09.94.08,3.53.13.42.95,1.86.23.7.45.91.24,1.39.39.89.08.44v.61l-.17.72-1.27,2.47-.52.43-1.13.28-.9.37-1.65.22-.75.32-.99.23-.48.29-.58.95-.84,1.1-.59,1.03-3.36,3.31-.49.61-.16.44-.05.46.04,3.68-.1.93-.4.67-1.99,1.93-.56.76-.3,1.12-.37.88-.21,1.47-.46,1.17-.08,3.36-.13.6-.42,1.01-.15,2.58-.39.66-1.69,1.66-.22.39-.05.28.13.54,1.58,2.93.45,1.09-.08.47-1.2,2.39-.06.47.27.47,1.38,1.34.48.63.61,1.25.28,1.14,1.01,2.08-.04.43-.13.26-1.33,1.44-.51.88-.76.95-.24.55-.07.76.05.91.1.44.38.88.25,1.35.3.25.78.22.74.33,1.65.25,1.04.42,1.98.18,1.48.51,2.32.12,1.04.41,1.14.3,1.01.78,1.93,1.99.8,1.51.35,1.04-1.94.24-1.17.45-1.99.14-2,.96-.55.07-1.01-.4-1.64-.25-1.28-.6-.7-.54-1.73-1.73-.82-.66-1.38-.63-.44.04-.26.12-5.7,5.51,1.58.61,1.11.84.92.49.79.76.82,1.65.08.74v1.79h0l-1.21.51-1.07.76-.39.06-2.11-.92-3.09-.07-.79-.09-2.16-1.04-1-.26-.73-.33-.41-.08-.41.1-.4.36-.38.74-.83,1.1-.41.77-.87,1.07-.65,1.24-.17.87v2.3s-.2.72-.2.72l-.58.7-1.71,1.63-.59.43-.38.12h0l-1.16-.43-1.37-.15-.42-.12-1.39-.71-1.78-1.69-.59-.44-1.28-.61-1.01-.25-.82-.37h-.38s-.29.24-.29.24l-.52.89-.58,1.26-.26,1.13-.69,1.35-.39.38-.87.46-1.01.78-.99.45-.35.08-.36-.1-1.59-.78-.74-.11-.57.12-.91.53-.22.36-.06.61.1.63.42.87.12.47.02.62-.12.43-.27.3-.69.38-1.41.35-1.16.61-.7.76-.67,1.82h0l-.53.53-1.02,1.38-.66,1.08-.59.39-.64.1-.82-.02-.64-.11-.9-.39-.48-.11-.84-.04-.97.07-1.34-1.2-1.1-1.16-1.7-3.39-.55-.9-.29-.26-.95-.51-1.15-.27-.75-.34-1.15-.29-.9-.39-2.44-.14-.46-.1-1.03-.42-1.89-.2h0l-.22-.33-.2-1.19-.45-1.04-.08-.63.03-.47.27-.49,2.49-1.29.2-.17.17-.39.06-.76-.06-2.96-.12-.62-.43-1.03-.08-1.44.1-1.12.66-1.74.34-.25.44-.08,3.6.05,1,.12,1.01.44.42.04.52-.15.65-.95.72-1.7.08-1.33-.07-1.66-.17-.46-1.38-1.58-.51-.9-.41-.51-2.87-2.83-.83-1-1.83-3.61-.13-.44-.06-.65.02-5.66-.14-.73-.33-.51-.42-.44-3.09-2.93-2,.07-2.36-.06-.47-.1-.91-.38-1.46-.22-1.06-.42-2.11-.23-1.21-.46-.82-.08-.98.06-1.07.4-.98.24-.37.2-.37.4-.9,1.88-.64.99-1.01.62-.78.35-1.2.78.05-4.22-.05-.49-.21-.41-.6-.24h-1.06s-.89.1-.89.1l-.85.34-.39.04-.23-.1-.17-.24-.09-.92.04-1.75.11-.99.39-.89.29-1.12.95-1.84.16-.56-.03-1.05-.43-1.02-.13-.61-.04-2.98.15-1.28.95-1.83.12-.41-.04-.73-.46-1.14.06-.88,1.24-2.48.37-.5.58-.51,1.73-.91.37-.35.48-.79.6-1.26.37-1.39.62-1.01,1.16-.64,1.28-.3.8-.45.27-.28.25-1.37.45-1.19.07-.82-.02-2.51-.14-.63-.23-.4-.67-.84-.43-.77-.94-1.22-.62-1.26-.12-.62-.03-3.8.07-.79.34-.62,1.03-.63.35-.42.17-.93-.11-1.3-.71-1.54-.59-1.11-.26-.33-.45-.32-1.92-.89-.86-.58-.21-.69-.04-1.75-.1-.46-.41-1.06-.06-1.91-.13-.57-.28-.29-.68-.38-1.14-.36-.19-.18-.14-.53.08-.87.42-.88.41-1.22.62-.76,1.08-.62.38-.39.18-.55.06-1.67.14-.42.57-.7,1-.95,1.06-.85-.72-1.11-.33-1.26-.66-1.15-1.03-.61-1.13-.28-.37-.2-.29-.29-.49-.87-.77-.98-.74-1.55-.08-2.22-.2-.52-.34-.2-1.71-.58-2.61-.06-.78-.14-.78-.57-1.98-2.03-.34-.48-1.24-2.52-.24-1.63-.48-1.26H.34l2.5-.56.97-.65.48-.46,1.01-3.58,1.13-2.1,1.13-1.85.9-1.27,2.63-1.83,2.44-1.09,2.76-1.02,2.5-.43,1.76.03,3.88.54,1.53.07.96-.28,1.33-.6,1.3-.78,2.49-2.04,2.08-1.36,2.04-.91,1.76-.37,2.02.07,9.36,1.18,3.09-.31,1.95-.5,1.99-.22,2.95.69,1.2.57,1.12.69.71.93.93.9.79.97,2.25,12.25.77,1.7.64.56,1.12.69,1.13.13.7-.09,1.74-1.03,2.33-5.62,1.67-5.56,2.25-3.73,1.06-1.48,1.06-1.18,1.08-.86,1.59-.47,1.69-.33,2.54-.12,3.24.67,1.9.63,2.91,2.35,4.64,4.59,1.23.43Z"/>
  </g>
</svg>