<?xml version="1.0" encoding="UTF-8"?>
<svg id="Layer_2" data-name="Layer 2" xmlns="http://www.w3.org/2000/svg" viewBox="0 0 185.45 98.18">
  <defs>
    <style>
      .cls-1 {
        fill: #ccc;
        stroke: #fff;
        stroke-width: .5px;
      }
    </style>
  </defs>
  <g id="Layer_1-2" data-name="Layer 1">
    <path id="GE-RL" class="cls-1" d="M118.87,8.91l.35.02,1.51-.4,1.21-.51,2.35-.13,3.05.24,4.3.57,2.85,1.24.95.92,1.06.74,1.32.38,3.09.21.99.15,1.13.34,1.9,1.08,2.41,1.97.76.74.44.88.46,1.66.51.74.94.74.95.93,1.45,1.88.58.26.66.15,1.77-.49,1.13.23,1.06.41,1.24,1,1.05,1.48,1.67,1.23,6.1,2.48,1.97,1.23.97,1.26.54,1.1.17,1.1-.16,1.61-4.35,8.68-1.36,1.19-.78.51-.77.28-.56.87-.52.62-.26.51-.08.59.14,1.28,3.53,5.27,1.05,1.1.69.05.59-.07,2.27-.89.73-.1.77.12,1.69,2.21.91.3.88-.28.97-.94.84-.21.73.26,1.41,1.48.73.12h1.28s1.84.78,1.84.78h0l.12.95.38.89.26.99.39.87.08.44-.08.73-.42,1.01-.18,1.34-.37.89-.3,1.12-.44.51-2.03,1-1.25.92-3.19,1.52-1.02.61-.67,1.14-.18,1.49-.12.42-.45.81-.26.29-1.06.57-1.65.21-.89.38-1.01.24-1.22.46-3.47.08-.51.1-.92.37-.7.09h-7.43s-.44.1-.44.1l-.91.37-1.62.25-.75.33-1,.24-1.06.41-1.63.22-.92.5-.33.43-.19,1.22-.37.9-.1.47v2.06h0l-1.6-.15-1.19-.46-1.62-.26-5.67-2.85-.62-.16-1.15.06-1.06.43-1.62.25-.76.33-1.14.29-.9.39-.81.09-1.3-.11-1.22-.47-1.95-.19-1.04-.43-1-.25-.75-.35-.81-.14h-6.03s-.64.1-.64.1l-1.04.41-1.4.16-1.95-.13h-1.82s-.57.26-.57.26l-.13.21-.09.44-1.02.96-4.23,2.13-.35.41-.86,1.77-.64.81-1.57,1.45-.9.47-1.13.86-1.39.67-1.79.26-1.21.75-.91-.25-1.09-.02-.59.11-1.03.42-1.98.15-.53.29-1.19,1.09-.24.11h-.28l-.46-.28-1.1-1.03-1.15-.67-1.5-1.32-2.53-1.28-.72-.17h-2.82s-.42-.04-.42-.04l-.36-.18-.15-.22-.21-.77-.38-.88-.17-2.75-.38-.89-.29-1.13-.55-.75-5.31-5.22-1.03-.59-1.27-.91-1.42-.44-.06-.16-.17-.1-1.51-.28-.27-.17-.66-.68-.55-.98-.19-.18-2.23-.9-.42-.03-.49.16-.2.36-.42,1.23-.31,1.59-.22.25-.26.11-1.07.16-1.23.45h-.99l-.62-.17-.23-.16-1.27-1.16-.52-.3-1.5-.21-1.17-.49-1.21-.03-.42.17-.31.28-1.07,2.1-.63.53-1.14.53-1.15.27-.75.33-1.14.29-.89.38-1.19.09-1.27-.16.12-1.42-.03-2.93-.19-.6-.9-1.23-.17-.94.08-1.78.44-1.04.12-.46v-1.47s-.27-.75-.27-.75l-1.28-1.52h0l-.82-1.45-.28-1.77-1.25-2.52-.94-1.23-1.03-2.05-.86-1.1-.41-.79-.86-1.1-.4-.78-1.52-1.74-.74-1.53-.09-.94v-4.02s.14-1.08.14-1.08l.34-.52.46-.43,1.15-.62,1.26-.9-1.09-1.05-.63-1.12-1.32-1.5-.55-1.02-.81-.81-3.31-1.65-1.24-.96-1.26-.64-1.28-.34-.9-.39-1.64-.24-1.73-1.02-2.56-2.38-.89-.47-1.13-.88-2.28-1.16-.69-.74-.7-1.23-1.05-.95.74-1.21,2.67-5.42.33-.45.34-.24.64-.13h4.46l.48-.1.9-.37,1.78-.12.59-.19.4-.36,1.29-2,.26-1.62.36-.91.15-1.08.22-.53.24-.15.6-.1,2.52.06.81.14,4.69,2.33.98.1,4.49.04.59.12,1.04.42,1.98.18,1.42.65,3.13,1.62.74.18,4.21.04.76.15.88.39.89.02,2.8-1.36,1.74-1.5.78-.41.96-.75.56-.17.53.13,3,1.54,1.14.29.9.38,1.64.25,1.27.61.73.57,1.98,2,.4.29.44.15.74-.03.88-.37.49-.11,2.23-.11,1.56-.51,6.16-.02.67-.09,1.22-.48.95-.02.51.26.54.91.11.43.12,1.36.53,1.08.43.31h.69s.88-.38.88-.38l1-.25.42-.2.98-.87.57-.78.14-1.06-.05-6.02.05-.47.2-.4.22-.14,2.54-.86.64-.99.37-1.4.55-1.15.37-.5.7-.6,1.02-.55,1.82-1.72,1.23-.69,1.08-1,.68.51.94.48h0l.45.39,1.44.41,6.79,1.6,6.93,3.27,1.06,1.11,1.61.74,1.64.07Z"/>
  </g>
</svg>