<?xml version="1.0" encoding="UTF-8"?>
<svg id="Layer_2" data-name="Layer 2" xmlns="http://www.w3.org/2000/svg" viewBox="0 0 177.89 127.54">
  <defs>
    <style>
      .cls-1 {
        fill: #ccc;
        stroke: #fff;
        stroke-width: .5px;
      }
    </style>
  </defs>
  <g id="Layer_1-2" data-name="Layer 1">
    <path id="GE-SJ" class="cls-1" d="M112.23.86l1.06-.11,1.21-.46.66-.04.66.08,2.31,1.09,2.27.11.63.14.53.35,1.08.98.41.25.47.12,1.3.07.64.11,2.53,1.21.41.36.25.54v2.5s.15.8.15.8l.25.4.43.44,1.43.83.73.8.15.45.16,1.28.35.91.18,1.2.19.38.39.2.45.05h5.99s-.07,1.13-.07,1.13l.06.99.43,1.21.16,1.04.1.26.2.2.51.14,2.14.09,1.41.64.64.48,2.22,2.16.71.34,2.92.07.8-.06.43-.13,2.09-1.05,4.66.02,1.34.15.89.38,1,.26.76.33,1.14.29,1.44.65.86.54.17.22.15.75-.14,2.64h0l-.89,1.09-.46.87-.5.6-4.81,4.72-.59.48-.27.13-.43.03-1-.39-1.5-.22-.89-.39-1.14-.29-.75-.34-1.64-.26-1.18-.46-1.08-.09-1.56.08-.39.15-.88.56-.63,1.61-.15.56-.07,5.79-.1.46-.37.89-.23,1.42-.38.88-.13.63.08.98.45,1.03.09.67.02,4.52-.09,1.03-.4,1.05-.19,1.41-.26.53-.42.36-1.87.87-.45.5-.17.94.07,2.09,9.55.02,1.53-.5,1.96-.15,2.16-.99,1.14-.3.74-.33.74-.07.7.19,4.67,2.29.62.53.2.59v.49s-.09.63-.09.63l-.42.87-.12.47-.03.64.14.63.45.52.75.39,1.12.82,1.64.73-.26.91-.04,1.04.11,1,.38.9.14.81.02,8.39.21.39.26.15,2.08.1.29.09.32.26.55.88.57,1.26.26,1.58.45,1.21.08,3.78-.07,1.01-.18.46-.81,1.05-.65,1.22-.37,1.25-.33.73-.16,1.16.07,1.52.42,1.03.38,1.23.83,1.09.51.9,1.41,1.55.7,1.37.14.93.02,4.05.11.45.38.86.18,1.02.77,3.02h0l-.43.06-1.28-.23-2.27-1.21-5.51.11-1.57.13-3.89-.37-1.04.13-2.55,1.12-3.99,2.74-1.43.56-.83.67-.55.85-1.73,2.16-.68.31-1.78-.34-1.57-.83-1.2-.44-1.67-1.45-1.95-1.09-1,.1-1.73,1.16-1.86.74-2.75-.03-1.49-1.01-1.35-1.26-1.74-1.16-1.06-.29-1.43-.08-1.43.16-4.48,2.19-1.54.84-.65.1-1.63-.1-.96-1.84-.38-1.76-.49-1.32-.53-.97-1.63-1.9-1.53-.62-2.25-.76-.82-.51-1.67-1.26-1.11-.36-1.1-.08-1.18.17-4.44,1.3-5.12,1.77-3.11.66-2.54.21.83-1.75-.21-.86-3.97-8.56-.71-.72-.79-.25-1.11-.15-.89.32-1.79,1.1-2.58-.65-.89-.68.5-.54,1.47-.85,1.22-.53,1-.29,1.83-1.07,1.54-1.57,1.01-.67.07-.47.47-.36.22-.42-.07-.47-.4-.5-.89-.47-.79-.29-1.14-.18-1,.06-.79-.21-.57-.79-3.01-.37-.6-.97-2.18-4.05-.53-.72-4.16-2.23-2.25-.15-1.26-.82-1.39-.51-.97-1.43-.82-1.55-1.9-1.54-.46-.83.03-.93-.68-1.33-.86-.64-.39-.43v-1.98l-.46-.82-2.91-1.05-1.61-2.26-3.16-1.29-.25-.61.1-1.15-.14-1.12-.79-.71-2.3.14-1.15.58-.57,2.37-.61,1.36-.5.4-.58.03-.68-.53-.65-.72-.61-.43-.93-.22-1.55-1.25.04-.9-.32-.75-1.52-1.44-.1-.65.5-1.36.82-.58.87-.29,1.04-.82-.29-3.42.25-.43,1.4-.72.75-.9-.29-1.91-.82-.79-4.25-.1-.49.6-.26.51-.4.51-.43-.11-.86-.61-1.15-.25-2.7-1.54-.79-.03-1.41-.43-1.54-.14-3.59.11-4.07,1.2-.61.08-1.19.4-.79.36-1.68-.24-.58.32-.64,1.18-.9.6h0l-.82-2.69-.48-1.31-.35-.72-.19-1.45-.24-.56-.38-.47-2.22-2.21-1.24-2.39-.85-.75-1.92-.91-.42-.35-.47-.85-1.51-1.73-1.38-2.77-.18-.83-.41-.85-.14-.58.05-1.5.33-.68,1.7-1.68.39-.64.11-.81-.02-3.42-.03-.65-.12-.45-1.63-3.21-.28-1.16h0l2.31-.1.31-.05.74-.34.65-.14h2.22l.5.06.46.18,1.45,1.28.71.31h.73l1.06-.41,1.23-.19.35-.22.54-.87.13-.44.18-1.44.59-1.26.49-.64.81-.77.57-.35.61-.13,3.19.03h0l2.03,2.08.71,1.21.64.47,1.29-.02.75.09,2.3,1.06,1.01.14,1.21.02,1.32-.16.42-.25,1.56-1.49.65-.49,3.75-1.79.7-.15h2.22l.67.1,2.02.98.62.16.84.06,3.12-.03.83.08.44.13,3.01,1.52.27.09,1.01.1,1.42-.06,1.32-1.31.4-.27.46-.15,1.78-.13,1.07-.39.63-.11,3.21-.05,1.7-.53,3.98-.05,1.55-.5,1.49-.13.69-.15,1.29.73,1.49.69,1.58-.68,7.06-3.43,1.14-.26.89-.39,1.01-.22.75-.34,1.15-.27.75-.34,1.15-.27.75-.34,1.49-.19.42-.12,2.54-1.23,1.61-1.4,1.4-.7.42-.12,1.35-.15,1.03-.4,1.64-.24.64-.43,1.74-1.63,1.4-.71.42-.12,1.35-.15,1.03-.41,1.07-.09Z"/>
  </g>
</svg>