<?xml version="1.0" encoding="UTF-8"?>
<svg id="Layer_2" data-name="Layer 2" xmlns="http://www.w3.org/2000/svg" viewBox="0 0 193.67 186.28">
  <defs>
    <style>
      .cls-1 {
        fill: #ccc;
        stroke: #fff;
        stroke-width: .5px;
      }
    </style>
  </defs>
  <g id="Layer_1-2" data-name="Layer 1">
    <path id="GE-SZ" class="cls-1" d="M9.97,167.67l.52.18.1.22.33.18v-.22h.52l.36.35v.22l-.03.18.23.44v.09l-.2.13-.46,1.1-.62.57-.36-.04-.03-.09v-1.06l-.13-.53v-.4l-.13-.31-.16-.31-.1-.35v-.26l.16-.09ZM106.78,4.61l-.31.53-.14.67.19.7.37.4.55.22.96.18,1.03.07,2.37.99,2.4.76,2,1.02,1.85,1.21,1.92.84,1.41.81,1.26,1.14,1.11.59,1.81.44,1.48.62,1.26,1.1,3.58,1.72,1.99.51.37-.26.15-.67-.15-.85-1.45-3.21.22-.78.52-.19,1.66.29.92.03,1.48-.6,1.14-.11,4.87-1.45,1.74-.04,1.33.26.74.55.78.41.67.63,1.03.15,2.62-.63,2.62.92,3.51.22.33.66.11,1.33.33.92.48.48.81.44,1.55.63.88.66.11.78-.37,1.73-.41,1.18h1.44l1.33.15,2.36.33,1.99.41,1.92.85,1.84,1.18,1.73.67.77.41.11.59-.59,1.18-.59.85-.63,1.18.07,1.58.22,1.18,1.1,1.84.77,1.07,2.06,1.95,6.28,4.32,6.46,5.87,1.14,1.18.95,1.66.32.28h0l-.94-.48-.69-.51-1.08.99-1.24.7-1.82,1.72-1.02.55-.7.6-.37.5-.55,1.15-.37,1.4-.64.99-2.55.86-.22.15-.2.4-.05.47.06,6.02-.15,1.06-.57.78-.98.86-.42.21-1,.25-.87.39h-.7l-.42-.32-.53-1.08-.12-1.36-.12-.42-.54-.91-.51-.26-.95.02-1.22.48-.68.1h-6.15s-1.56.52-1.56.52l-2.23.11-.48.11-.88.38-.74.03-.44-.15-.4-.29-1.98-2-.73-.57-1.27-.61-1.64-.24-.9-.39-1.15-.29-2.99-1.54-.54-.13-.56.17-.96.75-.78.42-1.75,1.49-2.79,1.36h-.89s-.88-.41-.88-.41l-.76-.14-4.21-.05-.74-.18-3.12-1.62-1.42-.65-1.98-.18-1.03-.42-.59-.12-4.5-.04-.98-.1-4.68-2.33-.81-.14-2.53-.05-.59.09-.25.15-.22.53-.15,1.08-.35.92-.26,1.62-1.29,2-.41.37-.59.18-1.78.12-.9.37-.48.1h-4.46l-.64.14-.35.24-.33.45-2.67,5.42-.74,1.21,1.05.96.69,1.23.69.73,2.28,1.16,1.12.88.89.46,2.57,2.39,1.73,1.02,1.64.24.89.39,1.28.33,1.26.64,1.24.96,3.31,1.65.81.82.55,1.02,1.32,1.5.64,1.12,1.09,1.05-1.26.9-1.15.62-.46.43-.35.52-.14,1.08v4.02s.1.93.1.93l.74,1.54,1.51,1.73.4.78.85,1.1.41.78.86,1.1,1.03,2.05.94,1.23,1.24,2.52.29,1.77.81,1.46h0l-1.71-.17-1.43.07-.56.24-.98.73-.78.21-4.6-.05-.96.15-.34.24-.26.32-.84,1.77-.36.5-.58.52-1.18.64-.73.8-.19.61v3.01s-.14.79-.14.79l-.24.34-.32.25-1.9.88-.38.39-.16.41-.06.77.05,6.69-.06.61-.16.43-.38.49-1.57,1.58-.67,1.15-.74.82-2.19,2.13-.49.38-1.04.56-1.3,1.3-2.92,5.76-.94,1.22-1.03,2.02-1.06,1.34-1.03,1.58-1.07,2.02.21.75.08,1.02v.99s-.17.57-.17.57l-.34.27-1.37.2-1.49.48-.34.29-.09.6.47,1.18.12.86v11.22s-.1,1.21-.1,1.21l-.45,1.23-.1,1.54-.13.49-.18.28-.37.32-.64.35-.95.69-.47.2h-.84s-.9-.39-.9-.39l-.49-.11h-.69s-.9.14-.9.14h0l-.35-.95-.3-.42-1.05-.58-1-.24-.9-.42-1.11-.13-5.27-.07-.47-.09-.76-.35-1.63-.23-.92-.6-2.89-2.9-.82-.65-1.07-.28-.89-.38-1.63-.26-.92-.38-1.68-.25-1.45-.79-2.42.41-.76.33-.67.12h-5.67s-.66.19-.66.19l-1.84.86-1.77.31-.92.35-2.2.25-1.41.41-.59.07-8.03-.07-.63.1-.9.35-1.35.19-.42.13-.58.36h0l-.2-.49-.36-.26-.66-.31-.46-.18-.16-.09-.82-.13-.1.04-.39.04-.56.13h-.82l-.69.09-.3-.04-.49-.18-.13-.18-.2-.04-.1.13-.33.09h-.46l-.16.13.07.57.26.13.49.79h.2l.03.44-.16.22.2.75.16.79.13.88.33.79.29.53.13.26.03.4-.2.44-.23.22-.13.13-.13.09-.39.13h-.23l-.13-.09-.26-.35-.07-.22-1.15-1.58-.59-.53-.26-.7-.43-.44-.72-1.06-.2-.31-.49-.66-.36-.31-.23-.44-.16-1.72-.23-.44-.13-.09-.69-.13.16-.18.13-.26.18-.13.25-.04-.03-.22-.43.09.07-.22.23-.22.36-.04.1-.13-.07-.26-.43-.13.07-.79-.29-.75-.33-.57-.69-.97.07-.44.33-.79.52-.62.13-.4.33-.44.23-.13.13.09h.2l.1-.09.36.04.03-.13-.95-.31-.59-.75-.62-.31-.52-.04-.2-.26-.16-.18-.43-.26-.2-.13v-.31l.26-.09.43-.62.46-1.37.16-2.52-.46-3.31-.17-.75-.65-1.94-.46-1.99-.43-1.63-.69-2.12-.66-1.86-.39-1.5-.59-1.64-.13-.62-.2-.62-.36-.53-.49-1.19-.29-1.02-.56-.22-.89-.88-.92-.44-.59-.49-.52-.27-.36-.18.13-.62v-.49l.2-.49.16-.53.39-.04.36-.09h.85l.36-.09.36-.13-.07-.35-.2.04-.23.04-.23.22-.23.09-.75-.09h-.2l-.59.31-.26.75-.16.22-.1.44.07.53h-.13l-.07-.09-.16-.44-.03-.4-.43-1.51H.3l2.45-1.33,3.07-1.43,2.9-1.47.75-.86.33-.67.33-.45,2.25-2.3.8-1.3.5-.54.45-.32,1.42-.63.89-.19.87-.35,1.87-.29,7.51-3.66,1.04-.8,1.02-.55,1.75-1.47.99-.54,1.02-.77.9-.48,1.74-1.72.85-1.37,2.44-2.5.56-1.02,1.56-1.81.89-1.82,1.11-1.37,2-.67,1.12-.59.6-.67.26-1.01.37-.9.26-1.63.38-.96.08-.57.02-2.54-.1-.72-.3-.63-.66-.85-.52-.94-2.36-2.43-.4-.67-.26-1.03-.39-.89-.1-1.16-.03-6.92-.09-.48-.35-.73-.09-.49-.12-2.88-.57-1.6v-.65l-1.44-1.44-.17-.48.17-.45.65-.84.41-.76.71-.74,1.63-.81,1.04-.39.66-.9.68-1.47.07-.67-.17-.51-.87-.9-.17-.58-.08-1.79-.15-.46-.4-.48-.59-.29-.41-.42-.28-.68v-3.78l.14-.64.4-.91.09-.63-.16-.74-.46-.27-1.86-.04-.42-.1-.22-.17-.59-1.03-.18-1.31-.39-1.06-.06-.55.21-.43.35-.32,2.46-1.14.55-.13,1.81-.14,1.05-.39,1.76-.32,3.29-1.58,1.96-.17,1.54-.5,2.22-.05.85-.1.95-.34,1.2-.17.41-.18.24-.28.47-.94.14-1.2.17-.61.54-1.13.33-.48.52-.48,1.13-.64.94-.8,1.66-1.71.25-.39,1.91-3.93.2-.89,1-2.07.27-1.69.47-1.15-.09-.96-1.11-2.26v-4.02s.14-.62.14-.62l1.02-2.16.26-1,.97-2,.3-1.17.34-.76h0l.05-.18,3.04.47.74-.15,3.01-1.91h.96s1.22.24,1.22.24l1.11.4.93.69,1.79,1.87,1.11.18,1.77.1.99-.49,1.65-1.75.85-.67h.78s1.89.27,1.89.27l.66-.19.37-.48.33-1,.37-.63.44-.3.85-.23,3.29-.32,1.33-.38,2.47-1.2,1.22-.04.7.29,1.63,1.1,1,.88.19.78-.74.48-.63.56-.16.27Z"/>
  </g>
</svg>