<?xml version="1.0" encoding="UTF-8"?>
<svg id="Layer_2" data-name="Layer 2" xmlns="http://www.w3.org/2000/svg" viewBox="0 0 126.63 122.36">
  <defs>
    <style>
      .cls-1 {
        fill: #ccc;
        stroke: #fff;
        stroke-width: .5px;
      }
    </style>
  </defs>
  <g id="Layer_1-2" data-name="Layer 1">
    <path id="GE-SO" class="cls-1" d="M26.52,28.03l.69.05.59-.07,2.27-.89.73-.1.77.12,1.69,2.21.91.3.88-.28.97-.94.84-.21.73.26,1.41,1.48.73.12h1.28s1.67.73,1.67.73l2.84.87,1.99,1.01.92.02,1.8-.53,1.14-1.04,1.08-1.27,3.11-3.11,1.15-1,1.03-.5,2.99.37,3.16-.98,2.03-.82,1.1-.16.77.04,1.74.69,1.69-.16,1.14-.39,1.29-.85.7-.32,1.46-.33.53,1.55h0l.09.9h0l.21.69h0l.26.49h0l.87,1.78.34.48,1.98,2.03.78.57h0l.31.09h0l3.08.11,1.94.69.19.2.12.41v1.58h0l.02.32h0l.15.6.64,1.27.77.98.49.87h0l.29.29h0l.38.2,1.12.28,1.03.61.66,1.14.33,1.27h0l.72,1.11,1.01.12h0l.52.26h0l.44.65h0l.76,1.47h0l.09.27h0l.04.41-.11.39h0l-.08.11h0l-.34.19-2.18.65-.32.27-.15.58-.03.66.13,1.35.27.52.3.36,1.81,1.68,2.66,1.32.91.14h2.68s1.38.13,1.38.13l1.26.62h0l.26.17h0l1.61,1.42.77.39.93.63.48.2.13.41h0l.34.9h0l.53.76.6.5,2.55,1.25,1.28.34.74.37h0l.54.22h0l1.52.82,1.98,1.86.69.32h0l.3.04h0l1.2.16h0l.75.32h0l.77.22.22.14.15.24.1.88-.03,1.46-.2,1.07-1.53,2.93-.08.41.04.29,1.32,2.61.85,1.1.5.9,1.33,1.48.5.9.84,1.1h0l.16.44h0l.07.8v12.03s-.15,1.11-.15,1.11l-1.82,3.59-.32.44-1.21.74-1.4,1.19-.98.55-.36.41-.56,1.11-.32,1.26-.53,1.13h0l-.44.62-.46.42h0l-1.05.55-.5.37-.42.46-.26.71v.75s.11.58.11.58l.36.74.3,1.12.31.46h0l.92.95h0l.35.44.21.72v.45s-.13.73-.13.73l-.46.52-.75.38-.86.63h0l-.23.09h0l-.38-.04-.95-.72-.77-.4h0l-1.24-.97-.52-.24h0l-.86-.4h-.29l-.38.17-.28.29-.96,1.86-2,.07-2.36-.06-.47-.1-.91-.38-1.46-.22h0l-.28-.1h0l-.78-.32-1.63-.15h0l-.48-.08h0l-1.21-.46-1.31-.07-.49.05-1.07.4-.98.24h0l-.37.2h0l-.37.4-.9,1.88-.64.99h0l-1.01.62h0l-.78.35-1.2.78v-1.9h0l.05-2.32-.05-.49-.21-.41h0l-.28-.17-.83-.1h0l-.55.02h0l-.89.11-.99.38h-.25l-.23-.1h0l-.17-.24h0l-.09-.92.04-1.75h0l.03-.51h0l.08-.48.47-1.17h0l.13-.56h0l.18-.45-1.09-1.27-1.86-1.3-1.87-1.68h0l-2.6-1.12h-1.87l-1.68.56.19,1.87-.19,2.42h0l-1.3.56-1.68-.37h0l-.93-1.5-.37-1.67-.19-1.68-.74-1.68h0l-1.68-1.3-1.49-2.61h0l-.37-2.24-1.5-2.23-1.49-2.61-1.3-1.68h0l-.93-1.12-1.68.19-1.86,2.05h0l-2.43,1.3h0l-2.61.93-2.79,2.05h-2.42l-2.06-.56-1.67,2.99-.37,2.05.13.58h0l.04.25h0l.05,1.17h0l.12.38h0l.07.09-1.91.69h0l-2.23.19h0l-1.68-.56-.19,2.05-2.05,4.29-1.67,1.12h-1.87l-2.05-.56-1.12-1.12-.74-2.05-.37-1.49h0l1.11-1.68h0l-2.79-.93-3.36-.93h-2.23l-.93,1.85-.5-.63h0l-.15-.23h0l-.32-.62h0l-.18-.21h0l-.33-.26-3.4-1.69-5.08-5-1.01-.78h0l.07-1.24.19-.86h0l.29-.61.13-.6.02-3.36-.09-.77-.4-.89-.3-1.12-.42-1.02.02-.73.44-1.01h0l.24-1h0l.54-1.11h0l.15-.24h0l.51-.46h0l1.25-.61h0l.54-.22.65-.47.59-.57.58-.76.38-.72v-1.83l-1.31-1.12-2.05-.37-2.42-.93-1.68-.38-2.24-1.3-.74-1.87-.19-1.86,2.05-.75.19-2.04-1.31-1.68-1.49-.56-.37-1.31v-1.67l.56-3.17v-2.61l-.75-3.54,1.49-3.92.75-3.72h0l.37-2.61h0l-.37-2.61-1.49-1.31h0l-.19-2.23h0l.19-1.87-1.49-1.49.18-2.42H.44l2.61-2.42h0l2.43-.38.93-2.05,1.49-2.05.74-1.86h0l3.17-.37h0l2.24-1.12,2.42-.75,2.05-1.3.19-2.8,4.29-.18,2.42-.93h0l1.12-3.36v-3.35l-.19-2.8h0l-.36-1.43,1,.41,1.97,1.23.97,1.26.54,1.1.17,1.1-.16,1.61-4.35,8.68-1.36,1.19-.78.51-.77.28-.56.87-.52.62-.26.51-.08.59.14,1.28,3.53,5.27,1.05,1.1Z"/>
  </g>
</svg>