<?xml version="1.0" encoding="UTF-8"?>
<svg id="Layer_2" data-name="Layer 2" xmlns="http://www.w3.org/2000/svg" viewBox="0 0 196.29 108.9">
  <defs>
    <style>
      .cls-1 {
        fill: #ccc;
        stroke: #fff;
        stroke-width: .5px;
      }
    </style>
  </defs>
  <g id="Layer_1-2" data-name="Layer 1">
    <path id="GE-KK" class="cls-1" d="M144.22,12.41l.38-.12.59-.43,1.71-1.63.58-.7.19-.72v-2.3s.18-.87.18-.87l.65-1.24.87-1.07.41-.77.83-1.1.38-.74.4-.36.41-.1.41.08.73.33,1,.26,2.16,1.04.79.09,3.09.07,2.11.92.39-.06,1.07-.76,1.21-.51h0l.91.66,1.34,1.38,1.74,3.4.85,1.09.51.91,1.4,1.58.92,1.89.36.41.38.2.59.05.44-.09.73-.35.45-.11,2.61-.07.88.1.24.14.15.22.21.76.33.74.27,1.13,1.68,3.36.09.77.05,3.02.47,1.17.25,1.6.34.73.29,1.12.39.88.22,1.46.32.72.08.41-.07.4-.63,1.22-1.43,1.57-.78,1.25-1.68,1.67-.29.53-.05.59.09.43,1.62,3.05.11.41-.03.72-.41.85-.11.43-.02.75.11.58,1.24,2.47.26.31.35.24.58.12,1.53.09,1.5.51,2.93.11,1.04.42,1.01.23.75.46,1.87,1.79.42.54.05.37-.85,1.74v.56s2.2,4.28,2.2,4.28l.33,1.22h0l-1.51-.83-1.22-.22-.87.26-1.25.94-.89-.06-.91.26-1.54.02-.78.88-.98,2.85-.98.44-1.65,1.17-.86,1.02-1.14,1.01-3.28.66-.77.45-1.71,2.1-1.54,1.32-1.57,2.54-2.21,3.24-1.11,1.26-1.42.86-1.62.46-.98.37-2.67,1.98-2.57,1.08-1.7.56-.74.45-.98-.06-.91.44-3.66,3.24-.41.6-.22,1.32-.67,1.16-1.11.12-1.25-.06-2.67-.71-.54-.02-.93.3-.54.03-.81-.56-1.54-1.36-.5-.12-.61.02-.86-.13-2.09-.94-1.5-2.83-.39-.4-.47.06-.36.21-.68,1.77-.17.75.49.62.13.54-.91.8-.23,2.07,2.07,3.52.84.42,2.24.58,1.73.98.74.48.49.58-.16.68-2.29.19-1.18-.13-2.86-1.39-1.11-.28-.86.09-.9.48-.96-.38-2.31.77h-1.64l-.93.16-1.1.94-1.29.37-.64-.34-.11-1.32-.35-.37-.53-.22-1.11.04-1.19.41-.68-.05-.68-.2-.66-.83-.34-.9-.6-.3-3.58.07-1.28-.39-.78-.12-.36.24-.9,2.02-.36,1.75-.26,2.03-.15.57-.44.56-.4.25-.83.3v-2.18s-.37-.65-.37-.65l-.57.06-1.84.57-2.64,1.38-.43.06-.74-.26-2.67-.56-.79.06-1.55.44-2.34,1.17-.86.13-.79-.02-1.42-.53-3.53-2.38-2.21-2.08-4.07-2.51-.68-.22-.57.06-.69.38-.37.68-.16,1.46.02.54-.3.71-.47.27-.78-.19-2.31-1-2.28-.22-2.4.32-1.32-.31-.39-.33-.46-2.54-.59-.8-.74-.55-.4-.15-1.34,1.45-.5.1-.97-.02-.82-.22-1.44-1.32-.68.03-.48.53-.19.5.1.71.76,1.59.14.58-1.3,3.09-.58.56-.8.52-1.51.45-1.11.09-4.89-.18-2.28-.22-1,.06-1.11.23-1.91,1.01-1.22.38-1.14.13-1.47.51-1.16.85-1.92,2.26-.25.04h0l-.77-3.02-.18-1.02-.38-.86-.11-.45-.02-4.05-.14-.93-.7-1.37-1.41-1.55-.51-.9-.83-1.09-.38-1.23-.42-1.03-.07-1.52.16-1.16.33-.73.37-1.25.65-1.22.81-1.05.18-.46.07-1.01-.08-3.78-.45-1.21-.26-1.58-.57-1.26-.55-.88-.32-.26-.29-.09-2.08-.1-.26-.15-.21-.39-.02-8.39-.14-.81-.38-.9-.11-1,.04-1.04.26-.91-1.64-.73-1.12-.82-.75-.39-.45-.52-.14-.63.03-.64.12-.47.42-.87.1-.63v-.49s-.21-.59-.21-.59l-.62-.53-4.67-2.29-.7-.19-.74.07-.74.33-1.14.3-2.16.99-1.96.15-1.53.5-9.55-.02-.07-2.09.17-.94.45-.5,1.87-.87.42-.36.26-.53.19-1.41.4-1.05.09-1.03-.02-4.52-.09-.67-.45-1.03-.08-.98.13-.63.38-.88.23-1.42.37-.89.1-.46.07-5.79.15-.56.63-1.61.88-.56.39-.15,1.56-.08,1.08.09,1.18.46,1.64.26.75.34,1.14.29.89.39,1.5.22,1,.39.43-.03.27-.13.59-.48,4.81-4.72.5-.6.46-.87.89-1.09h0l4.54.05.88.07.48.15,1.85.91.68.13,9.92.09.68.13,1.07.41,3.49.12.5.11.91.38,1.41.13,1.43-.02.68-.12,3.76-1.77,2.41.08.92.18,1.15.56.79.53,1.92.03,1.47.54,1.23.08,1.03-.19,5.55-2.7,1.4-.37,1.28-.62,1.22-.94.85-.38.37-.08.53.24.68.65.5.64.48.91,1.07,1.18.82.75.56.28.97.11,8.4.05.97-.09.39-.2.37-.4.33-.62.61-.81.13-.37-.03-.24-.66-1.74h0l1.89.2,1.03.42.46.1,2.44.14.9.39,1.15.29.75.34,1.15.27.95.51.29.26.55.9,1.7,3.39,1.1,1.16,1.34,1.2.97-.07.84.04.48.11.9.39.64.11.82.02.64-.1.59-.39.66-1.08,1.02-1.38.53-.53h0l.76.14,1.06.32.79.45.27.24.09.24-.05.37-.94,2.29.03.37.31.27.58.08h4.62s.6.11.6.11l1.03.42,1.98.16.77.47,2.25,2.18,1.05.6,1.25.89.79.15h3.03l.98.1,6.1,2.97.81.1.99-.04,1.52-.52,2.12-.07.76-.16,2.54-1.2.91-.54.26-.28.55-.9.59-1.25.24-1.61.42-1.01.24-1.46.37-.78-.02-.37-.3-.27-.57-.08-1.46.03-.75.21-.47.48-.84,1.75-.55.72-1.02.91-.42.19-.47.08h-2.13s-.94-.15-.94-.15l-2.53-1.24-1.13-.83-.99-.56-.34-.43-.12-.44v-2.23l-.09-.78-1.28-2.64-.37-.49-.58-.52-1.84-.95-.17-.21-.1-.39.09-.56.36-.5.59-.5.93-.46.74-.58,1.36-1.35.7-1.06Z"/>
  </g>
</svg>