<?xml version="1.0" encoding="UTF-8"?>
<svg id="Layer_2" data-name="Layer 2" xmlns="http://www.w3.org/2000/svg" viewBox="0 0 136.54 76.52">
  <defs>
    <style>
      .cls-1 {
        fill: #ccc;
        stroke: #fff;
        stroke-width: .5px;
      }
    </style>
  </defs>
  <g id="Layer_1-2" data-name="Layer 1">
    <path id="GE-SK" class="cls-1" d="M75.81,1.38l1.3,1.68,1.49,2.61,1.5,2.23.37,2.24h0l1.49,2.61,1.68,1.3h0l.74,1.68.19,1.68.37,1.67.93,1.5h0l1.68.37,1.3-.56h0l.19-2.42-.19-1.87,1.68-.56h1.87l2.6,1.12h0l1.87,1.68,1.86,1.3,1.09,1.27-.18.45h0l-.13.56h0l-.47,1.17-.08.48h0l-.03.51h0l-.04,1.75.09.92h0l.17.24h0l.23.1h.25l.99-.38.89-.11h0l.55-.02h0l.83.1.28.17h0l.21.41.05.49-.05,2.32h0v1.9l1.2-.78.78-.35h0l1.01-.62h0l.64-.99.9-1.88.37-.4h0l.37-.2h0l.98-.24,1.07-.4.49-.05,1.31.07,1.21.46h0l.48.08h0l1.63.15.78.32h0l.28.1h0l1.46.22.91.38.47.1,2.36.06,2-.07h0l3.09,2.93.42.44.33.51.14.73-.02,5.66.06.65.13.44,1.83,3.61.83,1,2.87,2.83.41.51.51.9,1.38,1.58.17.46.06.49-.02,2.18-.13.64-.64,1.38-.65.95-.52.15-.42-.04-1.01-.44-1-.12-3.6-.05-.44.08-.34.25-.66,1.74-.1,1.12.08,1.44.43,1.03.12.62.06,2.96-.06.76-.17.39-.2.17-2.49,1.29-.27.49-.03.47.08.63.45,1.04.2,1.19.22.33h0l.66,1.74.03.24-.13.37-.61.81-.33.62-.37.4-.39.2-.97.09-8.4-.05-.97-.11-.56-.28-.82-.75-1.07-1.18-.48-.91-.5-.64-.68-.65-.53-.24-.37.08-.85.38-1.22.94-1.28.62-1.4.37-5.55,2.7-1.03.19-1.23-.08-1.47-.54-1.92-.03-.79-.53-1.15-.56-.92-.18-2.41-.08-3.76,1.77-.68.12-1.43.02-1.41-.13-.91-.38-.5-.11-3.49-.12-1.07-.41-.68-.13-9.92-.09-.68-.13-1.85-.91-.48-.15-.88-.07-4.54-.05h0l.14-2.64-.15-.75-.17-.22-.86-.54-1.44-.65-1.14-.29-.76-.33-1-.26-.89-.38-1.34-.15-4.66-.02-2.09,1.05-.43.13-.8.06-2.92-.07-.71-.34-2.22-2.16-.64-.48-1.41-.64-2.14-.09-.51-.14-.2-.2-.1-.26-.16-1.04-.43-1.21-.06-.99.07-1.14h-5.99s-.45-.04-.45-.04l-.39-.2-.19-.38-.18-1.2-.35-.91-.16-1.28-.15-.45-.73-.8-1.43-.83-.43-.44-.25-.4-.14-.8v-2.5s-.26-.54-.26-.54l-.41-.36-2.53-1.21-.64-.11-1.3-.07-.47-.12-.41-.25-1.08-.98-.53-.35-.63-.14-2.27-.11-2.31-1.09-.66-.08-.66.04-1.21.46-1.06.11h0l-.11-1.05-.47-1.18-.07-1.13.13-.95.63-1.24.61-.76,1.21-1.16.52-.39.93-.5,1.98-1.77,1.13-.66.4-.57.1-.96-.02-8.55.13-.79.38-.88.11-1.04.69-.5,4.33-2.06.87-.73.73-1.22,1.42-1.59.64-1.25.33-1.25.39-.88.23-1.62.35-.73.27-1.14.61-1.24.59-.57,2.41-1.17h0l1.01.78,5.08,5,3.4,1.69.33.26h0l.18.21h0l.32.62h0l.15.23h0l.5.63.93-1.85h2.23l3.36.93,2.79.93h0l-1.11,1.68h0l.37,1.49.74,2.05,1.12,1.12,2.05.56h1.87l1.67-1.12,2.05-4.29.19-2.05,1.68.56h0l2.23-.19h0l1.91-.69-.07-.09h0l-.12-.38h0l-.05-1.17h0l-.04-.25h0l-.13-.58.37-2.05,1.67-2.99,2.05.56h2.43l2.79-2.05,2.61-.93h0l2.43-1.3h0l1.86-2.05,1.68-.19.93,1.12Z"/>
  </g>
</svg>